%TF.GenerationSoftware,Altium Limited,Altium Designer,23.11.1 (41)*%
G04 Layer_Color=128*
%FSLAX45Y45*%
%MOMM*%
%TF.SameCoordinates,5A3C93BB-BC46-40EA-83D2-B686983C8B64*%
%TF.FilePolarity,Positive*%
%TF.FileFunction,Drillmap*%
%TF.Part,Single*%
G01*
G75*
%TA.AperFunction,NonConductor*%
%ADD94C,0.12700*%
D94*
X6324400Y5302500D02*
X6400600D01*
X6362500Y5264400D02*
Y5340600D01*
X6324400Y5048500D02*
X6400600D01*
X6362500Y5010400D02*
Y5086600D01*
X8966000Y5077000D02*
X9196000D01*
X9081000Y4962000D02*
Y5192000D01*
X8764000Y4520001D02*
X8856000D01*
X8810000Y4474001D02*
Y4566001D01*
X8764000Y4070000D02*
X8856000D01*
X8810000Y4024000D02*
Y4116000D01*
X8764000Y4320000D02*
X8856000D01*
X8810000Y4274000D02*
Y4366000D01*
X8966000Y3763000D02*
X9196000D01*
X9081000Y3648000D02*
Y3878000D01*
X8764000Y4770000D02*
X8856000D01*
X8810000Y4724000D02*
Y4816000D01*
X7760000Y5295000D02*
X7840000D01*
X7800000Y5255000D02*
Y5335000D01*
X7360000Y5295000D02*
X7440000D01*
X7400000Y5255000D02*
Y5335000D01*
X7560000Y5295000D02*
X7640000D01*
X7600000Y5255000D02*
Y5335000D01*
X7960000Y5295000D02*
X8040000D01*
X8000000Y5255000D02*
Y5335000D01*
X227500Y3662000D02*
X257500D01*
X242500Y3647000D02*
Y3677000D01*
X227500Y4538000D02*
X257500D01*
X242500Y4523000D02*
Y4553000D01*
X7164400Y3662500D02*
X7240600D01*
X7202500Y3624400D02*
Y3700600D01*
X6910400Y3662500D02*
X6986600D01*
X6948500Y3624400D02*
Y3700600D01*
X935000Y3700000D02*
X965000D01*
X950000Y3685000D02*
Y3715000D01*
X935000Y3500000D02*
X965000D01*
X950000Y3485000D02*
Y3515000D01*
X2335000Y3050000D02*
X2365000D01*
X2350000Y3035000D02*
Y3065000D01*
X2135000Y3050000D02*
X2165000D01*
X2150000Y3035000D02*
Y3065000D01*
X2535000Y3050000D02*
X2565000D01*
X2550000Y3035000D02*
Y3065000D01*
X2835000Y3050000D02*
X2865000D01*
X2850000Y3035000D02*
Y3065000D01*
X3035000Y3050000D02*
X3065000D01*
X3050000Y3035000D02*
Y3065000D01*
X4235000Y3500000D02*
X4265000D01*
X4250000Y3485000D02*
Y3515000D01*
X4235000Y3650000D02*
X4265000D01*
X4250000Y3635000D02*
Y3665000D01*
X4235000Y4900000D02*
X4265000D01*
X4250000Y4885000D02*
Y4915000D01*
X4235000Y5100000D02*
X4265000D01*
X4250000Y5085000D02*
Y5115000D01*
X4035000Y5100000D02*
X4065000D01*
X4050000Y5085000D02*
Y5115000D01*
X3835000Y5100000D02*
X3865000D01*
X3850000Y5085000D02*
Y5115000D01*
X3685000Y5100000D02*
X3715000D01*
X3700000Y5085000D02*
Y5115000D01*
X3385000Y5100000D02*
X3415000D01*
X3400000Y5085000D02*
Y5115000D01*
X3185000Y5100000D02*
X3215000D01*
X3200000Y5085000D02*
Y5115000D01*
X2935000Y5100000D02*
X2965000D01*
X2950000Y5085000D02*
Y5115000D01*
X2735000Y5100000D02*
X2765000D01*
X2750000Y5085000D02*
Y5115000D01*
X2435000Y5100000D02*
X2465000D01*
X2450000Y5085000D02*
Y5115000D01*
X2285000Y5100000D02*
X2315000D01*
X2300000Y5085000D02*
Y5115000D01*
X1985000Y5100000D02*
X2015000D01*
X2000000Y5085000D02*
Y5115000D01*
X1785000Y5100000D02*
X1815000D01*
X1800000Y5085000D02*
Y5115000D01*
X1485000Y5100000D02*
X1515000D01*
X1500000Y5085000D02*
Y5115000D01*
X1335000Y5100000D02*
X1365000D01*
X1350000Y5085000D02*
Y5115000D01*
X1135000Y5100000D02*
X1165000D01*
X1150000Y5085000D02*
Y5115000D01*
X935000Y5100000D02*
X965000D01*
X950000Y5085000D02*
Y5115000D01*
X935000Y4900000D02*
X965000D01*
X950000Y4885000D02*
Y4915000D01*
X935000Y4450000D02*
X965000D01*
X950000Y4435000D02*
Y4465000D01*
X935000Y4650000D02*
X965000D01*
X950000Y4635000D02*
Y4665000D01*
X5615000Y2850000D02*
X5645000D01*
X5630000Y2835000D02*
Y2865000D01*
X5485000Y2850000D02*
X5515000D01*
X5500000Y2835000D02*
Y2865000D01*
X5365000Y2850000D02*
X5395000D01*
X5380000Y2835000D02*
Y2865000D01*
X5110000Y2845000D02*
X5140000D01*
X5125000Y2830000D02*
Y2860000D01*
X4985000Y2920000D02*
X5015000D01*
X5000000Y2905000D02*
Y2935000D01*
X4985000Y3050000D02*
X5015000D01*
X5000000Y3035000D02*
Y3065000D01*
X5480000Y2950000D02*
X5510000D01*
X5495000Y2935000D02*
Y2965000D01*
X5610000Y2950000D02*
X5640000D01*
X5625000Y2935000D02*
Y2965000D01*
X4335000Y3450000D02*
X4365000D01*
X4350000Y3435000D02*
Y3465000D01*
X4335000Y3600000D02*
X4365000D01*
X4350000Y3585000D02*
Y3615000D01*
X4510000Y3450000D02*
X4540000D01*
X4525000Y3435000D02*
Y3465000D01*
X4510000Y3600000D02*
X4540000D01*
X4525000Y3585000D02*
Y3615000D01*
X3960000Y3675000D02*
X3990000D01*
X3975000Y3660000D02*
Y3690000D01*
X4135000Y3600000D02*
X4165000D01*
X4150000Y3585000D02*
Y3615000D01*
X4135000Y3450000D02*
X4165000D01*
X4150000Y3435000D02*
Y3465000D01*
X4135000Y3300000D02*
X4165000D01*
X4150000Y3285000D02*
Y3315000D01*
X3385000Y3250000D02*
X3415000D01*
X3400000Y3235000D02*
Y3265000D01*
X3385000Y3425000D02*
X3415000D01*
X3400000Y3410000D02*
Y3440000D01*
X2485000Y3700000D02*
X2515000D01*
X2500000Y3685000D02*
Y3715000D01*
X2585000Y3700000D02*
X2615000D01*
X2600000Y3685000D02*
Y3715000D01*
X2135000Y3850000D02*
X2165000D01*
X2150000Y3835000D02*
Y3865000D01*
X1485000Y3775000D02*
X1515000D01*
X1500000Y3760000D02*
Y3790000D01*
X1485000Y3675000D02*
X1515000D01*
X1500000Y3660000D02*
Y3690000D01*
X2360000Y3750000D02*
X2390000D01*
X2375000Y3735000D02*
Y3765000D01*
X2360000Y3650000D02*
X2390000D01*
X2375000Y3635000D02*
Y3665000D01*
X2235000Y3650000D02*
X2265000D01*
X2250000Y3635000D02*
Y3665000D01*
X2135000Y3650000D02*
X2165000D01*
X2150000Y3635000D02*
Y3665000D01*
X2035000Y3650000D02*
X2065000D01*
X2050000Y3635000D02*
Y3665000D01*
X1935000Y3650000D02*
X1965000D01*
X1950000Y3635000D02*
Y3665000D01*
X1835000Y3650000D02*
X1865000D01*
X1850000Y3635000D02*
Y3665000D01*
X1735000Y3650000D02*
X1765000D01*
X1750000Y3635000D02*
Y3665000D01*
X1635000Y3650000D02*
X1665000D01*
X1650000Y3635000D02*
Y3665000D01*
X3035000Y3625000D02*
X3065000D01*
X3050000Y3610000D02*
Y3640000D01*
X2935000Y3625000D02*
X2965000D01*
X2950000Y3610000D02*
Y3640000D01*
X2835000Y3625000D02*
X2865000D01*
X2850000Y3610000D02*
Y3640000D01*
X2735000Y3625000D02*
X2765000D01*
X2750000Y3610000D02*
Y3640000D01*
X2635000Y3625000D02*
X2665000D01*
X2650000Y3610000D02*
Y3640000D01*
X2535000Y3625000D02*
X2565000D01*
X2550000Y3610000D02*
Y3640000D01*
X2435000Y3625000D02*
X2465000D01*
X2450000Y3610000D02*
Y3640000D01*
X2235000Y3750000D02*
X2265000D01*
X2250000Y3735000D02*
Y3765000D01*
X2135000Y3750000D02*
X2165000D01*
X2150000Y3735000D02*
Y3765000D01*
X2035000Y3750000D02*
X2065000D01*
X2050000Y3735000D02*
Y3765000D01*
X1935000Y3750000D02*
X1965000D01*
X1950000Y3735000D02*
Y3765000D01*
X1835000Y3750000D02*
X1865000D01*
X1850000Y3735000D02*
Y3765000D01*
X1735000Y3750000D02*
X1765000D01*
X1750000Y3735000D02*
Y3765000D01*
X1635000Y3750000D02*
X1665000D01*
X1650000Y3735000D02*
Y3765000D01*
X2485000Y3775000D02*
X2515000D01*
X2500000Y3760000D02*
Y3790000D01*
X2585000Y3775000D02*
X2615000D01*
X2600000Y3760000D02*
Y3790000D01*
X2685000Y3700000D02*
X2715000D01*
X2700000Y3685000D02*
Y3715000D01*
X2785000Y3700000D02*
X2815000D01*
X2800000Y3685000D02*
Y3715000D01*
X2685000Y3775000D02*
X2715000D01*
X2700000Y3760000D02*
Y3790000D01*
X2785000Y3775000D02*
X2815000D01*
X2800000Y3760000D02*
Y3790000D01*
X2360000Y3850000D02*
X2390000D01*
X2375000Y3835000D02*
Y3865000D01*
X2460000Y3850000D02*
X2490000D01*
X2475000Y3835000D02*
Y3865000D01*
X1935000Y3850000D02*
X1965000D01*
X1950000Y3835000D02*
Y3865000D01*
X2035000Y3850000D02*
X2065000D01*
X2050000Y3835000D02*
Y3865000D01*
X1735000Y3850000D02*
X1765000D01*
X1750000Y3835000D02*
Y3865000D01*
X1835000Y3850000D02*
X1865000D01*
X1850000Y3835000D02*
Y3865000D01*
X2360000Y3925000D02*
X2390000D01*
X2375000Y3910000D02*
Y3940000D01*
X2460000Y3925000D02*
X2490000D01*
X2475000Y3910000D02*
Y3940000D01*
X1385000Y3775000D02*
X1415000D01*
X1400000Y3760000D02*
Y3790000D01*
X1385000Y3675000D02*
X1415000D01*
X1400000Y3660000D02*
Y3690000D01*
X1135000Y3550000D02*
X1165000D01*
X1150000Y3535000D02*
Y3565000D01*
X1135000Y3450000D02*
X1165000D01*
X1150000Y3435000D02*
Y3465000D01*
X1135000Y3750000D02*
X1165000D01*
X1150000Y3735000D02*
Y3765000D01*
X1135000Y3650000D02*
X1165000D01*
X1150000Y3635000D02*
Y3665000D01*
X1135000Y4700000D02*
X1165000D01*
X1150000Y4685000D02*
Y4715000D01*
X1135000Y4600000D02*
X1165000D01*
X1150000Y4585000D02*
Y4615000D01*
X1135000Y4525000D02*
X1165000D01*
X1150000Y4510000D02*
Y4540000D01*
X1135000Y4425000D02*
X1165000D01*
X1150000Y4410000D02*
Y4440000D01*
X1385000Y4325000D02*
X1415000D01*
X1400000Y4310000D02*
Y4340000D01*
X1385000Y4225000D02*
X1415000D01*
X1400000Y4210000D02*
Y4240000D01*
X1485000Y3850000D02*
X1515000D01*
X1500000Y3835000D02*
Y3865000D01*
X1385000Y3850000D02*
X1415000D01*
X1400000Y3835000D02*
Y3865000D01*
X1485000Y3925000D02*
X1515000D01*
X1500000Y3910000D02*
Y3940000D01*
X1385000Y3925000D02*
X1415000D01*
X1400000Y3910000D02*
Y3940000D01*
X2685000Y4175000D02*
X2715000D01*
X2700000Y4160000D02*
Y4190000D01*
X2585000Y4175000D02*
X2615000D01*
X2600000Y4160000D02*
Y4190000D01*
X2760000Y4425000D02*
X2790000D01*
X2775000Y4410000D02*
Y4440000D01*
X2760000Y4525000D02*
X2790000D01*
X2775000Y4510000D02*
Y4540000D01*
X2660000Y4425000D02*
X2690000D01*
X2675000Y4410000D02*
Y4440000D01*
X2660000Y4525000D02*
X2690000D01*
X2675000Y4510000D02*
Y4540000D01*
X2385000Y4400000D02*
X2415000D01*
X2400000Y4385000D02*
Y4415000D01*
X2385000Y4500000D02*
X2415000D01*
X2400000Y4485000D02*
Y4515000D01*
X2085000Y4500000D02*
X2115000D01*
X2100000Y4485000D02*
Y4515000D01*
X2185000Y4500000D02*
X2215000D01*
X2200000Y4485000D02*
Y4515000D01*
X2285000Y4500000D02*
X2315000D01*
X2300000Y4485000D02*
Y4515000D01*
X2085000Y4400000D02*
X2115000D01*
X2100000Y4385000D02*
Y4415000D01*
X2185000Y4400000D02*
X2215000D01*
X2200000Y4385000D02*
Y4415000D01*
X2285000Y4400000D02*
X2315000D01*
X2300000Y4385000D02*
Y4415000D01*
X3260000Y4850000D02*
X3290000D01*
X3275000Y4835000D02*
Y4865000D01*
X3160000Y4850000D02*
X3190000D01*
X3175000Y4835000D02*
Y4865000D01*
X3060000Y4850000D02*
X3090000D01*
X3075000Y4835000D02*
Y4865000D01*
X2960000Y4850000D02*
X2990000D01*
X2975000Y4835000D02*
Y4865000D01*
X2860000Y4850000D02*
X2890000D01*
X2875000Y4835000D02*
Y4865000D01*
X2760000Y4850000D02*
X2790000D01*
X2775000Y4835000D02*
Y4865000D01*
X2660000Y4850000D02*
X2690000D01*
X2675000Y4835000D02*
Y4865000D01*
X2560000Y4850000D02*
X2590000D01*
X2575000Y4835000D02*
Y4865000D01*
X2460000Y4850000D02*
X2490000D01*
X2475000Y4835000D02*
Y4865000D01*
X2360000Y4850000D02*
X2390000D01*
X2375000Y4835000D02*
Y4865000D01*
X2260000Y4850000D02*
X2290000D01*
X2275000Y4835000D02*
Y4865000D01*
X2160000Y4850000D02*
X2190000D01*
X2175000Y4835000D02*
Y4865000D01*
X2060000Y4850000D02*
X2090000D01*
X2075000Y4835000D02*
Y4865000D01*
X1960000Y4850000D02*
X1990000D01*
X1975000Y4835000D02*
Y4865000D01*
X1860000Y4850000D02*
X1890000D01*
X1875000Y4835000D02*
Y4865000D01*
X1760000Y4850000D02*
X1790000D01*
X1775000Y4835000D02*
Y4865000D01*
X1660000Y4850000D02*
X1690000D01*
X1675000Y4835000D02*
Y4865000D01*
X1560000Y4850000D02*
X1590000D01*
X1575000Y4835000D02*
Y4865000D01*
X1460000Y4850000D02*
X1490000D01*
X1475000Y4835000D02*
Y4865000D01*
X1360000Y4850000D02*
X1390000D01*
X1375000Y4835000D02*
Y4865000D01*
X1260000Y4850000D02*
X1290000D01*
X1275000Y4835000D02*
Y4865000D01*
X2860000Y4600000D02*
X2890000D01*
X2875000Y4585000D02*
Y4615000D01*
X2760000Y4600000D02*
X2790000D01*
X2775000Y4585000D02*
Y4615000D01*
X2660000Y4600000D02*
X2690000D01*
X2675000Y4585000D02*
Y4615000D01*
X2560000Y4600000D02*
X2590000D01*
X2575000Y4585000D02*
Y4615000D01*
X2460000Y4600000D02*
X2490000D01*
X2475000Y4585000D02*
Y4615000D01*
X2360000Y4600000D02*
X2390000D01*
X2375000Y4585000D02*
Y4615000D01*
X2260000Y4600000D02*
X2290000D01*
X2275000Y4585000D02*
Y4615000D01*
X1985000Y4400000D02*
X2015000D01*
X2000000Y4385000D02*
Y4415000D01*
X1885000Y4400000D02*
X1915000D01*
X1900000Y4385000D02*
Y4415000D01*
X1785000Y4400000D02*
X1815000D01*
X1800000Y4385000D02*
Y4415000D01*
X1685000Y4400000D02*
X1715000D01*
X1700000Y4385000D02*
Y4415000D01*
X1585000Y4400000D02*
X1615000D01*
X1600000Y4385000D02*
Y4415000D01*
X1485000Y4400000D02*
X1515000D01*
X1500000Y4385000D02*
Y4415000D01*
X1385000Y4400000D02*
X1415000D01*
X1400000Y4385000D02*
Y4415000D01*
X1985000Y4500000D02*
X2015000D01*
X2000000Y4485000D02*
Y4515000D01*
X1885000Y4500000D02*
X1915000D01*
X1900000Y4485000D02*
Y4515000D01*
X1785000Y4500000D02*
X1815000D01*
X1800000Y4485000D02*
Y4515000D01*
X1685000Y4500000D02*
X1715000D01*
X1700000Y4485000D02*
Y4515000D01*
X1585000Y4500000D02*
X1615000D01*
X1600000Y4485000D02*
Y4515000D01*
X1485000Y4500000D02*
X1515000D01*
X1500000Y4485000D02*
Y4515000D01*
X1385000Y4500000D02*
X1415000D01*
X1400000Y4485000D02*
Y4515000D01*
X2160000Y4600000D02*
X2190000D01*
X2175000Y4585000D02*
Y4615000D01*
X2060000Y4600000D02*
X2090000D01*
X2075000Y4585000D02*
Y4615000D01*
X1960000Y4600000D02*
X1990000D01*
X1975000Y4585000D02*
Y4615000D01*
X1860000Y4600000D02*
X1890000D01*
X1875000Y4585000D02*
Y4615000D01*
X1760000Y4600000D02*
X1790000D01*
X1775000Y4585000D02*
Y4615000D01*
X1660000Y4600000D02*
X1690000D01*
X1675000Y4585000D02*
Y4615000D01*
X1560000Y4600000D02*
X1590000D01*
X1575000Y4585000D02*
Y4615000D01*
X1135000Y3900000D02*
X1165000D01*
X1150000Y3885000D02*
Y3915000D01*
X1035000Y3900000D02*
X1065000D01*
X1050000Y3885000D02*
Y3915000D01*
X835000Y3900000D02*
X865000D01*
X850000Y3885000D02*
Y3915000D01*
X735000Y3900000D02*
X765000D01*
X750000Y3885000D02*
Y3915000D01*
X635000Y3900000D02*
X665000D01*
X650000Y3885000D02*
Y3915000D01*
X535000Y3825000D02*
X565000D01*
X550000Y3810000D02*
Y3840000D01*
X635000Y3825000D02*
X665000D01*
X650000Y3810000D02*
Y3840000D01*
X735000Y3825000D02*
X765000D01*
X750000Y3810000D02*
Y3840000D01*
X835000Y3825000D02*
X865000D01*
X850000Y3810000D02*
Y3840000D01*
X935000Y3825000D02*
X965000D01*
X950000Y3810000D02*
Y3840000D01*
X1035000Y3825000D02*
X1065000D01*
X1050000Y3810000D02*
Y3840000D01*
X1135000Y3825000D02*
X1165000D01*
X1150000Y3810000D02*
Y3840000D01*
X535000Y4350000D02*
X565000D01*
X550000Y4335000D02*
Y4365000D01*
X635000Y4350000D02*
X665000D01*
X650000Y4335000D02*
Y4365000D01*
X735000Y4350000D02*
X765000D01*
X750000Y4335000D02*
Y4365000D01*
X835000Y4350000D02*
X865000D01*
X850000Y4335000D02*
Y4365000D01*
X935000Y4350000D02*
X965000D01*
X950000Y4335000D02*
Y4365000D01*
X1035000Y4350000D02*
X1065000D01*
X1050000Y4335000D02*
Y4365000D01*
X1135000Y4350000D02*
X1165000D01*
X1150000Y4335000D02*
Y4365000D01*
X535000Y4275000D02*
X565000D01*
X550000Y4260000D02*
Y4290000D01*
X635000Y4275000D02*
X665000D01*
X650000Y4260000D02*
Y4290000D01*
X735000Y4275000D02*
X765000D01*
X750000Y4260000D02*
Y4290000D01*
X835000Y4275000D02*
X865000D01*
X850000Y4260000D02*
Y4290000D01*
X935000Y4275000D02*
X965000D01*
X950000Y4260000D02*
Y4290000D01*
X1035000Y4275000D02*
X1065000D01*
X1050000Y4260000D02*
Y4290000D01*
X1135000Y4275000D02*
X1165000D01*
X1150000Y4260000D02*
Y4290000D01*
X642500Y3977500D02*
X672500D01*
X657500Y3962500D02*
Y3992500D01*
X742500Y3977500D02*
X772500D01*
X757500Y3962500D02*
Y3992500D01*
X842500Y3977500D02*
X872500D01*
X857500Y3962500D02*
Y3992500D01*
X1042500Y3977500D02*
X1072500D01*
X1057500Y3962500D02*
Y3992500D01*
X1142500Y3977500D02*
X1172500D01*
X1157500Y3962500D02*
Y3992500D01*
X1637500Y3935000D02*
X1667500D01*
X1652500Y3920000D02*
Y3950000D01*
X1737500Y3935000D02*
X1767500D01*
X1752500Y3920000D02*
Y3950000D01*
X1837500Y3935000D02*
X1867500D01*
X1852500Y3920000D02*
Y3950000D01*
X1937500Y3935000D02*
X1967500D01*
X1952500Y3920000D02*
Y3950000D01*
X2037500Y3935000D02*
X2067500D01*
X2052500Y3920000D02*
Y3950000D01*
X2137500Y3935000D02*
X2167500D01*
X2152500Y3920000D02*
Y3950000D01*
X1635000Y4225000D02*
X1665000D01*
X1650000Y4210000D02*
Y4240000D01*
X1735000Y4225000D02*
X1765000D01*
X1750000Y4210000D02*
Y4240000D01*
X1835000Y4225000D02*
X1865000D01*
X1850000Y4210000D02*
Y4240000D01*
X1935000Y4225000D02*
X1965000D01*
X1950000Y4210000D02*
Y4240000D01*
X2035000Y4225000D02*
X2065000D01*
X2050000Y4210000D02*
Y4240000D01*
X2135000Y4225000D02*
X2165000D01*
X2150000Y4210000D02*
Y4240000D01*
X2235000Y4225000D02*
X2265000D01*
X2250000Y4210000D02*
Y4240000D01*
X1635000Y4150000D02*
X1665000D01*
X1650000Y4135000D02*
Y4165000D01*
X1735000Y4150000D02*
X1765000D01*
X1750000Y4135000D02*
Y4165000D01*
X1835000Y4150000D02*
X1865000D01*
X1850000Y4135000D02*
Y4165000D01*
X1935000Y4150000D02*
X1965000D01*
X1950000Y4135000D02*
Y4165000D01*
X2035000Y4150000D02*
X2065000D01*
X2050000Y4135000D02*
Y4165000D01*
X2135000Y4150000D02*
X2165000D01*
X2150000Y4135000D02*
Y4165000D01*
X2235000Y4150000D02*
X2265000D01*
X2250000Y4135000D02*
Y4165000D01*
X1135000Y4200000D02*
X1165000D01*
X1150000Y4185000D02*
Y4215000D01*
X1035000Y4200000D02*
X1065000D01*
X1050000Y4185000D02*
Y4215000D01*
X935000Y4200000D02*
X965000D01*
X950000Y4185000D02*
Y4215000D01*
X835000Y4200000D02*
X865000D01*
X850000Y4185000D02*
Y4215000D01*
X735000Y4200000D02*
X765000D01*
X750000Y4185000D02*
Y4215000D01*
X635000Y4200000D02*
X665000D01*
X650000Y4185000D02*
Y4215000D01*
X535000Y4200000D02*
X565000D01*
X550000Y4185000D02*
Y4215000D01*
X6985000Y2750000D02*
X7015000D01*
X7000000Y2735000D02*
Y2765000D01*
X6485000Y2750000D02*
X6515000D01*
X6500000Y2735000D02*
Y2765000D01*
X6235000Y2750000D02*
X6265000D01*
X6250000Y2735000D02*
Y2765000D01*
X5985000Y2750000D02*
X6015000D01*
X6000000Y2735000D02*
Y2765000D01*
X5485000Y2750000D02*
X5515000D01*
X5500000Y2735000D02*
Y2765000D01*
X5735000Y2750000D02*
X5765000D01*
X5750000Y2735000D02*
Y2765000D01*
X5235000Y2750000D02*
X5265000D01*
X5250000Y2735000D02*
Y2765000D01*
X4985000Y2750000D02*
X5015000D01*
X5000000Y2735000D02*
Y2765000D01*
X4735000Y2750000D02*
X4765000D01*
X4750000Y2735000D02*
Y2765000D01*
X4485000Y2750000D02*
X4515000D01*
X4500000Y2735000D02*
Y2765000D01*
X4235000Y2750000D02*
X4265000D01*
X4250000Y2735000D02*
Y2765000D01*
X3985000Y2750000D02*
X4015000D01*
X4000000Y2735000D02*
Y2765000D01*
X3735000Y2750000D02*
X3765000D01*
X3750000Y2735000D02*
Y2765000D01*
X3485000Y2750000D02*
X3515000D01*
X3500000Y2735000D02*
Y2765000D01*
X3235000Y2750000D02*
X3265000D01*
X3250000Y2735000D02*
Y2765000D01*
X2985000Y2750000D02*
X3015000D01*
X3000000Y2735000D02*
Y2765000D01*
X2735000Y2750000D02*
X2765000D01*
X2750000Y2735000D02*
Y2765000D01*
X2485000Y2750000D02*
X2515000D01*
X2500000Y2735000D02*
Y2765000D01*
X7485000Y2500000D02*
X7515000D01*
X7500000Y2485000D02*
Y2515000D01*
X7235000Y2500000D02*
X7265000D01*
X7250000Y2485000D02*
Y2515000D01*
X6985000Y2500000D02*
X7015000D01*
X7000000Y2485000D02*
Y2515000D01*
X6485000Y2250000D02*
X6515000D01*
X6500000Y2235000D02*
Y2265000D01*
X5985000Y2250000D02*
X6015000D01*
X6000000Y2235000D02*
Y2265000D01*
X6235000Y2250000D02*
X6265000D01*
X6250000Y2235000D02*
Y2265000D01*
X5735000Y2250000D02*
X5765000D01*
X5750000Y2235000D02*
Y2265000D01*
X5485000Y2250000D02*
X5515000D01*
X5500000Y2235000D02*
Y2265000D01*
X5235000Y2250000D02*
X5265000D01*
X5250000Y2235000D02*
Y2265000D01*
X4985000Y2250000D02*
X5015000D01*
X5000000Y2235000D02*
Y2265000D01*
X4735000Y2250000D02*
X4765000D01*
X4750000Y2235000D02*
Y2265000D01*
X4485000Y2250000D02*
X4515000D01*
X4500000Y2235000D02*
Y2265000D01*
X4235000Y2250000D02*
X4265000D01*
X4250000Y2235000D02*
Y2265000D01*
X3985000Y2250000D02*
X4015000D01*
X4000000Y2235000D02*
Y2265000D01*
X3735000Y2250000D02*
X3765000D01*
X3750000Y2235000D02*
Y2265000D01*
X3485000Y2250000D02*
X3515000D01*
X3500000Y2235000D02*
Y2265000D01*
X3235000Y2250000D02*
X3265000D01*
X3250000Y2235000D02*
Y2265000D01*
X2735000Y2250000D02*
X2765000D01*
X2750000Y2235000D02*
Y2265000D01*
X2985000Y2250000D02*
X3015000D01*
X3000000Y2235000D02*
Y2265000D01*
X2235000Y2500000D02*
X2265000D01*
X2250000Y2485000D02*
Y2515000D01*
X2485000Y2250000D02*
X2515000D01*
X2500000Y2235000D02*
Y2265000D01*
X2235000Y2250000D02*
X2265000D01*
X2250000Y2235000D02*
Y2265000D01*
X2485000Y2000000D02*
X2515000D01*
X2500000Y1985000D02*
Y2015000D01*
X2235000Y2000000D02*
X2265000D01*
X2250000Y1985000D02*
Y2015000D01*
X735000Y3250000D02*
X765000D01*
X750000Y3235000D02*
Y3265000D01*
X985000Y3250000D02*
X1015000D01*
X1000000Y3235000D02*
Y3265000D01*
X1235000Y3250000D02*
X1265000D01*
X1250000Y3235000D02*
Y3265000D01*
X1485000Y3250000D02*
X1515000D01*
X1500000Y3235000D02*
Y3265000D01*
X1985000Y3250000D02*
X2015000D01*
X2000000Y3235000D02*
Y3265000D01*
X735000Y3000000D02*
X765000D01*
X750000Y2985000D02*
Y3015000D01*
X985000Y3000000D02*
X1015000D01*
X1000000Y2985000D02*
Y3015000D01*
X1235000Y3000000D02*
X1265000D01*
X1250000Y2985000D02*
Y3015000D01*
X1485000Y3000000D02*
X1515000D01*
X1500000Y2985000D02*
Y3015000D01*
X1735000Y3000000D02*
X1765000D01*
X1750000Y2985000D02*
Y3015000D01*
X735000Y2750000D02*
X765000D01*
X750000Y2735000D02*
Y2765000D01*
X985000Y2750000D02*
X1015000D01*
X1000000Y2735000D02*
Y2765000D01*
X1235000Y2750000D02*
X1265000D01*
X1250000Y2735000D02*
Y2765000D01*
X1485000Y2750000D02*
X1515000D01*
X1500000Y2735000D02*
Y2765000D01*
X1735000Y2750000D02*
X1765000D01*
X1750000Y2735000D02*
Y2765000D01*
X1985000Y2750000D02*
X2015000D01*
X2000000Y2735000D02*
Y2765000D01*
X735000Y2500000D02*
X765000D01*
X750000Y2485000D02*
Y2515000D01*
X985000Y2500000D02*
X1015000D01*
X1000000Y2485000D02*
Y2515000D01*
X1235000Y2500000D02*
X1265000D01*
X1250000Y2485000D02*
Y2515000D01*
X1485000Y2500000D02*
X1515000D01*
X1500000Y2485000D02*
Y2515000D01*
X1735000Y2500000D02*
X1765000D01*
X1750000Y2485000D02*
Y2515000D01*
X1985000Y2500000D02*
X2015000D01*
X2000000Y2485000D02*
Y2515000D01*
X735000Y2250000D02*
X765000D01*
X750000Y2235000D02*
Y2265000D01*
X985000Y2250000D02*
X1015000D01*
X1000000Y2235000D02*
Y2265000D01*
X1235000Y2250000D02*
X1265000D01*
X1250000Y2235000D02*
Y2265000D01*
X1485000Y2250000D02*
X1515000D01*
X1500000Y2235000D02*
Y2265000D01*
X1735000Y2250000D02*
X1765000D01*
X1750000Y2235000D02*
Y2265000D01*
X1985000Y2250000D02*
X2015000D01*
X2000000Y2235000D02*
Y2265000D01*
X1985000Y2000000D02*
X2015000D01*
X2000000Y1985000D02*
Y2015000D01*
X1735000Y2000000D02*
X1765000D01*
X1750000Y1985000D02*
Y2015000D01*
X1485000Y2000000D02*
X1515000D01*
X1500000Y1985000D02*
Y2015000D01*
X1235000Y2000000D02*
X1265000D01*
X1250000Y1985000D02*
Y2015000D01*
X985000Y2000000D02*
X1015000D01*
X1000000Y1985000D02*
Y2015000D01*
X735000Y2000000D02*
X765000D01*
X750000Y1985000D02*
Y2015000D01*
X2735000Y1750000D02*
X2765000D01*
X2750000Y1735000D02*
Y1765000D01*
X2985000Y1750000D02*
X3015000D01*
X3000000Y1735000D02*
Y1765000D01*
X3235000Y1750000D02*
X3265000D01*
X3250000Y1735000D02*
Y1765000D01*
X3485000Y1750000D02*
X3515000D01*
X3500000Y1735000D02*
Y1765000D01*
X3735000Y1750000D02*
X3765000D01*
X3750000Y1735000D02*
Y1765000D01*
X3985000Y1750000D02*
X4015000D01*
X4000000Y1735000D02*
Y1765000D01*
X4235000Y1750000D02*
X4265000D01*
X4250000Y1735000D02*
Y1765000D01*
X4485000Y1750000D02*
X4515000D01*
X4500000Y1735000D02*
Y1765000D01*
X4735000Y1750000D02*
X4765000D01*
X4750000Y1735000D02*
Y1765000D01*
X4985000Y1750000D02*
X5015000D01*
X5000000Y1735000D02*
Y1765000D01*
X5235000Y1750000D02*
X5265000D01*
X5250000Y1735000D02*
Y1765000D01*
X5485000Y1750000D02*
X5515000D01*
X5500000Y1735000D02*
Y1765000D01*
X5735000Y1750000D02*
X5765000D01*
X5750000Y1735000D02*
Y1765000D01*
X5985000Y1750000D02*
X6015000D01*
X6000000Y1735000D02*
Y1765000D01*
X6235000Y1750000D02*
X6265000D01*
X6250000Y1735000D02*
Y1765000D01*
X6485000Y1750000D02*
X6515000D01*
X6500000Y1735000D02*
Y1765000D01*
X6735000Y1750000D02*
X6765000D01*
X6750000Y1735000D02*
Y1765000D01*
X7235000Y1750000D02*
X7265000D01*
X7250000Y1735000D02*
Y1765000D01*
X6985000Y1750000D02*
X7015000D01*
X7000000Y1735000D02*
Y1765000D01*
X2735000Y2000000D02*
X2765000D01*
X2750000Y1985000D02*
Y2015000D01*
X2985000Y2000000D02*
X3015000D01*
X3000000Y1985000D02*
Y2015000D01*
X3235000Y2000000D02*
X3265000D01*
X3250000Y1985000D02*
Y2015000D01*
X3485000Y2000000D02*
X3515000D01*
X3500000Y1985000D02*
Y2015000D01*
X3735000Y2000000D02*
X3765000D01*
X3750000Y1985000D02*
Y2015000D01*
X3985000Y2000000D02*
X4015000D01*
X4000000Y1985000D02*
Y2015000D01*
X4235000Y2000000D02*
X4265000D01*
X4250000Y1985000D02*
Y2015000D01*
X4485000Y2000000D02*
X4515000D01*
X4500000Y1985000D02*
Y2015000D01*
X4735000Y2000000D02*
X4765000D01*
X4750000Y1985000D02*
Y2015000D01*
X4985000Y2000000D02*
X5015000D01*
X5000000Y1985000D02*
Y2015000D01*
X5235000Y2000000D02*
X5265000D01*
X5250000Y1985000D02*
Y2015000D01*
X5735000Y2000000D02*
X5765000D01*
X5750000Y1985000D02*
Y2015000D01*
X5485000Y2000000D02*
X5515000D01*
X5500000Y1985000D02*
Y2015000D01*
X5985000Y2000000D02*
X6015000D01*
X6000000Y1985000D02*
Y2015000D01*
X6235000Y2000000D02*
X6265000D01*
X6250000Y1985000D02*
Y2015000D01*
X6485000Y2000000D02*
X6515000D01*
X6500000Y1985000D02*
Y2015000D01*
X6735000Y2000000D02*
X6765000D01*
X6750000Y1985000D02*
Y2015000D01*
X6985000Y2000000D02*
X7015000D01*
X7000000Y1985000D02*
Y2015000D01*
X7235000Y2000000D02*
X7265000D01*
X7250000Y1985000D02*
Y2015000D01*
X2735000Y1250000D02*
X2765000D01*
X2750000Y1235000D02*
Y1265000D01*
X2985000Y1250000D02*
X3015000D01*
X3000000Y1235000D02*
Y1265000D01*
X3235000Y1250000D02*
X3265000D01*
X3250000Y1235000D02*
Y1265000D01*
X3485000Y1250000D02*
X3515000D01*
X3500000Y1235000D02*
Y1265000D01*
X3735000Y1250000D02*
X3765000D01*
X3750000Y1235000D02*
Y1265000D01*
X3985000Y1250000D02*
X4015000D01*
X4000000Y1235000D02*
Y1265000D01*
X4235000Y1250000D02*
X4265000D01*
X4250000Y1235000D02*
Y1265000D01*
X4485000Y1250000D02*
X4515000D01*
X4500000Y1235000D02*
Y1265000D01*
X4735000Y1250000D02*
X4765000D01*
X4750000Y1235000D02*
Y1265000D01*
X4985000Y1250000D02*
X5015000D01*
X5000000Y1235000D02*
Y1265000D01*
X5235000Y1250000D02*
X5265000D01*
X5250000Y1235000D02*
Y1265000D01*
X5485000Y1250000D02*
X5515000D01*
X5500000Y1235000D02*
Y1265000D01*
X5735000Y1250000D02*
X5765000D01*
X5750000Y1235000D02*
Y1265000D01*
X5985000Y1250000D02*
X6015000D01*
X6000000Y1235000D02*
Y1265000D01*
X6235000Y1250000D02*
X6265000D01*
X6250000Y1235000D02*
Y1265000D01*
X6485000Y1250000D02*
X6515000D01*
X6500000Y1235000D02*
Y1265000D01*
X6735000Y1250000D02*
X6765000D01*
X6750000Y1235000D02*
Y1265000D01*
X7235000Y1250000D02*
X7265000D01*
X7250000Y1235000D02*
Y1265000D01*
X6985000Y1250000D02*
X7015000D01*
X7000000Y1235000D02*
Y1265000D01*
X2735000Y1500000D02*
X2765000D01*
X2750000Y1485000D02*
Y1515000D01*
X2985000Y1500000D02*
X3015000D01*
X3000000Y1485000D02*
Y1515000D01*
X3235000Y1500000D02*
X3265000D01*
X3250000Y1485000D02*
Y1515000D01*
X3485000Y1500000D02*
X3515000D01*
X3500000Y1485000D02*
Y1515000D01*
X3735000Y1500000D02*
X3765000D01*
X3750000Y1485000D02*
Y1515000D01*
X3985000Y1500000D02*
X4015000D01*
X4000000Y1485000D02*
Y1515000D01*
X4235000Y1500000D02*
X4265000D01*
X4250000Y1485000D02*
Y1515000D01*
X4485000Y1500000D02*
X4515000D01*
X4500000Y1485000D02*
Y1515000D01*
X4735000Y1500000D02*
X4765000D01*
X4750000Y1485000D02*
Y1515000D01*
X4985000Y1500000D02*
X5015000D01*
X5000000Y1485000D02*
Y1515000D01*
X5235000Y1500000D02*
X5265000D01*
X5250000Y1485000D02*
Y1515000D01*
X5735000Y1500000D02*
X5765000D01*
X5750000Y1485000D02*
Y1515000D01*
X5485000Y1500000D02*
X5515000D01*
X5500000Y1485000D02*
Y1515000D01*
X5985000Y1500000D02*
X6015000D01*
X6000000Y1485000D02*
Y1515000D01*
X6235000Y1500000D02*
X6265000D01*
X6250000Y1485000D02*
Y1515000D01*
X6485000Y1500000D02*
X6515000D01*
X6500000Y1485000D02*
Y1515000D01*
X6735000Y1500000D02*
X6765000D01*
X6750000Y1485000D02*
Y1515000D01*
X6985000Y1500000D02*
X7015000D01*
X7000000Y1485000D02*
Y1515000D01*
X7235000Y1500000D02*
X7265000D01*
X7250000Y1485000D02*
Y1515000D01*
X2735000Y750000D02*
X2765000D01*
X2750000Y735000D02*
Y765000D01*
X2985000Y750000D02*
X3015000D01*
X3000000Y735000D02*
Y765000D01*
X3235000Y750000D02*
X3265000D01*
X3250000Y735000D02*
Y765000D01*
X3485000Y750000D02*
X3515000D01*
X3500000Y735000D02*
Y765000D01*
X3735000Y750000D02*
X3765000D01*
X3750000Y735000D02*
Y765000D01*
X3985000Y750000D02*
X4015000D01*
X4000000Y735000D02*
Y765000D01*
X4235000Y750000D02*
X4265000D01*
X4250000Y735000D02*
Y765000D01*
X4485000Y750000D02*
X4515000D01*
X4500000Y735000D02*
Y765000D01*
X4735000Y750000D02*
X4765000D01*
X4750000Y735000D02*
Y765000D01*
X4985000Y750000D02*
X5015000D01*
X5000000Y735000D02*
Y765000D01*
X5235000Y750000D02*
X5265000D01*
X5250000Y735000D02*
Y765000D01*
X5485000Y750000D02*
X5515000D01*
X5500000Y735000D02*
Y765000D01*
X5735000Y750000D02*
X5765000D01*
X5750000Y735000D02*
Y765000D01*
X5985000Y750000D02*
X6015000D01*
X6000000Y735000D02*
Y765000D01*
X6235000Y750000D02*
X6265000D01*
X6250000Y735000D02*
Y765000D01*
X6485000Y750000D02*
X6515000D01*
X6500000Y735000D02*
Y765000D01*
X6735000Y750000D02*
X6765000D01*
X6750000Y735000D02*
Y765000D01*
X7235000Y750000D02*
X7265000D01*
X7250000Y735000D02*
Y765000D01*
X6985000Y750000D02*
X7015000D01*
X7000000Y735000D02*
Y765000D01*
X2735000Y1000000D02*
X2765000D01*
X2750000Y985000D02*
Y1015000D01*
X2985000Y1000000D02*
X3015000D01*
X3000000Y985000D02*
Y1015000D01*
X3235000Y1000000D02*
X3265000D01*
X3250000Y985000D02*
Y1015000D01*
X3485000Y1000000D02*
X3515000D01*
X3500000Y985000D02*
Y1015000D01*
X3735000Y1000000D02*
X3765000D01*
X3750000Y985000D02*
Y1015000D01*
X3985000Y1000000D02*
X4015000D01*
X4000000Y985000D02*
Y1015000D01*
X4235000Y1000000D02*
X4265000D01*
X4250000Y985000D02*
Y1015000D01*
X4485000Y1000000D02*
X4515000D01*
X4500000Y985000D02*
Y1015000D01*
X4735000Y1000000D02*
X4765000D01*
X4750000Y985000D02*
Y1015000D01*
X4985000Y1000000D02*
X5015000D01*
X5000000Y985000D02*
Y1015000D01*
X5235000Y1000000D02*
X5265000D01*
X5250000Y985000D02*
Y1015000D01*
X5735000Y1000000D02*
X5765000D01*
X5750000Y985000D02*
Y1015000D01*
X5485000Y1000000D02*
X5515000D01*
X5500000Y985000D02*
Y1015000D01*
X5985000Y1000000D02*
X6015000D01*
X6000000Y985000D02*
Y1015000D01*
X6235000Y1000000D02*
X6265000D01*
X6250000Y985000D02*
Y1015000D01*
X6485000Y1000000D02*
X6515000D01*
X6500000Y985000D02*
Y1015000D01*
X6735000Y1000000D02*
X6765000D01*
X6750000Y985000D02*
Y1015000D01*
X6985000Y1000000D02*
X7015000D01*
X7000000Y985000D02*
Y1015000D01*
X7235000Y1000000D02*
X7265000D01*
X7250000Y985000D02*
Y1015000D01*
X8235000Y5000000D02*
X8265000D01*
X8250000Y4985000D02*
Y5015000D01*
X8485000Y5000000D02*
X8515000D01*
X8500000Y4985000D02*
Y5015000D01*
X8735000Y5000000D02*
X8765000D01*
X8750000Y4985000D02*
Y5015000D01*
X9485000Y5000000D02*
X9515000D01*
X9500000Y4985000D02*
Y5015000D01*
X9485000Y4750000D02*
X9515000D01*
X9500000Y4735000D02*
Y4765000D01*
X9485000Y4500000D02*
X9515000D01*
X9500000Y4485000D02*
Y4515000D01*
X9485000Y4250000D02*
X9515000D01*
X9500000Y4235000D02*
Y4265000D01*
X9485000Y2000000D02*
X9515000D01*
X9500000Y1985000D02*
Y2015000D01*
X9485000Y1750000D02*
X9515000D01*
X9500000Y1735000D02*
Y1765000D01*
X9485000Y1500000D02*
X9515000D01*
X9500000Y1485000D02*
Y1515000D01*
X9485000Y1250000D02*
X9515000D01*
X9500000Y1235000D02*
Y1265000D01*
X9485000Y1000000D02*
X9515000D01*
X9500000Y985000D02*
Y1015000D01*
X9485000Y750000D02*
X9515000D01*
X9500000Y735000D02*
Y765000D01*
X9485000Y500000D02*
X9515000D01*
X9500000Y485000D02*
Y515000D01*
X9235000Y500000D02*
X9265000D01*
X9250000Y485000D02*
Y515000D01*
X8985000Y500000D02*
X9015000D01*
X9000000Y485000D02*
Y515000D01*
X8735000Y500000D02*
X8765000D01*
X8750000Y485000D02*
Y515000D01*
X8485000Y500000D02*
X8515000D01*
X8500000Y485000D02*
Y515000D01*
X8235000Y500000D02*
X8265000D01*
X8250000Y485000D02*
Y515000D01*
X7985000Y500000D02*
X8015000D01*
X8000000Y485000D02*
Y515000D01*
X7485000Y500000D02*
X7515000D01*
X7500000Y485000D02*
Y515000D01*
X7735000Y500000D02*
X7765000D01*
X7750000Y485000D02*
Y515000D01*
X7235000Y500000D02*
X7265000D01*
X7250000Y485000D02*
Y515000D01*
X6985000Y500000D02*
X7015000D01*
X7000000Y485000D02*
Y515000D01*
X6735000Y500000D02*
X6765000D01*
X6750000Y485000D02*
Y515000D01*
X6485000Y500000D02*
X6515000D01*
X6500000Y485000D02*
Y515000D01*
X6235000Y500000D02*
X6265000D01*
X6250000Y485000D02*
Y515000D01*
X5985000Y500000D02*
X6015000D01*
X6000000Y485000D02*
Y515000D01*
X5485000Y500000D02*
X5515000D01*
X5500000Y485000D02*
Y515000D01*
X5735000Y500000D02*
X5765000D01*
X5750000Y485000D02*
Y515000D01*
X5235000Y500000D02*
X5265000D01*
X5250000Y485000D02*
Y515000D01*
X4985000Y500000D02*
X5015000D01*
X5000000Y485000D02*
Y515000D01*
X4735000Y500000D02*
X4765000D01*
X4750000Y485000D02*
Y515000D01*
X4485000Y500000D02*
X4515000D01*
X4500000Y485000D02*
Y515000D01*
X4235000Y500000D02*
X4265000D01*
X4250000Y485000D02*
Y515000D01*
X3985000Y500000D02*
X4015000D01*
X4000000Y485000D02*
Y515000D01*
X3735000Y500000D02*
X3765000D01*
X3750000Y485000D02*
Y515000D01*
X3485000Y500000D02*
X3515000D01*
X3500000Y485000D02*
Y515000D01*
X3235000Y500000D02*
X3265000D01*
X3250000Y485000D02*
Y515000D01*
X2985000Y500000D02*
X3015000D01*
X3000000Y485000D02*
Y515000D01*
X2735000Y500000D02*
X2765000D01*
X2750000Y485000D02*
Y515000D01*
X2485000Y500000D02*
X2515000D01*
X2500000Y485000D02*
Y515000D01*
X2235000Y500000D02*
X2265000D01*
X2250000Y485000D02*
Y515000D01*
X1985000Y500000D02*
X2015000D01*
X2000000Y485000D02*
Y515000D01*
X1735000Y500000D02*
X1765000D01*
X1750000Y485000D02*
Y515000D01*
X1485000Y500000D02*
X1515000D01*
X1500000Y485000D02*
Y515000D01*
X1235000Y500000D02*
X1265000D01*
X1250000Y485000D02*
Y515000D01*
X985000Y500000D02*
X1015000D01*
X1000000Y485000D02*
Y515000D01*
X735000Y500000D02*
X765000D01*
X750000Y485000D02*
Y515000D01*
X485000Y500000D02*
X515000D01*
X500000Y485000D02*
Y515000D01*
X485000Y750000D02*
X515000D01*
X500000Y735000D02*
Y765000D01*
X485000Y1000000D02*
X515000D01*
X500000Y985000D02*
Y1015000D01*
X485000Y1250000D02*
X515000D01*
X500000Y1235000D02*
Y1265000D01*
X485000Y1500000D02*
X515000D01*
X500000Y1485000D02*
Y1515000D01*
X485000Y1750000D02*
X515000D01*
X500000Y1735000D02*
Y1765000D01*
X485000Y2000000D02*
X515000D01*
X500000Y1985000D02*
Y2015000D01*
X485000Y2250000D02*
X515000D01*
X500000Y2235000D02*
Y2265000D01*
X485000Y2500000D02*
X515000D01*
X500000Y2485000D02*
Y2515000D01*
X485000Y2750000D02*
X515000D01*
X500000Y2735000D02*
Y2765000D01*
X485000Y3000000D02*
X515000D01*
X500000Y2985000D02*
Y3015000D01*
X485000Y3250000D02*
X515000D01*
X500000Y3235000D02*
Y3265000D01*
X985000Y4750000D02*
X1015000D01*
X1000000Y4735000D02*
Y4765000D01*
X4235000Y5000000D02*
X4265000D01*
X4250000Y4985000D02*
Y5015000D01*
X3985000Y5000000D02*
X4015000D01*
X4000000Y4985000D02*
Y5015000D01*
X3735000Y5000000D02*
X3765000D01*
X3750000Y4985000D02*
Y5015000D01*
X3485000Y5000000D02*
X3515000D01*
X3500000Y4985000D02*
Y5015000D01*
X3235000Y5000000D02*
X3265000D01*
X3250000Y4985000D02*
Y5015000D01*
X2985000Y5000000D02*
X3015000D01*
X3000000Y4985000D02*
Y5015000D01*
X2735000Y5000000D02*
X2765000D01*
X2750000Y4985000D02*
Y5015000D01*
X2485000Y5000000D02*
X2515000D01*
X2500000Y4985000D02*
Y5015000D01*
X2235000Y5000000D02*
X2265000D01*
X2250000Y4985000D02*
Y5015000D01*
X1985000Y5000000D02*
X2015000D01*
X2000000Y4985000D02*
Y5015000D01*
X1735000Y5000000D02*
X1765000D01*
X1750000Y4985000D02*
Y5015000D01*
X1485000Y5000000D02*
X1515000D01*
X1500000Y4985000D02*
Y5015000D01*
X1235000Y5000000D02*
X1265000D01*
X1250000Y4985000D02*
Y5015000D01*
X985000Y5000000D02*
X1015000D01*
X1000000Y4985000D02*
Y5015000D01*
X735000Y5000000D02*
X765000D01*
X750000Y4985000D02*
Y5015000D01*
X735000Y4750000D02*
X765000D01*
X750000Y4735000D02*
Y4765000D01*
X485000Y4750000D02*
X515000D01*
X500000Y4735000D02*
Y4765000D01*
X485000Y5000000D02*
X515000D01*
X500000Y4985000D02*
Y5015000D01*
X8235000Y5250000D02*
X8265000D01*
X8250000Y5235000D02*
Y5265000D01*
X8485000Y5250000D02*
X8515000D01*
X8500000Y5235000D02*
Y5265000D01*
X8735000Y5250000D02*
X8765000D01*
X8750000Y5235000D02*
Y5265000D01*
X9235000Y5250000D02*
X9265000D01*
X9250000Y5235000D02*
Y5265000D01*
X9485000Y5250000D02*
X9515000D01*
X9500000Y5235000D02*
Y5265000D01*
X9735000Y5250000D02*
X9765000D01*
X9750000Y5235000D02*
Y5265000D01*
X9735000Y5000000D02*
X9765000D01*
X9750000Y4985000D02*
Y5015000D01*
X9735000Y4750000D02*
X9765000D01*
X9750000Y4735000D02*
Y4765000D01*
X9735000Y4500000D02*
X9765000D01*
X9750000Y4485000D02*
Y4515000D01*
X9735000Y4250000D02*
X9765000D01*
X9750000Y4235000D02*
Y4265000D01*
X9735000Y2000000D02*
X9765000D01*
X9750000Y1985000D02*
Y2015000D01*
X9735000Y1750000D02*
X9765000D01*
X9750000Y1735000D02*
Y1765000D01*
X9735000Y1500000D02*
X9765000D01*
X9750000Y1485000D02*
Y1515000D01*
X9735000Y1250000D02*
X9765000D01*
X9750000Y1235000D02*
Y1265000D01*
X9735000Y1000000D02*
X9765000D01*
X9750000Y985000D02*
Y1015000D01*
X9735000Y750000D02*
X9765000D01*
X9750000Y735000D02*
Y765000D01*
X9735000Y500000D02*
X9765000D01*
X9750000Y485000D02*
Y515000D01*
X9735000Y250000D02*
X9765000D01*
X9750000Y235000D02*
Y265000D01*
X9485000Y250000D02*
X9515000D01*
X9500000Y235000D02*
Y265000D01*
X9235000Y250000D02*
X9265000D01*
X9250000Y235000D02*
Y265000D01*
X8985000Y250000D02*
X9015000D01*
X9000000Y235000D02*
Y265000D01*
X8735000Y250000D02*
X8765000D01*
X8750000Y235000D02*
Y265000D01*
X8485000Y250000D02*
X8515000D01*
X8500000Y235000D02*
Y265000D01*
X8235000Y250000D02*
X8265000D01*
X8250000Y235000D02*
Y265000D01*
X7985000Y250000D02*
X8015000D01*
X8000000Y235000D02*
Y265000D01*
X7735000Y250000D02*
X7765000D01*
X7750000Y235000D02*
Y265000D01*
X7485000Y250000D02*
X7515000D01*
X7500000Y235000D02*
Y265000D01*
X6985000Y250000D02*
X7015000D01*
X7000000Y235000D02*
Y265000D01*
X7235000Y250000D02*
X7265000D01*
X7250000Y235000D02*
Y265000D01*
X6735000Y250000D02*
X6765000D01*
X6750000Y235000D02*
Y265000D01*
X6485000Y250000D02*
X6515000D01*
X6500000Y235000D02*
Y265000D01*
X6235000Y250000D02*
X6265000D01*
X6250000Y235000D02*
Y265000D01*
X5985000Y250000D02*
X6015000D01*
X6000000Y235000D02*
Y265000D01*
X5735000Y250000D02*
X5765000D01*
X5750000Y235000D02*
Y265000D01*
X5485000Y250000D02*
X5515000D01*
X5500000Y235000D02*
Y265000D01*
X5235000Y250000D02*
X5265000D01*
X5250000Y235000D02*
Y265000D01*
X4985000Y250000D02*
X5015000D01*
X5000000Y235000D02*
Y265000D01*
X4735000Y250000D02*
X4765000D01*
X4750000Y235000D02*
Y265000D01*
X4485000Y250000D02*
X4515000D01*
X4500000Y235000D02*
Y265000D01*
X4235000Y250000D02*
X4265000D01*
X4250000Y235000D02*
Y265000D01*
X3985000Y250000D02*
X4015000D01*
X4000000Y235000D02*
Y265000D01*
X3735000Y250000D02*
X3765000D01*
X3750000Y235000D02*
Y265000D01*
X3485000Y250000D02*
X3515000D01*
X3500000Y235000D02*
Y265000D01*
X3235000Y250000D02*
X3265000D01*
X3250000Y235000D02*
Y265000D01*
X2985000Y250000D02*
X3015000D01*
X3000000Y235000D02*
Y265000D01*
X2735000Y250000D02*
X2765000D01*
X2750000Y235000D02*
Y265000D01*
X2485000Y250000D02*
X2515000D01*
X2500000Y235000D02*
Y265000D01*
X2235000Y250000D02*
X2265000D01*
X2250000Y235000D02*
Y265000D01*
X1985000Y250000D02*
X2015000D01*
X2000000Y235000D02*
Y265000D01*
X1735000Y250000D02*
X1765000D01*
X1750000Y235000D02*
Y265000D01*
X1485000Y250000D02*
X1515000D01*
X1500000Y235000D02*
Y265000D01*
X1235000Y250000D02*
X1265000D01*
X1250000Y235000D02*
Y265000D01*
X985000Y250000D02*
X1015000D01*
X1000000Y235000D02*
Y265000D01*
X735000Y250000D02*
X765000D01*
X750000Y235000D02*
Y265000D01*
X485000Y250000D02*
X515000D01*
X500000Y235000D02*
Y265000D01*
X235000Y250000D02*
X265000D01*
X250000Y235000D02*
Y265000D01*
X235000Y500000D02*
X265000D01*
X250000Y485000D02*
Y515000D01*
X235000Y750000D02*
X265000D01*
X250000Y735000D02*
Y765000D01*
X235000Y1000000D02*
X265000D01*
X250000Y985000D02*
Y1015000D01*
X235000Y1250000D02*
X265000D01*
X250000Y1235000D02*
Y1265000D01*
X235000Y1500000D02*
X265000D01*
X250000Y1485000D02*
Y1515000D01*
X235000Y1750000D02*
X265000D01*
X250000Y1735000D02*
Y1765000D01*
X235000Y2000000D02*
X265000D01*
X250000Y1985000D02*
Y2015000D01*
X235000Y2250000D02*
X265000D01*
X250000Y2235000D02*
Y2265000D01*
X235000Y2500000D02*
X265000D01*
X250000Y2485000D02*
Y2515000D01*
X235000Y2750000D02*
X265000D01*
X250000Y2735000D02*
Y2765000D01*
X235000Y3000000D02*
X265000D01*
X250000Y2985000D02*
Y3015000D01*
X235000Y3250000D02*
X265000D01*
X250000Y3235000D02*
Y3265000D01*
X235000Y4750000D02*
X265000D01*
X250000Y4735000D02*
Y4765000D01*
X4235000Y5250000D02*
X4265000D01*
X4250000Y5235000D02*
Y5265000D01*
X3985000Y5250000D02*
X4015000D01*
X4000000Y5235000D02*
Y5265000D01*
X3735000Y5250000D02*
X3765000D01*
X3750000Y5235000D02*
Y5265000D01*
X3485000Y5250000D02*
X3515000D01*
X3500000Y5235000D02*
Y5265000D01*
X3235000Y5250000D02*
X3265000D01*
X3250000Y5235000D02*
Y5265000D01*
X2985000Y5250000D02*
X3015000D01*
X3000000Y5235000D02*
Y5265000D01*
X2735000Y5250000D02*
X2765000D01*
X2750000Y5235000D02*
Y5265000D01*
X2485000Y5250000D02*
X2515000D01*
X2500000Y5235000D02*
Y5265000D01*
X2235000Y5250000D02*
X2265000D01*
X2250000Y5235000D02*
Y5265000D01*
X1985000Y5250000D02*
X2015000D01*
X2000000Y5235000D02*
Y5265000D01*
X1735000Y5250000D02*
X1765000D01*
X1750000Y5235000D02*
Y5265000D01*
X1485000Y5250000D02*
X1515000D01*
X1500000Y5235000D02*
Y5265000D01*
X1235000Y5250000D02*
X1265000D01*
X1250000Y5235000D02*
Y5265000D01*
X985000Y5250000D02*
X1015000D01*
X1000000Y5235000D02*
Y5265000D01*
X735000Y5250000D02*
X765000D01*
X750000Y5235000D02*
Y5265000D01*
X485000Y5250000D02*
X515000D01*
X500000Y5235000D02*
Y5265000D01*
X235000Y5000000D02*
X265000D01*
X250000Y4985000D02*
Y5015000D01*
X235000Y5250000D02*
X265000D01*
X250000Y5235000D02*
Y5265000D01*
X5075000Y5200000D02*
X5105000D01*
X5090000Y5185000D02*
Y5215000D01*
X5722357Y4649857D02*
X5752357D01*
X5737357Y4634857D02*
Y4664857D01*
X7575000Y4180000D02*
X7605000D01*
X7590000Y4165000D02*
Y4195000D01*
X3355000Y4110000D02*
X3385000D01*
X3370000Y4095000D02*
Y4125000D01*
X8790000Y3037500D02*
X8820000D01*
X8805000Y3022500D02*
Y3052500D01*
X9145000Y3122500D02*
X9175000D01*
X9160000Y3107501D02*
Y3137500D01*
X7367500Y3005000D02*
X7397500D01*
X7382500Y2990000D02*
Y3020000D01*
X6525000Y3957500D02*
X6555000D01*
X6540000Y3942500D02*
Y3972500D01*
X6157500Y3590000D02*
X6187500D01*
X6172500Y3575000D02*
Y3605000D01*
X6460000Y4540000D02*
X6490000D01*
X6475000Y4525000D02*
Y4555000D01*
X7377500Y4280000D02*
X7407500D01*
X7392500Y4265000D02*
Y4295000D01*
X4415000Y4865000D02*
X4445000D01*
X4430000Y4850000D02*
Y4880000D01*
X4740000Y4875000D02*
X4770000D01*
X4755000Y4860000D02*
Y4890000D01*
X5975000Y5315000D02*
X6005000D01*
X5990000Y5300000D02*
Y5330000D01*
X5975000Y5162500D02*
X6005000D01*
X5990000Y5147500D02*
Y5177500D01*
X3412500Y4657500D02*
X3442500D01*
X3427500Y4642500D02*
Y4672500D01*
X3015000Y4595000D02*
X3045000D01*
X3030000Y4580000D02*
Y4610000D01*
X6912500Y2587500D02*
X6942500D01*
X6927500Y2572500D02*
Y2602500D01*
X7362500Y3855000D02*
X7392500D01*
X7377500Y3840000D02*
Y3870000D01*
X6745000Y3702500D02*
X6775000D01*
X6760000Y3687500D02*
Y3717500D01*
X6800000Y2585000D02*
X6830000D01*
X6815000Y2570000D02*
Y2600000D01*
X6680000Y3972500D02*
X6710000D01*
X6695000Y3957500D02*
Y3987500D01*
X6797500Y4012500D02*
X6827500D01*
X6812500Y3997500D02*
Y4027500D01*
X6835000Y3837500D02*
X6865000D01*
X6850000Y3822500D02*
Y3852500D01*
X6950000Y3837500D02*
X6980000D01*
X6965000Y3822500D02*
Y3852500D01*
X7067500Y3837500D02*
X7097500D01*
X7082500Y3822500D02*
Y3852500D01*
X7187500Y3837500D02*
X7217500D01*
X7202500Y3822500D02*
Y3852500D01*
X6646666Y3350000D02*
X6676666D01*
X6661666Y3335000D02*
Y3365000D01*
X6410000Y3350000D02*
X6440000D01*
X6425000Y3335000D02*
Y3365000D01*
X6528333Y3350000D02*
X6558333D01*
X6543333Y3335000D02*
Y3365000D01*
X9790000Y2986667D02*
X9820000D01*
X9805000Y2971667D02*
Y3001667D01*
X9790000Y3105000D02*
X9820000D01*
X9805000Y3090000D02*
Y3120000D01*
X9790000Y2868333D02*
X9820000D01*
X9805000Y2853333D02*
Y2883333D01*
X9790000Y2750000D02*
X9820000D01*
X9805000Y2735000D02*
Y2765000D01*
X8462500Y4415000D02*
X8492500D01*
X8477500Y4400000D02*
Y4430000D01*
X5572500Y4365000D02*
X5602500D01*
X5587500Y4350000D02*
Y4380000D01*
X7160000Y3057500D02*
X7190000D01*
X7175000Y3042500D02*
Y3072500D01*
X8375000Y3192500D02*
X8405000D01*
X8390000Y3177500D02*
Y3207500D01*
X8975000Y2967501D02*
X9005000D01*
X8990000Y2952501D02*
Y2982501D01*
X6642500Y4895000D02*
X6672500D01*
X6657500Y4880000D02*
Y4910000D01*
X6960000Y5302500D02*
X6990000D01*
X6975000Y5287500D02*
Y5317500D01*
X8372500Y4670000D02*
X8402500D01*
X8387500Y4655000D02*
Y4685000D01*
X8325000Y4207500D02*
X8355000D01*
X8340000Y4192500D02*
Y4222500D01*
X8455000Y4207500D02*
X8485000D01*
X8470000Y4192500D02*
Y4222500D01*
X7285000Y3367500D02*
X7315000D01*
X7300000Y3352500D02*
Y3382500D01*
X7285000Y2767500D02*
X7315000D01*
X7300000Y2752500D02*
Y2782500D01*
X4417500Y3032500D02*
X4447500D01*
X4432500Y3017500D02*
Y3047500D01*
X4867501Y3660000D02*
X4897500D01*
X4882501Y3645000D02*
Y3675000D01*
X5615000Y3082500D02*
X5645000D01*
X5630000Y3067500D02*
Y3097500D01*
X5485000Y3082500D02*
X5515000D01*
X5500000Y3067500D02*
Y3097500D01*
X6525000Y3667500D02*
X6555000D01*
X6540000Y3652500D02*
Y3682500D01*
X6395000Y3667500D02*
X6425000D01*
X6410000Y3652500D02*
Y3682500D01*
X5795000Y3667500D02*
X5825000D01*
X5810000Y3652500D02*
Y3682500D01*
X5665000Y3667500D02*
X5695000D01*
X5680000Y3652500D02*
Y3682500D01*
X5885000Y3802500D02*
X5915000D01*
X5900000Y3787500D02*
Y3817500D01*
X6015000Y3802500D02*
X6045000D01*
X6030000Y3787500D02*
Y3817500D01*
X6185000Y3802500D02*
X6215000D01*
X6200000Y3787500D02*
Y3817500D01*
X6315000Y3802500D02*
X6345000D01*
X6330000Y3787500D02*
Y3817500D01*
X6585000Y4077500D02*
X6615000D01*
X6600000Y4062500D02*
Y4092500D01*
X5547500Y4815000D02*
X5577500D01*
X5562500Y4800000D02*
Y4830000D01*
X5945000Y4867500D02*
X5975000D01*
X5960000Y4852500D02*
Y4882500D01*
X5642500Y5355000D02*
X5672500D01*
X5657500Y5340000D02*
Y5370000D01*
X5405000Y4737500D02*
X5435000D01*
X5420000Y4722500D02*
Y4752500D01*
X5155000Y4677500D02*
X5185000D01*
X5170000Y4662500D02*
Y4692500D01*
X4972500Y5195000D02*
X5002500D01*
X4987500Y5180000D02*
Y5210000D01*
X4972500Y4995000D02*
X5002500D01*
X4987500Y4980000D02*
Y5010000D01*
X4805000Y4782500D02*
X4835000D01*
X4820000Y4767500D02*
Y4797500D01*
X4417500Y4335000D02*
X4447500D01*
X4432500Y4320000D02*
Y4350000D01*
X4417500Y4465000D02*
X4447500D01*
X4432500Y4450000D02*
Y4480000D01*
X3380000Y3570000D02*
X3410000D01*
X3395000Y3555000D02*
Y3585000D01*
X3380000Y3700000D02*
X3410000D01*
X3395000Y3685000D02*
Y3715000D01*
X542500Y3922500D02*
X572500D01*
X557500Y3907500D02*
Y3937500D01*
X925000Y3922500D02*
X955000D01*
X940000Y3907500D02*
Y3937500D01*
X1462500Y3597500D02*
X1492500D01*
X1477500Y3582500D02*
Y3612500D01*
X1462500Y4610000D02*
X1492500D01*
X1477500Y4595000D02*
Y4625000D01*
X1637500Y3857500D02*
X1667500D01*
X1652500Y3842500D02*
Y3872500D01*
X3030000Y3712500D02*
X3060000D01*
X3045000Y3697500D02*
Y3727500D01*
X2900000Y3712500D02*
X2930000D01*
X2915000Y3697500D02*
Y3727500D01*
X2227500Y3857500D02*
X2257500D01*
X2242500Y3842500D02*
Y3872500D01*
X2610000Y3857500D02*
X2640000D01*
X2625000Y3842500D02*
Y3872500D01*
X2505000Y4497500D02*
X2535000D01*
X2520000Y4482500D02*
Y4512500D01*
X3045000Y4372500D02*
X3075000D01*
X3060000Y4357500D02*
Y4387500D01*
X3742500Y4012500D02*
X3772500D01*
X3757500Y3997500D02*
Y4027500D01*
X3715000Y4370000D02*
X3745000D01*
X3730000Y4355000D02*
Y4385000D01*
X3427500Y4470000D02*
X3457500D01*
X3442500Y4455000D02*
Y4485000D01*
X3515000Y4615000D02*
X3545000D01*
X3530000Y4600000D02*
Y4630000D01*
X3375000Y4550000D02*
X3405000D01*
X3390000Y4535000D02*
Y4565000D01*
X3120000Y4615000D02*
X3150000D01*
X3135000Y4600000D02*
Y4630000D01*
X3202500Y4537500D02*
X3232500D01*
X3217500Y4522500D02*
Y4552500D01*
X3280000Y4615000D02*
X3310000D01*
X3295000Y4600000D02*
Y4630000D01*
X7012500Y4840000D02*
X7042500D01*
X7027500Y4825000D02*
Y4855000D01*
X7005000Y4712500D02*
X7035000D01*
X7020000Y4697500D02*
Y4727500D01*
X7385000Y4762500D02*
X7415000D01*
X7400000Y4747500D02*
Y4777500D01*
X7505000Y4747500D02*
X7535000D01*
X7520000Y4732500D02*
Y4762500D01*
X7562500Y4657500D02*
X7592500D01*
X7577500Y4642500D02*
Y4672500D01*
X6360000Y4322500D02*
X6390000D01*
X6375000Y4307500D02*
Y4337500D01*
X7110000Y4245000D02*
X7140000D01*
X7125000Y4230000D02*
Y4260000D01*
X7000000Y4245000D02*
X7030000D01*
X7015000Y4230000D02*
Y4260000D01*
X6890000Y4245000D02*
X6920000D01*
X6905000Y4230000D02*
Y4260000D01*
X7110000Y4355000D02*
X7140000D01*
X7125000Y4340000D02*
Y4370000D01*
X7000000Y4355000D02*
X7030000D01*
X7015000Y4340000D02*
Y4370000D01*
X6890000Y4355000D02*
X6920000D01*
X6905000Y4340000D02*
Y4370000D01*
X7110000Y4465000D02*
X7140000D01*
X7125000Y4450000D02*
Y4480000D01*
X7000000Y4465000D02*
X7030000D01*
X7015000Y4450000D02*
Y4480000D01*
X6890000Y4465000D02*
X6920000D01*
X6905000Y4450000D02*
Y4480000D01*
X3410000Y4165000D02*
X3440000D01*
X3425000Y4150000D02*
Y4180000D01*
X3410000Y4055000D02*
X3440000D01*
X3425000Y4040000D02*
Y4070000D01*
X3300000Y4165000D02*
X3330000D01*
X3315000Y4150000D02*
Y4180000D01*
X3300000Y4055000D02*
X3330000D01*
X3315000Y4040000D02*
Y4070000D01*
%TF.MD5,fc009a83d294d96248e6e3d8f875da25*%
M02*
