%TF.GenerationSoftware,Altium Limited,Altium Designer,23.11.1 (41)*%
G04 Layer_Color=0*
%FSLAX45Y45*%
%MOMM*%
%TF.SameCoordinates,5A3C93BB-BC46-40EA-83D2-B686983C8B64*%
%TF.FilePolarity,Positive*%
%TF.FileFunction,Plated,1,4,PTH,Drill*%
%TF.Part,Single*%
G01*
G75*
%TA.AperFunction,ComponentDrill*%
%ADD86C,0.76200*%
%ADD87C,2.30000*%
%ADD88C,0.92000*%
%ADD89C,0.80000*%
%ADD90C,0.30000*%
%ADD91C,0.76200*%
%TA.AperFunction,ViaDrill,NotFilled*%
%ADD92C,0.30000*%
D86*
X6362500Y5302500D02*
D03*
Y5048500D02*
D03*
D87*
X9081000Y5077000D02*
D03*
Y3763000D02*
D03*
D88*
X8810000Y4520001D02*
D03*
Y4070000D02*
D03*
Y4320000D02*
D03*
Y4770000D02*
D03*
D89*
X7800000Y5295000D02*
D03*
X7400000D02*
D03*
X7600000D02*
D03*
X8000000D02*
D03*
D90*
X242500Y3662000D02*
D03*
Y4538000D02*
D03*
D91*
X7202500Y3662500D02*
D03*
X6948500D02*
D03*
D92*
X950000Y3700000D02*
D03*
Y3500000D02*
D03*
X2350000Y3050000D02*
D03*
X2150000D02*
D03*
X2550000D02*
D03*
X2850000D02*
D03*
X3050000D02*
D03*
X4250000Y3500000D02*
D03*
Y3650000D02*
D03*
Y4900000D02*
D03*
Y5100000D02*
D03*
X4050000D02*
D03*
X3850000D02*
D03*
X3700000D02*
D03*
X3400000D02*
D03*
X3200000D02*
D03*
X2950000D02*
D03*
X2750000D02*
D03*
X2450000D02*
D03*
X2300000D02*
D03*
X2000000D02*
D03*
X1800000D02*
D03*
X1500000D02*
D03*
X1350000D02*
D03*
X1150000D02*
D03*
X950000D02*
D03*
Y4900000D02*
D03*
Y4450000D02*
D03*
Y4650000D02*
D03*
X5630000Y2850000D02*
D03*
X5500000D02*
D03*
X5380000D02*
D03*
X5125000Y2845000D02*
D03*
X5000000Y2920000D02*
D03*
Y3050000D02*
D03*
X5495000Y2950000D02*
D03*
X5625000D02*
D03*
X4350000Y3450000D02*
D03*
Y3600000D02*
D03*
X4525000Y3450000D02*
D03*
Y3600000D02*
D03*
X3975000Y3675000D02*
D03*
X4150000Y3600000D02*
D03*
Y3450000D02*
D03*
Y3300000D02*
D03*
X3400000Y3250000D02*
D03*
Y3425000D02*
D03*
X2500000Y3700000D02*
D03*
X2600000D02*
D03*
X2150000Y3850000D02*
D03*
X1500000Y3775000D02*
D03*
Y3675000D02*
D03*
X2375000Y3750000D02*
D03*
Y3650000D02*
D03*
X2250000D02*
D03*
X2150000D02*
D03*
X2050000D02*
D03*
X1950000D02*
D03*
X1850000D02*
D03*
X1750000D02*
D03*
X1650000D02*
D03*
X3050000Y3625000D02*
D03*
X2950000D02*
D03*
X2850000D02*
D03*
X2750000D02*
D03*
X2650000D02*
D03*
X2550000D02*
D03*
X2450000D02*
D03*
X2250000Y3750000D02*
D03*
X2150000D02*
D03*
X2050000D02*
D03*
X1950000D02*
D03*
X1850000D02*
D03*
X1750000D02*
D03*
X1650000D02*
D03*
X2500000Y3775000D02*
D03*
X2600000D02*
D03*
X2700000Y3700000D02*
D03*
X2800000D02*
D03*
X2700000Y3775000D02*
D03*
X2800000D02*
D03*
X2375000Y3850000D02*
D03*
X2475000D02*
D03*
X1950000D02*
D03*
X2050000D02*
D03*
X1750000D02*
D03*
X1850000D02*
D03*
X2375000Y3925000D02*
D03*
X2475000D02*
D03*
X1400000Y3775000D02*
D03*
Y3675000D02*
D03*
X1150000Y3550000D02*
D03*
Y3450000D02*
D03*
Y3750000D02*
D03*
Y3650000D02*
D03*
Y4700000D02*
D03*
Y4600000D02*
D03*
Y4525000D02*
D03*
Y4425000D02*
D03*
X1400000Y4325000D02*
D03*
Y4225000D02*
D03*
X1500000Y3850000D02*
D03*
X1400000D02*
D03*
X1500000Y3925000D02*
D03*
X1400000D02*
D03*
X2700000Y4175000D02*
D03*
X2600000D02*
D03*
X2775000Y4425000D02*
D03*
Y4525000D02*
D03*
X2675000Y4425000D02*
D03*
Y4525000D02*
D03*
X2400000Y4400000D02*
D03*
Y4500000D02*
D03*
X2100000D02*
D03*
X2200000D02*
D03*
X2300000D02*
D03*
X2100000Y4400000D02*
D03*
X2200000D02*
D03*
X2300000D02*
D03*
X3275000Y4850000D02*
D03*
X3175000D02*
D03*
X3075000D02*
D03*
X2975000D02*
D03*
X2875000D02*
D03*
X2775000D02*
D03*
X2675000D02*
D03*
X2575000D02*
D03*
X2475000D02*
D03*
X2375000D02*
D03*
X2275000D02*
D03*
X2175000D02*
D03*
X2075000D02*
D03*
X1975000D02*
D03*
X1875000D02*
D03*
X1775000D02*
D03*
X1675000D02*
D03*
X1575000D02*
D03*
X1475000D02*
D03*
X1375000D02*
D03*
X1275000D02*
D03*
X2875000Y4600000D02*
D03*
X2775000D02*
D03*
X2675000D02*
D03*
X2575000D02*
D03*
X2475000D02*
D03*
X2375000D02*
D03*
X2275000D02*
D03*
X2000000Y4400000D02*
D03*
X1900000D02*
D03*
X1800000D02*
D03*
X1700000D02*
D03*
X1600000D02*
D03*
X1500000D02*
D03*
X1400000D02*
D03*
X2000000Y4500000D02*
D03*
X1900000D02*
D03*
X1800000D02*
D03*
X1700000D02*
D03*
X1600000D02*
D03*
X1500000D02*
D03*
X1400000D02*
D03*
X2175000Y4600000D02*
D03*
X2075000D02*
D03*
X1975000D02*
D03*
X1875000D02*
D03*
X1775000D02*
D03*
X1675000D02*
D03*
X1575000D02*
D03*
X1150000Y3900000D02*
D03*
X1050000D02*
D03*
X850000D02*
D03*
X750000D02*
D03*
X650000D02*
D03*
X550000Y3825000D02*
D03*
X650000D02*
D03*
X750000D02*
D03*
X850000D02*
D03*
X950000D02*
D03*
X1050000D02*
D03*
X1150000D02*
D03*
X550000Y4350000D02*
D03*
X650000D02*
D03*
X750000D02*
D03*
X850000D02*
D03*
X950000D02*
D03*
X1050000D02*
D03*
X1150000D02*
D03*
X550000Y4275000D02*
D03*
X650000D02*
D03*
X750000D02*
D03*
X850000D02*
D03*
X950000D02*
D03*
X1050000D02*
D03*
X1150000D02*
D03*
X657500Y3977500D02*
D03*
X757500D02*
D03*
X857500D02*
D03*
X1057500D02*
D03*
X1157500D02*
D03*
X1652500Y3935000D02*
D03*
X1752500D02*
D03*
X1852500D02*
D03*
X1952500D02*
D03*
X2052500D02*
D03*
X2152500D02*
D03*
X1650000Y4225000D02*
D03*
X1750000D02*
D03*
X1850000D02*
D03*
X1950000D02*
D03*
X2050000D02*
D03*
X2150000D02*
D03*
X2250000D02*
D03*
X1650000Y4150000D02*
D03*
X1750000D02*
D03*
X1850000D02*
D03*
X1950000D02*
D03*
X2050000D02*
D03*
X2150000D02*
D03*
X2250000D02*
D03*
X1150000Y4200000D02*
D03*
X1050000D02*
D03*
X950000D02*
D03*
X850000D02*
D03*
X750000D02*
D03*
X650000D02*
D03*
X550000D02*
D03*
X7000000Y2750000D02*
D03*
X6500000D02*
D03*
X6250000D02*
D03*
X6000000D02*
D03*
X5500000D02*
D03*
X5750000D02*
D03*
X5250000D02*
D03*
X5000000D02*
D03*
X4750000D02*
D03*
X4500000D02*
D03*
X4250000D02*
D03*
X4000000D02*
D03*
X3750000D02*
D03*
X3500000D02*
D03*
X3250000D02*
D03*
X3000000D02*
D03*
X2750000D02*
D03*
X2500000D02*
D03*
X7500000Y2500000D02*
D03*
X7250000D02*
D03*
X7000000D02*
D03*
X6500000Y2250000D02*
D03*
X6000000D02*
D03*
X6250000D02*
D03*
X5750000D02*
D03*
X5500000D02*
D03*
X5250000D02*
D03*
X5000000D02*
D03*
X4750000D02*
D03*
X4500000D02*
D03*
X4250000D02*
D03*
X4000000D02*
D03*
X3750000D02*
D03*
X3500000D02*
D03*
X3250000D02*
D03*
X2750000D02*
D03*
X3000000D02*
D03*
X2250000Y2500000D02*
D03*
X2500000Y2250000D02*
D03*
X2250000D02*
D03*
X2500000Y2000000D02*
D03*
X2250000D02*
D03*
X750000Y3250000D02*
D03*
X1000000D02*
D03*
X1250000D02*
D03*
X1500000D02*
D03*
X2000000D02*
D03*
X750000Y3000000D02*
D03*
X1000000D02*
D03*
X1250000D02*
D03*
X1500000D02*
D03*
X1750000D02*
D03*
X750000Y2750000D02*
D03*
X1000000D02*
D03*
X1250000D02*
D03*
X1500000D02*
D03*
X1750000D02*
D03*
X2000000D02*
D03*
X750000Y2500000D02*
D03*
X1000000D02*
D03*
X1250000D02*
D03*
X1500000D02*
D03*
X1750000D02*
D03*
X2000000D02*
D03*
X750000Y2250000D02*
D03*
X1000000D02*
D03*
X1250000D02*
D03*
X1500000D02*
D03*
X1750000D02*
D03*
X2000000D02*
D03*
Y2000000D02*
D03*
X1750000D02*
D03*
X1500000D02*
D03*
X1250000D02*
D03*
X1000000D02*
D03*
X750000D02*
D03*
X2750000Y1750000D02*
D03*
X3000000D02*
D03*
X3250000D02*
D03*
X3500000D02*
D03*
X3750000D02*
D03*
X4000000D02*
D03*
X4250000D02*
D03*
X4500000D02*
D03*
X4750000D02*
D03*
X5000000D02*
D03*
X5250000D02*
D03*
X5500000D02*
D03*
X5750000D02*
D03*
X6000000D02*
D03*
X6250000D02*
D03*
X6500000D02*
D03*
X6750000D02*
D03*
X7250000D02*
D03*
X7000000D02*
D03*
X2750000Y2000000D02*
D03*
X3000000D02*
D03*
X3250000D02*
D03*
X3500000D02*
D03*
X3750000D02*
D03*
X4000000D02*
D03*
X4250000D02*
D03*
X4500000D02*
D03*
X4750000D02*
D03*
X5000000D02*
D03*
X5250000D02*
D03*
X5750000D02*
D03*
X5500000D02*
D03*
X6000000D02*
D03*
X6250000D02*
D03*
X6500000D02*
D03*
X6750000D02*
D03*
X7000000D02*
D03*
X7250000D02*
D03*
X2750000Y1250000D02*
D03*
X3000000D02*
D03*
X3250000D02*
D03*
X3500000D02*
D03*
X3750000D02*
D03*
X4000000D02*
D03*
X4250000D02*
D03*
X4500000D02*
D03*
X4750000D02*
D03*
X5000000D02*
D03*
X5250000D02*
D03*
X5500000D02*
D03*
X5750000D02*
D03*
X6000000D02*
D03*
X6250000D02*
D03*
X6500000D02*
D03*
X6750000D02*
D03*
X7250000D02*
D03*
X7000000D02*
D03*
X2750000Y1500000D02*
D03*
X3000000D02*
D03*
X3250000D02*
D03*
X3500000D02*
D03*
X3750000D02*
D03*
X4000000D02*
D03*
X4250000D02*
D03*
X4500000D02*
D03*
X4750000D02*
D03*
X5000000D02*
D03*
X5250000D02*
D03*
X5750000D02*
D03*
X5500000D02*
D03*
X6000000D02*
D03*
X6250000D02*
D03*
X6500000D02*
D03*
X6750000D02*
D03*
X7000000D02*
D03*
X7250000D02*
D03*
X2750000Y750000D02*
D03*
X3000000D02*
D03*
X3250000D02*
D03*
X3500000D02*
D03*
X3750000D02*
D03*
X4000000D02*
D03*
X4250000D02*
D03*
X4500000D02*
D03*
X4750000D02*
D03*
X5000000D02*
D03*
X5250000D02*
D03*
X5500000D02*
D03*
X5750000D02*
D03*
X6000000D02*
D03*
X6250000D02*
D03*
X6500000D02*
D03*
X6750000D02*
D03*
X7250000D02*
D03*
X7000000D02*
D03*
X2750000Y1000000D02*
D03*
X3000000D02*
D03*
X3250000D02*
D03*
X3500000D02*
D03*
X3750000D02*
D03*
X4000000D02*
D03*
X4250000D02*
D03*
X4500000D02*
D03*
X4750000D02*
D03*
X5000000D02*
D03*
X5250000D02*
D03*
X5750000D02*
D03*
X5500000D02*
D03*
X6000000D02*
D03*
X6250000D02*
D03*
X6500000D02*
D03*
X6750000D02*
D03*
X7000000D02*
D03*
X7250000D02*
D03*
X8250000Y5000000D02*
D03*
X8500000D02*
D03*
X8750000D02*
D03*
X9500000D02*
D03*
Y4750000D02*
D03*
Y4500000D02*
D03*
Y4250000D02*
D03*
Y2000000D02*
D03*
Y1750000D02*
D03*
Y1500000D02*
D03*
Y1250000D02*
D03*
Y1000000D02*
D03*
Y750000D02*
D03*
Y500000D02*
D03*
X9250000D02*
D03*
X9000000D02*
D03*
X8750000D02*
D03*
X8500000D02*
D03*
X8250000D02*
D03*
X8000000D02*
D03*
X7500000D02*
D03*
X7750000D02*
D03*
X7250000D02*
D03*
X7000000D02*
D03*
X6750000D02*
D03*
X6500000D02*
D03*
X6250000D02*
D03*
X6000000D02*
D03*
X5500000D02*
D03*
X5750000D02*
D03*
X5250000D02*
D03*
X5000000D02*
D03*
X4750000D02*
D03*
X4500000D02*
D03*
X4250000D02*
D03*
X4000000D02*
D03*
X3750000D02*
D03*
X3500000D02*
D03*
X3250000D02*
D03*
X3000000D02*
D03*
X2750000D02*
D03*
X2500000D02*
D03*
X2250000D02*
D03*
X2000000D02*
D03*
X1750000D02*
D03*
X1500000D02*
D03*
X1250000D02*
D03*
X1000000D02*
D03*
X750000D02*
D03*
X500000D02*
D03*
Y750000D02*
D03*
Y1000000D02*
D03*
Y1250000D02*
D03*
Y1500000D02*
D03*
Y1750000D02*
D03*
Y2000000D02*
D03*
Y2250000D02*
D03*
Y2500000D02*
D03*
Y2750000D02*
D03*
Y3000000D02*
D03*
Y3250000D02*
D03*
X1000000Y4750000D02*
D03*
X4250000Y5000000D02*
D03*
X4000000D02*
D03*
X3750000D02*
D03*
X3500000D02*
D03*
X3250000D02*
D03*
X3000000D02*
D03*
X2750000D02*
D03*
X2500000D02*
D03*
X2250000D02*
D03*
X2000000D02*
D03*
X1750000D02*
D03*
X1500000D02*
D03*
X1250000D02*
D03*
X1000000D02*
D03*
X750000D02*
D03*
Y4750000D02*
D03*
X500000D02*
D03*
Y5000000D02*
D03*
X8250000Y5250000D02*
D03*
X8500000D02*
D03*
X8750000D02*
D03*
X9250000D02*
D03*
X9500000D02*
D03*
X9750000D02*
D03*
Y5000000D02*
D03*
Y4750000D02*
D03*
Y4500000D02*
D03*
Y4250000D02*
D03*
Y2000000D02*
D03*
Y1750000D02*
D03*
Y1500000D02*
D03*
Y1250000D02*
D03*
Y1000000D02*
D03*
Y750000D02*
D03*
Y500000D02*
D03*
Y250000D02*
D03*
X9500000D02*
D03*
X9250000D02*
D03*
X9000000D02*
D03*
X8750000D02*
D03*
X8500000D02*
D03*
X8250000D02*
D03*
X8000000D02*
D03*
X7750000D02*
D03*
X7500000D02*
D03*
X7000000D02*
D03*
X7250000D02*
D03*
X6750000D02*
D03*
X6500000D02*
D03*
X6250000D02*
D03*
X6000000D02*
D03*
X5750000D02*
D03*
X5500000D02*
D03*
X5250000D02*
D03*
X5000000D02*
D03*
X4750000D02*
D03*
X4500000D02*
D03*
X4250000D02*
D03*
X4000000D02*
D03*
X3750000D02*
D03*
X3500000D02*
D03*
X3250000D02*
D03*
X3000000D02*
D03*
X2750000D02*
D03*
X2500000D02*
D03*
X2250000D02*
D03*
X2000000D02*
D03*
X1750000D02*
D03*
X1500000D02*
D03*
X1250000D02*
D03*
X1000000D02*
D03*
X750000D02*
D03*
X500000D02*
D03*
X250000D02*
D03*
Y500000D02*
D03*
Y750000D02*
D03*
Y1000000D02*
D03*
Y1250000D02*
D03*
Y1500000D02*
D03*
Y1750000D02*
D03*
Y2000000D02*
D03*
Y2250000D02*
D03*
Y2500000D02*
D03*
Y2750000D02*
D03*
Y3000000D02*
D03*
Y3250000D02*
D03*
Y4750000D02*
D03*
X4250000Y5250000D02*
D03*
X4000000D02*
D03*
X3750000D02*
D03*
X3500000D02*
D03*
X3250000D02*
D03*
X3000000D02*
D03*
X2750000D02*
D03*
X2500000D02*
D03*
X2250000D02*
D03*
X2000000D02*
D03*
X1750000D02*
D03*
X1500000D02*
D03*
X1250000D02*
D03*
X1000000D02*
D03*
X750000D02*
D03*
X500000D02*
D03*
X250000Y5000000D02*
D03*
Y5250000D02*
D03*
X5090000Y5200000D02*
D03*
X5737357Y4649857D02*
D03*
X7590000Y4180000D02*
D03*
X3370000Y4110000D02*
D03*
X8805000Y3037500D02*
D03*
X9160000Y3122500D02*
D03*
X7382500Y3005000D02*
D03*
X6540000Y3957500D02*
D03*
X6172500Y3590000D02*
D03*
X6475000Y4540000D02*
D03*
X7392500Y4280000D02*
D03*
X4430000Y4865000D02*
D03*
X4755000Y4875000D02*
D03*
X5990000Y5315000D02*
D03*
Y5162500D02*
D03*
X3427500Y4657500D02*
D03*
X3030000Y4595000D02*
D03*
X6927500Y2587500D02*
D03*
X7377500Y3855000D02*
D03*
X6760000Y3702500D02*
D03*
X6815000Y2585000D02*
D03*
X6695000Y3972500D02*
D03*
X6812500Y4012500D02*
D03*
X6850000Y3837500D02*
D03*
X6965000D02*
D03*
X7082500D02*
D03*
X7202500D02*
D03*
X6661666Y3350000D02*
D03*
X6425000D02*
D03*
X6543333D02*
D03*
X9805000Y2986667D02*
D03*
Y3105000D02*
D03*
Y2868333D02*
D03*
Y2750000D02*
D03*
X8477500Y4415000D02*
D03*
X5587500Y4365000D02*
D03*
X7175000Y3057500D02*
D03*
X8390000Y3192500D02*
D03*
X8990000Y2967501D02*
D03*
X6657500Y4895000D02*
D03*
X6975000Y5302500D02*
D03*
X8387500Y4670000D02*
D03*
X8340000Y4207500D02*
D03*
X8470000D02*
D03*
X7300000Y3367500D02*
D03*
Y2767500D02*
D03*
X4432500Y3032500D02*
D03*
X4882501Y3660000D02*
D03*
X5630000Y3082500D02*
D03*
X5500000D02*
D03*
X6540000Y3667500D02*
D03*
X6410000D02*
D03*
X5810000D02*
D03*
X5680000D02*
D03*
X5900000Y3802500D02*
D03*
X6030000D02*
D03*
X6200000D02*
D03*
X6330000D02*
D03*
X6600000Y4077500D02*
D03*
X5562500Y4815000D02*
D03*
X5960000Y4867500D02*
D03*
X5657500Y5355000D02*
D03*
X5420000Y4737500D02*
D03*
X5170000Y4677500D02*
D03*
X4987500Y5195000D02*
D03*
X4987500Y4995000D02*
D03*
X4820000Y4782500D02*
D03*
X4432500Y4335000D02*
D03*
Y4465000D02*
D03*
X3395000Y3570000D02*
D03*
Y3700000D02*
D03*
X557500Y3922500D02*
D03*
X940000Y3922500D02*
D03*
X1477500Y3597500D02*
D03*
Y4610000D02*
D03*
X1652500Y3857500D02*
D03*
X3045000Y3712500D02*
D03*
X2915000D02*
D03*
X2242500Y3857500D02*
D03*
X2625000D02*
D03*
X2520000Y4497500D02*
D03*
X3060000Y4372500D02*
D03*
X3757500Y4012500D02*
D03*
X3730000Y4370000D02*
D03*
X3442500Y4470000D02*
D03*
X3530000Y4615000D02*
D03*
X3390000Y4550000D02*
D03*
X3135000Y4615000D02*
D03*
X3217500Y4537500D02*
D03*
X3295000Y4615000D02*
D03*
X7027500Y4840000D02*
D03*
X7020000Y4712500D02*
D03*
X7400000Y4762500D02*
D03*
X7520000Y4747500D02*
D03*
X7577500Y4657500D02*
D03*
X6375000Y4322500D02*
D03*
X7125000Y4245000D02*
D03*
X7015000D02*
D03*
X6905000D02*
D03*
X7125000Y4355000D02*
D03*
X7015000D02*
D03*
X6905000D02*
D03*
X7125000Y4465000D02*
D03*
X7015000D02*
D03*
X6905000D02*
D03*
X3425000Y4165000D02*
D03*
Y4055000D02*
D03*
X3315000Y4165000D02*
D03*
Y4055000D02*
D03*
%TF.MD5,47fbee7929dc87063528ac258797478a*%
M02*
