%TF.GenerationSoftware,Altium Limited,Altium Designer,23.11.1 (41)*%
G04 Layer_Physical_Order=1*
G04 Layer_Color=255*
%FSLAX45Y45*%
%MOMM*%
%TF.SameCoordinates,5A3C93BB-BC46-40EA-83D2-B686983C8B64*%
%TF.FilePolarity,Positive*%
%TF.FileFunction,Copper,L1,Top,Signal*%
%TF.Part,Single*%
G01*
G75*
%TA.AperFunction,SMDPad,CuDef*%
%ADD10R,0.70000X0.60000*%
%ADD11R,15.00000X10.00000*%
%ADD12R,3.45000X3.45000*%
%ADD13R,0.30000X0.60000*%
%ADD14R,0.60000X0.30000*%
%ADD15R,0.40000X0.30000*%
%ADD16R,0.85000X0.90000*%
%ADD17R,0.90000X0.85000*%
%ADD18R,0.60000X0.70000*%
%ADD19R,0.95000X1.00000*%
%ADD20R,0.27500X0.25000*%
%ADD21R,0.25000X0.27500*%
%ADD22R,1.20000X0.60000*%
%ADD23R,1.19000X1.47000*%
%ADD24R,1.05000X0.60000*%
%ADD25R,0.38100X0.35560*%
%ADD26R,0.35560X0.38100*%
%ADD27R,0.60000X1.00000*%
%ADD28R,0.95000X0.90000*%
%ADD29R,0.90000X0.95000*%
%ADD30R,0.60000X1.05000*%
%ADD31R,2.15000X1.00000*%
%ADD32R,2.15000X3.25000*%
%ADD33R,2.60000X2.60000*%
%ADD34O,0.85000X0.25000*%
%ADD35O,0.25000X0.85000*%
%TA.AperFunction,ConnectorPad*%
%ADD36R,4.20000X1.90500*%
%TA.AperFunction,SMDPad,CuDef*%
%ADD37R,1.50000X0.80000*%
%ADD38R,0.64000X0.58000*%
%ADD39R,0.58000X0.64000*%
%ADD40R,0.55000X0.65000*%
%ADD41R,0.90000X0.40000*%
%ADD42R,1.60000X1.40000*%
%ADD43R,1.47000X1.19000*%
%TA.AperFunction,Conductor*%
%ADD44C,0.30000*%
%ADD45C,0.60000*%
%ADD46C,0.22392*%
%ADD47C,0.70000*%
%ADD48C,2.00000*%
%ADD49C,0.90000*%
%ADD50C,3.00000*%
%ADD51C,4.00000*%
%ADD52C,0.50000*%
%ADD53C,0.25000*%
%ADD54C,0.35000*%
%ADD55C,0.40000*%
%ADD56C,0.80000*%
%ADD57C,1.00000*%
%ADD58C,0.20381*%
%ADD59C,0.23000*%
%ADD60C,1.40000*%
%ADD61C,0.65000*%
%TA.AperFunction,ComponentPad*%
%ADD62C,1.77800*%
%ADD63C,2.80000*%
%ADD64C,1.45000*%
%ADD65R,1.45000X1.45000*%
%ADD66C,1.52400*%
%ADD67R,1.52400X1.52400*%
%ADD68R,4.20000X2.41300*%
%TA.AperFunction,ViaPad*%
%ADD69C,0.70000*%
G36*
X1422117Y4757765D02*
X1422798Y4755862D01*
X1423933Y4754182D01*
X1425522Y4752727D01*
X1427565Y4751495D01*
X1430061Y4750488D01*
X1433012Y4749704D01*
X1436416Y4749144D01*
X1440275Y4748808D01*
X1444587Y4748696D01*
Y4726304D01*
X1440275Y4726192D01*
X1436416Y4725856D01*
X1433012Y4725296D01*
X1430061Y4724513D01*
X1427565Y4723505D01*
X1425522Y4722273D01*
X1423933Y4720818D01*
X1422798Y4719138D01*
X1422117Y4717235D01*
X1421890Y4715108D01*
Y4759892D01*
X1422117Y4757765D01*
D02*
G37*
G36*
X1322765Y4705383D02*
X1320861Y4704702D01*
X1319182Y4703567D01*
X1317727Y4701978D01*
X1316495Y4699935D01*
X1315487Y4697439D01*
X1314704Y4694488D01*
X1314144Y4691083D01*
X1313808Y4687225D01*
X1313696Y4682912D01*
X1291303D01*
X1291192Y4687225D01*
X1290856Y4691083D01*
X1290296Y4694488D01*
X1289512Y4697439D01*
X1288505Y4699935D01*
X1287273Y4701978D01*
X1285818Y4703567D01*
X1284138Y4704702D01*
X1282235Y4705383D01*
X1280107Y4705610D01*
X1324892D01*
X1322765Y4705383D01*
D02*
G37*
G36*
X9950000Y50000D02*
X50000D01*
Y3800000D01*
X500000D01*
Y4026000D01*
X1222500D01*
X1232500Y4019481D01*
Y3990000D01*
X1265595D01*
Y3657500D01*
X1245000D01*
Y3539165D01*
X1245000Y3537500D01*
X1244999Y3537500D01*
X1247500Y3527500D01*
X1247500Y3527499D01*
Y3412500D01*
X1447500D01*
Y3433095D01*
X1512213D01*
X2446404Y2498904D01*
X2458377Y2490904D01*
X2472500Y2488095D01*
X6755000D01*
X6769123Y2490904D01*
X6781096Y2498904D01*
X6795934Y2513741D01*
X6797705Y2515191D01*
X6800314Y2517043D01*
X6803026Y2518700D01*
X6805873Y2520182D01*
X6808870Y2521492D01*
X6812040Y2522632D01*
X6815413Y2523604D01*
X6818996Y2524398D01*
X6822773Y2525000D01*
X6826935D01*
X6848987Y2534134D01*
X6865866Y2551013D01*
X6875000Y2573065D01*
Y2596935D01*
X6865866Y2618987D01*
X6848987Y2635865D01*
X6826935Y2645000D01*
X6803065D01*
X6781013Y2635865D01*
X6764135Y2618987D01*
X6755000Y2596935D01*
Y2592772D01*
X6754398Y2588996D01*
X6753604Y2585413D01*
X6752632Y2582040D01*
X6751492Y2578872D01*
X6750182Y2575872D01*
X6748702Y2573030D01*
X6747043Y2570315D01*
X6745191Y2567705D01*
X6743742Y2565933D01*
X6739713Y2561905D01*
X2487787D01*
X1553596Y3496096D01*
X1541623Y3504096D01*
X1527500Y3506905D01*
X1447500D01*
Y3527500D01*
X1361518D01*
X1355000Y3537500D01*
Y3657500D01*
X1339405D01*
Y3990000D01*
X1372500D01*
Y4055000D01*
Y4120000D01*
Y4210000D01*
X1339405D01*
Y4550000D01*
X1355000D01*
Y4670000D01*
X1361518Y4680000D01*
X1447500D01*
Y4700595D01*
X3559713D01*
X3583095Y4677213D01*
Y4664718D01*
X3570395Y4659458D01*
X3563987Y4665865D01*
X3541935Y4675000D01*
X3518065D01*
X3496013Y4665865D01*
X3479135Y4648987D01*
X3470000Y4626935D01*
Y4603065D01*
X3479135Y4581013D01*
X3482078Y4578069D01*
X3484324Y4574970D01*
X3486295Y4571877D01*
X3487992Y4568807D01*
X3489426Y4565760D01*
X3490620Y4562713D01*
X3491585Y4559655D01*
X3492332Y4556560D01*
X3492866Y4553411D01*
X3493095Y4551129D01*
Y4520852D01*
X3481362Y4515991D01*
X3476487Y4520865D01*
X3454435Y4530000D01*
X3449635Y4537184D01*
X3450000Y4538065D01*
Y4561935D01*
X3440866Y4583987D01*
X3423987Y4600866D01*
X3401935Y4610000D01*
X3378065D01*
X3367700Y4605707D01*
X3355000Y4614192D01*
Y4626935D01*
X3345866Y4648987D01*
X3328987Y4665865D01*
X3306935Y4675000D01*
X3283065D01*
X3261013Y4665865D01*
X3244134Y4648987D01*
X3235000Y4626935D01*
Y4608941D01*
X3231256Y4601244D01*
X3223559Y4597500D01*
X3205565D01*
X3205360Y4597414D01*
X3195000Y4606870D01*
Y4626935D01*
X3185866Y4648987D01*
X3168987Y4665865D01*
X3146935Y4675000D01*
X3123065D01*
X3101013Y4665865D01*
X3084135Y4648987D01*
X3075000Y4626935D01*
Y4603065D01*
X3084135Y4581013D01*
X3087078Y4578069D01*
X3089324Y4574970D01*
X3091295Y4571877D01*
X3092992Y4568807D01*
X3094426Y4565760D01*
X3095620Y4562713D01*
X3096585Y4559655D01*
X3097332Y4556560D01*
X3097866Y4553411D01*
X3098095Y4551129D01*
Y4425000D01*
X3100904Y4410877D01*
X3108904Y4398904D01*
X3140595Y4367214D01*
Y4271861D01*
X3132868Y4270324D01*
X3120464Y4262036D01*
X3108805Y4260887D01*
X3043596Y4326096D01*
X3031623Y4334096D01*
X3021000Y4336209D01*
Y4506000D01*
X3015000Y4506044D01*
Y4510000D01*
X2905000D01*
Y4510000D01*
X2901859Y4506882D01*
X2886000Y4507000D01*
Y4294500D01*
X2903000D01*
Y4238905D01*
X2844761D01*
X2835000Y4246000D01*
Y4381000D01*
X2458007D01*
X2457829Y4356905D01*
X1557501D01*
X1557500Y4356905D01*
X1543377Y4354096D01*
X1531404Y4346096D01*
X1531404Y4346095D01*
X1486404Y4301096D01*
X1478404Y4289123D01*
X1475595Y4275000D01*
Y4210000D01*
X1442500D01*
Y4120000D01*
X1582500D01*
Y4210000D01*
X1549405D01*
Y4259713D01*
X1572787Y4283095D01*
X2448268D01*
X2457215Y4274081D01*
X2457007Y4246000D01*
X2743095D01*
Y4215117D01*
X2745904Y4200994D01*
X2753904Y4189021D01*
X2767021Y4175904D01*
X2778994Y4167904D01*
X2793117Y4165095D01*
X2903000D01*
Y4148000D01*
X3015595D01*
Y4110000D01*
X3016550Y4105200D01*
X3006549Y4092500D01*
X2837500D01*
Y4090000D01*
X2540000D01*
Y4225000D01*
X2328500D01*
X2327500Y4090000D01*
X2155000D01*
Y4095000D01*
X1945000D01*
Y4092000D01*
X1743000D01*
Y4090000D01*
X1592499D01*
Y4086519D01*
X1582500Y4080000D01*
X1442500D01*
Y3990000D01*
X1582500D01*
X1592499Y3983481D01*
Y3980000D01*
X1743000D01*
Y3978000D01*
X1945000D01*
Y3975000D01*
X2155000D01*
Y3980000D01*
X2330500D01*
Y3978000D01*
X2536500D01*
Y3980000D01*
X2698000D01*
Y3883500D01*
X2811999D01*
X2812000Y3883500D01*
Y3883500D01*
X2821409Y3876399D01*
X2833433Y3864375D01*
X2845406Y3856375D01*
X2855000Y3854467D01*
Y3835000D01*
X2974999D01*
Y3834999D01*
X2985001D01*
Y3835000D01*
X3105000D01*
Y3944999D01*
X3116418Y3948095D01*
X3140817D01*
X3147500Y3946766D01*
X3206766D01*
Y3862776D01*
X3197901Y3849509D01*
X3194021Y3830000D01*
Y3823616D01*
X3183952Y3813548D01*
X3172901Y3797009D01*
X3169020Y3777500D01*
Y3760202D01*
X3169006Y3760000D01*
X3162500D01*
Y3737252D01*
X3162417Y3736968D01*
X3162500Y3736193D01*
Y3735625D01*
X3162315Y3734695D01*
X3162500Y3733765D01*
Y3668333D01*
X3162494Y3668313D01*
X3162500Y3668229D01*
Y3666234D01*
X3162315Y3665305D01*
X3162500Y3664375D01*
Y3642700D01*
X3162500Y3640001D01*
X3162499Y3640000D01*
X3162500Y3629999D01*
X3162500D01*
Y3605625D01*
X3162315Y3604695D01*
X3162500Y3603765D01*
Y3601787D01*
X3162493Y3601693D01*
X3162500Y3601670D01*
Y3575417D01*
X3161423Y3570000D01*
Y3484072D01*
X3160981Y3483411D01*
X3156325Y3460000D01*
Y3444972D01*
X3156274Y3444426D01*
X3156150Y3443626D01*
X3151988Y3438202D01*
X3144431Y3419957D01*
X3141853Y3400378D01*
Y3067500D01*
X3144431Y3047921D01*
X3151988Y3029676D01*
X3164009Y3014009D01*
X3269008Y2909010D01*
X3269009Y2909009D01*
X3284676Y2896988D01*
X3302921Y2889431D01*
X3322500Y2886853D01*
X3322502Y2886853D01*
X4097500D01*
X4117079Y2889431D01*
X4135324Y2896988D01*
X4138349Y2899310D01*
X4173983Y2901325D01*
X4196495D01*
X4219906Y2905981D01*
X4239752Y2919243D01*
X4280758Y2960248D01*
X4294019Y2980094D01*
X4298675Y3003505D01*
Y3055000D01*
X4294019Y3078411D01*
X4288480Y3086701D01*
Y3151384D01*
X4296116Y3159020D01*
X4371138D01*
X4372500Y3158952D01*
Y3155000D01*
X4396875D01*
X4397805Y3154815D01*
X4398735Y3155000D01*
X4400726D01*
X4400813Y3154993D01*
X4400834Y3155000D01*
X4464167D01*
X4464187Y3154993D01*
X4464271Y3155000D01*
X4466266D01*
X4467195Y3154815D01*
X4468125Y3155000D01*
X4492500D01*
Y3158462D01*
X4501417Y3159020D01*
X4538902D01*
X4542585Y3158695D01*
X4547885Y3157812D01*
X4551634Y3156803D01*
X4552500Y3156448D01*
Y3022500D01*
X4817500D01*
Y3109795D01*
X4817926Y3113831D01*
X4818866Y3116485D01*
X4820437Y3118835D01*
X4823381Y3121560D01*
X4828485Y3124670D01*
X4836149Y3127796D01*
X4846445Y3130559D01*
X4859296Y3132695D01*
X4874592Y3134040D01*
X4886524Y3134353D01*
X5270000D01*
X5274916Y3135001D01*
X5402500D01*
Y3285000D01*
X5274916D01*
X5270000Y3285647D01*
X4886524D01*
X4874592Y3285961D01*
X4859296Y3287306D01*
X4846445Y3289441D01*
X4836149Y3292205D01*
X4828485Y3295331D01*
X4823381Y3298440D01*
X4820438Y3301165D01*
X4818866Y3303516D01*
X4817926Y3306170D01*
X4817500Y3310206D01*
Y3397500D01*
X4785206D01*
X4781170Y3397927D01*
X4778515Y3398866D01*
X4776165Y3400438D01*
X4773440Y3403382D01*
X4770330Y3408485D01*
X4767205Y3416149D01*
X4764441Y3426446D01*
X4762306Y3439296D01*
X4760960Y3454593D01*
X4760647Y3466525D01*
Y3754998D01*
X4760647Y3755000D01*
X4758069Y3774579D01*
X4750512Y3792824D01*
X4738491Y3808490D01*
X4308490Y4238491D01*
X4292824Y4250512D01*
X4274579Y4258069D01*
X4255000Y4260647D01*
X4111785D01*
X4092206Y4258069D01*
X4073962Y4250512D01*
X4068927Y4246649D01*
X4018625Y4243627D01*
X3995000D01*
X3986823Y4242000D01*
X3820500D01*
Y4241077D01*
X3668195D01*
X3661432Y4246076D01*
X3656905Y4252416D01*
Y4692500D01*
X3654096Y4706623D01*
X3646096Y4718596D01*
X3601096Y4763596D01*
X3589123Y4771596D01*
X3575000Y4774405D01*
X1447500D01*
Y4795000D01*
X1247500D01*
Y4680001D01*
X1247500Y4680001D01*
X1244999Y4670000D01*
X1245000Y4669999D01*
X1245000Y4668336D01*
Y4550000D01*
X1265595D01*
Y4210000D01*
X1232500D01*
Y4167519D01*
X1222500Y4161000D01*
X500048D01*
X500000Y4161048D01*
Y4400000D01*
X50000D01*
Y5450000D01*
X9950000D01*
Y50000D01*
D02*
G37*
G36*
X1313808Y4662775D02*
X1314144Y4658917D01*
X1314704Y4655512D01*
X1315487Y4652561D01*
X1316495Y4650065D01*
X1317727Y4648022D01*
X1319182Y4646433D01*
X1320861Y4645298D01*
X1322765Y4644617D01*
X1324892Y4644390D01*
X1280107D01*
X1282235Y4644617D01*
X1284138Y4645298D01*
X1285818Y4646433D01*
X1287273Y4648022D01*
X1288505Y4650065D01*
X1289512Y4652561D01*
X1290296Y4655512D01*
X1290856Y4658917D01*
X1291192Y4662775D01*
X1291303Y4667087D01*
X1313696D01*
X1313808Y4662775D01*
D02*
G37*
G36*
X1322765Y4575383D02*
X1320861Y4574702D01*
X1319182Y4573567D01*
X1317727Y4571978D01*
X1316495Y4569935D01*
X1315487Y4567439D01*
X1314704Y4564488D01*
X1314144Y4561083D01*
X1313808Y4557225D01*
X1313696Y4552912D01*
X1291303D01*
X1291192Y4557225D01*
X1290856Y4561083D01*
X1290296Y4564488D01*
X1289512Y4567439D01*
X1288505Y4569935D01*
X1287273Y4571978D01*
X1285818Y4573567D01*
X1284138Y4574702D01*
X1282235Y4575383D01*
X1280107Y4575610D01*
X1324892D01*
X1322765Y4575383D01*
D02*
G37*
G36*
X3554592Y4589315D02*
X3551781Y4584903D01*
X3549300Y4580414D01*
X3547150Y4575848D01*
X3545331Y4571205D01*
X3543842Y4566486D01*
X3542685Y4561690D01*
X3541858Y4556816D01*
X3541362Y4551866D01*
X3541196Y4546839D01*
X3518804D01*
X3518638Y4551866D01*
X3518142Y4556816D01*
X3517316Y4561690D01*
X3516158Y4566486D01*
X3514669Y4571205D01*
X3512850Y4575848D01*
X3510700Y4580414D01*
X3508220Y4584903D01*
X3505408Y4589315D01*
X3502266Y4593650D01*
X3557734D01*
X3554592Y4589315D01*
D02*
G37*
G36*
X3319592D02*
X3316781Y4584903D01*
X3314300Y4580414D01*
X3312150Y4575848D01*
X3310331Y4571205D01*
X3308842Y4566486D01*
X3307685Y4561690D01*
X3306858Y4556816D01*
X3306362Y4551866D01*
X3306196Y4546839D01*
X3283804D01*
X3283638Y4551866D01*
X3283142Y4556816D01*
X3282316Y4561690D01*
X3281158Y4566486D01*
X3279669Y4571205D01*
X3277850Y4575848D01*
X3275700Y4580414D01*
X3273220Y4584903D01*
X3270408Y4589315D01*
X3267266Y4593650D01*
X3322734D01*
X3319592Y4589315D01*
D02*
G37*
G36*
X3159592D02*
X3156781Y4584903D01*
X3154300Y4580414D01*
X3152150Y4575848D01*
X3150331Y4571205D01*
X3148842Y4566486D01*
X3147685Y4561690D01*
X3146858Y4556816D01*
X3146362Y4551866D01*
X3146196Y4546839D01*
X3123804D01*
X3123638Y4551866D01*
X3123142Y4556816D01*
X3122316Y4561690D01*
X3121158Y4566486D01*
X3119669Y4571205D01*
X3117850Y4575848D01*
X3115700Y4580414D01*
X3113220Y4584903D01*
X3110408Y4589315D01*
X3107266Y4593650D01*
X3162734D01*
X3159592Y4589315D01*
D02*
G37*
G36*
X3391483Y4515031D02*
X3387222Y4514687D01*
X3383051Y4514021D01*
X3378969Y4513032D01*
X3374978Y4511721D01*
X3371076Y4510088D01*
X3367264Y4508132D01*
X3363543Y4505853D01*
X3359911Y4503252D01*
X3356369Y4500329D01*
X3352917Y4497083D01*
X3337083Y4512917D01*
X3340329Y4516369D01*
X3343252Y4519911D01*
X3345853Y4523543D01*
X3348132Y4527264D01*
X3350088Y4531076D01*
X3351721Y4534978D01*
X3353032Y4538969D01*
X3354021Y4543051D01*
X3354687Y4547222D01*
X3355031Y4551483D01*
X3391483Y4515031D01*
D02*
G37*
G36*
X3242092Y4511815D02*
X3239281Y4507403D01*
X3236800Y4502914D01*
X3234650Y4498348D01*
X3232831Y4493706D01*
X3231342Y4488986D01*
X3230185Y4484190D01*
X3229358Y4479316D01*
X3228862Y4474366D01*
X3228696Y4469339D01*
X3206304D01*
X3206138Y4474366D01*
X3205642Y4479316D01*
X3204816Y4484190D01*
X3203658Y4488986D01*
X3202169Y4493706D01*
X3200350Y4498348D01*
X3198200Y4502914D01*
X3195720Y4507403D01*
X3192908Y4511815D01*
X3189766Y4516150D01*
X3245234D01*
X3242092Y4511815D01*
D02*
G37*
G36*
X3447511Y4435360D02*
X3442263Y4434448D01*
X3437191Y4433255D01*
X3432294Y4431780D01*
X3427572Y4430024D01*
X3423025Y4427987D01*
X3418653Y4425669D01*
X3414456Y4423069D01*
X3410435Y4420188D01*
X3406588Y4417026D01*
X3402917Y4413583D01*
X3387083Y4429417D01*
X3390399Y4432975D01*
X3393438Y4436739D01*
X3396199Y4440710D01*
X3398684Y4444888D01*
X3400890Y4449272D01*
X3402819Y4453862D01*
X3404471Y4458659D01*
X3405846Y4463662D01*
X3406944Y4468872D01*
X3407764Y4474288D01*
X3447511Y4435360D01*
D02*
G37*
G36*
X3406488Y4337259D02*
X3383512D01*
X3383568Y4337565D01*
X3383617Y4338311D01*
X3383792Y4352008D01*
X3383804Y4360087D01*
X3406196D01*
X3406488Y4337259D01*
D02*
G37*
G36*
X3356488D02*
X3333513D01*
X3333568Y4337565D01*
X3333617Y4338311D01*
X3333792Y4352008D01*
X3333804Y4360087D01*
X3356196D01*
X3356488Y4337259D01*
D02*
G37*
G36*
X3306488D02*
X3283512D01*
X3283568Y4337565D01*
X3283617Y4338311D01*
X3283792Y4352008D01*
X3283804Y4360087D01*
X3306196D01*
X3306488Y4337259D01*
D02*
G37*
G36*
X3256488D02*
X3233512D01*
X3233568Y4337565D01*
X3233617Y4338311D01*
X3233792Y4352008D01*
X3233804Y4360087D01*
X3256196D01*
X3256488Y4337259D01*
D02*
G37*
G36*
X3188808Y4265514D02*
X3189144Y4261655D01*
X3189704Y4258251D01*
X3190488Y4255300D01*
X3191495Y4252804D01*
X3192727Y4250761D01*
X3194182Y4249172D01*
X3195862Y4248037D01*
X3197765Y4247356D01*
X3199893Y4247129D01*
X3155108D01*
X3157235Y4247356D01*
X3159138Y4248037D01*
X3160818Y4249172D01*
X3162273Y4250761D01*
X3163505Y4252804D01*
X3164513Y4255300D01*
X3165296Y4258251D01*
X3165856Y4261655D01*
X3166192Y4265514D01*
X3166304Y4269826D01*
X3188696D01*
X3188808Y4265514D01*
D02*
G37*
G36*
X3430369Y4237176D02*
X3445000Y4234265D01*
X3459632Y4237176D01*
X3470000Y4244104D01*
X3480368Y4237176D01*
X3494387Y4234387D01*
X3497176Y4220368D01*
X3504104Y4210000D01*
X3497176Y4199632D01*
X3494266Y4185000D01*
X3497176Y4170368D01*
X3504104Y4160000D01*
X3497176Y4149632D01*
X3494266Y4135000D01*
X3497176Y4120368D01*
X3504104Y4110000D01*
X3497176Y4099631D01*
X3494266Y4085000D01*
X3497176Y4070368D01*
X3505464Y4057964D01*
X3517868Y4049676D01*
X3532500Y4046765D01*
X3650000D01*
X3664631Y4049676D01*
X3677036Y4057964D01*
X3679964Y4060892D01*
X3680365Y4060672D01*
X3682249Y4059486D01*
X3684752Y4057710D01*
X3687123Y4056649D01*
X3696040Y4050691D01*
X3717500Y4046423D01*
X3719511Y4046823D01*
X3771717D01*
X3821192Y3997347D01*
X3839385Y3985191D01*
X3860845Y3980923D01*
X3864000D01*
X3864000Y3923000D01*
X3864000Y3910300D01*
Y3895950D01*
X3862995Y3895339D01*
X3859726Y3894008D01*
X3854630Y3892642D01*
X3847782Y3891506D01*
X3842905Y3891077D01*
X3663228D01*
X3657153Y3897153D01*
X3638960Y3909309D01*
X3627292Y3911629D01*
X3625033Y3912465D01*
X3624102Y3912613D01*
X3624057Y3912628D01*
X3623895Y3912694D01*
X3623620Y3912831D01*
X3623217Y3913066D01*
X3623210Y3913071D01*
X3620640Y3915641D01*
X3613234Y3920589D01*
Y3946766D01*
X3615000D01*
X3629632Y3949676D01*
X3642036Y3957964D01*
X3650324Y3970368D01*
X3653235Y3985000D01*
X3650324Y3999632D01*
X3642036Y4012036D01*
X3629632Y4020324D01*
X3615000Y4023234D01*
X3532500D01*
X3517868Y4020324D01*
X3505464Y4012036D01*
X3497176Y3999632D01*
X3494387Y3985613D01*
X3480368Y3982824D01*
X3467964Y3974536D01*
X3459676Y3962132D01*
X3456766Y3947500D01*
Y3887500D01*
X3459676Y3872868D01*
X3463265Y3867496D01*
X3453401Y3859401D01*
X3432215Y3880586D01*
Y3882374D01*
X3433235Y3887500D01*
Y3947500D01*
X3430324Y3962132D01*
X3422036Y3974536D01*
X3409632Y3982824D01*
X3395000Y3985734D01*
X3380369Y3982824D01*
X3370000Y3975896D01*
X3359632Y3982824D01*
X3345000Y3985734D01*
X3330368Y3982824D01*
X3317964Y3974536D01*
X3309676Y3962132D01*
X3306766Y3947500D01*
Y3887500D01*
X3307785Y3882374D01*
Y3857500D01*
X3310618Y3843258D01*
X3318685Y3831185D01*
X3521185Y3628685D01*
X3533258Y3620618D01*
X3547500Y3617785D01*
X3652085D01*
X3672785Y3597085D01*
Y3352582D01*
X3672499Y3340000D01*
X3462500D01*
Y3150000D01*
X3672500D01*
Y3209602D01*
X3682768Y3211645D01*
X3694841Y3219712D01*
X3736315Y3261185D01*
X3744382Y3273258D01*
X3747215Y3287500D01*
Y3478043D01*
X3759915Y3479294D01*
X3760618Y3475758D01*
X3768685Y3463685D01*
X3783685Y3448686D01*
X3783685Y3448685D01*
X3795758Y3440618D01*
X3810000Y3437785D01*
X3842500D01*
Y3380000D01*
X4052500D01*
Y3570000D01*
X3842501D01*
X3832215Y3575829D01*
Y3600000D01*
X3829382Y3614242D01*
X3821315Y3626315D01*
X3721315Y3726315D01*
X3709242Y3734382D01*
X3695000Y3737215D01*
X3575586D01*
X3466901Y3845900D01*
X3474997Y3855765D01*
X3480368Y3852176D01*
X3495000Y3849265D01*
X3509632Y3852176D01*
X3522036Y3860464D01*
X3528770Y3870542D01*
X3539620Y3873342D01*
X3543271Y3873527D01*
X3549966Y3868417D01*
X3559359Y3854360D01*
X3561929Y3851790D01*
X3561933Y3851784D01*
X3562169Y3851381D01*
X3562307Y3851103D01*
X3562372Y3850945D01*
X3562387Y3850898D01*
X3562535Y3849967D01*
X3563371Y3847708D01*
X3565691Y3836040D01*
X3577847Y3817847D01*
X3600347Y3795347D01*
X3618540Y3783191D01*
X3640000Y3778923D01*
X3843485D01*
X3847928Y3778561D01*
X3854882Y3777491D01*
X3860103Y3776193D01*
X3863477Y3774919D01*
X3863953Y3774650D01*
X3863979Y3774417D01*
X3864000Y3774352D01*
Y3752000D01*
X3888322D01*
X3889239Y3751815D01*
X3890181Y3752000D01*
X3891941D01*
X3892192Y3751979D01*
X3892257Y3752000D01*
X4061000D01*
Y3910300D01*
X4061000Y3921000D01*
X4061000Y3933700D01*
Y4092000D01*
X3938417D01*
X3933000Y4093077D01*
X3884073D01*
X3860884Y4116267D01*
X3865744Y4128000D01*
X3986823D01*
X3995000Y4126374D01*
X4035864D01*
X4060509Y4124893D01*
X4065371Y4124286D01*
X4068385Y4123731D01*
X4068461Y4123709D01*
X4073962Y4119488D01*
X4092206Y4111931D01*
X4111785Y4109353D01*
X4223666D01*
X4609353Y3723666D01*
Y3466525D01*
X4609040Y3454593D01*
X4607694Y3439297D01*
X4605559Y3426446D01*
X4602795Y3416149D01*
X4599670Y3408485D01*
X4596560Y3403382D01*
X4593835Y3400438D01*
X4591485Y3398866D01*
X4588830Y3397927D01*
X4584794Y3397500D01*
X4552500D01*
Y3263552D01*
X4551635Y3263197D01*
X4547884Y3262188D01*
X4542585Y3261305D01*
X4538902Y3260980D01*
X4493862D01*
X4492500Y3261048D01*
Y3265000D01*
X4468125D01*
X4467195Y3265185D01*
X4466266Y3265000D01*
X4464275D01*
X4464187Y3265007D01*
X4464166Y3265000D01*
X4400833D01*
X4400813Y3265006D01*
X4400729Y3265000D01*
X4398735D01*
X4397805Y3265185D01*
X4396875Y3265000D01*
X4372500D01*
Y3261538D01*
X4363583Y3260980D01*
X4275000D01*
X4255491Y3257099D01*
X4238952Y3246048D01*
X4201452Y3208548D01*
X4190401Y3192009D01*
X4186520Y3172500D01*
Y3086701D01*
X4180981Y3078411D01*
X4176325Y3055000D01*
Y3028845D01*
X4171155Y3023675D01*
X4160099D01*
X4144037Y3024584D01*
X4140330Y3025019D01*
X4138902Y3025266D01*
X4135324Y3028012D01*
X4117079Y3035569D01*
X4097500Y3038147D01*
X3353834D01*
X3293147Y3098834D01*
Y3400378D01*
X3290569Y3419957D01*
X3283012Y3438202D01*
X3278850Y3443626D01*
X3278785Y3444042D01*
X3278675Y3445818D01*
Y3460000D01*
X3274019Y3483411D01*
X3273577Y3484072D01*
Y3570000D01*
X3272500Y3575417D01*
Y3601670D01*
X3272507Y3601693D01*
X3272500Y3601787D01*
Y3603765D01*
X3272685Y3604695D01*
X3272500Y3605625D01*
Y3627300D01*
X3272500Y3629999D01*
X3272501Y3630000D01*
X3272500Y3640001D01*
X3272500D01*
Y3664375D01*
X3272685Y3665305D01*
X3272500Y3666234D01*
Y3668225D01*
X3272507Y3668313D01*
X3272500Y3668334D01*
Y3733765D01*
X3272685Y3734695D01*
X3272556Y3735345D01*
X3272651Y3736001D01*
X3272500Y3738953D01*
Y3757904D01*
X3281048Y3766452D01*
X3292099Y3782991D01*
X3295980Y3802500D01*
Y3830000D01*
X3292099Y3849509D01*
X3283234Y3862776D01*
Y3947500D01*
X3280324Y3962132D01*
X3272036Y3974536D01*
X3259632Y3982824D01*
X3245613Y3985613D01*
X3242824Y3999632D01*
X3235896Y4010000D01*
X3242824Y4020368D01*
X3245735Y4035000D01*
X3242824Y4049631D01*
X3235896Y4060000D01*
X3242824Y4070368D01*
X3245735Y4085000D01*
X3242824Y4099632D01*
X3235896Y4110000D01*
X3242824Y4120368D01*
X3245735Y4135000D01*
X3242824Y4149632D01*
X3234536Y4162036D01*
X3222132Y4170324D01*
X3207500Y4173234D01*
X3152869D01*
X3142300Y4183780D01*
X3142321Y4185750D01*
X3147500Y4196766D01*
X3207500D01*
X3222132Y4199676D01*
X3234536Y4207964D01*
X3242824Y4220368D01*
X3245613Y4234387D01*
X3259632Y4237176D01*
X3270000Y4244104D01*
X3280368Y4237176D01*
X3295000Y4234265D01*
X3309632Y4237176D01*
X3320000Y4244104D01*
X3330368Y4237176D01*
X3345000Y4234265D01*
X3359632Y4237176D01*
X3370000Y4244104D01*
X3380368Y4237176D01*
X3395000Y4234265D01*
X3409632Y4237176D01*
X3420000Y4244104D01*
X3430369Y4237176D01*
D02*
G37*
G36*
X1313808Y4202775D02*
X1314144Y4198917D01*
X1314704Y4195512D01*
X1315487Y4192561D01*
X1316495Y4190065D01*
X1317727Y4188022D01*
X1319182Y4186433D01*
X1320861Y4185298D01*
X1322765Y4184617D01*
X1324892Y4184390D01*
X1280107D01*
X1282235Y4184617D01*
X1284138Y4185298D01*
X1285818Y4186433D01*
X1287273Y4188022D01*
X1288505Y4190065D01*
X1289512Y4192561D01*
X1290296Y4195512D01*
X1290856Y4198917D01*
X1291192Y4202775D01*
X1291303Y4207088D01*
X1313696D01*
X1313808Y4202775D01*
D02*
G37*
G36*
X3585125Y4172618D02*
X3583000Y4171859D01*
X3581125Y4170593D01*
X3579500Y4168822D01*
X3578125Y4166545D01*
X3577000Y4163761D01*
X3576125Y4160471D01*
X3576047Y4160000D01*
X3576125Y4159528D01*
X3577000Y4156239D01*
X3578125Y4153455D01*
X3579500Y4151178D01*
X3581125Y4149406D01*
X3583000Y4148141D01*
X3585125Y4147382D01*
X3587500Y4147129D01*
X3537500D01*
X3539875Y4147382D01*
X3542000Y4148141D01*
X3543875Y4149406D01*
X3545500Y4151178D01*
X3546875Y4153455D01*
X3548000Y4156239D01*
X3548875Y4159528D01*
X3548953Y4160000D01*
X3548875Y4160471D01*
X3548000Y4163761D01*
X3546875Y4166545D01*
X3545500Y4168822D01*
X3543875Y4170593D01*
X3542000Y4171859D01*
X3539875Y4172618D01*
X3537500Y4172871D01*
X3587500D01*
X3585125Y4172618D01*
D02*
G37*
G36*
X4080060Y4146354D02*
X4077862Y4147522D01*
X4074262Y4148566D01*
X4069260Y4149488D01*
X4062857Y4150287D01*
X4035236Y4151947D01*
X3995000Y4152500D01*
Y4217500D01*
X4009814Y4217562D01*
X4074262Y4221434D01*
X4077862Y4222478D01*
X4080060Y4223646D01*
Y4146354D01*
D02*
G37*
G36*
X3142741Y4123512D02*
X3142436Y4123568D01*
X3141692Y4123617D01*
X3128047Y4123792D01*
X3120000Y4123804D01*
Y4146196D01*
X3142741Y4146488D01*
Y4123512D01*
D02*
G37*
G36*
X3699500Y4078500D02*
X3696420Y4080685D01*
X3693313Y4082640D01*
X3690180Y4084365D01*
X3687020Y4085860D01*
X3683833Y4087125D01*
X3680620Y4088160D01*
X3677380Y4088965D01*
X3674114Y4089540D01*
X3670820Y4089885D01*
X3667500Y4090000D01*
Y4115000D01*
X3670820Y4115115D01*
X3674114Y4115460D01*
X3677380Y4116035D01*
X3680620Y4116840D01*
X3683833Y4117875D01*
X3687020Y4119140D01*
X3690180Y4120635D01*
X3693313Y4122360D01*
X3696420Y4124315D01*
X3699500Y4126500D01*
Y4078500D01*
D02*
G37*
G36*
X3142741Y4073512D02*
X3142435Y4073568D01*
X3141689Y4073617D01*
X3127992Y4073792D01*
X3119913Y4073804D01*
Y4096196D01*
X3142741Y4096488D01*
Y4073512D01*
D02*
G37*
G36*
X500000Y4125000D02*
X525000D01*
Y4075000D01*
X500000D01*
X450000Y4025000D01*
Y4175000D01*
X500000Y4125000D01*
D02*
G37*
G36*
X3142741Y4023512D02*
X3142435Y4023568D01*
X3141689Y4023617D01*
X3127992Y4023792D01*
X3119913Y4023804D01*
Y4046196D01*
X3142741Y4046487D01*
Y4023512D01*
D02*
G37*
G36*
X1322765Y4015383D02*
X1320861Y4014702D01*
X1319182Y4013567D01*
X1317727Y4011978D01*
X1316495Y4009935D01*
X1315487Y4007439D01*
X1314704Y4004488D01*
X1314144Y4001083D01*
X1313808Y3997225D01*
X1313696Y3992913D01*
X1291303D01*
X1291192Y3997225D01*
X1290856Y4001083D01*
X1290296Y4004488D01*
X1289512Y4007439D01*
X1288505Y4009935D01*
X1287273Y4011978D01*
X1285818Y4013567D01*
X1284138Y4014702D01*
X1282235Y4015383D01*
X1280107Y4015610D01*
X1324892D01*
X1322765Y4015383D01*
D02*
G37*
G36*
X3142741Y3973512D02*
X3142435Y3973568D01*
X3141689Y3973617D01*
X3127992Y3973792D01*
X3119913Y3973804D01*
Y3996196D01*
X3142741Y3996488D01*
Y3973512D01*
D02*
G37*
G36*
X3597488Y3975196D02*
X3595392Y3974260D01*
X3593542Y3972791D01*
X3591939Y3970788D01*
X3590583Y3968252D01*
X3589473Y3965182D01*
X3588610Y3961579D01*
X3587993Y3957441D01*
X3587623Y3952770D01*
X3587500Y3947566D01*
X3562500D01*
X3562375Y3952497D01*
X3562000Y3956895D01*
X3561375Y3960759D01*
X3560500Y3964089D01*
X3559375Y3966886D01*
X3558000Y3969150D01*
X3556375Y3970881D01*
X3554500Y3972077D01*
X3552375Y3972741D01*
X3550000Y3972871D01*
X3599830Y3975597D01*
X3597488Y3975196D01*
D02*
G37*
G36*
X3585044Y3907649D02*
X3589707Y3903521D01*
X3590366Y3903060D01*
X3590935Y3902721D01*
X3591412Y3902503D01*
X3591799Y3902407D01*
X3572593Y3883201D01*
X3572497Y3883588D01*
X3572279Y3884065D01*
X3571940Y3884634D01*
X3571479Y3885293D01*
X3570193Y3886885D01*
X3568420Y3888841D01*
X3566161Y3891161D01*
X3583839Y3908839D01*
X3585044Y3907649D01*
D02*
G37*
G36*
X3604168Y3895666D02*
X3607804Y3892716D01*
X3609646Y3891474D01*
X3611503Y3890388D01*
X3613377Y3889458D01*
X3615266Y3888683D01*
X3617171Y3888064D01*
X3619092Y3887600D01*
X3621028Y3887292D01*
X3587708Y3853972D01*
X3587400Y3855908D01*
X3586936Y3857829D01*
X3586317Y3859734D01*
X3585542Y3861623D01*
X3584612Y3863497D01*
X3583526Y3865354D01*
X3582284Y3867196D01*
X3580887Y3869022D01*
X3579334Y3870832D01*
X3577626Y3872626D01*
X3602374Y3897374D01*
X3604168Y3895666D01*
D02*
G37*
G36*
X3889305Y3777305D02*
X3888705Y3782567D01*
X3886905Y3787275D01*
X3883905Y3791429D01*
X3879705Y3795030D01*
X3874305Y3798076D01*
X3867705Y3800569D01*
X3859905Y3802508D01*
X3850905Y3803892D01*
X3840705Y3804723D01*
X3829305Y3805000D01*
Y3865000D01*
X3840749Y3865300D01*
X3850990Y3866200D01*
X3860028Y3867700D01*
X3867863Y3869800D01*
X3874495Y3872500D01*
X3879924Y3875800D01*
X3884150Y3879700D01*
X3887173Y3884200D01*
X3888993Y3889300D01*
X3889610Y3895000D01*
X3889305Y3777305D01*
D02*
G37*
G36*
X3247195Y3734695D02*
X3187805D01*
X3189172Y3735123D01*
X3190395Y3736407D01*
X3191474Y3738548D01*
X3192410Y3741544D01*
X3193201Y3745396D01*
X3193849Y3750105D01*
X3194712Y3762090D01*
X3195000Y3777500D01*
X3245000D01*
X3247195Y3734695D01*
D02*
G37*
G36*
X1313808Y3650275D02*
X1314144Y3646416D01*
X1314704Y3643012D01*
X1315487Y3640061D01*
X1316495Y3637564D01*
X1317727Y3635522D01*
X1319182Y3633933D01*
X1320861Y3632798D01*
X1322765Y3632117D01*
X1324892Y3631890D01*
X1280107D01*
X1282235Y3632117D01*
X1284138Y3632798D01*
X1285818Y3633933D01*
X1287273Y3635522D01*
X1288505Y3637564D01*
X1289512Y3640061D01*
X1290296Y3643012D01*
X1290856Y3646416D01*
X1291192Y3650275D01*
X1291303Y3654587D01*
X1313696D01*
X1313808Y3650275D01*
D02*
G37*
G36*
X3246303Y3664805D02*
X3245505Y3663305D01*
X3244801Y3660805D01*
X3244190Y3657305D01*
X3243674Y3652805D01*
X3242957Y3638639D01*
X3244801Y3609195D01*
X3245505Y3606695D01*
X3246303Y3605195D01*
X3247195Y3604695D01*
X3187805D01*
X3188697Y3605195D01*
X3189495Y3606695D01*
X3190199Y3609195D01*
X3190810Y3612695D01*
X3191326Y3617195D01*
X3192043Y3631361D01*
X3190199Y3660805D01*
X3189495Y3663305D01*
X3188697Y3664805D01*
X3187805Y3665305D01*
X3247195D01*
X3246303Y3664805D01*
D02*
G37*
G36*
X1322765Y3562882D02*
X1320861Y3562202D01*
X1319182Y3561067D01*
X1317727Y3559478D01*
X1316495Y3557435D01*
X1315487Y3554939D01*
X1314704Y3551988D01*
X1314144Y3548583D01*
X1313808Y3544725D01*
X1313696Y3540412D01*
X1291303D01*
X1291192Y3544725D01*
X1290856Y3548583D01*
X1290296Y3551988D01*
X1289512Y3554939D01*
X1288505Y3557435D01*
X1287273Y3559478D01*
X1285818Y3561067D01*
X1284138Y3562202D01*
X1282235Y3562882D01*
X1280107Y3563109D01*
X1324892D01*
X1322765Y3562882D01*
D02*
G37*
G36*
X1313808Y3520275D02*
X1314144Y3516417D01*
X1314704Y3513012D01*
X1315487Y3510061D01*
X1316495Y3507565D01*
X1317727Y3505522D01*
X1319182Y3503933D01*
X1320861Y3502798D01*
X1322765Y3502117D01*
X1324892Y3501890D01*
X1280107D01*
X1282235Y3502117D01*
X1284138Y3502798D01*
X1285818Y3503933D01*
X1287273Y3505522D01*
X1288505Y3507565D01*
X1289512Y3510061D01*
X1290296Y3513012D01*
X1290856Y3516417D01*
X1291192Y3520275D01*
X1291303Y3524588D01*
X1313696D01*
X1313808Y3520275D01*
D02*
G37*
G36*
X3868110Y3452000D02*
X3867877Y3454185D01*
X3867178Y3456140D01*
X3866012Y3457865D01*
X3864381Y3459360D01*
X3862284Y3460625D01*
X3859720Y3461660D01*
X3856691Y3462465D01*
X3853195Y3463040D01*
X3849233Y3463385D01*
X3844805Y3463500D01*
Y3486500D01*
X3849233Y3486615D01*
X3853195Y3486960D01*
X3856691Y3487535D01*
X3859720Y3488340D01*
X3862284Y3489375D01*
X3864381Y3490640D01*
X3866012Y3492135D01*
X3867178Y3493860D01*
X3867877Y3495815D01*
X3868110Y3498000D01*
Y3452000D01*
D02*
G37*
G36*
X1422117Y3490265D02*
X1422798Y3488362D01*
X1423933Y3486682D01*
X1425522Y3485227D01*
X1427565Y3483995D01*
X1430061Y3482987D01*
X1433012Y3482204D01*
X1436416Y3481644D01*
X1440275Y3481308D01*
X1444587Y3481196D01*
Y3458804D01*
X1440275Y3458692D01*
X1436416Y3458356D01*
X1433012Y3457796D01*
X1430061Y3457012D01*
X1427565Y3456005D01*
X1425522Y3454773D01*
X1423933Y3453318D01*
X1422798Y3451638D01*
X1422117Y3449735D01*
X1421890Y3447608D01*
Y3492392D01*
X1422117Y3490265D01*
D02*
G37*
G36*
X3252537Y3455500D02*
X3253417Y3441295D01*
X3253821Y3438692D01*
X3254298Y3436469D01*
X3254848Y3434625D01*
X3255472Y3433161D01*
X3256169Y3432076D01*
X3178831D01*
X3179528Y3433161D01*
X3180152Y3434625D01*
X3180702Y3436469D01*
X3181179Y3438692D01*
X3181583Y3441295D01*
X3182170Y3447638D01*
X3182463Y3455500D01*
X3182500Y3460000D01*
X3252500D01*
X3252537Y3455500D01*
D02*
G37*
G36*
X4735500Y3453138D02*
X4737000Y3436086D01*
X4739500Y3421040D01*
X4743000Y3408001D01*
X4747500Y3396967D01*
X4753000Y3387940D01*
X4759500Y3380918D01*
X4767000Y3375903D01*
X4775500Y3372894D01*
X4785000Y3371891D01*
X4585000D01*
X4594500Y3372894D01*
X4603000Y3375903D01*
X4610500Y3380918D01*
X4617000Y3387940D01*
X4622500Y3396967D01*
X4627000Y3408001D01*
X4630500Y3421040D01*
X4633000Y3436086D01*
X4634500Y3453138D01*
X4635000Y3472196D01*
X4735000D01*
X4735500Y3453138D01*
D02*
G37*
G36*
X3647106Y3265490D02*
X3647755Y3263819D01*
X3648837Y3262344D01*
X3650352Y3261066D01*
X3652299Y3259984D01*
X3654679Y3259100D01*
X3657492Y3258411D01*
X3660737Y3257920D01*
X3664416Y3257625D01*
X3668527Y3257526D01*
Y3234527D01*
X3664416Y3234428D01*
X3660737Y3234133D01*
X3657492Y3233642D01*
X3654679Y3232953D01*
X3652299Y3232069D01*
X3650352Y3230987D01*
X3648837Y3229709D01*
X3647755Y3228234D01*
X3647106Y3226563D01*
X3646890Y3224695D01*
Y3267358D01*
X3647106Y3265490D01*
D02*
G37*
G36*
X4467695Y3238803D02*
X4469195Y3238005D01*
X4471695Y3237301D01*
X4475195Y3236690D01*
X4479695Y3236174D01*
X4499195Y3235188D01*
X4517195Y3235000D01*
Y3185000D01*
X4507695Y3184953D01*
X4471695Y3182699D01*
X4469195Y3181995D01*
X4467695Y3181197D01*
X4467195Y3180305D01*
Y3239695D01*
X4467695Y3238803D01*
D02*
G37*
G36*
X4397805Y3180305D02*
X4397305Y3181197D01*
X4395805Y3181995D01*
X4393305Y3182699D01*
X4389805Y3183310D01*
X4385305Y3183826D01*
X4365805Y3184812D01*
X4347805Y3185000D01*
Y3235000D01*
X4357305Y3235047D01*
X4393305Y3237301D01*
X4395805Y3238005D01*
X4397305Y3238803D01*
X4397805Y3239695D01*
Y3180305D01*
D02*
G37*
G36*
X4577805Y3236260D02*
X4635585Y3240085D01*
X4642022Y3241641D01*
X4646716Y3243406D01*
X4649666Y3245377D01*
Y3174623D01*
X4646716Y3176594D01*
X4642022Y3178358D01*
X4635585Y3179915D01*
X4627404Y3181264D01*
X4605810Y3183340D01*
X4577805Y3184298D01*
Y3160000D01*
X4577305Y3164750D01*
X4575805Y3169000D01*
X4573305Y3172750D01*
X4569805Y3176000D01*
X4565305Y3178750D01*
X4559805Y3181000D01*
X4553305Y3182750D01*
X4545805Y3184000D01*
X4537305Y3184750D01*
X4527805Y3185000D01*
Y3235000D01*
X4537305Y3235250D01*
X4545805Y3236000D01*
X4553305Y3237250D01*
X4559805Y3239000D01*
X4565305Y3241250D01*
X4569805Y3244000D01*
X4573305Y3247250D01*
X4575805Y3251000D01*
X4577305Y3255250D01*
X4577805Y3260000D01*
Y3236260D01*
D02*
G37*
G36*
X4792893Y3300500D02*
X4795903Y3292001D01*
X4800918Y3284500D01*
X4807939Y3278001D01*
X4816966Y3272500D01*
X4828000Y3268001D01*
X4841040Y3264500D01*
X4856086Y3262001D01*
X4873137Y3260500D01*
X4892195Y3260000D01*
Y3160001D01*
X4873137Y3159500D01*
X4856086Y3158000D01*
X4841040Y3155500D01*
X4828000Y3152000D01*
X4816966Y3147500D01*
X4807939Y3142000D01*
X4800918Y3135500D01*
X4795903Y3128000D01*
X4792893Y3119500D01*
X4791890Y3110000D01*
Y3310000D01*
X4792893Y3300500D01*
D02*
G37*
G36*
X4129725Y3001276D02*
X4132631Y3000483D01*
X4136666Y2999784D01*
X4141829Y2999178D01*
X4164085Y2997920D01*
X4196495Y2997500D01*
Y2927500D01*
X4184564Y2927453D01*
X4132631Y2924517D01*
X4129725Y2923724D01*
X4127946Y2922838D01*
Y3002162D01*
X4129725Y3001276D01*
D02*
G37*
G36*
X6819514Y2550292D02*
X6814227Y2549449D01*
X6809119Y2548317D01*
X6804191Y2546897D01*
X6799442Y2545189D01*
X6794873Y2543192D01*
X6790483Y2540908D01*
X6786273Y2538335D01*
X6782243Y2535473D01*
X6778392Y2532324D01*
X6774720Y2528886D01*
X6758886Y2544720D01*
X6762324Y2548391D01*
X6765473Y2552243D01*
X6768335Y2556273D01*
X6770908Y2560483D01*
X6773192Y2564873D01*
X6775189Y2569442D01*
X6776897Y2574191D01*
X6778317Y2579119D01*
X6779449Y2584227D01*
X6780292Y2589514D01*
X6819514Y2550292D01*
D02*
G37*
%LPC*%
G36*
X5492500Y5425000D02*
X5222500D01*
Y5285000D01*
X5388095D01*
Y5262500D01*
X5390904Y5248377D01*
X5398904Y5236404D01*
X5436404Y5198904D01*
X5448377Y5190904D01*
X5462500Y5188095D01*
X5584832D01*
X5596250Y5185000D01*
Y5132500D01*
X5568750D01*
Y5131905D01*
X5355000D01*
X5340877Y5129096D01*
X5328904Y5121096D01*
X5289714Y5081906D01*
X5240000D01*
Y5112500D01*
X5100000D01*
Y4977500D01*
Y4842500D01*
X5240000D01*
Y4977500D01*
Y5008095D01*
X5305000D01*
X5319123Y5010904D01*
X5331096Y5018904D01*
X5337300Y5025108D01*
X5350000Y5019847D01*
Y4902500D01*
X5490000D01*
Y5008095D01*
X5568750D01*
Y5007501D01*
X5646250D01*
Y5107500D01*
X5721249Y5107500D01*
X5721250Y5094800D01*
Y5032500D01*
X5696250D01*
Y4967875D01*
X5693716Y4964083D01*
X5690417Y4947500D01*
Y4914533D01*
X5690401Y4914509D01*
X5686521Y4895000D01*
Y4875000D01*
X5685000D01*
Y4850625D01*
X5684815Y4849695D01*
X5684920Y4849170D01*
X5684837Y4848640D01*
X5685000Y4847967D01*
Y4820417D01*
X5683923Y4815000D01*
Y4696077D01*
X5322500D01*
X5301040Y4691809D01*
X5282847Y4679653D01*
X5234272Y4631077D01*
X5040581D01*
X5027005Y4644653D01*
X5008813Y4656809D01*
X4987353Y4661078D01*
X4820000D01*
X4814583Y4660000D01*
X4786235D01*
X4785305Y4660185D01*
X4784375Y4660000D01*
X4782793D01*
X4782474Y4660027D01*
X4782388Y4660000D01*
X4760000D01*
Y4658340D01*
X4749861D01*
X4730352Y4654460D01*
X4726353Y4651788D01*
X4722143Y4651508D01*
X4712870Y4660185D01*
Y4708960D01*
X4712870D01*
Y4758960D01*
X4702780D01*
Y4815588D01*
X4716169Y4828978D01*
X4721013Y4824134D01*
X4743065Y4815000D01*
X4766935D01*
X4788987Y4824134D01*
X4805865Y4841013D01*
X4815000Y4863065D01*
Y4886935D01*
X4805865Y4908987D01*
X4801585Y4913267D01*
X4806446Y4925001D01*
X4822500D01*
Y5065000D01*
X4687501D01*
Y5065001D01*
X4677500D01*
Y5065000D01*
X4618147D01*
X4614295Y5077700D01*
X4616096Y5078904D01*
X4636096Y5098904D01*
X4644096Y5110877D01*
X4646905Y5125000D01*
X4677499D01*
Y5125000D01*
X4687500D01*
Y5125000D01*
X4822500D01*
Y5265000D01*
X4687500D01*
Y5265001D01*
X4677499D01*
Y5265000D01*
X4542500D01*
Y5142925D01*
X4534019Y5137258D01*
X4522500Y5143539D01*
Y5265000D01*
X4495784D01*
Y5278107D01*
X4531893Y5314217D01*
X5067500D01*
Y5285000D01*
X5091738D01*
X5101009Y5272300D01*
X5100000Y5267500D01*
X5090406Y5260000D01*
X5078065D01*
X5056013Y5250866D01*
X5039134Y5233987D01*
X5030000Y5211935D01*
Y5188065D01*
X5039134Y5166013D01*
X5056013Y5149134D01*
X5078065Y5140000D01*
X5100000D01*
Y5132500D01*
X5240000D01*
Y5267500D01*
X5208795D01*
X5207679Y5273107D01*
X5201270Y5282699D01*
X5202500Y5285001D01*
X5202500D01*
Y5425000D01*
X5067500D01*
Y5395784D01*
X4515001D01*
X4515000Y5395784D01*
X4499393Y5392680D01*
X4486162Y5383839D01*
X4486161Y5383838D01*
X4426162Y5323839D01*
X4417321Y5310608D01*
X4414216Y5295000D01*
X4414217Y5294999D01*
Y5265000D01*
X4387500D01*
Y5125000D01*
X4414217D01*
Y5065000D01*
X4387500D01*
Y4925001D01*
X4387500D01*
X4392448Y4912301D01*
X4379134Y4898987D01*
X4370000Y4876935D01*
Y4853065D01*
X4379134Y4831013D01*
X4382078Y4828069D01*
X4384324Y4824970D01*
X4386295Y4821877D01*
X4387992Y4818807D01*
X4389426Y4815760D01*
X4390620Y4812713D01*
X4391585Y4809655D01*
X4392332Y4806560D01*
X4392866Y4803411D01*
X4393095Y4801129D01*
Y4792500D01*
X4395904Y4778377D01*
X4403904Y4766404D01*
X4421404Y4748904D01*
X4433377Y4740904D01*
X4447500Y4738095D01*
X4457130D01*
Y4673400D01*
X4545230D01*
Y4730950D01*
X4552780D01*
Y4730950D01*
X4617220D01*
Y4730950D01*
X4624770D01*
Y4673400D01*
X4624770D01*
Y4651411D01*
X4567220D01*
Y4570276D01*
X4566668Y4567500D01*
Y4559259D01*
X4566197Y4554683D01*
X4565892Y4552940D01*
X4565537Y4551423D01*
X4565238Y4550447D01*
X4565111Y4550126D01*
X4564695Y4549494D01*
X4563873Y4547463D01*
X4558191Y4538960D01*
X4555415Y4525001D01*
X4555000D01*
X4553922Y4517500D01*
X4553923Y4517498D01*
X4553923Y4512746D01*
Y4465000D01*
Y4335000D01*
X4555000Y4329583D01*
Y4275000D01*
X4638766D01*
X4639695Y4274815D01*
X4640625Y4275000D01*
X4665000D01*
Y4277920D01*
X4680664Y4278923D01*
X4966423D01*
Y4122500D01*
X4970691Y4101040D01*
X4982847Y4082847D01*
X5202847Y3862847D01*
X5221040Y3850692D01*
X5242500Y3846423D01*
X5444099D01*
X5450322Y3845325D01*
X5455453Y3843614D01*
X5459157Y3841619D01*
X5461886Y3839387D01*
X5464119Y3836658D01*
X5466115Y3832952D01*
X5467824Y3827822D01*
X5468923Y3821599D01*
Y3565000D01*
X5473191Y3543540D01*
X5485347Y3525347D01*
X5560347Y3450347D01*
X5578540Y3438191D01*
X5600000Y3433923D01*
X5877500D01*
X5898960Y3438191D01*
X5900054Y3438923D01*
X5965000D01*
X5970417Y3440000D01*
X6042500D01*
Y3550000D01*
X5970417D01*
X5965000Y3551077D01*
X5882500D01*
X5861040Y3546809D01*
X5859946Y3546077D01*
X5623228D01*
X5581077Y3588228D01*
Y3841963D01*
X5581922Y3849571D01*
X5583664Y3858707D01*
X5586082Y3867474D01*
X5589177Y3875918D01*
X5592958Y3884076D01*
X5597449Y3891986D01*
X5602676Y3899676D01*
X5607459Y3905654D01*
X5625728Y3923923D01*
X6030000D01*
X6035417Y3925000D01*
X6090000D01*
Y4008766D01*
X6090185Y4009695D01*
X6090000Y4010625D01*
Y4035000D01*
X6087080D01*
X6086077Y4050664D01*
Y4060558D01*
X6086482Y4065268D01*
X6087594Y4072124D01*
X6088932Y4077231D01*
X6090236Y4080506D01*
X6090727Y4081332D01*
X6091936Y4081463D01*
X6092054Y4081500D01*
X6114500D01*
Y4081500D01*
X6116501D01*
Y4081500D01*
X6134861D01*
X6135000Y4081157D01*
X6136392Y4076022D01*
X6137609Y4069206D01*
X6138825Y4054529D01*
Y3990000D01*
X6140000Y3984090D01*
Y3925000D01*
X6194583D01*
X6200000Y3923923D01*
X6327500D01*
X6332917Y3925000D01*
X6390000D01*
Y4035000D01*
X6332917D01*
X6327500Y4036078D01*
X6261175D01*
Y4056127D01*
X6261401Y4059677D01*
X6262466Y4068555D01*
X6263825Y4075566D01*
X6265288Y4080536D01*
X6265713Y4081500D01*
X6285500D01*
Y4099908D01*
X6285910Y4100063D01*
X6291441Y4101458D01*
X6298700Y4102664D01*
X6319950Y4104303D01*
X6323021Y4104353D01*
X6332500D01*
X6352079Y4106931D01*
X6370324Y4114488D01*
X6375077Y4118136D01*
X6376306Y4118603D01*
X6377740Y4119503D01*
X6378618Y4119894D01*
X6380929Y4120645D01*
X6384513Y4121506D01*
X6388557Y4122222D01*
X6411768Y4123923D01*
X6427500D01*
X6448960Y4128191D01*
X6467153Y4140347D01*
X6525728Y4198923D01*
X6652500D01*
X6657917Y4200000D01*
X6660000D01*
Y4200415D01*
X6673960Y4203191D01*
X6692153Y4215347D01*
X6693959Y4218050D01*
X6702132Y4219676D01*
X6712300Y4226470D01*
X6725000Y4222506D01*
Y4140000D01*
X6800000D01*
Y4072266D01*
X6778513Y4063366D01*
X6761634Y4046487D01*
X6752500Y4024435D01*
Y4017813D01*
X6739800Y4012553D01*
X6728987Y4023366D01*
X6706935Y4032500D01*
X6683065D01*
X6661013Y4023366D01*
X6644135Y4006487D01*
X6635000Y3984435D01*
Y3960566D01*
X6631281Y3955000D01*
X6622500D01*
Y3805000D01*
X6767500D01*
Y3942304D01*
X6767500Y3954686D01*
X6769094Y3956203D01*
X6778513Y3961634D01*
X6785923Y3958565D01*
X6800565Y3952500D01*
X6809568D01*
X6816356Y3939800D01*
X6815904Y3939123D01*
X6813095Y3925000D01*
Y3901371D01*
X6812866Y3899089D01*
X6812332Y3895941D01*
X6811585Y3892845D01*
X6810620Y3889787D01*
X6809426Y3886740D01*
X6807992Y3883694D01*
X6806295Y3880623D01*
X6804323Y3877528D01*
X6802078Y3874431D01*
X6799134Y3871487D01*
X6790000Y3849435D01*
Y3825565D01*
X6799134Y3803513D01*
X6816013Y3786635D01*
X6838065Y3777500D01*
X6861935D01*
X6883987Y3786635D01*
X6900866Y3803513D01*
X6901150Y3804199D01*
X6913850D01*
X6914135Y3803513D01*
X6929242Y3788406D01*
X6928696Y3779955D01*
X6926844Y3774615D01*
X6904536Y3768638D01*
X6878564Y3753642D01*
X6857357Y3732436D01*
X6842362Y3706464D01*
X6834600Y3677495D01*
Y3647505D01*
X6842362Y3618536D01*
X6857357Y3592564D01*
X6859640Y3590281D01*
X6868117Y3578788D01*
X6877408Y3565285D01*
X6892940Y3539621D01*
X6898624Y3528484D01*
X6903247Y3517954D01*
X6906704Y3508346D01*
X6909049Y3499717D01*
X6910362Y3492122D01*
X6910595Y3488331D01*
Y3150000D01*
X6877500D01*
Y3015000D01*
X7017500D01*
Y3137300D01*
X7017500Y3138482D01*
X7027500Y3144999D01*
X7029771Y3144999D01*
X7033088Y3145000D01*
X7033088Y3144999D01*
X7033089Y3145000D01*
X7167500D01*
Y3175595D01*
X7232500D01*
Y3135000D01*
X7342500D01*
Y3290000D01*
X7232500D01*
Y3249405D01*
X7167500D01*
Y3280000D01*
X7027500D01*
Y3157700D01*
X7027500Y3156517D01*
X7017500Y3150001D01*
X7015229Y3150000D01*
X7011912Y3150000D01*
X7011912Y3150000D01*
X7011912Y3150000D01*
X6984405D01*
Y3487932D01*
X6984642Y3491666D01*
X6985969Y3499093D01*
X6988353Y3507597D01*
X6991881Y3517113D01*
X6996604Y3527571D01*
X7002295Y3538421D01*
X7028129Y3578148D01*
X7037086Y3590008D01*
X7039643Y3592564D01*
X7054638Y3618536D01*
X7062400Y3647505D01*
Y3677495D01*
X7054638Y3706464D01*
X7039643Y3732436D01*
X7018436Y3753642D01*
X6992464Y3768638D01*
X6990194Y3769246D01*
X6989317Y3782629D01*
X6998987Y3786635D01*
X7015866Y3803513D01*
X7017400Y3807217D01*
X7030100D01*
X7031634Y3803513D01*
X7048513Y3786635D01*
X7070565Y3777500D01*
X7094435D01*
X7116487Y3786635D01*
X7133365Y3803513D01*
X7135627Y3808972D01*
X7149373D01*
X7151634Y3803513D01*
X7168513Y3786635D01*
X7171702Y3785313D01*
X7170825Y3771930D01*
X7158536Y3768638D01*
X7132564Y3753642D01*
X7111357Y3732436D01*
X7096362Y3706464D01*
X7088600Y3677495D01*
Y3647505D01*
X7096362Y3618536D01*
X7111357Y3592564D01*
X7132564Y3571357D01*
X7158536Y3556362D01*
X7187505Y3548600D01*
X7217495D01*
X7246464Y3556362D01*
X7272436Y3571357D01*
X7274860Y3573782D01*
X7286720Y3582633D01*
X7300228Y3592042D01*
X7325864Y3607760D01*
X7336977Y3613509D01*
X7347471Y3618182D01*
X7357034Y3621675D01*
X7365601Y3624040D01*
X7373113Y3625360D01*
X7376874Y3625595D01*
X7422213D01*
X7440595Y3607213D01*
Y3444714D01*
X7439968Y3429947D01*
X7439710Y3427500D01*
X7422500D01*
Y3375417D01*
X7421423Y3370000D01*
X7421671Y3368750D01*
X7421423Y3367500D01*
Y3235000D01*
X7421423Y3234999D01*
Y3212500D01*
X7422500Y3207083D01*
Y3135000D01*
X7532500D01*
Y3207083D01*
X7533578Y3212500D01*
Y3235000D01*
X7533577Y3235001D01*
Y3312951D01*
X7548627Y3313923D01*
X7718358D01*
X7720286Y3313861D01*
X7727746Y3313149D01*
X7733844Y3312208D01*
X7735000Y3311936D01*
Y3297500D01*
X7759375D01*
X7760305Y3297315D01*
X7761235Y3297500D01*
X7875000D01*
Y3330421D01*
X7876886Y3330724D01*
X7909615Y3333095D01*
X7912213D01*
X7925595Y3319714D01*
Y2867500D01*
X7928404Y2853377D01*
X7936404Y2841404D01*
X8013904Y2763904D01*
X8025877Y2755904D01*
X8040000Y2753095D01*
X8167500D01*
Y2720000D01*
X8302500D01*
Y2860000D01*
X8167500D01*
Y2826905D01*
X8055287D01*
X7999405Y2882787D01*
Y3334999D01*
X7999405Y3335000D01*
X7996596Y3349123D01*
X7988596Y3361096D01*
X7988595Y3361097D01*
X7953596Y3396096D01*
X7941623Y3404096D01*
X7927500Y3406905D01*
X7915085D01*
X7897916Y3407341D01*
X7884447Y3408570D01*
X7880995Y3411418D01*
X7875185Y3417196D01*
X7875000Y3418125D01*
Y3442500D01*
X7875001Y3442500D01*
X7875000D01*
X7874695Y3454775D01*
X7887982Y3472090D01*
X7897554Y3495200D01*
X7900819Y3520000D01*
Y3525310D01*
X7934690Y3559181D01*
X8580000D01*
X8604800Y3562446D01*
X8627910Y3572018D01*
X8647754Y3587246D01*
X8877755Y3817246D01*
X8892982Y3837091D01*
X8902555Y3860201D01*
X8905820Y3885000D01*
Y3924432D01*
X8906221Y3972500D01*
X8907500D01*
Y3992065D01*
X8912194Y3993798D01*
X8919709Y3995656D01*
X8928893Y3997150D01*
X9000393Y3999396D01*
X9403255D01*
X9569396Y3833255D01*
Y3151226D01*
X9568773Y3120000D01*
X9567500D01*
Y3096421D01*
X9567337Y3095747D01*
X9567419Y3095220D01*
X9567315Y3094695D01*
X9567500Y3093766D01*
Y2980000D01*
X9635412D01*
X9640000Y2979396D01*
X9644588Y2980000D01*
X9711810D01*
X9712500Y2980000D01*
X9724510Y2978336D01*
Y2885558D01*
X9714442Y2875490D01*
X9575000D01*
X9565245Y2873549D01*
X9556976Y2868024D01*
X9531976Y2843024D01*
X9526451Y2834755D01*
X9524510Y2825000D01*
Y2725000D01*
X9526451Y2715245D01*
X9531976Y2706976D01*
X9556976Y2681976D01*
X9565245Y2676451D01*
X9567500Y2676002D01*
Y2665001D01*
X9571700D01*
X9571802Y2664227D01*
X9578855Y2647198D01*
X9580708Y2644784D01*
X9583923Y2581015D01*
Y2570000D01*
X9585000Y2564584D01*
Y2504405D01*
X9465000D01*
Y2645000D01*
X9446905D01*
Y2710000D01*
X9477500D01*
Y2850000D01*
X9342500D01*
Y2710000D01*
X9373095D01*
Y2645000D01*
X9355000D01*
Y2495001D01*
X9373095D01*
Y2485000D01*
X9375904Y2470877D01*
X9383904Y2458904D01*
X9401404Y2441405D01*
X9401404Y2441404D01*
X9413377Y2433404D01*
X9427500Y2430595D01*
X9812500D01*
X9826623Y2433404D01*
X9838596Y2441404D01*
X9855624Y2458433D01*
X9855625Y2458433D01*
X9863625Y2470406D01*
X9866435Y2484529D01*
X9873550Y2495001D01*
X9885000D01*
Y2645000D01*
X9775000D01*
Y2504405D01*
X9695000D01*
Y2564584D01*
X9696077Y2570000D01*
Y2603372D01*
X9696523Y2628830D01*
X9697420Y2641048D01*
X9697633Y2642622D01*
X9701145Y2647198D01*
X9708198Y2664227D01*
X9708300Y2665001D01*
X9712500D01*
Y2674510D01*
X9850000D01*
X9859755Y2676451D01*
X9868024Y2681976D01*
X9893024Y2706976D01*
X9898549Y2715245D01*
X9900490Y2725000D01*
Y3150000D01*
X9898549Y3159755D01*
X9893024Y3168024D01*
X9868024Y3193024D01*
X9859755Y3198549D01*
X9850000Y3200490D01*
X9775000D01*
X9765245Y3198549D01*
X9756976Y3193024D01*
X9731976Y3168024D01*
X9726451Y3159755D01*
X9724510Y3150000D01*
Y3131001D01*
X9711810Y3130847D01*
X9710604Y3180319D01*
Y3862500D01*
X9708198Y3880774D01*
X9701144Y3897802D01*
X9689924Y3912425D01*
X9482424Y4119925D01*
X9467802Y4131145D01*
X9450773Y4138198D01*
X9432500Y4140604D01*
X8983628D01*
X8966291Y4140703D01*
X8941502Y4141535D01*
X8929622Y4142732D01*
X8919708Y4144345D01*
X8912194Y4146202D01*
X8907500Y4147936D01*
Y4167500D01*
X8883125D01*
X8882195Y4167685D01*
X8881266Y4167500D01*
X8712500D01*
Y4142263D01*
X8689959Y4140607D01*
X8689695Y4140604D01*
X8680000D01*
X8661726Y4138198D01*
X8644698Y4131145D01*
X8630075Y4119924D01*
X8610755Y4100604D01*
X8570000D01*
X8551726Y4098198D01*
X8534698Y4091145D01*
X8530970Y4088284D01*
X8530915Y4088263D01*
X8530222Y4088022D01*
X8529330Y4087781D01*
X8527770Y4087478D01*
X8507484Y4086077D01*
X8492575D01*
X8492574Y4086078D01*
X8278375D01*
X8276077Y4088376D01*
Y4216772D01*
X8309653Y4250347D01*
X8319443Y4265000D01*
X8485000D01*
Y4292362D01*
X8490572D01*
X8504303Y4295094D01*
X8515943Y4302871D01*
X8577002Y4363930D01*
X8708139D01*
X8709930Y4362906D01*
X8717691Y4352208D01*
X8712500Y4332836D01*
Y4307164D01*
X8719145Y4282367D01*
X8731981Y4260134D01*
X8750134Y4241981D01*
X8772367Y4229145D01*
X8797164Y4222500D01*
X8822836D01*
X8847634Y4229145D01*
X8869866Y4241981D01*
X8888020Y4260134D01*
X8900855Y4282367D01*
X8907500Y4307164D01*
Y4332836D01*
X8900855Y4357634D01*
X8888020Y4379867D01*
X8869866Y4398020D01*
X8847634Y4410856D01*
X8838039Y4413426D01*
Y4426575D01*
X8847634Y4429145D01*
X8869866Y4441981D01*
X8888020Y4460134D01*
X8900855Y4482367D01*
X8907500Y4507164D01*
Y4532837D01*
X8900855Y4557634D01*
X8888020Y4579867D01*
X8869866Y4598020D01*
X8847634Y4610856D01*
X8822836Y4617501D01*
X8797164D01*
X8772367Y4610856D01*
X8750134Y4598020D01*
X8731981Y4579867D01*
X8719145Y4557634D01*
X8712500Y4532837D01*
Y4507164D01*
X8717691Y4487792D01*
X8709930Y4477095D01*
X8708139Y4476071D01*
X8567001D01*
X8515943Y4527129D01*
X8504303Y4534907D01*
X8490572Y4537638D01*
X8485000D01*
Y4565000D01*
X8323094D01*
X8321809Y4571460D01*
X8309653Y4589653D01*
X8266077Y4633228D01*
Y4670000D01*
X8265000Y4675417D01*
Y4730000D01*
X8155000D01*
Y4675417D01*
X8153923Y4670000D01*
Y4610000D01*
X8158191Y4588540D01*
X8165434Y4577700D01*
X8158646Y4565000D01*
X8045000D01*
Y4519245D01*
X8039487Y4515562D01*
X7984996Y4461071D01*
X7862356D01*
X7857496Y4472804D01*
X8026096Y4641404D01*
X8034096Y4653377D01*
X8036905Y4667500D01*
Y4675000D01*
X8070000D01*
Y4810000D01*
X7930000D01*
Y4675000D01*
X7938715D01*
X7943575Y4663267D01*
X7797213Y4516905D01*
X7723191D01*
X7718331Y4528638D01*
X7826096Y4636404D01*
X7834096Y4648377D01*
X7836905Y4662500D01*
Y4675000D01*
X7870000D01*
Y4810000D01*
X7730000D01*
Y4675000D01*
X7743715D01*
X7748575Y4663267D01*
X7652214Y4566905D01*
X7555691D01*
X7550830Y4578639D01*
X7558433Y4586242D01*
X7560205Y4587691D01*
X7562814Y4589543D01*
X7565525Y4591200D01*
X7568373Y4592682D01*
X7571370Y4593992D01*
X7574540Y4595132D01*
X7577913Y4596104D01*
X7581496Y4596898D01*
X7585273Y4597500D01*
X7589435D01*
X7611487Y4606634D01*
X7628365Y4623513D01*
X7637500Y4645565D01*
Y4669435D01*
X7628365Y4691487D01*
X7611487Y4708365D01*
X7589435Y4717500D01*
X7583947D01*
X7576891Y4728060D01*
X7580000Y4735565D01*
Y4759435D01*
X7570865Y4781487D01*
X7553987Y4798366D01*
X7531935Y4807500D01*
X7508065D01*
X7486013Y4798366D01*
X7470330Y4782683D01*
X7463003Y4782457D01*
X7456233Y4783528D01*
X7450865Y4796487D01*
X7433987Y4813366D01*
X7411935Y4822500D01*
X7388065D01*
X7372700Y4816135D01*
X7360000Y4823946D01*
Y4912499D01*
X7360001D01*
Y4922501D01*
X7360000D01*
Y5062500D01*
X7339167D01*
X7338607Y5065884D01*
X7338382Y5068459D01*
Y5146673D01*
X7338856Y5150947D01*
X7339891Y5156377D01*
X7341319Y5161554D01*
X7343141Y5166524D01*
X7355225Y5164660D01*
X7356365Y5163704D01*
X7357611Y5157442D01*
X7367557Y5142557D01*
X7401618Y5108495D01*
Y5030000D01*
X7402500Y5025568D01*
Y4982500D01*
X7492500D01*
Y5025568D01*
X7493382Y5030000D01*
Y5127500D01*
X7489889Y5145058D01*
X7479943Y5159943D01*
X7446799Y5193087D01*
X7446873Y5193625D01*
X7447820Y5198096D01*
X7448892Y5201649D01*
X7449983Y5204287D01*
X7450971Y5206062D01*
X7451749Y5207108D01*
X7452280Y5207637D01*
X7454329Y5209114D01*
X7455129Y5209973D01*
X7462138Y5214020D01*
X7480980Y5232862D01*
X7493105Y5253862D01*
X7500000Y5254999D01*
X7506895Y5253862D01*
X7515564Y5238848D01*
X7536029Y5259313D01*
X7564313Y5231029D01*
X7543848Y5210564D01*
X7560938Y5200697D01*
X7586676Y5193800D01*
X7613323D01*
X7639061Y5200697D01*
X7656152Y5210564D01*
X7635687Y5231029D01*
X7663971Y5259313D01*
X7684436Y5238848D01*
X7693105Y5253862D01*
X7700000Y5254999D01*
X7706895Y5253862D01*
X7719020Y5232862D01*
X7720887Y5230994D01*
X7728249Y5221106D01*
X7735908Y5210025D01*
X7748771Y5188697D01*
X7753398Y5179516D01*
X7757171Y5170752D01*
X7759981Y5162730D01*
X7761881Y5155491D01*
X7762943Y5149066D01*
X7763094Y5146462D01*
Y5062500D01*
X7755000D01*
Y5038125D01*
X7754815Y5037195D01*
X7755000Y5036266D01*
Y5008735D01*
X7754815Y5007805D01*
X7755000Y5006875D01*
Y4982500D01*
X7763094D01*
Y4965000D01*
X7730000D01*
Y4830000D01*
X7870000D01*
Y4965000D01*
X7836905D01*
Y4982500D01*
X7845000D01*
Y5006875D01*
X7845185Y5007805D01*
X7845000Y5008735D01*
Y5036266D01*
X7845185Y5037195D01*
X7845000Y5038125D01*
Y5062500D01*
X7836905D01*
Y5146462D01*
X7837056Y5149066D01*
X7838119Y5155491D01*
X7840017Y5162727D01*
X7842697Y5170378D01*
X7851549Y5189291D01*
X7857009Y5198846D01*
X7871896Y5221302D01*
X7879112Y5230994D01*
X7880980Y5232862D01*
X7886100Y5241730D01*
X7898800Y5238327D01*
Y5193800D01*
X7963095D01*
Y5062500D01*
X7955000D01*
Y5038125D01*
X7954815Y5037195D01*
X7955000Y5036266D01*
Y5008735D01*
X7954815Y5007805D01*
X7955000Y5006875D01*
Y4982500D01*
X7963095D01*
Y4965000D01*
X7930000D01*
Y4830000D01*
X8070000D01*
Y4965000D01*
X8036905D01*
Y4982500D01*
X8045000D01*
Y5006875D01*
X8045185Y5007805D01*
X8045000Y5008735D01*
Y5036266D01*
X8045185Y5037195D01*
X8045000Y5038125D01*
Y5062500D01*
X8036905D01*
Y5193800D01*
X8101200D01*
Y5396200D01*
X7898800D01*
Y5351673D01*
X7886100Y5348270D01*
X7880980Y5357138D01*
X7862138Y5375980D01*
X7839061Y5389303D01*
X7813323Y5396200D01*
X7786676D01*
X7760938Y5389303D01*
X7737861Y5375980D01*
X7719020Y5357138D01*
X7706895Y5336138D01*
X7700000Y5335001D01*
X7693105Y5336138D01*
X7684436Y5351152D01*
X7663971Y5330687D01*
X7635687Y5358971D01*
X7656152Y5379436D01*
X7639061Y5389303D01*
X7613323Y5396200D01*
X7586676D01*
X7560938Y5389303D01*
X7543848Y5379436D01*
X7564313Y5358971D01*
X7536029Y5330687D01*
X7515564Y5351152D01*
X7506895Y5336138D01*
X7500000Y5335001D01*
X7493105Y5336138D01*
X7480980Y5357138D01*
X7462138Y5375980D01*
X7439061Y5389303D01*
X7413323Y5396200D01*
X7386676D01*
X7360938Y5389303D01*
X7337861Y5375980D01*
X7319020Y5357138D01*
X7305696Y5334062D01*
X7298800Y5308323D01*
Y5305844D01*
X7297361Y5296545D01*
X7295099Y5285611D01*
X7292388Y5275354D01*
X7289244Y5265772D01*
X7285682Y5256845D01*
X7281719Y5248564D01*
X7277411Y5240983D01*
X7276326Y5240367D01*
X7271524Y5238141D01*
X7266555Y5236320D01*
X7261377Y5234892D01*
X7255946Y5233856D01*
X7251673Y5233382D01*
X6810000D01*
Y5372500D01*
X6675000D01*
Y5346037D01*
X6674822Y5346007D01*
X6672820Y5345832D01*
X6532216D01*
X6530231Y5345930D01*
X6521410Y5347194D01*
X6512053Y5349367D01*
X6502150Y5352501D01*
X6491721Y5356633D01*
X6480771Y5361801D01*
X6469598Y5367878D01*
X6444832Y5383861D01*
X6434786Y5391293D01*
X6432436Y5393643D01*
X6406464Y5408638D01*
X6377495Y5416400D01*
X6347505D01*
X6318537Y5408638D01*
X6292564Y5393643D01*
X6271358Y5372436D01*
X6256362Y5346464D01*
X6248600Y5317495D01*
Y5287505D01*
X6256362Y5258536D01*
X6271358Y5232564D01*
X6292564Y5211357D01*
X6318537Y5196362D01*
X6347505Y5188600D01*
X6377495D01*
X6406464Y5196362D01*
X6432436Y5211357D01*
X6434786Y5213707D01*
X6444834Y5221140D01*
X6469597Y5237121D01*
X6480771Y5243199D01*
X6491721Y5248366D01*
X6502150Y5252499D01*
X6512051Y5255632D01*
X6521410Y5257806D01*
X6530231Y5259070D01*
X6532216Y5259168D01*
X6672820D01*
X6674822Y5258992D01*
X6675000Y5258963D01*
Y5232500D01*
X6735990D01*
X6739904Y5220417D01*
X6739914Y5219800D01*
X6702557Y5182444D01*
X6692611Y5167559D01*
X6689119Y5150000D01*
Y5120959D01*
X6688893Y5118383D01*
X6688333Y5115000D01*
X6667500D01*
Y5091667D01*
X6664116Y5091107D01*
X6661541Y5090882D01*
X6600000D01*
X6582442Y5087389D01*
X6567557Y5077443D01*
X6525057Y5034943D01*
X6515111Y5020058D01*
X6511618Y5002500D01*
Y4701041D01*
X6511396Y4698518D01*
X6510989Y4696077D01*
X6213401D01*
X6207179Y4697176D01*
X6202047Y4698886D01*
X6198343Y4700881D01*
X6195614Y4703114D01*
X6193381Y4705843D01*
X6191386Y4709548D01*
X6189676Y4714678D01*
X6188577Y4720901D01*
Y5000000D01*
X6184309Y5021460D01*
X6172153Y5039653D01*
X6127152Y5084653D01*
X6108960Y5096809D01*
X6087500Y5101078D01*
X6030024D01*
X6028544Y5103666D01*
X6026130Y5113778D01*
X6040865Y5128513D01*
X6050000Y5150565D01*
Y5174435D01*
X6040865Y5196487D01*
X6023987Y5213365D01*
X6001935Y5222500D01*
X5978065D01*
X5956013Y5213365D01*
X5953069Y5210422D01*
X5949970Y5208176D01*
X5946877Y5206205D01*
X5943807Y5204508D01*
X5940760Y5203074D01*
X5937713Y5201880D01*
X5934655Y5200915D01*
X5931560Y5200168D01*
X5928411Y5199634D01*
X5926129Y5199405D01*
X5910000D01*
X5895877Y5196596D01*
X5883904Y5188596D01*
X5827214Y5131905D01*
X5798750D01*
Y5132500D01*
X5721250Y5132500D01*
X5721250Y5145200D01*
Y5185000D01*
X5720655D01*
Y5203463D01*
X5795287Y5278095D01*
X5926129D01*
X5928411Y5277866D01*
X5931559Y5277332D01*
X5934655Y5276585D01*
X5937713Y5275620D01*
X5940760Y5274426D01*
X5943806Y5272992D01*
X5946877Y5271295D01*
X5949972Y5269323D01*
X5953069Y5267078D01*
X5956013Y5264135D01*
X5978065Y5255000D01*
X6001935D01*
X6023987Y5264135D01*
X6040865Y5281013D01*
X6050000Y5303065D01*
Y5326935D01*
X6040865Y5348987D01*
X6023987Y5365866D01*
X6001935Y5375000D01*
X5978065D01*
X5956013Y5365866D01*
X5953069Y5362922D01*
X5949970Y5360676D01*
X5946877Y5358705D01*
X5943807Y5357008D01*
X5940760Y5355574D01*
X5937713Y5354380D01*
X5934655Y5353415D01*
X5931560Y5352668D01*
X5928411Y5352134D01*
X5926129Y5351905D01*
X5780000D01*
X5765877Y5349096D01*
X5753904Y5341096D01*
X5661480Y5248672D01*
X5645654Y5246538D01*
X5641096Y5251096D01*
X5629123Y5259096D01*
X5615000Y5261905D01*
X5477787D01*
X5467391Y5272300D01*
X5472652Y5285000D01*
X5492500D01*
Y5425000D01*
D02*
G37*
G36*
X6377495Y5162400D02*
X6347505D01*
X6318537Y5154638D01*
X6292564Y5139643D01*
X6271358Y5118436D01*
X6256362Y5092464D01*
X6248600Y5063495D01*
Y5033505D01*
X6256362Y5004536D01*
X6271358Y4978564D01*
X6292564Y4957357D01*
X6318537Y4942362D01*
X6347505Y4934600D01*
X6377495D01*
X6406464Y4942362D01*
X6432436Y4957357D01*
X6453643Y4978564D01*
X6468638Y5004536D01*
X6476400Y5033505D01*
Y5063495D01*
X6468638Y5092464D01*
X6453643Y5118436D01*
X6432436Y5139643D01*
X6406464Y5154638D01*
X6377495Y5162400D01*
D02*
G37*
G36*
X9097251Y5242000D02*
X9064749D01*
X9032871Y5235659D01*
X9002843Y5223221D01*
X8975819Y5205164D01*
X8952836Y5182182D01*
X8934779Y5155157D01*
X8922341Y5125129D01*
X8916000Y5093251D01*
Y5060749D01*
X8922341Y5028872D01*
X8934779Y4998843D01*
X8952836Y4971819D01*
X8975819Y4948836D01*
X9002843Y4930779D01*
X9032871Y4918341D01*
X9064749Y4912000D01*
X9097251D01*
X9129129Y4918341D01*
X9159157Y4930779D01*
X9186182Y4948836D01*
X9209164Y4971819D01*
X9227221Y4998843D01*
X9239659Y5028872D01*
X9246000Y5060749D01*
Y5093251D01*
X9239659Y5125129D01*
X9227221Y5155157D01*
X9209164Y5182182D01*
X9186182Y5205164D01*
X9159157Y5223221D01*
X9129129Y5235659D01*
X9097251Y5242000D01*
D02*
G37*
G36*
X8822836Y4867500D02*
X8797164D01*
X8772367Y4860856D01*
X8756557Y4851728D01*
X8777030Y4831255D01*
X8748746Y4802971D01*
X8728273Y4823444D01*
X8719145Y4807634D01*
X8712500Y4782837D01*
Y4757164D01*
X8719145Y4732367D01*
X8728273Y4716557D01*
X8748746Y4737030D01*
X8777030Y4708746D01*
X8756557Y4688273D01*
X8772367Y4679145D01*
X8797164Y4672500D01*
X8822836D01*
X8847634Y4679145D01*
X8863444Y4688273D01*
X8842971Y4708746D01*
X8871255Y4737030D01*
X8891728Y4716557D01*
X8900855Y4732367D01*
X8907500Y4757164D01*
Y4782837D01*
X8900855Y4807634D01*
X8891728Y4823444D01*
X8871255Y4802971D01*
X8842971Y4831255D01*
X8863444Y4851728D01*
X8847634Y4860856D01*
X8822836Y4867500D01*
D02*
G37*
G36*
X6327500Y3740000D02*
X6172500D01*
Y3722215D01*
X6135001D01*
X6135000Y3722215D01*
X6120759Y3719382D01*
X6108685Y3711315D01*
X6068685Y3671315D01*
X6060618Y3659242D01*
X6057785Y3645000D01*
Y3335000D01*
X6027500D01*
Y3195000D01*
X6162500D01*
Y3335000D01*
X6132215D01*
Y3629585D01*
X6150415Y3647785D01*
X6172500D01*
Y3630000D01*
X6327500D01*
Y3740000D01*
D02*
G37*
G36*
X6042500D02*
X5887500D01*
Y3630000D01*
X6042500D01*
Y3740000D01*
D02*
G37*
G36*
X9097251Y3928000D02*
X9064749D01*
X9032871Y3921659D01*
X9002843Y3909221D01*
X8975819Y3891164D01*
X8952836Y3868182D01*
X8934779Y3841157D01*
X8922341Y3811129D01*
X8916000Y3779252D01*
Y3746749D01*
X8922341Y3714872D01*
X8934779Y3684844D01*
X8952836Y3657819D01*
X8975819Y3634837D01*
X9002843Y3616779D01*
X9032871Y3604341D01*
X9064749Y3598000D01*
X9097251D01*
X9129129Y3604341D01*
X9159157Y3616779D01*
X9186182Y3634837D01*
X9209164Y3657819D01*
X9227221Y3684844D01*
X9239659Y3714872D01*
X9246000Y3746749D01*
Y3779252D01*
X9239659Y3811129D01*
X9227221Y3841157D01*
X9209164Y3868182D01*
X9186182Y3891164D01*
X9159157Y3909221D01*
X9129129Y3921659D01*
X9097251Y3928000D01*
D02*
G37*
G36*
X6400000Y3551077D02*
X6250000D01*
X6244583Y3550000D01*
X6172500D01*
Y3440000D01*
X6244583D01*
X6250000Y3438923D01*
X6324510D01*
Y3344796D01*
X6317500Y3335000D01*
X6293125D01*
X6292195Y3335185D01*
X6291266Y3335000D01*
X6182500D01*
Y3195000D01*
X6291266D01*
X6292195Y3194815D01*
X6293125Y3195000D01*
X6317500D01*
Y3210068D01*
X6320175Y3210558D01*
X6329038Y3211312D01*
X6342390D01*
X6363850Y3215581D01*
X6382042Y3227737D01*
X6403816Y3249510D01*
X6487256D01*
Y3216562D01*
X6426772Y3156077D01*
X6023228D01*
X5879652Y3299653D01*
X5861459Y3311809D01*
X5839999Y3316078D01*
X5557011D01*
X5556078Y3330664D01*
Y3400000D01*
X5551809Y3421460D01*
X5539653Y3439653D01*
X5499652Y3479653D01*
X5481459Y3491809D01*
X5459999Y3496078D01*
X5421545D01*
X5417451Y3496227D01*
X5410203Y3497020D01*
X5404329Y3498058D01*
X5402500Y3498550D01*
Y3515000D01*
X5378125D01*
X5377195Y3515185D01*
X5376266Y3515000D01*
X5137500D01*
Y3365001D01*
X5376266D01*
X5377195Y3364816D01*
X5378125Y3365001D01*
X5402500D01*
Y3381451D01*
X5404329Y3381943D01*
X5409863Y3382921D01*
X5422078Y3383923D01*
X5436771D01*
X5443923Y3376772D01*
Y3319908D01*
X5443827Y3315000D01*
X5440000D01*
Y3290625D01*
X5439815Y3289695D01*
X5440000Y3288766D01*
Y3205000D01*
X5494583D01*
X5500000Y3203923D01*
X5816771D01*
X5960347Y3060347D01*
X5978540Y3048191D01*
X6000000Y3043923D01*
X6450000D01*
X6471460Y3048191D01*
X6489653Y3060347D01*
X6582986Y3153681D01*
X6595142Y3171874D01*
X6599411Y3193333D01*
Y3249510D01*
X6700000D01*
X6709755Y3251451D01*
X6718024Y3256976D01*
X6743024Y3281976D01*
X6748549Y3290245D01*
X6750490Y3300000D01*
Y3500000D01*
X6748549Y3509755D01*
X6743024Y3518024D01*
X6718024Y3543024D01*
X6709755Y3548549D01*
X6700000Y3550490D01*
X6402954D01*
X6400000Y3551077D01*
D02*
G37*
G36*
X8777500Y3440000D02*
X8642500D01*
Y3300001D01*
X8673095D01*
Y3275000D01*
X8655000D01*
Y3125000D01*
X8765000D01*
Y3163095D01*
X8920000D01*
Y3132500D01*
X9060000D01*
Y3267500D01*
X9026905D01*
Y3294714D01*
X9032787Y3300595D01*
X9307213D01*
X9313095Y3294713D01*
Y3275000D01*
X9295000D01*
Y3125001D01*
X9405000D01*
Y3275000D01*
X9386905D01*
Y3310000D01*
X9384096Y3324123D01*
X9376096Y3336096D01*
X9348596Y3363596D01*
X9336623Y3371596D01*
X9322500Y3374405D01*
X9017501D01*
X9017500Y3374405D01*
X9003377Y3371596D01*
X8991404Y3363596D01*
X8963904Y3336096D01*
X8955904Y3324123D01*
X8953095Y3310000D01*
Y3267500D01*
X8920000D01*
Y3236906D01*
X8765000D01*
Y3275000D01*
X8746905D01*
Y3300001D01*
X8777500D01*
Y3440000D01*
D02*
G37*
G36*
X8164695Y3442685D02*
X8163765Y3442500D01*
X8050000D01*
Y3374588D01*
X8049396Y3370000D01*
Y3130000D01*
X8050000Y3125412D01*
Y3057500D01*
X8190000D01*
Y3125412D01*
X8190604Y3130000D01*
Y3297940D01*
X8250328Y3299396D01*
X8530000D01*
X8534589Y3300001D01*
X8622500D01*
Y3440000D01*
X8534586D01*
X8530000Y3440604D01*
X8221225D01*
X8190000Y3441227D01*
Y3442500D01*
X8166420D01*
X8165747Y3442663D01*
X8165219Y3442581D01*
X8164695Y3442685D01*
D02*
G37*
G36*
X8670000Y3035000D02*
X8560000D01*
Y2996906D01*
X8460000D01*
Y3027500D01*
X8320000D01*
Y2892500D01*
X8353095D01*
Y2860000D01*
X8322500D01*
Y2720000D01*
X8457500D01*
Y2860000D01*
X8426905D01*
Y2892500D01*
X8460000D01*
Y2923095D01*
X8560000D01*
Y2885000D01*
X8670000D01*
Y3035000D01*
D02*
G37*
G36*
X7342500Y3005000D02*
X7232500D01*
Y2964405D01*
X7017500D01*
Y2995000D01*
X6877500D01*
Y2860000D01*
X7017500D01*
Y2890595D01*
X7232500D01*
Y2850000D01*
X7342500D01*
Y3005000D01*
D02*
G37*
G36*
X7875000Y3202500D02*
X7735000D01*
Y3134588D01*
X7734396Y3130000D01*
Y2833061D01*
X7605000D01*
X7588032Y2830827D01*
X7572220Y2824277D01*
X7571308Y2823577D01*
X7537407D01*
X7533578Y2823652D01*
Y2927500D01*
X7532500Y2932917D01*
Y3005000D01*
X7422500D01*
Y2932917D01*
X7421423Y2927500D01*
Y2772501D01*
X7421423Y2772500D01*
Y2767500D01*
X7422500Y2762083D01*
Y2707500D01*
X7506265D01*
X7507195Y2707315D01*
X7508125Y2707500D01*
X7532500D01*
Y2710420D01*
X7548164Y2711423D01*
X7571308D01*
X7572220Y2710723D01*
X7588032Y2704173D01*
X7605000Y2701939D01*
X7729396D01*
Y2622500D01*
X7731802Y2604227D01*
X7738855Y2587198D01*
X7750076Y2572576D01*
X7807576Y2515075D01*
X7822198Y2503855D01*
X7839227Y2496802D01*
X7854445Y2494798D01*
X7854984Y2494635D01*
X7856249Y2494509D01*
X7856660Y2494402D01*
X7858524Y2493688D01*
X7861511Y2492250D01*
X7864786Y2490411D01*
X7888360Y2473692D01*
X7895254Y2468109D01*
X7897425Y2466966D01*
X7911961Y2455812D01*
X7942368Y2443217D01*
X7975000Y2438921D01*
X8049153D01*
Y2424393D01*
X8047043Y2284641D01*
X8044745Y2248443D01*
X8043447Y2237363D01*
X8042451Y2232233D01*
X8037014Y2225608D01*
X8016122Y2186520D01*
X8003256Y2144108D01*
X7998912Y2100000D01*
Y2074024D01*
X7998005Y2034229D01*
X7993538Y1975785D01*
X7986176Y1924794D01*
X7976050Y1881378D01*
X7963397Y1845671D01*
X7948602Y1817723D01*
X7932169Y1797293D01*
X7914392Y1783611D01*
X7894768Y1775615D01*
X7869131Y1772500D01*
X7465000D01*
Y722500D01*
X9015000D01*
Y1772500D01*
X8580870D01*
X8555232Y1775615D01*
X8535608Y1783611D01*
X8517831Y1797293D01*
X8501398Y1817723D01*
X8486604Y1845670D01*
X8473949Y1881381D01*
X8463824Y1924794D01*
X8456462Y1975786D01*
X8451996Y2034229D01*
X8451089Y2074024D01*
Y2100000D01*
X8446744Y2144108D01*
X8433878Y2186520D01*
X8412986Y2225608D01*
X8410036Y2229202D01*
X8401302Y2429747D01*
X8410085Y2438921D01*
X8495000D01*
X8527632Y2443217D01*
X8558039Y2455812D01*
X8577837Y2471004D01*
X8581763Y2473626D01*
X8587664Y2475986D01*
X8598278Y2478800D01*
X8612106Y2481345D01*
X8740087Y2489285D01*
X8750679Y2489353D01*
X8775000D01*
X8794579Y2491930D01*
X8812559Y2499378D01*
X8825699Y2499314D01*
X8840000Y2498922D01*
Y2497500D01*
X8862773D01*
X8863069Y2497414D01*
X8863864Y2497500D01*
X8864375D01*
X8865305Y2497316D01*
X8866235Y2497500D01*
X8953766D01*
X8954695Y2497316D01*
X8955625Y2497500D01*
X8980000D01*
Y2511937D01*
X8981156Y2512208D01*
X8986956Y2513103D01*
X8998403Y2513923D01*
X9145955D01*
X9150050Y2513774D01*
X9157297Y2512981D01*
X9163171Y2511943D01*
X9165000Y2511451D01*
Y2495001D01*
X9189375D01*
X9190305Y2494816D01*
X9191235Y2495001D01*
X9275000D01*
Y2564584D01*
X9276077Y2570000D01*
X9275000Y2575417D01*
Y2645000D01*
X9191235D01*
X9190305Y2645185D01*
X9189375Y2645000D01*
X9165000D01*
Y2628549D01*
X9163171Y2628058D01*
X9157638Y2627080D01*
X9145423Y2626078D01*
X9110000D01*
Y2725000D01*
X9110000D01*
X9104984Y2737700D01*
X9109158Y2743095D01*
X9187500D01*
Y2710000D01*
X9322500D01*
Y2850000D01*
X9291905D01*
Y2885001D01*
X9310000D01*
Y3035000D01*
X9200000D01*
Y2885001D01*
X9218095D01*
Y2850000D01*
X9187500D01*
Y2816905D01*
X9090000D01*
X9075877Y2814096D01*
X9063904Y2806096D01*
X9023904Y2766096D01*
X9015904Y2754123D01*
X9013095Y2740000D01*
Y2733981D01*
X9004114Y2725000D01*
X8990000D01*
X8980000Y2731519D01*
Y2787500D01*
X8840000D01*
Y2652500D01*
X8923297D01*
X8931050Y2643984D01*
X8926303Y2632500D01*
X8866235D01*
X8865305Y2632685D01*
X8864956Y2632616D01*
X8864606Y2632676D01*
X8858221Y2632500D01*
X8840000D01*
Y2632000D01*
X8811143Y2631208D01*
X8794579Y2638069D01*
X8775000Y2640647D01*
X8767869D01*
X8678624Y2642546D01*
X8631153Y2646136D01*
X8612949Y2648500D01*
X8598278Y2651200D01*
X8587663Y2654015D01*
X8581763Y2656374D01*
X8577837Y2658996D01*
X8558039Y2674187D01*
X8527632Y2686783D01*
X8495000Y2691079D01*
X7975000D01*
X7942368Y2686783D01*
X7911961Y2674187D01*
X7897425Y2663034D01*
X7895254Y2661891D01*
X7888076Y2656078D01*
X7883304Y2652481D01*
X7870604Y2658812D01*
Y2747964D01*
X7873198Y2754226D01*
X7875604Y2772500D01*
Y3130000D01*
X7875000Y3134588D01*
Y3202500D01*
D02*
G37*
G36*
X9705305Y2405185D02*
X9704644Y2405054D01*
X9703977Y2405151D01*
X9701094Y2405000D01*
X9680000D01*
Y2403900D01*
X9616830Y2400604D01*
X9422407D01*
X9389456Y2400908D01*
X9370000Y2401738D01*
Y2405000D01*
X9345625D01*
X9344695Y2405185D01*
X9344639Y2405174D01*
X9344583Y2405185D01*
X9343675Y2405000D01*
X9260000D01*
Y2334588D01*
X9259396Y2330000D01*
X9260000Y2325413D01*
Y2255001D01*
X9343765D01*
X9344695Y2254816D01*
X9345356Y2254947D01*
X9346023Y2254850D01*
X9348905Y2255001D01*
X9370000D01*
Y2256101D01*
X9433170Y2259397D01*
X9627593D01*
X9660544Y2259093D01*
X9680000Y2258263D01*
Y2255001D01*
X9704375D01*
X9705305Y2254816D01*
X9705361Y2254827D01*
X9705417Y2254816D01*
X9706324Y2255001D01*
X9790000D01*
Y2405000D01*
X9706234D01*
X9705305Y2405185D01*
D02*
G37*
G36*
X2520000Y1777500D02*
X1840000D01*
Y1740023D01*
X1640000D01*
Y1777500D01*
X960000D01*
Y1347500D01*
X997477D01*
Y1147500D01*
X960000D01*
Y717500D01*
X1640000D01*
Y754977D01*
X1840000D01*
Y717500D01*
X2520000D01*
Y1147500D01*
X2482523D01*
Y1347500D01*
X2520000D01*
Y1777500D01*
D02*
G37*
%LPD*%
G36*
X5382805Y5332608D02*
X5382581Y5334735D01*
X5381909Y5336639D01*
X5380790Y5338318D01*
X5379222Y5339773D01*
X5377207Y5341005D01*
X5374744Y5342013D01*
X5371833Y5342796D01*
X5368474Y5343356D01*
X5364667Y5343692D01*
X5360412Y5343804D01*
Y5366196D01*
X5364667Y5366308D01*
X5368474Y5366644D01*
X5371833Y5367204D01*
X5374744Y5367988D01*
X5377207Y5368995D01*
X5379222Y5370227D01*
X5380790Y5371682D01*
X5381909Y5373362D01*
X5382581Y5375265D01*
X5382805Y5377393D01*
Y5332608D01*
D02*
G37*
G36*
X5332118Y5375265D02*
X5332798Y5373362D01*
X5333933Y5371682D01*
X5335522Y5370227D01*
X5337565Y5368995D01*
X5340061Y5367988D01*
X5343012Y5367204D01*
X5346417Y5366644D01*
X5350275Y5366308D01*
X5354588Y5366196D01*
Y5343804D01*
X5350275Y5343692D01*
X5346417Y5343356D01*
X5343012Y5342796D01*
X5340061Y5342013D01*
X5337565Y5341005D01*
X5335522Y5339773D01*
X5333933Y5338318D01*
X5332798Y5336639D01*
X5332118Y5334735D01*
X5331891Y5332608D01*
Y5377393D01*
X5332118Y5375265D01*
D02*
G37*
G36*
X5092805Y5325000D02*
X5092505Y5327850D01*
X5091605Y5330400D01*
X5090105Y5332650D01*
X5088005Y5334600D01*
X5085305Y5336250D01*
X5082005Y5337600D01*
X5078105Y5338650D01*
X5073605Y5339400D01*
X5068505Y5339850D01*
X5062805Y5340000D01*
Y5370000D01*
X5068505Y5370150D01*
X5073605Y5370600D01*
X5078105Y5371350D01*
X5082005Y5372400D01*
X5085305Y5373750D01*
X5088005Y5375400D01*
X5090105Y5377350D01*
X5091605Y5379600D01*
X5092505Y5382150D01*
X5092805Y5385000D01*
Y5325000D01*
D02*
G37*
G36*
X5445265Y5310383D02*
X5443362Y5309702D01*
X5441682Y5308567D01*
X5440227Y5306978D01*
X5438995Y5304936D01*
X5437988Y5302439D01*
X5437204Y5299488D01*
X5436644Y5296084D01*
X5436308Y5292225D01*
X5436196Y5287913D01*
X5413804D01*
X5413692Y5292225D01*
X5413356Y5296084D01*
X5412796Y5299488D01*
X5412013Y5302439D01*
X5411005Y5304936D01*
X5409773Y5306978D01*
X5408318Y5308567D01*
X5406638Y5309702D01*
X5404735Y5310383D01*
X5402608Y5310610D01*
X5447392D01*
X5445265Y5310383D01*
D02*
G37*
G36*
X5968650Y5287266D02*
X5964315Y5290408D01*
X5959903Y5293220D01*
X5955414Y5295700D01*
X5950848Y5297850D01*
X5946206Y5299669D01*
X5941486Y5301158D01*
X5936690Y5302316D01*
X5931816Y5303142D01*
X5926866Y5303638D01*
X5921839Y5303804D01*
Y5326196D01*
X5926866Y5326362D01*
X5931816Y5326858D01*
X5936690Y5327685D01*
X5941486Y5328842D01*
X5946206Y5330331D01*
X5950848Y5332150D01*
X5955414Y5334300D01*
X5959903Y5336781D01*
X5964315Y5339592D01*
X5968650Y5342734D01*
Y5287266D01*
D02*
G37*
G36*
X5165847Y5310354D02*
X5164095Y5309586D01*
X5162549Y5308305D01*
X5161210Y5306512D01*
X5160076Y5304208D01*
X5159149Y5301390D01*
X5158427Y5298061D01*
X5157912Y5294220D01*
X5157603Y5289866D01*
X5157500Y5285000D01*
X5127500D01*
X5127397Y5289866D01*
X5126573Y5298061D01*
X5125851Y5301390D01*
X5124924Y5304208D01*
X5123790Y5306512D01*
X5122451Y5308305D01*
X5120905Y5309586D01*
X5119153Y5310354D01*
X5117195Y5310610D01*
X5167805D01*
X5165847Y5310354D01*
D02*
G37*
G36*
X6700610Y5267500D02*
X6700257Y5270825D01*
X6699197Y5273800D01*
X6697432Y5276425D01*
X6694961Y5278700D01*
X6691783Y5280625D01*
X6687900Y5282200D01*
X6683310Y5283425D01*
X6678015Y5284300D01*
X6672013Y5284825D01*
X6665305Y5285000D01*
Y5320000D01*
X6672013Y5320175D01*
X6678015Y5320700D01*
X6683310Y5321575D01*
X6687900Y5322800D01*
X6691783Y5324375D01*
X6694961Y5326300D01*
X6697432Y5328575D01*
X6699197Y5331200D01*
X6700257Y5334175D01*
X6700610Y5337500D01*
Y5267500D01*
D02*
G37*
G36*
X5185305Y5242196D02*
X5154696D01*
X5154753Y5242349D01*
X5154805Y5242808D01*
X5154851Y5243573D01*
X5155000Y5257500D01*
X5185000D01*
X5185305Y5242196D01*
D02*
G37*
G36*
X4470150Y5263937D02*
X4470600Y5258786D01*
X4471350Y5254240D01*
X4472400Y5250300D01*
X4473750Y5246967D01*
X4475400Y5244239D01*
X4477350Y5242118D01*
X4479600Y5240603D01*
X4482150Y5239694D01*
X4485000Y5239391D01*
X4425000D01*
X4427850Y5239694D01*
X4430400Y5240603D01*
X4432650Y5242118D01*
X4434600Y5244239D01*
X4436250Y5246967D01*
X4437600Y5250300D01*
X4438650Y5254240D01*
X4439400Y5258786D01*
X4439850Y5263937D01*
X4440000Y5269695D01*
X4470000D01*
X4470150Y5263937D01*
D02*
G37*
G36*
X6430327Y5362885D02*
X6456580Y5345943D01*
X6469235Y5339060D01*
X6481575Y5333236D01*
X6493601Y5328471D01*
X6505312Y5324765D01*
X6516710Y5322118D01*
X6527792Y5320529D01*
X6538561Y5320000D01*
Y5285000D01*
X6527792Y5284471D01*
X6516710Y5282882D01*
X6505312Y5280235D01*
X6493601Y5276529D01*
X6481575Y5271764D01*
X6469235Y5265940D01*
X6456580Y5259057D01*
X6430327Y5242115D01*
X6416729Y5232056D01*
Y5372944D01*
X6430327Y5362885D01*
D02*
G37*
G36*
X5125610Y5219952D02*
X5126534Y5219584D01*
X5130939Y5218184D01*
X5135588Y5217037D01*
X5140481Y5216146D01*
X5145618Y5215509D01*
X5150999Y5215127D01*
X5156623Y5215000D01*
Y5185000D01*
X5150999Y5184873D01*
X5140481Y5183854D01*
X5135588Y5182963D01*
X5130939Y5181816D01*
X5126534Y5180416D01*
X5125610Y5180048D01*
Y5170000D01*
X5125306Y5172850D01*
X5124397Y5175400D01*
X5122882Y5177650D01*
X5121916Y5178538D01*
X5118454Y5176850D01*
X5114780Y5174685D01*
X5111350Y5172266D01*
Y5183493D01*
X5110760Y5183650D01*
X5106215Y5184400D01*
X5101063Y5184850D01*
X5095305Y5185000D01*
Y5215000D01*
X5101063Y5215150D01*
X5106215Y5215600D01*
X5110760Y5216350D01*
X5111350Y5216507D01*
Y5227734D01*
X5114780Y5225315D01*
X5118454Y5223150D01*
X5121916Y5221462D01*
X5122882Y5222350D01*
X5124397Y5224600D01*
X5125306Y5227150D01*
X5125610Y5230000D01*
Y5219952D01*
D02*
G37*
G36*
X8020265Y5218881D02*
X8018362Y5218209D01*
X8016682Y5217090D01*
X8015227Y5215522D01*
X8013995Y5213507D01*
X8012988Y5211044D01*
X8012204Y5208133D01*
X8011644Y5204774D01*
X8011308Y5200967D01*
X8011196Y5196712D01*
X7988804D01*
X7988692Y5200967D01*
X7988356Y5204774D01*
X7987796Y5208133D01*
X7987012Y5211044D01*
X7986005Y5213507D01*
X7984773Y5215522D01*
X7983318Y5217090D01*
X7981638Y5218209D01*
X7979735Y5218881D01*
X7977608Y5219105D01*
X8022392D01*
X8020265Y5218881D01*
D02*
G37*
G36*
X7399505Y5229789D02*
X7439419D01*
X7435730Y5227128D01*
X7432428Y5223841D01*
X7429515Y5219927D01*
X7426991Y5215388D01*
X7424855Y5210222D01*
X7423107Y5204430D01*
X7421747Y5198012D01*
X7420776Y5190968D01*
X7420194Y5183297D01*
X7420000Y5175000D01*
X7380000D01*
X7379805Y5183297D01*
X7379223Y5190968D01*
X7378252Y5198012D01*
X7376893Y5204430D01*
X7375145Y5210222D01*
X7374355Y5212131D01*
X7373118Y5211840D01*
X7362065Y5208215D01*
X7351608Y5204042D01*
X7341748Y5199323D01*
X7332484Y5194058D01*
X7326954Y5190351D01*
X7326359Y5189476D01*
X7322682Y5182999D01*
X7319571Y5176287D01*
X7317025Y5169342D01*
X7315046Y5162162D01*
X7313631Y5154748D01*
X7312783Y5147099D01*
X7312500Y5139216D01*
X7272500Y5127501D01*
X7272100Y5135100D01*
X7270900Y5141901D01*
X7268900Y5147901D01*
X7266100Y5153100D01*
X7262500Y5157500D01*
X7258100Y5161100D01*
X7252900Y5163901D01*
X7246900Y5165901D01*
X7240100Y5167100D01*
X7232500Y5167500D01*
X7244216Y5207500D01*
X7252099Y5207783D01*
X7259747Y5208632D01*
X7267161Y5210046D01*
X7274341Y5212026D01*
X7281287Y5214571D01*
X7287998Y5217683D01*
X7294475Y5221360D01*
X7295350Y5221955D01*
X7299058Y5227484D01*
X7304323Y5236748D01*
X7309042Y5246609D01*
X7313214Y5257065D01*
X7316840Y5268118D01*
X7319920Y5279767D01*
X7322453Y5292012D01*
X7324440Y5304854D01*
X7399505Y5229789D01*
D02*
G37*
G36*
X4712805Y5172608D02*
X4712581Y5174735D01*
X4711909Y5176639D01*
X4710789Y5178318D01*
X4709222Y5179773D01*
X4707206Y5181005D01*
X4704743Y5182013D01*
X4701832Y5182796D01*
X4698473Y5183356D01*
X4694667Y5183692D01*
X4690412Y5183804D01*
Y5206197D01*
X4694667Y5206308D01*
X4698473Y5206644D01*
X4701832Y5207204D01*
X4704743Y5207988D01*
X4707206Y5208995D01*
X4709222Y5210227D01*
X4710789Y5211682D01*
X4711909Y5213362D01*
X4712581Y5215265D01*
X4712805Y5217393D01*
Y5172608D01*
D02*
G37*
G36*
X4652117Y5215265D02*
X4652798Y5213362D01*
X4653933Y5211682D01*
X4655522Y5210227D01*
X4657564Y5208995D01*
X4660061Y5207988D01*
X4663012Y5207204D01*
X4666416Y5206644D01*
X4670275Y5206308D01*
X4674587Y5206197D01*
Y5183804D01*
X4670275Y5183692D01*
X4666416Y5183356D01*
X4663012Y5182796D01*
X4660061Y5182013D01*
X4657564Y5181005D01*
X4655522Y5179773D01*
X4653933Y5178318D01*
X4652798Y5176639D01*
X4652117Y5174735D01*
X4651890Y5172608D01*
Y5217393D01*
X4652117Y5215265D01*
D02*
G37*
G36*
X7851036Y5235967D02*
X7835296Y5212225D01*
X7828902Y5201035D01*
X7819065Y5180017D01*
X7815622Y5170189D01*
X7813163Y5160814D01*
X7811688Y5151894D01*
X7811196Y5143427D01*
X7788803D01*
X7788312Y5151894D01*
X7786836Y5160814D01*
X7784377Y5170189D01*
X7780934Y5180017D01*
X7776507Y5190299D01*
X7771097Y5201035D01*
X7757325Y5223869D01*
X7748964Y5235967D01*
X7739619Y5248518D01*
X7860381D01*
X7851036Y5235967D01*
D02*
G37*
G36*
X5968650Y5134766D02*
X5964315Y5137908D01*
X5959903Y5140719D01*
X5955414Y5143200D01*
X5950848Y5145350D01*
X5946206Y5147169D01*
X5941486Y5148658D01*
X5936690Y5149815D01*
X5931816Y5150642D01*
X5926866Y5151138D01*
X5921839Y5151304D01*
Y5173696D01*
X5926866Y5173862D01*
X5931816Y5174358D01*
X5936690Y5175184D01*
X5941486Y5176342D01*
X5946206Y5177831D01*
X5950848Y5179650D01*
X5955414Y5181800D01*
X5959903Y5184280D01*
X5964315Y5187092D01*
X5968650Y5190234D01*
Y5134766D01*
D02*
G37*
G36*
X4630265Y5150383D02*
X4628362Y5149702D01*
X4626682Y5148567D01*
X4625227Y5146979D01*
X4623995Y5144936D01*
X4622987Y5142439D01*
X4622204Y5139488D01*
X4621644Y5136084D01*
X4621308Y5132225D01*
X4621196Y5127913D01*
X4598804D01*
X4598692Y5132225D01*
X4598356Y5136084D01*
X4597796Y5139488D01*
X4597012Y5142439D01*
X4596005Y5144936D01*
X4594773Y5146979D01*
X4593318Y5148567D01*
X4591638Y5149702D01*
X4589735Y5150383D01*
X4587608Y5150610D01*
X4632392D01*
X4630265Y5150383D01*
D02*
G37*
G36*
X4482150Y5150307D02*
X4479600Y5149398D01*
X4477350Y5147883D01*
X4475400Y5145761D01*
X4473750Y5143034D01*
X4472400Y5139700D01*
X4471350Y5135761D01*
X4470600Y5131215D01*
X4470150Y5126063D01*
X4470000Y5120305D01*
X4440000D01*
X4439850Y5126063D01*
X4439400Y5131215D01*
X4438650Y5135761D01*
X4437600Y5139700D01*
X4436250Y5143034D01*
X4434600Y5145761D01*
X4432650Y5147883D01*
X4430400Y5149398D01*
X4427850Y5150307D01*
X4425000Y5150610D01*
X4485000D01*
X4482150Y5150307D01*
D02*
G37*
G36*
X6755200Y5122038D02*
X6755800Y5115186D01*
X6756800Y5109140D01*
X6758200Y5103900D01*
X6760000Y5099467D01*
X6762200Y5095839D01*
X6764800Y5093018D01*
X6767800Y5091003D01*
X6771200Y5089794D01*
X6775000Y5089391D01*
X6695000D01*
X6698800Y5089794D01*
X6702200Y5091003D01*
X6705200Y5093018D01*
X6707800Y5095839D01*
X6710000Y5099467D01*
X6711800Y5103900D01*
X6713200Y5109140D01*
X6714200Y5115186D01*
X6714800Y5122038D01*
X6715000Y5129695D01*
X6755000D01*
X6755200Y5122038D01*
D02*
G37*
G36*
X4470150Y5063938D02*
X4470600Y5058786D01*
X4471350Y5054240D01*
X4472400Y5050301D01*
X4473750Y5046967D01*
X4475400Y5044240D01*
X4477350Y5042118D01*
X4479600Y5040603D01*
X4482150Y5039694D01*
X4485000Y5039391D01*
X4425000D01*
X4427850Y5039694D01*
X4430400Y5040603D01*
X4432650Y5042118D01*
X4434600Y5044240D01*
X4436250Y5046967D01*
X4437600Y5050301D01*
X4438650Y5054240D01*
X4439400Y5058786D01*
X4439850Y5063938D01*
X4440000Y5069695D01*
X4470000D01*
X4470150Y5063938D01*
D02*
G37*
G36*
X8011281Y5055333D02*
X8011961Y5048168D01*
X8012556Y5045257D01*
X8013321Y5042794D01*
X8014256Y5040778D01*
X8015361Y5039211D01*
X8016635Y5038091D01*
X8018080Y5037419D01*
X8019695Y5037195D01*
X7980305D01*
X7981920Y5037419D01*
X7983365Y5038091D01*
X7984639Y5039211D01*
X7985744Y5040778D01*
X7986679Y5042794D01*
X7987444Y5045257D01*
X7988039Y5048168D01*
X7988464Y5051527D01*
X7988719Y5055333D01*
X7988804Y5059588D01*
X8011196D01*
X8011281Y5055333D01*
D02*
G37*
G36*
X7811281D02*
X7811961Y5048168D01*
X7812556Y5045257D01*
X7813321Y5042794D01*
X7814256Y5040778D01*
X7815361Y5039211D01*
X7816635Y5038091D01*
X7818080Y5037419D01*
X7819695Y5037195D01*
X7780305D01*
X7781919Y5037419D01*
X7783364Y5038091D01*
X7784639Y5039211D01*
X7785744Y5040778D01*
X7786679Y5042794D01*
X7787444Y5045257D01*
X7788039Y5048168D01*
X7788463Y5051527D01*
X7788718Y5055333D01*
X7788803Y5059588D01*
X7811196D01*
X7811281Y5055333D01*
D02*
G37*
G36*
X7312700Y5069537D02*
X7313300Y5062685D01*
X7314300Y5056640D01*
X7315700Y5051400D01*
X7317500Y5046967D01*
X7319700Y5043339D01*
X7322300Y5040518D01*
X7325300Y5038502D01*
X7328700Y5037293D01*
X7332500Y5036890D01*
X7252500D01*
X7256300Y5037293D01*
X7259700Y5038502D01*
X7262700Y5040518D01*
X7265300Y5043339D01*
X7267500Y5046967D01*
X7269300Y5051400D01*
X7270700Y5056640D01*
X7271700Y5062685D01*
X7272300Y5069537D01*
X7272500Y5077195D01*
X7312500D01*
X7312700Y5069537D01*
D02*
G37*
G36*
X5872633Y5032618D02*
X5872059Y5032843D01*
X5870810Y5033045D01*
X5868887Y5033223D01*
X5859073Y5033614D01*
X5836550Y5033804D01*
Y5056196D01*
X5872633Y5057383D01*
Y5032618D01*
D02*
G37*
G36*
X5214617Y5065265D02*
X5215298Y5063362D01*
X5216433Y5061683D01*
X5218022Y5060227D01*
X5220064Y5058995D01*
X5222561Y5057988D01*
X5225512Y5057204D01*
X5228916Y5056644D01*
X5232775Y5056308D01*
X5237087Y5056196D01*
Y5033804D01*
X5232775Y5033692D01*
X5228916Y5033356D01*
X5225512Y5032796D01*
X5222561Y5032013D01*
X5220064Y5031005D01*
X5218022Y5029774D01*
X5216433Y5028318D01*
X5215298Y5026639D01*
X5214617Y5024735D01*
X5214390Y5022608D01*
Y5067393D01*
X5214617Y5065265D01*
D02*
G37*
G36*
X5433762Y5026617D02*
X5434291Y5020920D01*
X5434753Y5018605D01*
X5435348Y5016647D01*
X5436075Y5015044D01*
X5436934Y5013798D01*
X5437926Y5012908D01*
X5439049Y5012374D01*
X5440305Y5012195D01*
X5404695D01*
X5405951Y5012374D01*
X5407074Y5012908D01*
X5408066Y5013798D01*
X5408925Y5015044D01*
X5409652Y5016647D01*
X5410246Y5018605D01*
X5410709Y5020920D01*
X5411039Y5023590D01*
X5411238Y5026617D01*
X5411304Y5030000D01*
X5433696D01*
X5433762Y5026617D01*
D02*
G37*
G36*
X6693110Y5005000D02*
X6692707Y5008800D01*
X6691498Y5012200D01*
X6689482Y5015200D01*
X6686661Y5017800D01*
X6683034Y5020000D01*
X6678600Y5021800D01*
X6673361Y5023200D01*
X6667315Y5024200D01*
X6660463Y5024800D01*
X6652805Y5025000D01*
Y5065000D01*
X6660463Y5065200D01*
X6667315Y5065800D01*
X6673361Y5066800D01*
X6678600Y5068200D01*
X6683034Y5070000D01*
X6686661Y5072200D01*
X6689482Y5074800D01*
X6691498Y5077800D01*
X6692707Y5081200D01*
X6693110Y5085000D01*
Y5005000D01*
D02*
G37*
G36*
X8018080Y5007581D02*
X8016635Y5006909D01*
X8015361Y5005790D01*
X8014256Y5004222D01*
X8013321Y5002207D01*
X8012556Y4999744D01*
X8011961Y4996833D01*
X8011536Y4993474D01*
X8011281Y4989667D01*
X8011196Y4985413D01*
X7988804D01*
X7988719Y4989667D01*
X7988039Y4996833D01*
X7987444Y4999744D01*
X7986679Y5002207D01*
X7985744Y5004222D01*
X7984639Y5005790D01*
X7983365Y5006909D01*
X7981920Y5007581D01*
X7980305Y5007805D01*
X8019695D01*
X8018080Y5007581D01*
D02*
G37*
G36*
X7818080D02*
X7816635Y5006909D01*
X7815361Y5005790D01*
X7814256Y5004222D01*
X7813321Y5002207D01*
X7812556Y4999744D01*
X7811961Y4996833D01*
X7811536Y4993474D01*
X7811281Y4989667D01*
X7811196Y4985413D01*
X7788803D01*
X7788718Y4989667D01*
X7788039Y4996833D01*
X7787444Y4999744D01*
X7786679Y5002207D01*
X7785744Y5004222D01*
X7784639Y5005790D01*
X7783364Y5006909D01*
X7781919Y5007581D01*
X7780305Y5007805D01*
X7819695D01*
X7818080Y5007581D01*
D02*
G37*
G36*
X5190265Y5002883D02*
X5188361Y5002202D01*
X5186682Y5001067D01*
X5185227Y4999478D01*
X5183995Y4997436D01*
X5182987Y4994939D01*
X5182204Y4991988D01*
X5181644Y4988584D01*
X5181308Y4984725D01*
X5181196Y4980413D01*
X5158803D01*
X5158692Y4984725D01*
X5158356Y4988584D01*
X5157796Y4991988D01*
X5157012Y4994939D01*
X5156005Y4997436D01*
X5154773Y4999478D01*
X5153318Y5001067D01*
X5151638Y5002202D01*
X5149735Y5002883D01*
X5147607Y5003110D01*
X5192392D01*
X5190265Y5002883D01*
D02*
G37*
G36*
X6910265Y5000383D02*
X6908362Y4999702D01*
X6906682Y4998567D01*
X6905227Y4996979D01*
X6903995Y4994936D01*
X6902988Y4992439D01*
X6902204Y4989488D01*
X6901644Y4986084D01*
X6901308Y4982225D01*
X6901196Y4977913D01*
X6878804D01*
X6878692Y4982225D01*
X6878356Y4986084D01*
X6877796Y4989488D01*
X6877013Y4992439D01*
X6876005Y4994936D01*
X6874773Y4996979D01*
X6873318Y4998567D01*
X6871639Y4999702D01*
X6869735Y5000383D01*
X6867608Y5000610D01*
X6912393D01*
X6910265Y5000383D01*
D02*
G37*
G36*
X4712805Y4972608D02*
X4712581Y4974735D01*
X4711909Y4976639D01*
X4710790Y4978318D01*
X4709222Y4979774D01*
X4707207Y4981005D01*
X4704744Y4982013D01*
X4701833Y4982796D01*
X4698474Y4983356D01*
X4694667Y4983692D01*
X4690413Y4983804D01*
Y5006196D01*
X4694667Y5006309D01*
X4698474Y5006645D01*
X4701833Y5007204D01*
X4704744Y5007988D01*
X4707207Y5008996D01*
X4709222Y5010227D01*
X4710790Y5011683D01*
X4711909Y5013362D01*
X4712581Y5015266D01*
X4712805Y5017393D01*
Y4972608D01*
D02*
G37*
G36*
X4652118Y5015266D02*
X4652798Y5013362D01*
X4653933Y5011683D01*
X4655522Y5010227D01*
X4657565Y5008996D01*
X4660062Y5007988D01*
X4663012Y5007204D01*
X4666417Y5006645D01*
X4670275Y5006309D01*
X4674588Y5006196D01*
Y4983804D01*
X4670275Y4983692D01*
X4666417Y4983356D01*
X4663012Y4982796D01*
X4660062Y4982013D01*
X4657565Y4981005D01*
X4655522Y4979774D01*
X4653933Y4978318D01*
X4652798Y4976639D01*
X4652118Y4974735D01*
X4651891Y4972608D01*
Y5017393D01*
X4652118Y5015266D01*
D02*
G37*
G36*
X7095610Y4970108D02*
X7095383Y4972235D01*
X7094702Y4974138D01*
X7093567Y4975818D01*
X7091978Y4977273D01*
X7089935Y4978505D01*
X7087439Y4979513D01*
X7084488Y4980296D01*
X7081083Y4980856D01*
X7077225Y4981192D01*
X7072912Y4981304D01*
Y5003696D01*
X7077225Y5003808D01*
X7081083Y5004144D01*
X7084488Y5004704D01*
X7087439Y5005488D01*
X7089935Y5006495D01*
X7091978Y5007727D01*
X7093567Y5009182D01*
X7094702Y5010862D01*
X7095383Y5012765D01*
X7095610Y5014892D01*
Y4970108D01*
D02*
G37*
G36*
X5746821Y4959136D02*
X5720679D01*
X5721035Y4959861D01*
X5721354Y4961194D01*
X5721635Y4963136D01*
X5722085Y4968842D01*
X5722535Y4987553D01*
X5722553Y4993750D01*
X5744946D01*
X5746821Y4959136D01*
D02*
G37*
G36*
X5181308Y4970333D02*
X5181644Y4966527D01*
X5182204Y4963168D01*
X5182987Y4960257D01*
X5183995Y4957794D01*
X5185227Y4955778D01*
X5186682Y4954211D01*
X5188361Y4953091D01*
X5190265Y4952420D01*
X5192392Y4952196D01*
X5147607D01*
X5149735Y4952420D01*
X5151638Y4953091D01*
X5153318Y4954211D01*
X5154773Y4955778D01*
X5156005Y4957794D01*
X5157012Y4960257D01*
X5157796Y4963168D01*
X5158356Y4966527D01*
X5158692Y4970333D01*
X5158803Y4974588D01*
X5181196D01*
X5181308Y4970333D01*
D02*
G37*
G36*
X8011308Y4957775D02*
X8011644Y4953917D01*
X8012204Y4950512D01*
X8012988Y4947562D01*
X8013995Y4945065D01*
X8015227Y4943022D01*
X8016682Y4941433D01*
X8018362Y4940298D01*
X8020265Y4939618D01*
X8022392Y4939391D01*
X7977608D01*
X7979735Y4939618D01*
X7981638Y4940298D01*
X7983318Y4941433D01*
X7984773Y4943022D01*
X7986005Y4945065D01*
X7987012Y4947562D01*
X7987796Y4950512D01*
X7988356Y4953917D01*
X7988692Y4957775D01*
X7988804Y4962088D01*
X8011196D01*
X8011308Y4957775D01*
D02*
G37*
G36*
X7811308D02*
X7811644Y4953917D01*
X7812204Y4950512D01*
X7812987Y4947562D01*
X7813995Y4945065D01*
X7815226Y4943022D01*
X7816682Y4941433D01*
X7818361Y4940298D01*
X7820265Y4939618D01*
X7822392Y4939391D01*
X7777607D01*
X7779735Y4939618D01*
X7781638Y4940298D01*
X7783317Y4941433D01*
X7784773Y4943022D01*
X7786004Y4945065D01*
X7787012Y4947562D01*
X7787796Y4950512D01*
X7788356Y4953917D01*
X7788692Y4957775D01*
X7788803Y4962088D01*
X7811196D01*
X7811308Y4957775D01*
D02*
G37*
G36*
X6901308Y4957775D02*
X6901644Y4953917D01*
X6902204Y4950512D01*
X6902988Y4947561D01*
X6903995Y4945065D01*
X6905227Y4943022D01*
X6906682Y4941433D01*
X6908362Y4940298D01*
X6910265Y4939618D01*
X6912393Y4939390D01*
X6867608D01*
X6869735Y4939618D01*
X6871639Y4940298D01*
X6873318Y4941433D01*
X6874773Y4943022D01*
X6876005Y4945065D01*
X6877013Y4947561D01*
X6877796Y4950512D01*
X6878356Y4953917D01*
X6878692Y4957775D01*
X6878804Y4962088D01*
X6901196D01*
X6901308Y4957775D01*
D02*
G37*
G36*
X4630265Y4950383D02*
X4628361Y4949702D01*
X4626682Y4948567D01*
X4625226Y4946979D01*
X4623995Y4944936D01*
X4622987Y4942439D01*
X4622204Y4939488D01*
X4621644Y4936084D01*
X4621308Y4932225D01*
X4621196Y4927913D01*
X4598804D01*
X4598692Y4932225D01*
X4598356Y4936084D01*
X4597796Y4939488D01*
X4597012Y4942439D01*
X4596005Y4944936D01*
X4594773Y4946979D01*
X4593317Y4948567D01*
X4591638Y4949702D01*
X4589735Y4950383D01*
X4587607Y4950610D01*
X4632392D01*
X4630265Y4950383D01*
D02*
G37*
G36*
X7306090Y4977410D02*
X7305587Y4975723D01*
X7305144Y4973305D01*
X7304760Y4970156D01*
X7303962Y4956329D01*
X7303855Y4948110D01*
X7314892D01*
X7312765Y4947883D01*
X7310862Y4947202D01*
X7309182Y4946067D01*
X7307727Y4944478D01*
X7306495Y4942435D01*
X7305488Y4939939D01*
X7304704Y4936988D01*
X7304144Y4933583D01*
X7303808Y4929725D01*
X7303696Y4925413D01*
X7281304D01*
X7281192Y4929725D01*
X7280856Y4933583D01*
X7280296Y4936988D01*
X7279512Y4939939D01*
X7278505Y4942435D01*
X7277273Y4944478D01*
X7275818Y4946067D01*
X7274138Y4947202D01*
X7272235Y4947883D01*
X7270108Y4948110D01*
X7281006D01*
X7279413Y4975723D01*
X7278911Y4977410D01*
X7278349Y4978367D01*
X7306651D01*
X7306090Y4977410D01*
D02*
G37*
G36*
X7303808Y4905275D02*
X7304144Y4901417D01*
X7304704Y4898012D01*
X7305488Y4895061D01*
X7306495Y4892565D01*
X7307727Y4890522D01*
X7309182Y4888933D01*
X7310862Y4887798D01*
X7312765Y4887117D01*
X7314892Y4886890D01*
X7270108D01*
X7272235Y4887117D01*
X7274138Y4887798D01*
X7275818Y4888933D01*
X7277273Y4890522D01*
X7278505Y4892565D01*
X7279512Y4895061D01*
X7280296Y4898012D01*
X7280856Y4901417D01*
X7281192Y4905275D01*
X7281304Y4909588D01*
X7303696D01*
X7303808Y4905275D01*
D02*
G37*
G36*
X7038862Y4903134D02*
X7039358Y4898183D01*
X7040185Y4893310D01*
X7041342Y4888514D01*
X7042831Y4883794D01*
X7044650Y4879152D01*
X7046800Y4874586D01*
X7049281Y4870097D01*
X7052092Y4865685D01*
X7055234Y4861350D01*
X6999766D01*
X7002908Y4865685D01*
X7005720Y4870097D01*
X7008200Y4874586D01*
X7010350Y4879152D01*
X7012169Y4883794D01*
X7013658Y4888514D01*
X7014816Y4893310D01*
X7015642Y4898183D01*
X7016138Y4903134D01*
X7016304Y4908161D01*
X7038696D01*
X7038862Y4903134D01*
D02*
G37*
G36*
X4723729Y4859280D02*
X4723472Y4859454D01*
X4722888Y4859610D01*
X4721975Y4859747D01*
X4720734Y4859867D01*
X4712486Y4860160D01*
X4706393Y4860197D01*
Y4882589D01*
X4709134Y4882603D01*
X4719686Y4883269D01*
X4720461Y4883476D01*
X4720956Y4883712D01*
X4721170Y4883975D01*
X4723729Y4859280D01*
D02*
G37*
G36*
X5762572Y4886392D02*
X5764299Y4861022D01*
X5765090Y4856944D01*
X5766026Y4853773D01*
X5767105Y4851508D01*
X5768328Y4850149D01*
X5769695Y4849695D01*
X5710305D01*
X5710722Y4850149D01*
X5711095Y4851508D01*
X5711424Y4853773D01*
X5711710Y4856944D01*
X5712412Y4878691D01*
X5712500Y4895000D01*
X5762500D01*
X5762572Y4886392D01*
D02*
G37*
G36*
X6910265Y4850383D02*
X6908362Y4849702D01*
X6906682Y4848567D01*
X6905227Y4846978D01*
X6903995Y4844935D01*
X6902988Y4842439D01*
X6902204Y4839488D01*
X6901644Y4836084D01*
X6901308Y4832225D01*
X6901196Y4827913D01*
X6878804D01*
X6878692Y4832225D01*
X6878356Y4836084D01*
X6877796Y4839488D01*
X6877013Y4842439D01*
X6876005Y4844935D01*
X6874773Y4846978D01*
X6873318Y4848567D01*
X6871639Y4849702D01*
X6869735Y4850383D01*
X6867608Y4850610D01*
X6912393D01*
X6910265Y4850383D01*
D02*
G37*
G36*
X4454592Y4839315D02*
X4451781Y4834903D01*
X4449300Y4830414D01*
X4447150Y4825848D01*
X4445331Y4821205D01*
X4443842Y4816486D01*
X4442685Y4811690D01*
X4441858Y4806816D01*
X4441362Y4801866D01*
X4441196Y4796839D01*
X4418804D01*
X4418638Y4801866D01*
X4418142Y4806816D01*
X4417316Y4811690D01*
X4416158Y4816486D01*
X4414669Y4821205D01*
X4412850Y4825848D01*
X4410700Y4830414D01*
X4408220Y4834903D01*
X4405408Y4839315D01*
X4402266Y4843650D01*
X4457734D01*
X4454592Y4839315D01*
D02*
G37*
G36*
X7032014Y4805292D02*
X7026727Y4804449D01*
X7021619Y4803317D01*
X7016691Y4801897D01*
X7011942Y4800189D01*
X7007373Y4798192D01*
X7002983Y4795908D01*
X6998773Y4793335D01*
X6994743Y4790473D01*
X6990892Y4787324D01*
X6987220Y4783886D01*
X6971386Y4799720D01*
X6974824Y4803391D01*
X6977973Y4807243D01*
X6980835Y4811273D01*
X6983408Y4815483D01*
X6985692Y4819873D01*
X6987689Y4824442D01*
X6989397Y4829191D01*
X6990817Y4834119D01*
X6991949Y4839227D01*
X6992792Y4844514D01*
X7032014Y4805292D01*
D02*
G37*
G36*
X7157765Y4797883D02*
X7155862Y4797202D01*
X7154182Y4796067D01*
X7152727Y4794478D01*
X7151495Y4792435D01*
X7150488Y4789939D01*
X7149704Y4786988D01*
X7149144Y4783584D01*
X7148808Y4779725D01*
X7148696Y4775413D01*
X7126304D01*
X7126192Y4779725D01*
X7125856Y4783584D01*
X7125296Y4786988D01*
X7124513Y4789939D01*
X7123505Y4792435D01*
X7122273Y4794478D01*
X7120818Y4796067D01*
X7119138Y4797202D01*
X7117235Y4797883D01*
X7115108Y4798110D01*
X7159892D01*
X7157765Y4797883D01*
D02*
G37*
G36*
X4492525Y4756255D02*
X4492301Y4757689D01*
X4491629Y4758972D01*
X4490509Y4760105D01*
X4488942Y4761086D01*
X4486927Y4761917D01*
X4484463Y4762596D01*
X4481552Y4763125D01*
X4478193Y4763502D01*
X4474387Y4763728D01*
X4470132Y4763804D01*
Y4786196D01*
X4474387Y4786272D01*
X4481552Y4786876D01*
X4484463Y4787404D01*
X4486927Y4788084D01*
X4488942Y4788914D01*
X4490509Y4789895D01*
X4491629Y4791028D01*
X4492301Y4792311D01*
X4492525Y4793745D01*
Y4756255D01*
D02*
G37*
G36*
X7240621Y5141125D02*
X7242752Y5140415D01*
X7243856Y5139820D01*
X7244386Y5139387D01*
X7244819Y5138857D01*
X7245415Y5137752D01*
X7246125Y5135622D01*
X7246618Y5132823D01*
Y5068459D01*
X7246393Y5065883D01*
X7245833Y5062500D01*
X7225000D01*
Y4922501D01*
X7225000D01*
Y4912499D01*
X7225000D01*
Y4772500D01*
X7327597D01*
X7330920Y4770810D01*
X7333405Y4768253D01*
X7337474Y4760258D01*
X7331809Y4749405D01*
X7184252D01*
X7175721Y4759800D01*
X7179273Y4772500D01*
X7205000D01*
Y4912499D01*
X7205001D01*
Y4922501D01*
X7205000D01*
Y5062500D01*
X7070000D01*
Y5029405D01*
X7067500D01*
X7053377Y5026596D01*
X7041404Y5018596D01*
X7001404Y4978596D01*
X6993404Y4966623D01*
X6990595Y4952500D01*
Y4903871D01*
X6990366Y4901589D01*
X6989832Y4898441D01*
X6989085Y4895345D01*
X6988120Y4892287D01*
X6986926Y4889240D01*
X6985492Y4886194D01*
X6983795Y4883123D01*
X6981823Y4880028D01*
X6979578Y4876931D01*
X6976635Y4873987D01*
X6970200Y4858453D01*
X6957500Y4860980D01*
Y4964999D01*
X6957501D01*
Y4975001D01*
X6957500D01*
Y5115000D01*
X6822500D01*
Y4975001D01*
X6822500D01*
Y4964999D01*
X6822500D01*
Y4825000D01*
X6853095D01*
Y4645000D01*
X6801572D01*
X6779536Y4667036D01*
X6767132Y4675324D01*
X6752500Y4678234D01*
X6706776D01*
X6704083Y4680034D01*
X6687500Y4683333D01*
X6687078D01*
X6685373Y4684183D01*
X6673960Y4691809D01*
X6652500Y4696077D01*
X6603382D01*
Y4983495D01*
X6619005Y4999119D01*
X6661541D01*
X6664117Y4998893D01*
X6667500Y4998333D01*
Y4975000D01*
X6802500D01*
Y5115000D01*
X6781667D01*
X6781107Y5118384D01*
X6780882Y5120959D01*
Y5130996D01*
X6791505Y5141619D01*
X7237823D01*
X7240621Y5141125D01*
D02*
G37*
G36*
X7404514Y4727792D02*
X7399227Y4726949D01*
X7394119Y4725817D01*
X7389191Y4724397D01*
X7384442Y4722689D01*
X7379873Y4720692D01*
X7375483Y4718407D01*
X7371273Y4715834D01*
X7367242Y4712973D01*
X7363391Y4709824D01*
X7359720Y4706386D01*
X7343886Y4722220D01*
X7347324Y4725891D01*
X7350473Y4729743D01*
X7353334Y4733773D01*
X7355907Y4737983D01*
X7358192Y4742373D01*
X7360188Y4746943D01*
X7361897Y4751691D01*
X7363317Y4756619D01*
X7364449Y4761727D01*
X7365292Y4767015D01*
X7404514Y4727792D01*
D02*
G37*
G36*
X5864015Y5007907D02*
X5868417Y5004966D01*
X5877673Y5003125D01*
X5885491Y4997901D01*
X5900000Y4995015D01*
Y4990000D01*
X5954583D01*
X5960000Y4988923D01*
X6064272D01*
X6076423Y4976772D01*
Y4720901D01*
X6075324Y4714679D01*
X6073614Y4709547D01*
X6071619Y4705843D01*
X6069386Y4703114D01*
X6066657Y4700881D01*
X6062952Y4698886D01*
X6057822Y4697176D01*
X6051599Y4696077D01*
X5796077D01*
Y4815000D01*
X5795000Y4820417D01*
Y4848766D01*
X5795185Y4849695D01*
X5795002Y4850615D01*
X5795117Y4851545D01*
X5795000Y4851971D01*
Y4875000D01*
X5788896D01*
X5788480Y4881115D01*
Y4895000D01*
X5784599Y4914509D01*
X5777082Y4925759D01*
Y4947500D01*
X5773784Y4964083D01*
X5771930Y4966857D01*
X5771250Y4979413D01*
Y5007501D01*
X5798750D01*
Y5008095D01*
X5859307D01*
X5864015Y5007907D01*
D02*
G37*
G36*
X7524514Y4712792D02*
X7519227Y4711949D01*
X7514119Y4710817D01*
X7509191Y4709397D01*
X7504442Y4707689D01*
X7499873Y4705692D01*
X7495483Y4703408D01*
X7491273Y4700835D01*
X7487243Y4697973D01*
X7483391Y4694824D01*
X7479720Y4691386D01*
X7463886Y4707220D01*
X7467324Y4710892D01*
X7470473Y4714743D01*
X7473335Y4718773D01*
X7475908Y4722983D01*
X7478192Y4727373D01*
X7480189Y4731942D01*
X7481897Y4736691D01*
X7483317Y4741619D01*
X7484449Y4746727D01*
X7485292Y4752014D01*
X7524514Y4712792D01*
D02*
G37*
G36*
X8020265Y4700081D02*
X8018362Y4699409D01*
X8016682Y4698290D01*
X8015227Y4696722D01*
X8013995Y4694707D01*
X8012988Y4692244D01*
X8012204Y4689333D01*
X8011644Y4685974D01*
X8011308Y4682167D01*
X8011196Y4677913D01*
X7988804D01*
X7988692Y4682167D01*
X7988356Y4685974D01*
X7987796Y4689333D01*
X7987012Y4692244D01*
X7986005Y4694707D01*
X7984773Y4696722D01*
X7983318Y4698290D01*
X7981638Y4699409D01*
X7979735Y4700081D01*
X7977608Y4700305D01*
X8022392D01*
X8020265Y4700081D01*
D02*
G37*
G36*
X7820265D02*
X7818362Y4699409D01*
X7816682Y4698290D01*
X7815227Y4696722D01*
X7813995Y4694707D01*
X7812987Y4692244D01*
X7812204Y4689333D01*
X7811644Y4685974D01*
X7811308Y4682167D01*
X7811196Y4677913D01*
X7788804D01*
X7788692Y4682167D01*
X7788356Y4685974D01*
X7787796Y4689333D01*
X7787012Y4692244D01*
X7786005Y4694707D01*
X7784773Y4696722D01*
X7783318Y4698290D01*
X7781638Y4699409D01*
X7779735Y4700081D01*
X7777608Y4700305D01*
X7822392D01*
X7820265Y4700081D01*
D02*
G37*
G36*
X6577472Y4702095D02*
X6575705Y4671295D01*
X6575228Y4670095D01*
X6574695Y4669695D01*
X6517500D01*
X6521300Y4670095D01*
X6524700Y4671295D01*
X6527700Y4673295D01*
X6530300Y4676095D01*
X6532500Y4679695D01*
X6534300Y4684095D01*
X6535700Y4689295D01*
X6536700Y4695295D01*
X6537300Y4702095D01*
X6537500Y4709695D01*
X6577500D01*
X6577472Y4702095D01*
D02*
G37*
G36*
X6559655Y4637616D02*
X6558285Y4637425D01*
X6556959Y4637154D01*
X6555676Y4636802D01*
X6554436Y4636369D01*
X6553241Y4635856D01*
X6552089Y4635263D01*
X6550981Y4634588D01*
X6549916Y4633834D01*
X6548895Y4632999D01*
X6547917Y4632083D01*
X6532083Y4647917D01*
X6532999Y4648895D01*
X6533834Y4649916D01*
X6534588Y4650981D01*
X6535263Y4652089D01*
X6535856Y4653241D01*
X6536369Y4654436D01*
X6536802Y4655676D01*
X6537154Y4656959D01*
X6537425Y4658285D01*
X6537616Y4659655D01*
X6559655Y4637616D01*
D02*
G37*
G36*
X6673028Y4662025D02*
X6674445Y4661076D01*
X6675911Y4660238D01*
X6677424Y4659511D01*
X6678984Y4658897D01*
X6680592Y4658394D01*
X6682248Y4658003D01*
X6683951Y4657723D01*
X6685702Y4657556D01*
X6687500Y4657500D01*
Y4622500D01*
X6685702Y4622444D01*
X6683951Y4622277D01*
X6682248Y4621997D01*
X6680592Y4621606D01*
X6678984Y4621104D01*
X6677424Y4620489D01*
X6675911Y4619763D01*
X6674445Y4618924D01*
X6673028Y4617975D01*
X6671657Y4616913D01*
Y4663087D01*
X6673028Y4662025D01*
D02*
G37*
G36*
X6163100Y4718600D02*
X6164900Y4708400D01*
X6167900Y4699400D01*
X6172100Y4691600D01*
X6177500Y4685000D01*
X6184100Y4679600D01*
X6191900Y4675400D01*
X6200900Y4672400D01*
X6211100Y4670600D01*
X6222500Y4670000D01*
X6132500Y4610000D01*
X6042500Y4670000D01*
X6053900Y4670600D01*
X6064100Y4672400D01*
X6073100Y4675400D01*
X6080900Y4679600D01*
X6087500Y4685000D01*
X6092900Y4691600D01*
X6097100Y4699400D01*
X6100100Y4708400D01*
X6101900Y4718600D01*
X6102500Y4730000D01*
X6162500D01*
X6163100Y4718600D01*
D02*
G37*
G36*
X7582014Y4622792D02*
X7576727Y4621949D01*
X7571619Y4620817D01*
X7566691Y4619397D01*
X7561942Y4617689D01*
X7557373Y4615692D01*
X7552983Y4613408D01*
X7548773Y4610835D01*
X7544743Y4607973D01*
X7540891Y4604824D01*
X7537220Y4601386D01*
X7521386Y4617220D01*
X7524824Y4620891D01*
X7527973Y4624743D01*
X7530835Y4628773D01*
X7533408Y4632983D01*
X7535692Y4637373D01*
X7537689Y4641942D01*
X7539397Y4646691D01*
X7540817Y4651619D01*
X7541949Y4656727D01*
X7542792Y4662014D01*
X7582014Y4622792D01*
D02*
G37*
G36*
X4677699Y4624919D02*
X4678370Y4623858D01*
X4679490Y4622921D01*
X4681057Y4622109D01*
X4683071Y4621422D01*
X4685534Y4620860D01*
X4685681Y4620838D01*
X4688844Y4620958D01*
Y4620385D01*
X4691802Y4620110D01*
X4699861Y4619860D01*
Y4594861D01*
X4695607Y4594798D01*
X4688844Y4594327D01*
Y4593763D01*
X4688312Y4593972D01*
X4687373Y4594138D01*
X4685534Y4593862D01*
X4683071Y4593299D01*
X4681057Y4592612D01*
X4679490Y4591801D01*
X4678370Y4590864D01*
X4677699Y4589802D01*
X4677475Y4588615D01*
Y4594688D01*
X4660000Y4594861D01*
Y4619860D01*
X4677475Y4620525D01*
Y4626106D01*
X4677699Y4624919D01*
D02*
G37*
G36*
X4734611Y4587551D02*
X4733723Y4587990D01*
X4732261Y4588382D01*
X4730223Y4588729D01*
X4727610Y4589029D01*
X4716323Y4589653D01*
X4699861Y4589861D01*
Y4624861D01*
X4705923Y4624884D01*
X4733723Y4626732D01*
X4734611Y4627171D01*
Y4587551D01*
D02*
G37*
G36*
X4623597Y4578516D02*
X4596403D01*
X4596611Y4579048D01*
X4596798Y4580104D01*
X4596962Y4581681D01*
X4597324Y4589550D01*
X4597500Y4607361D01*
X4622500D01*
X4623597Y4578516D01*
D02*
G37*
G36*
X4785305Y4575305D02*
X4784951Y4576646D01*
X4783887Y4577845D01*
X4782115Y4578903D01*
X4779634Y4579821D01*
X4776444Y4580597D01*
X4772545Y4581232D01*
X4767937Y4581726D01*
X4756595Y4582290D01*
X4749861Y4582361D01*
Y4632361D01*
X4756595Y4632384D01*
X4784951Y4634252D01*
X4785305Y4634695D01*
Y4575305D01*
D02*
G37*
G36*
X7204618Y4610265D02*
X7205298Y4608362D01*
X7206433Y4606682D01*
X7208022Y4605227D01*
X7210065Y4603995D01*
X7212561Y4602987D01*
X7215512Y4602204D01*
X7218917Y4601644D01*
X7222775Y4601308D01*
X7227088Y4601196D01*
Y4578804D01*
X7222775Y4578692D01*
X7218917Y4578356D01*
X7215512Y4577796D01*
X7212561Y4577012D01*
X7210065Y4576005D01*
X7208022Y4574773D01*
X7206433Y4573318D01*
X7205298Y4571638D01*
X7204618Y4569735D01*
X7204390Y4567608D01*
Y4612392D01*
X7204618Y4610265D01*
D02*
G37*
G36*
X4627565Y4562980D02*
X4628540Y4551180D01*
X4629125Y4547833D01*
X4629840Y4544780D01*
X4630685Y4542020D01*
X4631660Y4539553D01*
X4632765Y4537380D01*
X4634000Y4535500D01*
X4586000D01*
X4587235Y4537380D01*
X4588340Y4539553D01*
X4589315Y4542020D01*
X4590160Y4544780D01*
X4590875Y4547833D01*
X4591460Y4551180D01*
X4592240Y4558753D01*
X4592435Y4562980D01*
X4592500Y4567500D01*
X4627500D01*
X4627565Y4562980D01*
D02*
G37*
G36*
X5622117Y4550265D02*
X5622798Y4548361D01*
X5623933Y4546682D01*
X5625521Y4545227D01*
X5627564Y4543995D01*
X5630061Y4542987D01*
X5633012Y4542204D01*
X5636416Y4541644D01*
X5640275Y4541308D01*
X5644587Y4541196D01*
Y4518804D01*
X5640275Y4518692D01*
X5636416Y4518356D01*
X5633012Y4517796D01*
X5630061Y4517012D01*
X5627564Y4516005D01*
X5625521Y4514773D01*
X5623933Y4513318D01*
X5622798Y4511638D01*
X5622117Y4509735D01*
X5621890Y4507607D01*
Y4552392D01*
X5622117Y4550265D01*
D02*
G37*
G36*
X5553109Y4507607D02*
X5552882Y4509735D01*
X5552201Y4511638D01*
X5551067Y4513318D01*
X5549478Y4514773D01*
X5547435Y4516005D01*
X5544938Y4517012D01*
X5541988Y4517796D01*
X5538583Y4518356D01*
X5534725Y4518692D01*
X5530412Y4518804D01*
Y4541196D01*
X5534725Y4541308D01*
X5538583Y4541644D01*
X5541988Y4542204D01*
X5544938Y4542987D01*
X5547435Y4543995D01*
X5549478Y4545227D01*
X5551067Y4546682D01*
X5552201Y4548361D01*
X5552882Y4550265D01*
X5553109Y4552392D01*
Y4507607D01*
D02*
G37*
G36*
X5393762Y4514059D02*
X5394291Y4508264D01*
X5394753Y4505910D01*
X5395348Y4503918D01*
X5396075Y4502288D01*
X5396934Y4501020D01*
X5397926Y4500115D01*
X5399049Y4499572D01*
X5400305Y4499391D01*
X5364695D01*
X5365951Y4499572D01*
X5367074Y4500115D01*
X5368066Y4501020D01*
X5368925Y4502288D01*
X5369652Y4503918D01*
X5370247Y4505910D01*
X5370709Y4508264D01*
X5371040Y4510981D01*
X5371238Y4514059D01*
X5371304Y4517500D01*
X5393696D01*
X5393762Y4514059D01*
D02*
G37*
G36*
X6741766Y4596663D02*
Y4570000D01*
X6725000D01*
Y4516905D01*
X6647500D01*
X6633377Y4514096D01*
X6621404Y4506096D01*
X6612213Y4496905D01*
X6330287D01*
X6271096Y4556096D01*
X6259123Y4564096D01*
X6245000Y4566905D01*
X5647499D01*
Y4583923D01*
X6652500D01*
X6673960Y4588191D01*
X6685373Y4595817D01*
X6687078Y4596668D01*
X6687500D01*
X6704083Y4599966D01*
X6706776Y4601766D01*
X6736663D01*
X6741766Y4596663D01*
D02*
G37*
G36*
X8459597Y4520204D02*
X8460218Y4518471D01*
X8461252Y4516943D01*
X8462700Y4515618D01*
X8464562Y4514497D01*
X8466838Y4513580D01*
X8469527Y4512866D01*
X8472629Y4512357D01*
X8476146Y4512051D01*
X8480077Y4511949D01*
Y4491568D01*
X8476146Y4491466D01*
X8472629Y4491160D01*
X8469527Y4490651D01*
X8466838Y4489937D01*
X8464562Y4489020D01*
X8462700Y4487899D01*
X8461252Y4486574D01*
X8460218Y4485046D01*
X8459597Y4483314D01*
X8459390Y4481377D01*
Y4522140D01*
X8459597Y4520204D01*
D02*
G37*
G36*
X5771763Y4419024D02*
X5772050Y4415492D01*
X5772529Y4412375D01*
X5773200Y4409674D01*
X5774062Y4407389D01*
X5775116Y4405519D01*
X5776361Y4404065D01*
X5777798Y4403026D01*
X5779427Y4402403D01*
X5781247Y4402195D01*
X5739695D01*
X5741515Y4402403D01*
X5743144Y4403026D01*
X5744581Y4404065D01*
X5745826Y4405519D01*
X5746880Y4407389D01*
X5747742Y4409674D01*
X5748413Y4412375D01*
X5748892Y4415492D01*
X5749179Y4419024D01*
X5749275Y4422971D01*
X5771667D01*
X5771763Y4419024D01*
D02*
G37*
G36*
X8459597Y4346687D02*
X8460218Y4344955D01*
X8461252Y4343426D01*
X8462700Y4342101D01*
X8464562Y4340980D01*
X8466838Y4340063D01*
X8469527Y4339350D01*
X8472629Y4338840D01*
X8476146Y4338535D01*
X8480077Y4338433D01*
Y4318052D01*
X8476146Y4317949D01*
X8472629Y4317644D01*
X8469527Y4317134D01*
X8466838Y4316421D01*
X8464562Y4315504D01*
X8462700Y4314383D01*
X8461252Y4313058D01*
X8460218Y4311529D01*
X8459597Y4309797D01*
X8459390Y4307861D01*
Y4348623D01*
X8459597Y4346687D01*
D02*
G37*
G36*
X4640295Y4368803D02*
X4642095Y4368005D01*
X4645095Y4367301D01*
X4649295Y4366691D01*
X4661295Y4365751D01*
X4699695Y4365000D01*
Y4305000D01*
X4688295Y4304953D01*
X4642095Y4301995D01*
X4640295Y4301197D01*
X4639695Y4300305D01*
Y4369695D01*
X4640295Y4368803D01*
D02*
G37*
G36*
X5277500Y4512891D02*
Y4395000D01*
X5477500D01*
Y4493095D01*
X5527500D01*
Y4475000D01*
X5647499D01*
Y4493095D01*
X5773655D01*
X5774906Y4480395D01*
X5768377Y4479096D01*
X5756404Y4471096D01*
X5734375Y4449067D01*
X5726375Y4437094D01*
X5724467Y4427500D01*
X5690000D01*
Y4292500D01*
X5830000D01*
Y4408095D01*
X6199713D01*
X6226404Y4381404D01*
X6238377Y4373404D01*
X6252500Y4370595D01*
X6252501Y4370595D01*
X6321648D01*
X6326509Y4358861D01*
X6324134Y4356487D01*
X6315000Y4334435D01*
Y4310565D01*
X6324134Y4288513D01*
X6341013Y4271635D01*
X6363065Y4262500D01*
X6386935D01*
X6408987Y4271635D01*
X6425865Y4288513D01*
X6435000Y4310565D01*
Y4318095D01*
X6476811D01*
X6477942Y4315078D01*
X6478924Y4305395D01*
X6462847Y4294653D01*
X6404392Y4236197D01*
X6401837Y4236311D01*
X6388993Y4237700D01*
X6384513Y4238494D01*
X6380929Y4239356D01*
X6378618Y4240106D01*
X6377740Y4240496D01*
X6376306Y4241397D01*
X6375077Y4241865D01*
X6370324Y4245512D01*
X6352079Y4253069D01*
X6332500Y4255647D01*
X6328342D01*
X6308214Y4256337D01*
X6299020Y4257283D01*
X6291441Y4258542D01*
X6285909Y4259938D01*
X6285500Y4260092D01*
Y4278500D01*
X6116501D01*
X6116500Y4278501D01*
X6114500D01*
Y4278500D01*
X6103800Y4278500D01*
X5945500D01*
Y4109664D01*
X5945463Y4109546D01*
X5945500Y4109129D01*
Y4107735D01*
X5945315Y4106805D01*
X5945500Y4105875D01*
Y4081500D01*
X5967946D01*
X5968064Y4081463D01*
X5969273Y4081332D01*
X5969764Y4080506D01*
X5971068Y4077231D01*
X5972406Y4072124D01*
X5973518Y4065268D01*
X5973923Y4060558D01*
Y4039907D01*
X5973848Y4036078D01*
X5602500D01*
X5581040Y4031809D01*
X5562847Y4019653D01*
X5528154Y3984960D01*
X5522176Y3980176D01*
X5514486Y3974949D01*
X5506573Y3970457D01*
X5498418Y3966677D01*
X5489974Y3963582D01*
X5481206Y3961164D01*
X5472070Y3959422D01*
X5464463Y3958578D01*
X5265728D01*
X5078577Y4145728D01*
Y4330000D01*
Y4518923D01*
X5257500D01*
X5267683Y4520948D01*
X5277500Y4512891D01*
D02*
G37*
G36*
X7195000Y4490000D02*
Y4440000D01*
Y4390000D01*
Y4340000D01*
Y4290000D01*
Y4240000D01*
Y4190000D01*
Y4175000D01*
X6835000D01*
Y4190000D01*
Y4240000D01*
Y4290000D01*
Y4340000D01*
Y4390000D01*
Y4440000D01*
Y4490000D01*
Y4535000D01*
X7195000D01*
Y4490000D01*
D02*
G37*
G36*
X7338343Y4156913D02*
X7336972Y4157975D01*
X7335555Y4158924D01*
X7334089Y4159763D01*
X7332576Y4160489D01*
X7331016Y4161103D01*
X7329407Y4161606D01*
X7327752Y4161997D01*
X7326049Y4162277D01*
X7324298Y4162444D01*
X7322500Y4162500D01*
Y4197500D01*
X7324298Y4197556D01*
X7326049Y4197723D01*
X7327752Y4198003D01*
X7329407Y4198394D01*
X7331016Y4198897D01*
X7332576Y4199511D01*
X7334089Y4200237D01*
X7335555Y4201076D01*
X7336972Y4202025D01*
X7338343Y4203087D01*
Y4156913D01*
D02*
G37*
G36*
X6365727Y4217942D02*
X6369475Y4216275D01*
X6374002Y4214805D01*
X6379308Y4213530D01*
X6385393Y4212451D01*
X6399899Y4210882D01*
X6417521Y4210098D01*
X6427500Y4210000D01*
Y4150000D01*
X6417521Y4149902D01*
X6385393Y4147549D01*
X6379308Y4146470D01*
X6374002Y4145195D01*
X6369475Y4143725D01*
X6365727Y4142058D01*
X6362758Y4140195D01*
Y4219805D01*
X6365727Y4217942D01*
D02*
G37*
G36*
X8039487Y4314439D02*
X8045000Y4310755D01*
Y4265000D01*
X8156445D01*
X8166369Y4252300D01*
X8163923Y4240000D01*
Y4065148D01*
X8168191Y4043688D01*
X8180347Y4025495D01*
X8215495Y3990348D01*
X8233687Y3978192D01*
X8255147Y3973923D01*
X8492573D01*
X8492574Y3973923D01*
X8514452D01*
X8523558Y3973161D01*
X8526887Y3972694D01*
X8529328Y3972220D01*
X8530219Y3971979D01*
X8530920Y3971735D01*
X8530970Y3971716D01*
X8534698Y3968855D01*
X8551726Y3961802D01*
X8570000Y3959396D01*
X8640000D01*
X8658274Y3961802D01*
X8675302Y3968855D01*
X8689924Y3980076D01*
X8699762Y3989913D01*
X8704771Y3989182D01*
X8712500Y3984691D01*
Y3972500D01*
X8712803D01*
X8713742Y3924251D01*
X8540310Y3750820D01*
X7895000D01*
X7870200Y3747555D01*
X7847090Y3737982D01*
X7827246Y3722755D01*
X7737245Y3632754D01*
X7722018Y3612909D01*
X7712445Y3589800D01*
X7709180Y3565000D01*
Y3520000D01*
X7712445Y3495200D01*
X7722018Y3472090D01*
X7729111Y3462846D01*
X7729431Y3460421D01*
X7731803Y3454694D01*
X7735000Y3442500D01*
X7735000Y3442500D01*
X7735000Y3442500D01*
Y3428064D01*
X7733844Y3427792D01*
X7728044Y3426898D01*
X7716598Y3426077D01*
X7532500D01*
Y3427500D01*
X7515725D01*
X7514405Y3446192D01*
Y3622500D01*
X7511596Y3636623D01*
X7503596Y3648596D01*
X7463596Y3688596D01*
X7451623Y3696596D01*
X7437500Y3699405D01*
X7376874D01*
X7373113Y3699640D01*
X7365599Y3700961D01*
X7357034Y3703325D01*
X7347472Y3706817D01*
X7336976Y3711491D01*
X7326101Y3717117D01*
X7286340Y3742650D01*
X7274860Y3751218D01*
X7272436Y3753642D01*
X7246464Y3768638D01*
X7234175Y3771930D01*
X7233298Y3785313D01*
X7236487Y3786635D01*
X7253365Y3803513D01*
X7262500Y3825565D01*
Y3849435D01*
X7253365Y3871487D01*
X7250422Y3874431D01*
X7248176Y3877530D01*
X7246205Y3880623D01*
X7244508Y3883693D01*
X7243074Y3886740D01*
X7241880Y3889787D01*
X7240915Y3892845D01*
X7240168Y3895940D01*
X7239634Y3899089D01*
X7239405Y3901371D01*
Y3914999D01*
X7239405Y3915000D01*
X7236596Y3929123D01*
X7228596Y3941096D01*
X7228595Y3941097D01*
X7126905Y4042787D01*
Y4065000D01*
X7230000D01*
Y4140000D01*
X7305000D01*
X7305000Y4140000D01*
X7316790Y4137803D01*
X7322500Y4136668D01*
X7322922D01*
X7324627Y4135817D01*
X7336040Y4128191D01*
X7357500Y4123923D01*
X7568595D01*
X7578065Y4120000D01*
X7601935D01*
X7623987Y4129134D01*
X7640866Y4146013D01*
X7650000Y4168065D01*
Y4191935D01*
X7640866Y4213987D01*
X7623987Y4230866D01*
X7601935Y4240000D01*
X7578065D01*
X7568595Y4236077D01*
X7357500D01*
X7336040Y4231809D01*
X7324626Y4224183D01*
X7322922Y4223332D01*
X7322500D01*
X7317700Y4222378D01*
X7305000Y4232801D01*
Y4345570D01*
X7308473Y4346261D01*
X7312467Y4348930D01*
X7847131D01*
X7847133Y4348930D01*
X8004996D01*
X8039487Y4314439D01*
D02*
G37*
G36*
X8883095Y4137028D02*
X8885795Y4132405D01*
X8890295Y4128326D01*
X8896595Y4124791D01*
X8904695Y4121799D01*
X8914595Y4119351D01*
X8926295Y4117448D01*
X8939795Y4116088D01*
X8965783Y4115216D01*
X9003619Y4115000D01*
Y4025000D01*
X8926715Y4022584D01*
X8926295Y4022553D01*
X8914595Y4020649D01*
X8904695Y4018202D01*
X8896595Y4015210D01*
X8890295Y4011674D01*
X8885795Y4007595D01*
X8883095Y4002972D01*
X8882195Y3997805D01*
X8881778Y3996677D01*
X8881405Y3993293D01*
X8880790Y3979756D01*
X8880000Y3885000D01*
X8740000D01*
X8737805Y3997805D01*
X8882195D01*
Y4021186D01*
X8859467Y4020472D01*
Y4119529D01*
X8861724Y4118668D01*
X8866684Y4117899D01*
X8874345Y4117219D01*
X8882195Y4116972D01*
Y4142195D01*
X8883095Y4137028D01*
D02*
G37*
G36*
X6260918Y4248067D02*
X6263088Y4244275D01*
X6266703Y4240929D01*
X6271764Y4238030D01*
X6278271Y4235576D01*
X6286225Y4233569D01*
X6295624Y4232008D01*
X6306470Y4230892D01*
X6332500Y4230000D01*
Y4130000D01*
X6318762Y4129777D01*
X6295624Y4127993D01*
X6286225Y4126431D01*
X6278271Y4124424D01*
X6271764Y4121970D01*
X6266703Y4119071D01*
X6263088Y4115725D01*
X6260918Y4111933D01*
X6260195Y4107695D01*
Y4252305D01*
X6260918Y4248067D01*
D02*
G37*
G36*
X6255408Y4106105D02*
X6251125Y4104005D01*
X6247346Y4100505D01*
X6244070Y4095605D01*
X6241299Y4089305D01*
X6239031Y4081605D01*
X6237268Y4072505D01*
X6236008Y4062005D01*
X6235252Y4050105D01*
X6235000Y4036805D01*
X6165000D01*
X6164768Y4050105D01*
X6162912Y4072505D01*
X6161289Y4081605D01*
X6159201Y4089305D01*
X6156650Y4095605D01*
X6153634Y4100505D01*
X6150155Y4104005D01*
X6146212Y4106105D01*
X6141805Y4106805D01*
X6260195D01*
X6255408Y4106105D01*
D02*
G37*
G36*
X8738110Y4118266D02*
X8746855Y4118893D01*
X8753855Y4120299D01*
X8759672Y4121921D01*
X8764304Y4123760D01*
X8767754Y4125814D01*
Y4014186D01*
X8764304Y4016240D01*
X8759672Y4018079D01*
X8753855Y4019701D01*
X8746855Y4021107D01*
X8738671Y4022296D01*
X8738110Y4022345D01*
Y4012195D01*
X8737529Y4014628D01*
X8735785Y4016805D01*
X8732880Y4018726D01*
X8728812Y4020390D01*
X8723582Y4021799D01*
X8717190Y4022951D01*
X8709636Y4023847D01*
X8696013Y4024598D01*
X8680000Y4025000D01*
Y4115000D01*
X8691041Y4115128D01*
X8717190Y4117049D01*
X8723582Y4118201D01*
X8728812Y4119610D01*
X8732880Y4121274D01*
X8735785Y4123195D01*
X8737529Y4125372D01*
X8738110Y4127805D01*
Y4118266D01*
D02*
G37*
G36*
X6083648Y4106205D02*
X6078685Y4104405D01*
X6074306Y4101405D01*
X6070510Y4097205D01*
X6067299Y4091805D01*
X6064671Y4085205D01*
X6062628Y4077405D01*
X6061168Y4068405D01*
X6060292Y4058205D01*
X6060224Y4055537D01*
X6063005Y4012095D01*
X6063803Y4010295D01*
X6064695Y4009695D01*
X5995305D01*
X5996197Y4010295D01*
X5996995Y4012095D01*
X5997699Y4015095D01*
X5998310Y4019295D01*
X5999249Y4031295D01*
X5999746Y4056721D01*
X5999708Y4058205D01*
X5998832Y4068405D01*
X5997373Y4077405D01*
X5995329Y4085205D01*
X5992701Y4091805D01*
X5989490Y4097205D01*
X5985694Y4101405D01*
X5981315Y4104405D01*
X5976352Y4106205D01*
X5970805Y4106805D01*
X6089195D01*
X6083648Y4106205D01*
D02*
G37*
G36*
X8542986Y3994010D02*
X8541046Y3995148D01*
X8538416Y3996167D01*
X8535097Y3997065D01*
X8531090Y3997844D01*
X8526393Y3998503D01*
X8514933Y3999461D01*
X8492574Y4000000D01*
Y4060000D01*
X8500716Y4060060D01*
X8531090Y4062156D01*
X8535097Y4062935D01*
X8538416Y4063833D01*
X8541046Y4064852D01*
X8542986Y4065990D01*
Y3994010D01*
D02*
G37*
G36*
X6706221Y3951150D02*
X6722734D01*
X6719592Y3946815D01*
X6716781Y3942403D01*
X6714300Y3937914D01*
X6712150Y3933348D01*
X6711484Y3931649D01*
X6711682Y3931433D01*
X6713362Y3930298D01*
X6715265Y3929617D01*
X6717392Y3929390D01*
X6710599D01*
X6710331Y3928706D01*
X6708842Y3923986D01*
X6707685Y3919190D01*
X6706858Y3914317D01*
X6706362Y3909366D01*
X6706196Y3904339D01*
X6683804D01*
X6683638Y3909366D01*
X6683142Y3914317D01*
X6682316Y3919190D01*
X6681158Y3923986D01*
X6679669Y3928706D01*
X6679401Y3929390D01*
X6672608D01*
X6674735Y3929617D01*
X6676638Y3930298D01*
X6678318Y3931433D01*
X6678516Y3931649D01*
X6677850Y3933348D01*
X6675700Y3937914D01*
X6673220Y3942403D01*
X6670408Y3946815D01*
X6667266Y3951150D01*
X6683779D01*
X6683804Y3952088D01*
X6706196D01*
X6706221Y3951150D01*
D02*
G37*
G36*
X7213862Y3900634D02*
X7214358Y3895684D01*
X7215184Y3890810D01*
X7216342Y3886014D01*
X7217831Y3881294D01*
X7219650Y3876652D01*
X7221800Y3872086D01*
X7224280Y3867597D01*
X7227092Y3863185D01*
X7230234Y3858850D01*
X7174766D01*
X7177908Y3863185D01*
X7180719Y3867597D01*
X7183200Y3872086D01*
X7185350Y3876652D01*
X7187169Y3881294D01*
X7188658Y3886014D01*
X7189815Y3890810D01*
X7190642Y3895684D01*
X7191138Y3900634D01*
X7191304Y3905661D01*
X7213696D01*
X7213862Y3900634D01*
D02*
G37*
G36*
X7093862D02*
X7094358Y3895684D01*
X7095184Y3890810D01*
X7096342Y3886014D01*
X7097831Y3881294D01*
X7099650Y3876652D01*
X7101800Y3872086D01*
X7104280Y3867597D01*
X7107092Y3863185D01*
X7110234Y3858850D01*
X7054766D01*
X7057908Y3863185D01*
X7060719Y3867597D01*
X7063200Y3872086D01*
X7065350Y3876652D01*
X7067169Y3881294D01*
X7068658Y3886014D01*
X7069815Y3890810D01*
X7070642Y3895684D01*
X7071138Y3900634D01*
X7071304Y3905661D01*
X7093696D01*
X7093862Y3900634D01*
D02*
G37*
G36*
X6976362D02*
X6976858Y3895684D01*
X6977685Y3890810D01*
X6978842Y3886014D01*
X6980331Y3881294D01*
X6982150Y3876652D01*
X6984300Y3872086D01*
X6986781Y3867597D01*
X6989592Y3863185D01*
X6992734Y3858850D01*
X6937266D01*
X6940408Y3863185D01*
X6943220Y3867597D01*
X6945700Y3872086D01*
X6947850Y3876652D01*
X6949669Y3881294D01*
X6951158Y3886014D01*
X6952316Y3890810D01*
X6953142Y3895684D01*
X6953638Y3900634D01*
X6953804Y3905661D01*
X6976196D01*
X6976362Y3900634D01*
D02*
G37*
G36*
X6861362D02*
X6861858Y3895684D01*
X6862685Y3890810D01*
X6863842Y3886014D01*
X6865331Y3881294D01*
X6867150Y3876652D01*
X6869300Y3872086D01*
X6871781Y3867597D01*
X6874592Y3863185D01*
X6877734Y3858850D01*
X6822266D01*
X6825408Y3863185D01*
X6828220Y3867597D01*
X6830700Y3872086D01*
X6832850Y3876652D01*
X6834669Y3881294D01*
X6836158Y3886014D01*
X6837316Y3890810D01*
X6838142Y3895684D01*
X6838638Y3900634D01*
X6838804Y3905661D01*
X6861196D01*
X6861362Y3900634D01*
D02*
G37*
G36*
X5597426Y3932500D02*
X5589366Y3923839D01*
X5582153Y3914827D01*
X5575789Y3905463D01*
X5570274Y3895747D01*
X5565607Y3885680D01*
X5561788Y3875262D01*
X5558818Y3864492D01*
X5556697Y3853371D01*
X5555424Y3841898D01*
X5555000Y3830074D01*
X5495000Y3812500D01*
X5494400Y3823900D01*
X5492600Y3834100D01*
X5489600Y3843100D01*
X5485400Y3850900D01*
X5480000Y3857500D01*
X5473400Y3862900D01*
X5465600Y3867100D01*
X5456600Y3870100D01*
X5446400Y3871900D01*
X5435000Y3872500D01*
X5452574Y3932500D01*
X5464398Y3932924D01*
X5475871Y3934197D01*
X5486992Y3936319D01*
X5497762Y3939288D01*
X5508180Y3943107D01*
X5518247Y3947774D01*
X5527963Y3953289D01*
X5537326Y3959653D01*
X5546339Y3966866D01*
X5555000Y3974927D01*
X5597426Y3932500D01*
D02*
G37*
G36*
X7271811Y3721687D02*
X7313330Y3695025D01*
X7325927Y3688508D01*
X7337903Y3683176D01*
X7349257Y3679028D01*
X7359990Y3676066D01*
X7370102Y3674289D01*
X7379592Y3673696D01*
Y3651304D01*
X7370102Y3650711D01*
X7359990Y3648934D01*
X7349257Y3645971D01*
X7337903Y3641824D01*
X7325927Y3636492D01*
X7313330Y3629974D01*
X7286272Y3613385D01*
X7271811Y3603313D01*
X7256729Y3592056D01*
Y3732944D01*
X7271811Y3721687D01*
D02*
G37*
G36*
X7018639Y3607876D02*
X7007250Y3592796D01*
X6980275Y3551317D01*
X6973682Y3538745D01*
X6968287Y3526799D01*
X6964091Y3515481D01*
X6961094Y3504789D01*
X6959295Y3494724D01*
X6958696Y3485287D01*
X6936304Y3485540D01*
X6935718Y3495083D01*
X6933962Y3505241D01*
X6931034Y3516015D01*
X6926935Y3527405D01*
X6921666Y3539410D01*
X6915225Y3552030D01*
X6898830Y3579118D01*
X6888876Y3593585D01*
X6877751Y3608668D01*
X7018639Y3607876D01*
D02*
G37*
G36*
X7842572Y3468067D02*
X7845090Y3427244D01*
X7846026Y3422848D01*
X7847105Y3419707D01*
X7848328Y3417823D01*
X7849695Y3417195D01*
X7760305D01*
X7760722Y3417823D01*
X7761095Y3419707D01*
X7761424Y3422848D01*
X7762149Y3439805D01*
X7762500Y3480000D01*
X7842500D01*
X7842572Y3468067D01*
D02*
G37*
G36*
X7488796Y3446980D02*
X7491204Y3412879D01*
X7492307Y3406682D01*
X7492502Y3405895D01*
X7492727Y3405522D01*
X7494182Y3403933D01*
X7495862Y3402798D01*
X7497765Y3402117D01*
X7499892Y3401890D01*
X7493493D01*
X7493611Y3401415D01*
X7495115Y3397079D01*
X7496820Y3393674D01*
X7498726Y3391200D01*
X7456274D01*
X7458179Y3393674D01*
X7459884Y3397079D01*
X7461389Y3401415D01*
X7461507Y3401890D01*
X7455108D01*
X7457235Y3402117D01*
X7459138Y3402798D01*
X7460818Y3403933D01*
X7462273Y3405522D01*
X7462498Y3405895D01*
X7462693Y3406682D01*
X7463796Y3412879D01*
X7465401Y3428068D01*
X7466204Y3446980D01*
X7466304Y3457832D01*
X7488696D01*
X7488796Y3446980D01*
D02*
G37*
G36*
X7837251Y3395052D02*
X7842353Y3392144D01*
X7848572Y3389578D01*
X7849390Y3389330D01*
Y3392393D01*
X7849618Y3390265D01*
X7850020Y3389139D01*
X7855909Y3387354D01*
X7864364Y3385473D01*
X7873936Y3383933D01*
X7896434Y3381880D01*
X7923401Y3381196D01*
Y3358804D01*
X7909359Y3358633D01*
X7873936Y3356067D01*
X7864364Y3354527D01*
X7855909Y3352646D01*
X7850020Y3350861D01*
X7849618Y3349735D01*
X7849390Y3347608D01*
Y3350670D01*
X7848572Y3350422D01*
X7842353Y3347856D01*
X7837251Y3344948D01*
X7833267Y3341698D01*
Y3352797D01*
X7832079Y3352385D01*
X7828674Y3350680D01*
X7826200Y3348774D01*
Y3391226D01*
X7828674Y3389321D01*
X7832079Y3387616D01*
X7833267Y3387204D01*
Y3398302D01*
X7837251Y3395052D01*
D02*
G37*
G36*
X7507795Y3401778D02*
X7509595Y3401405D01*
X7512595Y3401075D01*
X7522195Y3400549D01*
X7567195Y3400000D01*
Y3340000D01*
X7555795Y3339928D01*
X7516795Y3337410D01*
X7512595Y3336474D01*
X7509595Y3335395D01*
X7507795Y3334172D01*
X7507195Y3332805D01*
Y3402195D01*
X7507795Y3401778D01*
D02*
G37*
G36*
X7760305Y3322805D02*
X7759705Y3326072D01*
X7757905Y3328995D01*
X7754905Y3331574D01*
X7750705Y3333810D01*
X7745305Y3335701D01*
X7738705Y3337249D01*
X7730905Y3338453D01*
X7721905Y3339312D01*
X7700305Y3340000D01*
Y3400000D01*
X7711705Y3400172D01*
X7730905Y3401548D01*
X7738705Y3402751D01*
X7745305Y3404299D01*
X7750705Y3406190D01*
X7754905Y3408426D01*
X7757905Y3411005D01*
X7759705Y3413928D01*
X7760305Y3417195D01*
Y3322805D01*
D02*
G37*
G36*
X7258110Y3190107D02*
X7257883Y3192235D01*
X7257202Y3194138D01*
X7256067Y3195818D01*
X7254479Y3197273D01*
X7252436Y3198505D01*
X7249939Y3199512D01*
X7246988Y3200296D01*
X7243584Y3200856D01*
X7239725Y3201192D01*
X7235413Y3201303D01*
Y3223696D01*
X7239725Y3223808D01*
X7243584Y3224144D01*
X7246988Y3224704D01*
X7249939Y3225487D01*
X7252436Y3226495D01*
X7254479Y3227727D01*
X7256067Y3229182D01*
X7257202Y3230861D01*
X7257883Y3232765D01*
X7258110Y3234892D01*
Y3190107D01*
D02*
G37*
G36*
X7142118Y3232765D02*
X7142798Y3230861D01*
X7143933Y3229182D01*
X7145522Y3227727D01*
X7147565Y3226495D01*
X7150061Y3225487D01*
X7153012Y3224704D01*
X7156417Y3224144D01*
X7160275Y3223808D01*
X7164588Y3223696D01*
Y3201303D01*
X7160275Y3201192D01*
X7156417Y3200856D01*
X7153012Y3200296D01*
X7150061Y3199512D01*
X7147565Y3198505D01*
X7145522Y3197273D01*
X7143933Y3195818D01*
X7142798Y3194138D01*
X7142118Y3192235D01*
X7141890Y3190107D01*
Y3234892D01*
X7142118Y3232765D01*
D02*
G37*
G36*
X6958808Y3142833D02*
X6959144Y3139026D01*
X6959704Y3135667D01*
X6960487Y3132756D01*
X6961495Y3130293D01*
X6962727Y3128278D01*
X6964182Y3126710D01*
X6965862Y3125591D01*
X6967765Y3124919D01*
X6969892Y3124695D01*
X6925108D01*
X6927235Y3124919D01*
X6929138Y3125591D01*
X6930818Y3126710D01*
X6932273Y3128278D01*
X6933505Y3130293D01*
X6934512Y3132756D01*
X6935296Y3135667D01*
X6935856Y3139026D01*
X6936192Y3142833D01*
X6936304Y3147087D01*
X6958696D01*
X6958808Y3142833D01*
D02*
G37*
G36*
X9687195Y3094695D02*
X9592805D01*
X9593222Y3095595D01*
X9593595Y3098295D01*
X9593924Y3102795D01*
X9594912Y3152295D01*
X9595000Y3184695D01*
X9685000D01*
X9687195Y3094695D01*
D02*
G37*
G36*
X8192805Y2767608D02*
X8192581Y2769735D01*
X8191909Y2771638D01*
X8190789Y2773318D01*
X8189222Y2774773D01*
X8187206Y2776005D01*
X8184743Y2777012D01*
X8181832Y2777796D01*
X8178473Y2778356D01*
X8174667Y2778692D01*
X8170412Y2778804D01*
Y2801196D01*
X8174667Y2801308D01*
X8178473Y2801644D01*
X8181832Y2802204D01*
X8184743Y2802988D01*
X8187206Y2803995D01*
X8189222Y2805227D01*
X8190789Y2806682D01*
X8191909Y2808362D01*
X8192581Y2810265D01*
X8192805Y2812392D01*
Y2767608D01*
D02*
G37*
G36*
X9430265Y2735383D02*
X9428362Y2734702D01*
X9426682Y2733567D01*
X9425227Y2731979D01*
X9423995Y2729936D01*
X9422988Y2727439D01*
X9422204Y2724488D01*
X9421644Y2721084D01*
X9421308Y2717225D01*
X9421196Y2712913D01*
X9398804D01*
X9398692Y2717225D01*
X9398356Y2721084D01*
X9397796Y2724488D01*
X9397012Y2727439D01*
X9396005Y2729936D01*
X9394773Y2731979D01*
X9393318Y2733567D01*
X9391638Y2734702D01*
X9389735Y2735383D01*
X9387608Y2735610D01*
X9432392D01*
X9430265Y2735383D01*
D02*
G37*
G36*
X9875000Y3150000D02*
Y2725000D01*
X9850000Y2700000D01*
X9575000D01*
X9550000Y2725000D01*
Y2825000D01*
X9575000Y2850000D01*
X9725000D01*
X9750000Y2875000D01*
Y3150000D01*
X9775000Y3175000D01*
X9850000D01*
X9875000Y3150000D01*
D02*
G37*
G36*
X9421308Y2637776D02*
X9421644Y2633917D01*
X9422204Y2630512D01*
X9422988Y2627562D01*
X9423995Y2625065D01*
X9425227Y2623022D01*
X9426682Y2621433D01*
X9428362Y2620299D01*
X9430265Y2619618D01*
X9432392Y2619391D01*
X9387608D01*
X9389735Y2619618D01*
X9391638Y2620299D01*
X9393318Y2621433D01*
X9394773Y2623022D01*
X9396005Y2625065D01*
X9397012Y2627562D01*
X9397796Y2630512D01*
X9398356Y2633917D01*
X9398692Y2637776D01*
X9398804Y2642088D01*
X9421196D01*
X9421308Y2637776D01*
D02*
G37*
G36*
X9673400Y2651534D02*
X9672686Y2648350D01*
X9672057Y2643697D01*
X9671049Y2629984D01*
X9670000Y2570000D01*
X9610000D01*
X9605803Y2653250D01*
X9674197D01*
X9673400Y2651534D01*
D02*
G37*
G36*
X9849794Y2520081D02*
X9847891Y2519410D01*
X9846211Y2518290D01*
X9844756Y2516723D01*
X9843524Y2514707D01*
X9842517Y2512244D01*
X9841733Y2509333D01*
X9841173Y2505974D01*
X9840837Y2502167D01*
X9840726Y2497913D01*
X9818333D01*
X9818221Y2502167D01*
X9817885Y2505974D01*
X9817325Y2509333D01*
X9816542Y2512244D01*
X9815534Y2514707D01*
X9814302Y2516723D01*
X9812847Y2518290D01*
X9811168Y2519410D01*
X9809264Y2520081D01*
X9807137Y2520305D01*
X9851922D01*
X9849794Y2520081D01*
D02*
G37*
G36*
X9430265D02*
X9428362Y2519410D01*
X9426682Y2518290D01*
X9425227Y2516723D01*
X9423995Y2514707D01*
X9422988Y2512244D01*
X9422204Y2509333D01*
X9421644Y2505974D01*
X9421308Y2502167D01*
X9421196Y2497913D01*
X9398804D01*
X9398692Y2502167D01*
X9398356Y2505974D01*
X9397796Y2509333D01*
X9397012Y2512244D01*
X9396005Y2514707D01*
X9394773Y2516723D01*
X9393318Y2518290D01*
X9391638Y2519410D01*
X9389735Y2520081D01*
X9387608Y2520305D01*
X9432392D01*
X9430265Y2520081D01*
D02*
G37*
%LPC*%
G36*
X5477500Y4375000D02*
X5277500D01*
Y4245000D01*
X5340595D01*
Y4232500D01*
X5343404Y4218377D01*
X5351404Y4206404D01*
X5378904Y4178904D01*
X5390877Y4170904D01*
X5405000Y4168095D01*
X5405001Y4168095D01*
X5527499D01*
Y4150000D01*
X5647499D01*
Y4168095D01*
X5690000D01*
Y4137500D01*
X5830000D01*
Y4272500D01*
X5690000D01*
Y4241905D01*
X5647499D01*
Y4260000D01*
X5527499D01*
Y4241905D01*
X5488918D01*
X5477500Y4245000D01*
Y4375000D01*
D02*
G37*
%LPD*%
G36*
X5397765Y4270383D02*
X5395862Y4269702D01*
X5394182Y4268567D01*
X5392727Y4266978D01*
X5391495Y4264935D01*
X5390488Y4262439D01*
X5389704Y4259488D01*
X5389144Y4256083D01*
X5388808Y4252225D01*
X5388696Y4247913D01*
X5366304D01*
X5366192Y4252225D01*
X5365856Y4256083D01*
X5365296Y4259488D01*
X5364513Y4262439D01*
X5363505Y4264935D01*
X5362273Y4266978D01*
X5360818Y4268567D01*
X5359138Y4269702D01*
X5357235Y4270383D01*
X5355108Y4270610D01*
X5399892D01*
X5397765Y4270383D01*
D02*
G37*
G36*
X5715610Y4182608D02*
X5715383Y4184735D01*
X5714702Y4186638D01*
X5713567Y4188318D01*
X5711978Y4189773D01*
X5709935Y4191005D01*
X5707439Y4192012D01*
X5704488Y4192796D01*
X5701083Y4193356D01*
X5697225Y4193692D01*
X5692912Y4193804D01*
Y4216196D01*
X5697225Y4216308D01*
X5701083Y4216644D01*
X5704488Y4217204D01*
X5707439Y4217988D01*
X5709935Y4218995D01*
X5711978Y4220227D01*
X5713567Y4221682D01*
X5714702Y4223362D01*
X5715383Y4225265D01*
X5715610Y4227392D01*
Y4182608D01*
D02*
G37*
G36*
X5622117Y4225265D02*
X5622797Y4223362D01*
X5623932Y4221682D01*
X5625521Y4220227D01*
X5627564Y4218995D01*
X5630061Y4217988D01*
X5633011Y4217204D01*
X5636416Y4216644D01*
X5640274Y4216308D01*
X5644587Y4216196D01*
Y4193804D01*
X5640274Y4193692D01*
X5636416Y4193356D01*
X5633011Y4192796D01*
X5630061Y4192012D01*
X5627564Y4191005D01*
X5625521Y4189773D01*
X5623932Y4188318D01*
X5622797Y4186638D01*
X5622117Y4184735D01*
X5621890Y4182608D01*
Y4227392D01*
X5622117Y4225265D01*
D02*
G37*
G36*
X5553109Y4182608D02*
X5552882Y4184735D01*
X5552201Y4186638D01*
X5551066Y4188318D01*
X5549478Y4189773D01*
X5547435Y4191005D01*
X5544938Y4192012D01*
X5541987Y4192796D01*
X5538583Y4193356D01*
X5534724Y4193692D01*
X5530412Y4193804D01*
Y4216196D01*
X5534724Y4216308D01*
X5538583Y4216644D01*
X5541987Y4217204D01*
X5544938Y4217988D01*
X5547435Y4218995D01*
X5549478Y4220227D01*
X5551066Y4221682D01*
X5552201Y4223362D01*
X5552882Y4225265D01*
X5553109Y4227392D01*
Y4182608D01*
D02*
G37*
G36*
X6197805Y3662000D02*
X6197575Y3664185D01*
X6196885Y3666140D01*
X6195735Y3667865D01*
X6194125Y3669360D01*
X6192055Y3670625D01*
X6189525Y3671660D01*
X6186535Y3672465D01*
X6183085Y3673040D01*
X6179175Y3673385D01*
X6174805Y3673500D01*
Y3696500D01*
X6179175Y3696615D01*
X6183085Y3696960D01*
X6186535Y3697535D01*
X6189525Y3698340D01*
X6192055Y3699375D01*
X6194125Y3700640D01*
X6195735Y3702135D01*
X6196885Y3703860D01*
X6197575Y3705815D01*
X6197805Y3708000D01*
Y3662000D01*
D02*
G37*
G36*
X6106615Y3328267D02*
X6106960Y3324306D01*
X6107535Y3320810D01*
X6108340Y3317780D01*
X6109375Y3315217D01*
X6110640Y3313119D01*
X6112135Y3311488D01*
X6113860Y3310323D01*
X6115815Y3309624D01*
X6118000Y3309390D01*
X6072000D01*
X6074185Y3309624D01*
X6076140Y3310323D01*
X6077865Y3311488D01*
X6079360Y3313119D01*
X6080625Y3315217D01*
X6081660Y3317780D01*
X6082465Y3320810D01*
X6083040Y3324306D01*
X6083385Y3328267D01*
X6083500Y3332695D01*
X6106500D01*
X6106615Y3328267D01*
D02*
G37*
G36*
X5377795Y3485953D02*
X5379595Y3482605D01*
X5382595Y3479651D01*
X5386795Y3477091D01*
X5392195Y3474924D01*
X5398795Y3473152D01*
X5406595Y3471773D01*
X5415595Y3470788D01*
X5437195Y3470000D01*
Y3410001D01*
X5425795Y3409804D01*
X5406595Y3408228D01*
X5398795Y3406849D01*
X5392195Y3405077D01*
X5386795Y3402910D01*
X5382595Y3400350D01*
X5379595Y3397396D01*
X5377795Y3394048D01*
X5377195Y3390305D01*
Y3489696D01*
X5377795Y3485953D01*
D02*
G37*
G36*
X5530047Y3338295D02*
X5533005Y3292096D01*
X5533803Y3290295D01*
X5534695Y3289695D01*
X5465305D01*
X5466197Y3290295D01*
X5466995Y3292096D01*
X5467700Y3295096D01*
X5468310Y3299295D01*
X5469249Y3311295D01*
X5470000Y3349695D01*
X5530000D01*
X5530047Y3338295D01*
D02*
G37*
G36*
X6725000Y3500000D02*
Y3300000D01*
X6700000Y3275000D01*
X6350000D01*
Y3525000D01*
X6700000D01*
X6725000Y3500000D01*
D02*
G37*
G36*
X6292697Y3307357D02*
X6294203Y3305265D01*
X6296713Y3303419D01*
X6300226Y3301819D01*
X6304744Y3300466D01*
X6310265Y3299358D01*
X6316791Y3298497D01*
X6332853Y3297512D01*
X6342390Y3297389D01*
Y3237390D01*
X6332853Y3237219D01*
X6316791Y3235852D01*
X6310265Y3234656D01*
X6304744Y3233119D01*
X6300226Y3231239D01*
X6296713Y3229018D01*
X6294203Y3226455D01*
X6292697Y3223551D01*
X6292195Y3220305D01*
Y3309695D01*
X6292697Y3307357D01*
D02*
G37*
G36*
X8730265Y3325383D02*
X8728362Y3324702D01*
X8726682Y3323567D01*
X8725227Y3321979D01*
X8723995Y3319936D01*
X8722988Y3317439D01*
X8722204Y3314488D01*
X8721644Y3311084D01*
X8721308Y3307225D01*
X8721196Y3302913D01*
X8698804D01*
X8698692Y3307225D01*
X8698356Y3311084D01*
X8697796Y3314488D01*
X8697013Y3317439D01*
X8696005Y3319936D01*
X8694773Y3321979D01*
X8693318Y3323567D01*
X8691638Y3324702D01*
X8689735Y3325383D01*
X8687608Y3325610D01*
X8732392D01*
X8730265Y3325383D01*
D02*
G37*
G36*
X8721308Y3267833D02*
X8721644Y3264026D01*
X8722204Y3260667D01*
X8722988Y3257756D01*
X8723995Y3255293D01*
X8725227Y3253278D01*
X8726682Y3251710D01*
X8728362Y3250591D01*
X8730265Y3249919D01*
X8732392Y3249695D01*
X8687608D01*
X8689735Y3249919D01*
X8691638Y3250591D01*
X8693318Y3251710D01*
X8694773Y3253278D01*
X8696005Y3255293D01*
X8697013Y3257756D01*
X8697796Y3260667D01*
X8698356Y3264026D01*
X8698692Y3267833D01*
X8698804Y3272087D01*
X8721196D01*
X8721308Y3267833D01*
D02*
G37*
G36*
X9361308Y3267776D02*
X9361644Y3263917D01*
X9362204Y3260512D01*
X9362988Y3257562D01*
X9363995Y3255065D01*
X9365227Y3253022D01*
X9366682Y3251433D01*
X9368362Y3250299D01*
X9370265Y3249618D01*
X9372392Y3249391D01*
X9327608D01*
X9329735Y3249618D01*
X9331638Y3250299D01*
X9333318Y3251433D01*
X9334773Y3253022D01*
X9336005Y3255065D01*
X9337013Y3257562D01*
X9337796Y3260512D01*
X9338356Y3263917D01*
X9338692Y3267776D01*
X9338804Y3272088D01*
X9361196D01*
X9361308Y3267776D01*
D02*
G37*
G36*
X9001308Y3260334D02*
X9001644Y3256527D01*
X9002204Y3253168D01*
X9002988Y3250257D01*
X9003995Y3247794D01*
X9005227Y3245778D01*
X9006682Y3244211D01*
X9008362Y3243091D01*
X9010265Y3242420D01*
X9012392Y3242196D01*
X8967608D01*
X8969735Y3242420D01*
X8971638Y3243091D01*
X8973318Y3244211D01*
X8974773Y3245778D01*
X8976005Y3247794D01*
X8977013Y3250257D01*
X8977796Y3253168D01*
X8978356Y3256527D01*
X8978692Y3260334D01*
X8978804Y3264588D01*
X9001196D01*
X9001308Y3260334D01*
D02*
G37*
G36*
X8945610Y3177608D02*
X8945383Y3179735D01*
X8944702Y3181639D01*
X8943567Y3183318D01*
X8941978Y3184774D01*
X8939935Y3186005D01*
X8937439Y3187013D01*
X8934488Y3187797D01*
X8931083Y3188356D01*
X8927225Y3188692D01*
X8922913Y3188804D01*
Y3211197D01*
X8927225Y3211309D01*
X8931083Y3211645D01*
X8934488Y3212204D01*
X8937439Y3212988D01*
X8939935Y3213996D01*
X8941978Y3215227D01*
X8943567Y3216683D01*
X8944702Y3218362D01*
X8945383Y3220266D01*
X8945610Y3222393D01*
Y3177608D01*
D02*
G37*
G36*
X8739618Y3220266D02*
X8740298Y3218362D01*
X8741433Y3216683D01*
X8743022Y3215227D01*
X8745065Y3213996D01*
X8747561Y3212988D01*
X8750512Y3212204D01*
X8753917Y3211645D01*
X8757775Y3211309D01*
X8762088Y3211197D01*
Y3188804D01*
X8757775Y3188692D01*
X8753917Y3188356D01*
X8750512Y3187797D01*
X8747561Y3187013D01*
X8745065Y3186005D01*
X8743022Y3184774D01*
X8741433Y3183318D01*
X8740298Y3181639D01*
X8739618Y3179735D01*
X8739390Y3177608D01*
Y3222393D01*
X8739618Y3220266D01*
D02*
G37*
G36*
X8165595Y3416778D02*
X8168295Y3416405D01*
X8172795Y3416076D01*
X8222295Y3415088D01*
X8254695Y3415000D01*
Y3325000D01*
X8164695Y3322805D01*
Y3417195D01*
X8165595Y3416778D01*
D02*
G37*
G36*
X8585610Y2937608D02*
X8585383Y2939735D01*
X8584702Y2941639D01*
X8583567Y2943318D01*
X8581978Y2944774D01*
X8579935Y2946005D01*
X8577439Y2947013D01*
X8574488Y2947796D01*
X8571083Y2948356D01*
X8567225Y2948692D01*
X8562913Y2948804D01*
Y2971197D01*
X8567225Y2971309D01*
X8571083Y2971645D01*
X8574488Y2972204D01*
X8577439Y2972988D01*
X8579935Y2973996D01*
X8581978Y2975227D01*
X8583567Y2976683D01*
X8584702Y2978362D01*
X8585383Y2980266D01*
X8585610Y2982393D01*
Y2937608D01*
D02*
G37*
G36*
X8434617Y2980266D02*
X8435298Y2978362D01*
X8436433Y2976683D01*
X8438022Y2975227D01*
X8440065Y2973996D01*
X8442561Y2972988D01*
X8445512Y2972204D01*
X8448917Y2971645D01*
X8452775Y2971309D01*
X8457087Y2971197D01*
Y2948804D01*
X8452775Y2948692D01*
X8448917Y2948356D01*
X8445512Y2947796D01*
X8442561Y2947013D01*
X8440065Y2946005D01*
X8438022Y2944774D01*
X8436433Y2943318D01*
X8435298Y2941639D01*
X8434617Y2939735D01*
X8434390Y2937608D01*
Y2982393D01*
X8434617Y2980266D01*
D02*
G37*
G36*
X8410265Y2917581D02*
X8408361Y2916910D01*
X8406682Y2915790D01*
X8405227Y2914223D01*
X8403995Y2912207D01*
X8402987Y2909744D01*
X8402204Y2906833D01*
X8401644Y2903474D01*
X8401308Y2899667D01*
X8401196Y2895413D01*
X8378804D01*
X8378692Y2899667D01*
X8378356Y2903474D01*
X8377796Y2906833D01*
X8377012Y2909744D01*
X8376005Y2912207D01*
X8374773Y2914223D01*
X8373318Y2915790D01*
X8371638Y2916910D01*
X8369735Y2917581D01*
X8367607Y2917805D01*
X8412392D01*
X8410265Y2917581D01*
D02*
G37*
G36*
X8401308Y2852775D02*
X8401644Y2848917D01*
X8402204Y2845512D01*
X8402987Y2842561D01*
X8403995Y2840065D01*
X8405227Y2838022D01*
X8406682Y2836433D01*
X8408361Y2835298D01*
X8410265Y2834617D01*
X8412392Y2834390D01*
X8367607D01*
X8369735Y2834617D01*
X8371638Y2835298D01*
X8373318Y2836433D01*
X8374773Y2838022D01*
X8376005Y2840065D01*
X8377012Y2842561D01*
X8377796Y2845512D01*
X8378356Y2848917D01*
X8378692Y2852775D01*
X8378804Y2857088D01*
X8401196D01*
X8401308Y2852775D01*
D02*
G37*
G36*
X7258110Y2905107D02*
X7257883Y2907235D01*
X7257202Y2909138D01*
X7256067Y2910818D01*
X7254479Y2912273D01*
X7252436Y2913505D01*
X7249939Y2914512D01*
X7246988Y2915296D01*
X7243584Y2915856D01*
X7239725Y2916192D01*
X7235413Y2916304D01*
Y2938696D01*
X7239725Y2938808D01*
X7243584Y2939144D01*
X7246988Y2939704D01*
X7249939Y2940487D01*
X7252436Y2941495D01*
X7254479Y2942727D01*
X7256067Y2944182D01*
X7257202Y2945862D01*
X7257883Y2947765D01*
X7258110Y2949892D01*
Y2905107D01*
D02*
G37*
G36*
X6992117Y2947765D02*
X6992798Y2945862D01*
X6993933Y2944182D01*
X6995522Y2942727D01*
X6997565Y2941495D01*
X7000061Y2940487D01*
X7003012Y2939704D01*
X7006417Y2939144D01*
X7010275Y2938808D01*
X7014587Y2938696D01*
Y2916304D01*
X7010275Y2916192D01*
X7006417Y2915856D01*
X7003012Y2915296D01*
X7000061Y2914512D01*
X6997565Y2913505D01*
X6995522Y2912273D01*
X6993933Y2910818D01*
X6992798Y2909138D01*
X6992117Y2907235D01*
X6991890Y2905107D01*
Y2949892D01*
X6992117Y2947765D01*
D02*
G37*
G36*
X9275265Y2910081D02*
X9273362Y2909410D01*
X9271682Y2908290D01*
X9270227Y2906723D01*
X9268995Y2904707D01*
X9267988Y2902244D01*
X9267204Y2899333D01*
X9266644Y2895974D01*
X9266308Y2892167D01*
X9266196Y2887913D01*
X9243804D01*
X9243692Y2892167D01*
X9243356Y2895974D01*
X9242796Y2899333D01*
X9242013Y2902244D01*
X9241005Y2904707D01*
X9239773Y2906723D01*
X9238318Y2908290D01*
X9236638Y2909410D01*
X9234735Y2910081D01*
X9232608Y2910305D01*
X9277392D01*
X9275265Y2910081D01*
D02*
G37*
G36*
X9266308Y2842775D02*
X9266644Y2838917D01*
X9267204Y2835512D01*
X9267988Y2832562D01*
X9268995Y2830065D01*
X9270227Y2828022D01*
X9271682Y2826433D01*
X9273362Y2825298D01*
X9275265Y2824618D01*
X9277392Y2824391D01*
X9232608D01*
X9234735Y2824618D01*
X9236638Y2825298D01*
X9238318Y2826433D01*
X9239773Y2828022D01*
X9241005Y2830065D01*
X9242013Y2832562D01*
X9242796Y2835512D01*
X9243356Y2838917D01*
X9243692Y2842775D01*
X9243804Y2847088D01*
X9266196D01*
X9266308Y2842775D01*
D02*
G37*
G36*
X9212805Y2757608D02*
X9212581Y2759735D01*
X9211909Y2761639D01*
X9210790Y2763318D01*
X9209222Y2764773D01*
X9207207Y2766005D01*
X9204744Y2767013D01*
X9201832Y2767796D01*
X9198474Y2768356D01*
X9194667Y2768692D01*
X9190412Y2768804D01*
Y2791197D01*
X9194667Y2791308D01*
X9198474Y2791644D01*
X9201832Y2792204D01*
X9204744Y2792988D01*
X9207207Y2793995D01*
X9209222Y2795227D01*
X9210790Y2796682D01*
X9211909Y2798362D01*
X9212581Y2800265D01*
X9212805Y2802393D01*
Y2757608D01*
D02*
G37*
G36*
X7507795Y2801303D02*
X7509595Y2800505D01*
X7512595Y2799801D01*
X7516795Y2799190D01*
X7528795Y2798251D01*
X7567195Y2797500D01*
Y2737500D01*
X7555795Y2737453D01*
X7509595Y2734495D01*
X7507795Y2733697D01*
X7507195Y2732805D01*
Y2802195D01*
X7507795Y2801303D01*
D02*
G37*
G36*
X9061308Y2717776D02*
X9061644Y2713917D01*
X9062204Y2710512D01*
X9062987Y2707562D01*
X9063995Y2705065D01*
X9065227Y2703022D01*
X9066682Y2701434D01*
X9068362Y2700299D01*
X9070265Y2699618D01*
X9072392Y2699391D01*
X9027608D01*
X9029735Y2699618D01*
X9031638Y2700299D01*
X9033318Y2701434D01*
X9034773Y2703022D01*
X9036005Y2705065D01*
X9037012Y2707562D01*
X9037796Y2710512D01*
X9038356Y2713917D01*
X9038692Y2717776D01*
X9038804Y2722088D01*
X9061196D01*
X9061308Y2717776D01*
D02*
G37*
G36*
X9015610Y2647608D02*
X9015383Y2649735D01*
X9014702Y2651639D01*
X9013567Y2653318D01*
X9011978Y2654774D01*
X9009935Y2656005D01*
X9007439Y2657013D01*
X9004488Y2657797D01*
X9001083Y2658356D01*
X8997225Y2658692D01*
X8992912Y2658804D01*
Y2681197D01*
X8997225Y2681309D01*
X9001083Y2681645D01*
X9004488Y2682204D01*
X9007439Y2682988D01*
X9009935Y2683996D01*
X9011978Y2685227D01*
X9013567Y2686683D01*
X9014702Y2688362D01*
X9015383Y2690266D01*
X9015610Y2692393D01*
Y2647608D01*
D02*
G37*
G36*
X8955295Y2605829D02*
X8957095Y2604605D01*
X8960095Y2603526D01*
X8964295Y2602591D01*
X8969695Y2601799D01*
X8984095Y2600648D01*
X9014695Y2600000D01*
Y2540001D01*
X9003295Y2539829D01*
X8984095Y2538453D01*
X8976295Y2537249D01*
X8969695Y2535702D01*
X8964295Y2533810D01*
X8960095Y2531575D01*
X8957095Y2528995D01*
X8955295Y2526072D01*
X8954695Y2522805D01*
Y2607196D01*
X8955295Y2605829D01*
D02*
G37*
G36*
X8865305Y2522805D02*
X8864505Y2523222D01*
X8862105Y2523595D01*
X8858105Y2523925D01*
X8826105Y2524802D01*
X8785305Y2525000D01*
Y2605000D01*
X8865305Y2607196D01*
Y2522805D01*
D02*
G37*
G36*
X9190305Y2520305D02*
X9189705Y2524048D01*
X9187905Y2527396D01*
X9184905Y2530350D01*
X9180705Y2532910D01*
X9175305Y2535077D01*
X9168705Y2536849D01*
X9160905Y2538228D01*
X9151905Y2539213D01*
X9130305Y2540001D01*
Y2600000D01*
X9141705Y2600197D01*
X9160905Y2601773D01*
X9168705Y2603152D01*
X9175305Y2604924D01*
X9180705Y2607091D01*
X9184905Y2609651D01*
X9187905Y2612605D01*
X9189705Y2615953D01*
X9190305Y2619696D01*
Y2520305D01*
D02*
G37*
G36*
X8569823Y2633696D02*
X8579635Y2629772D01*
X8592694Y2626310D01*
X8608999Y2623309D01*
X8628550Y2620770D01*
X8677391Y2617077D01*
X8775000Y2615000D01*
Y2515000D01*
X8739217Y2514769D01*
X8608999Y2506690D01*
X8592694Y2503690D01*
X8579635Y2500227D01*
X8569823Y2496304D01*
X8563257Y2491918D01*
Y2638082D01*
X8569823Y2633696D01*
D02*
G37*
G36*
X7911297Y2487916D02*
X7903771Y2494012D01*
X7878436Y2511979D01*
X7873295Y2514866D01*
X7868631Y2517112D01*
X7864444Y2518717D01*
X7860734Y2519679D01*
X7857500Y2520000D01*
Y2610000D01*
X7860734Y2610321D01*
X7864444Y2611283D01*
X7868631Y2612888D01*
X7873295Y2615133D01*
X7878436Y2618021D01*
X7890150Y2625721D01*
X7903771Y2635988D01*
X7911297Y2642084D01*
Y2487916D01*
D02*
G37*
G36*
X8384918Y2220109D02*
X8065082D01*
X8066966Y2224763D01*
X8068652Y2233444D01*
X8070140Y2246151D01*
X8072521Y2283645D01*
X8075000Y2447842D01*
X8375000D01*
X8384918Y2220109D01*
D02*
G37*
G36*
X8426528Y2032967D02*
X8431112Y1972990D01*
X8438752Y1920070D01*
X8449449Y1874205D01*
X8463201Y1835396D01*
X8480010Y1803644D01*
X8499875Y1778948D01*
X8522795Y1761307D01*
X8548772Y1750723D01*
X8577805Y1747195D01*
X7872195D01*
X7901228Y1750723D01*
X7927205Y1761307D01*
X7950126Y1778948D01*
X7969990Y1803644D01*
X7986799Y1835396D01*
X8000551Y1874205D01*
X8011248Y1920070D01*
X8018888Y1972990D01*
X8023472Y2032967D01*
X8025000Y2100000D01*
X8425000D01*
X8426528Y2032967D01*
D02*
G37*
G36*
X9705305Y2280305D02*
X9704405Y2281197D01*
X9701705Y2281995D01*
X9697205Y2282700D01*
X9690905Y2283310D01*
X9661205Y2284578D01*
X9615305Y2285001D01*
Y2375000D01*
X9705305Y2379696D01*
Y2280305D01*
D02*
G37*
G36*
X9345595Y2378803D02*
X9348295Y2378005D01*
X9352795Y2377301D01*
X9359095Y2376691D01*
X9388795Y2375423D01*
X9434695Y2375000D01*
Y2285001D01*
X9344695Y2280305D01*
Y2379696D01*
X9345595Y2378803D01*
D02*
G37*
D10*
X2242500Y3935000D02*
D03*
X5960000Y5045000D02*
D03*
Y4945000D02*
D03*
X6540000Y4540000D02*
D03*
Y4640000D02*
D03*
X6410000D02*
D03*
Y4540000D02*
D03*
X7470000Y4280000D02*
D03*
Y4180000D02*
D03*
X8470000Y4130000D02*
D03*
Y4030000D02*
D03*
X6600000Y4255000D02*
D03*
Y4155000D02*
D03*
X6330000Y3980000D02*
D03*
Y3880000D02*
D03*
X6200000Y3980000D02*
D03*
Y3880000D02*
D03*
X6030000Y3980000D02*
D03*
Y3880000D02*
D03*
X5680000Y3590000D02*
D03*
Y3490000D02*
D03*
X5810000Y3590000D02*
D03*
Y3490000D02*
D03*
X8340000Y4130000D02*
D03*
Y4030000D02*
D03*
X4432500Y3110000D02*
D03*
Y3210000D02*
D03*
X6540000Y3590000D02*
D03*
Y3490000D02*
D03*
X5630000Y3260000D02*
D03*
Y3160000D02*
D03*
X5500000Y3260000D02*
D03*
Y3160000D02*
D03*
X5900000Y3980000D02*
D03*
Y3880000D02*
D03*
X4820000Y4705000D02*
D03*
Y4605000D02*
D03*
X9050000Y2670001D02*
D03*
X9050000Y2570000D02*
D03*
X6410000Y3590000D02*
D03*
Y3490000D02*
D03*
X5587500Y4530000D02*
D03*
Y4430000D02*
D03*
X5587499Y4205000D02*
D03*
Y4305000D02*
D03*
X2915000Y3790000D02*
D03*
X2915000Y3890000D02*
D03*
X3045000Y3790000D02*
D03*
X3045000Y3890000D02*
D03*
X3730000Y4185000D02*
D03*
Y4285000D02*
D03*
X1652500Y4035000D02*
D03*
X2242500D02*
D03*
X2625000Y3935000D02*
D03*
Y4035000D02*
D03*
X557500Y4100000D02*
D03*
Y4000000D02*
D03*
X940000Y4100000D02*
D03*
Y4000000D02*
D03*
X3757500Y3935000D02*
D03*
Y3835000D02*
D03*
X2520000Y4320000D02*
D03*
Y4420000D02*
D03*
D11*
X8240000Y1247500D02*
D03*
X1740000D02*
D03*
D12*
X7015000Y4355000D02*
D03*
D13*
X6840000Y4590000D02*
D03*
X6890000D02*
D03*
X6940000D02*
D03*
X6990000D02*
D03*
X7040000D02*
D03*
X7090000D02*
D03*
X7140000D02*
D03*
X7190000D02*
D03*
Y4120000D02*
D03*
X7140000D02*
D03*
X7090000D02*
D03*
X7040000D02*
D03*
X6990000D02*
D03*
X6940000D02*
D03*
X6890000D02*
D03*
X6840000D02*
D03*
D14*
X7250000Y4530000D02*
D03*
Y4480000D02*
D03*
Y4430000D02*
D03*
Y4380000D02*
D03*
Y4330000D02*
D03*
Y4280000D02*
D03*
Y4230000D02*
D03*
Y4180000D02*
D03*
X6780000D02*
D03*
Y4230000D02*
D03*
Y4280000D02*
D03*
Y4330000D02*
D03*
Y4380000D02*
D03*
Y4430000D02*
D03*
Y4480000D02*
D03*
Y4530000D02*
D03*
D15*
X7800000Y5022500D02*
D03*
X7710000D02*
D03*
X8090000D02*
D03*
X8000000D02*
D03*
X7537500Y5022500D02*
D03*
X7447500D02*
D03*
D16*
X6890000Y5045000D02*
D03*
X6735000D02*
D03*
X6890000Y4895000D02*
D03*
X6735000D02*
D03*
X5290000Y5355000D02*
D03*
X5135000D02*
D03*
X5425000D02*
D03*
X5580000D02*
D03*
X6095000Y3265000D02*
D03*
X6250000D02*
D03*
X4455000Y5195000D02*
D03*
X4610000D02*
D03*
X4610000Y4995000D02*
D03*
X4455000D02*
D03*
X4755000D02*
D03*
X4910000D02*
D03*
X4755000Y5195000D02*
D03*
X4910000D02*
D03*
X9410000Y2780000D02*
D03*
X9255000D02*
D03*
X8710000Y3370000D02*
D03*
X8555000D02*
D03*
X8390000Y2790000D02*
D03*
X8235000D02*
D03*
X7292500Y4992500D02*
D03*
X7137500D02*
D03*
X7292500Y4842500D02*
D03*
X7137500D02*
D03*
X6897500Y5302500D02*
D03*
X6742500D02*
D03*
D17*
X8000000Y4897500D02*
D03*
Y4742500D02*
D03*
X7800000Y4897500D02*
D03*
Y4742500D02*
D03*
X5170000Y5200000D02*
D03*
Y5045000D02*
D03*
Y4910000D02*
D03*
Y4755000D02*
D03*
X5420000Y4970000D02*
D03*
Y4815000D02*
D03*
X8910000Y2720000D02*
D03*
Y2565000D02*
D03*
X8990000Y3200000D02*
D03*
Y3045001D02*
D03*
X8390000Y3115000D02*
D03*
Y2960000D02*
D03*
X6947500Y3082500D02*
D03*
Y2927500D02*
D03*
X7097500Y3212500D02*
D03*
Y3057500D02*
D03*
X5760000Y4360000D02*
D03*
Y4205000D02*
D03*
D18*
X8310000Y4670000D02*
D03*
X8210000D02*
D03*
X4805001Y3660000D02*
D03*
X4705000D02*
D03*
X5740000Y4815000D02*
D03*
X5640000D02*
D03*
X4610000Y4335000D02*
D03*
X4510000D02*
D03*
X4610000Y4465000D02*
D03*
X4510000D02*
D03*
X7477500Y3367500D02*
D03*
X7377500D02*
D03*
X7477500Y2767500D02*
D03*
X7377500Y2767500D02*
D03*
X3317500Y3570000D02*
D03*
X3217500D02*
D03*
X3317500Y3700000D02*
D03*
X3217500D02*
D03*
X1300000Y4610000D02*
D03*
X1400000D02*
D03*
X2383500Y4165000D02*
D03*
X2483500D02*
D03*
X2000000Y4035000D02*
D03*
X2100000D02*
D03*
X1080000Y4100000D02*
D03*
X1180000D02*
D03*
X2680000Y4320000D02*
D03*
X2780000D02*
D03*
X1300000Y3597500D02*
D03*
X1400000D02*
D03*
X3060000Y4450000D02*
D03*
X2960000D02*
D03*
D19*
X6540000Y3880000D02*
D03*
X6695000D02*
D03*
D20*
X5607500Y5095000D02*
D03*
Y5045000D02*
D03*
X5760000Y5095000D02*
D03*
Y5045000D02*
D03*
D21*
X5683750Y4993750D02*
D03*
X5733750D02*
D03*
X5633750D02*
D03*
X5683750Y5146250D02*
D03*
X5733750D02*
D03*
X5633750D02*
D03*
D22*
X8400000Y4415000D02*
D03*
Y4510000D02*
D03*
Y4320000D02*
D03*
X8130000Y4415000D02*
D03*
Y4510000D02*
D03*
Y4320000D02*
D03*
D23*
X6030000Y4180000D02*
D03*
X6201000D02*
D03*
D24*
X6250000Y3590000D02*
D03*
Y3685000D02*
D03*
Y3495000D02*
D03*
X5965000Y3685000D02*
D03*
Y3495000D02*
D03*
D25*
X4668820Y4716180D02*
D03*
X4668820Y4666180D02*
D03*
X4501180Y4716180D02*
D03*
Y4666180D02*
D03*
D26*
X4660000Y4775000D02*
D03*
X4610000Y4775000D02*
D03*
X4610000Y4607361D02*
D03*
X4560000D02*
D03*
X4660000D02*
D03*
X4560000Y4775000D02*
D03*
X4510000Y4775000D02*
D03*
Y4607361D02*
D03*
D27*
X9410000Y2570000D02*
D03*
X9220000D02*
D03*
X9315000Y2330000D02*
D03*
X8710000Y3200000D02*
D03*
X8615000Y2960000D02*
D03*
X8805000D02*
D03*
X9830000Y2570000D02*
D03*
X9640000D02*
D03*
X9735000Y2330000D02*
D03*
X9350000Y3200000D02*
D03*
X9160000D02*
D03*
X9255000Y2960000D02*
D03*
D28*
X9640000Y3050000D02*
D03*
Y2735001D02*
D03*
D29*
X8120000Y3370000D02*
D03*
X7805000D02*
D03*
X8120000Y3130000D02*
D03*
X7805000D02*
D03*
D30*
X7477500Y3212500D02*
D03*
X7287500D02*
D03*
X7477500Y2927500D02*
D03*
X7287500D02*
D03*
X7382500D02*
D03*
D31*
X5270000Y3440000D02*
D03*
Y3210000D02*
D03*
Y2980000D02*
D03*
D32*
X4685000Y3210000D02*
D03*
D33*
X3370000Y4110000D02*
D03*
D34*
X3177500Y3985000D02*
D03*
Y4035000D02*
D03*
Y4085000D02*
D03*
Y4135000D02*
D03*
Y4185000D02*
D03*
Y4235000D02*
D03*
X3562500D02*
D03*
Y4185000D02*
D03*
Y4135000D02*
D03*
Y4085000D02*
D03*
Y4035000D02*
D03*
Y3985000D02*
D03*
D35*
X3245000Y4302500D02*
D03*
X3295000D02*
D03*
X3345000D02*
D03*
X3395000D02*
D03*
X3445000D02*
D03*
X3495000D02*
D03*
Y3917500D02*
D03*
X3445000D02*
D03*
X3395000D02*
D03*
X3345000D02*
D03*
X3295000D02*
D03*
X3245000D02*
D03*
D36*
X242500Y4100000D02*
D03*
D37*
X5377500Y4310000D02*
D03*
Y4460000D02*
D03*
D38*
X2755000Y3937500D02*
D03*
Y4035500D02*
D03*
X2960000Y4300000D02*
D03*
Y4202000D02*
D03*
D39*
X3972500Y4185000D02*
D03*
X3874500D02*
D03*
X1895000Y4035000D02*
D03*
X1797000D02*
D03*
X2482500D02*
D03*
X2384500D02*
D03*
X800000Y4100000D02*
D03*
X702000D02*
D03*
D40*
X1395000Y4737500D02*
D03*
X1300000D02*
D03*
X2985000Y4035000D02*
D03*
X2890000D02*
D03*
X1395000Y3470000D02*
D03*
X1300000D02*
D03*
D41*
X1512500Y4035000D02*
D03*
Y4100000D02*
D03*
Y4165000D02*
D03*
X1302500D02*
D03*
Y4100000D02*
D03*
Y4035000D02*
D03*
D42*
X3947500Y3475000D02*
D03*
Y3245000D02*
D03*
X3567500Y3475000D02*
D03*
X3567500Y3245000D02*
D03*
D43*
X3962500Y3836500D02*
D03*
Y4007500D02*
D03*
D44*
X4455000Y5295000D02*
X4515000Y5355000D01*
X4455000Y5195000D02*
Y5295000D01*
X4515000Y5355000D02*
X5135000D01*
X5170000Y5200000D02*
X5170000Y5200000D01*
X5090000Y5200000D02*
X5170000D01*
X4455000Y5195000D02*
X4455000Y5195000D01*
Y4995000D02*
Y5195000D01*
X5135000Y5355000D02*
X5142500Y5347500D01*
Y5285000D02*
Y5347500D01*
Y5285000D02*
X5170000Y5257500D01*
Y5200001D02*
Y5257500D01*
X5170000Y5200000D02*
X5170000Y5200001D01*
D45*
X5737357Y4649857D02*
X5740000Y4652500D01*
X5727500Y4640000D02*
X5737357Y4649857D01*
X5727500Y4640000D02*
X6132500D01*
X7470000Y4180000D02*
X7590000D01*
X8805000Y2982500D02*
Y3037500D01*
X9160000Y3122500D02*
Y3177501D01*
X7382500Y2950000D02*
Y3005000D01*
X6172500Y3590000D02*
X6227500D01*
X7392500Y4280000D02*
X7447500D01*
X6410000Y4540000D02*
X6540000D01*
X7477500Y2767500D02*
Y2772500D01*
X4610000Y4517500D02*
X4610000Y4517500D01*
Y4465000D02*
Y4517500D01*
X5022500Y4569853D02*
X5027647Y4575000D01*
X4987353Y4605000D02*
X5022500Y4569853D01*
Y4330000D02*
Y4569853D01*
X5322500Y4640000D02*
X5727500D01*
X5257500Y4575000D02*
X5322500Y4640000D01*
X6132500D02*
X6410000D01*
X6087500Y5045000D02*
X6132500Y5000000D01*
X5960000Y5045000D02*
X6087500D01*
X6132500Y4640000D02*
Y5000000D01*
X5740000Y4652500D02*
Y4815000D01*
X5027647Y4575000D02*
X5257500D01*
X4610000Y4335000D02*
Y4465000D01*
X5022500Y4122500D02*
Y4330000D01*
X5017500Y4335000D02*
X5022500Y4330000D01*
X4610000Y4335000D02*
X5017500D01*
X4820000Y4605000D02*
X4987353D01*
X5022500Y4122500D02*
X5242500Y3902500D01*
X5525000D01*
X6200000Y3980000D02*
X6327500D01*
X6030000D02*
Y4180000D01*
X5900000Y3980000D02*
X6030000D01*
X5525000Y3902500D02*
X5602500Y3980000D01*
X5900000D01*
X5525000Y3565000D02*
Y3902500D01*
Y3565000D02*
X5600000Y3490000D01*
X5680000D01*
X5810000D01*
X5877500D01*
X5882500Y3495000D01*
X5965000D01*
X5270000Y3440000D02*
X5459999D01*
X5500000Y3400000D01*
Y3260000D02*
Y3400000D01*
Y3260000D02*
X5630000D01*
X5839999D01*
X6000000Y3100000D01*
X6450000D01*
X6543333Y3193333D02*
Y3350000D01*
X6450000Y3100000D02*
X6543333Y3193333D01*
X6250000Y3265000D02*
X6252389Y3267389D01*
X6342390D01*
X6425000Y3350000D01*
X6400000Y3495000D02*
X6405000Y3490000D01*
X6410000D01*
X6250000Y3495000D02*
X6400000D01*
X7477500Y2767500D02*
X7605000D01*
X7477500Y2772500D02*
Y2927500D01*
X7477500Y2772500D02*
X7477500Y2772500D01*
X9640000Y2570000D02*
Y2682500D01*
X9050000Y2570000D02*
X9220000D01*
X8915000D02*
X9050000D01*
X8910000Y2565000D02*
X8915000Y2570000D01*
X8422500Y4415000D02*
X8477500D01*
X8220000Y4065148D02*
Y4240000D01*
X8255147Y4030000D02*
X8340000D01*
X8220000Y4065148D02*
X8255147Y4030000D01*
X8220000Y4240000D02*
X8270000Y4290000D01*
Y4450148D01*
X8130000Y4415000D02*
X8234853D01*
X8270000Y4450148D02*
Y4550000D01*
X8210000Y4610000D02*
Y4670000D01*
Y4610000D02*
X8270000Y4550000D01*
X8340000Y4030000D02*
X8470000D01*
X8492574D02*
X8492574Y4030000D01*
X8470000Y4030000D02*
X8492574D01*
X8492574Y4030000D02*
X8570000D01*
X6332500Y4180000D02*
X6427500D01*
X6502500Y4255000D02*
X6600000D01*
X6427500Y4180000D02*
X6502500Y4255000D01*
X6600000D02*
X6652500D01*
X6410000Y4640000D02*
X6540000D01*
X6652500D01*
X7357500Y4180000D02*
X7470000D01*
X7477500Y3370000D02*
X7805000D01*
X7477500Y3235000D02*
Y3367500D01*
Y3235000D02*
X7477500Y3235000D01*
Y3212500D02*
Y3235000D01*
X3217500Y3460000D02*
Y3570000D01*
X3717900Y4102900D02*
X3794945D01*
X3933000Y4037000D02*
X3962500Y4007500D01*
X3860845Y4037000D02*
X3933000D01*
X3794945Y4102900D02*
X3860845Y4037000D01*
X3717500Y4102500D02*
X3717900Y4102900D01*
X3757500Y3835000D02*
X3961000D01*
X3962500Y3836500D01*
X3617500Y3857500D02*
X3640000Y3835000D01*
X3757500D01*
X3730000Y4185000D02*
X3872500D01*
X3665000D02*
X3730000D01*
X3060000Y4372500D02*
Y4427500D01*
D46*
X242500Y4100000D02*
X557500D01*
X5733750Y4947500D02*
Y4993750D01*
X5885000Y5045000D02*
X5885000Y5045000D01*
X5760000Y5045000D02*
X5885000D01*
X6540000Y4640000D02*
X6557500Y4657500D01*
X7020000Y4712500D02*
X7050000Y4742500D01*
X6990000Y4682500D02*
X7020000Y4712500D01*
X4430000Y4792500D02*
Y4865000D01*
Y4792500D02*
X4447500Y4775000D01*
X4510000D01*
X4706393Y4871393D02*
X4751393D01*
X4755000Y4875000D01*
X4660000Y4825000D02*
X4706393Y4871393D01*
X4660000Y4775000D02*
Y4825000D01*
X5683750Y5218750D02*
X5780000Y5315000D01*
X5990000D01*
X5842500Y5095000D02*
X5910000Y5162500D01*
X5990000D01*
X5760000Y5095000D02*
X5842500D01*
X5683750Y5146250D02*
Y5218750D01*
X3575000Y4737500D02*
X3620000Y4692500D01*
X3606078Y4235499D02*
X3620000Y4249421D01*
Y4692500D01*
X2472500Y2525000D02*
X6755000D01*
X6815000Y2585000D01*
X1527500Y3470000D02*
X2472500Y2525000D01*
X1395000Y3470000D02*
X1527500D01*
X6695000Y3880000D02*
Y3972500D01*
X6812500Y4012500D02*
X6840000Y4040000D01*
Y4120000D01*
X6850000Y3837500D02*
Y3925000D01*
X6940000Y4015000D01*
Y4120000D01*
X6965000Y3837500D02*
Y3942500D01*
X6990000Y3967500D01*
Y4120000D01*
X7082500Y3837500D02*
Y3932500D01*
X7040000Y3975000D02*
Y4120000D01*
Y3975000D02*
X7082500Y3932500D01*
X7202500Y3837500D02*
Y3915000D01*
X7090000Y4027500D02*
X7202500Y3915000D01*
X7090000Y4027500D02*
Y4120000D01*
X7292500Y4842500D02*
Y4992500D01*
X7477500Y3370000D02*
Y3622500D01*
X7437500Y3662500D02*
X7477500Y3622500D01*
Y3367500D02*
Y3370000D01*
X3177500Y4235000D02*
Y4382500D01*
X3135000Y4425000D02*
X3177500Y4382500D01*
X3135000Y4425000D02*
Y4615000D01*
X2960000Y4300000D02*
X3017500D01*
X3100000Y4217500D01*
Y4155000D02*
Y4217500D01*
X3395000Y4421500D02*
X3442500Y4469000D01*
Y4470000D01*
X3395000Y4302500D02*
Y4421500D01*
X3530000Y4440000D02*
Y4615000D01*
X3445000Y4355000D02*
X3530000Y4440000D01*
X3562500Y4235000D02*
X3562999Y4235499D01*
X3606078D01*
X1395000Y4737500D02*
X3575000D01*
X3345000Y4302500D02*
Y4505000D01*
X3390000Y4550000D01*
X3445000Y4302500D02*
Y4355000D01*
X3245000Y4302500D02*
Y4425000D01*
X3217500Y4452500D02*
X3245000Y4425000D01*
X3217500Y4452500D02*
Y4537500D01*
X3295000Y4302500D02*
Y4615000D01*
X3052500Y4110000D02*
X3077500Y4085000D01*
X3177500D01*
X3052500Y4110000D02*
Y4182500D01*
X3032500Y4202500D02*
X3052500Y4182500D01*
X2960500Y4202500D02*
X3032500D01*
X2960000Y4300000D02*
Y4450000D01*
X3100000Y4155000D02*
X3120000Y4135000D01*
X3177500D01*
X2960000Y4202000D02*
X2960500Y4202500D01*
X2793117Y4202000D02*
X2960000D01*
X2780000Y4215117D02*
Y4320000D01*
Y4215117D02*
X2793117Y4202000D01*
X2520000Y4320000D02*
X2680000D01*
X1557500D02*
X2520000D01*
X1512500Y4275000D02*
X1557500Y4320000D01*
X1512500Y4165000D02*
Y4275000D01*
X3045000Y3955000D02*
X3075000Y3985000D01*
X3177500D01*
X3045000Y3890000D02*
Y3955000D01*
X2915000Y3890000D02*
X3045000D01*
X2859529Y3890471D02*
X2914529D01*
X2915000Y3890000D01*
X2812500Y3937500D02*
X2859529Y3890471D01*
X2755000Y3937500D02*
X2812500D01*
X1302500Y3470000D02*
Y4035000D01*
Y4165000D02*
Y4735000D01*
X1300000Y4737500D02*
X1302500Y4735000D01*
X3177500Y4035000D02*
X3177500Y4035000D01*
X2985000Y4035000D02*
X3177500D01*
X2625000D02*
X2890000D01*
X2482500D02*
X2625000D01*
X2483500Y4036000D02*
Y4165000D01*
X2482500Y4035000D02*
X2483500Y4036000D01*
X2383500Y4165000D02*
X2384500Y4164000D01*
Y4035000D02*
Y4164000D01*
X2242500Y4035000D02*
X2384500D01*
X2100000D02*
X2242500D01*
X1895000D02*
X2000000D01*
X1652500D02*
X1797000D01*
X1512500D02*
X1652500D01*
X1180000Y4100000D02*
X1302500D01*
X1302500Y4100000D01*
X940000Y4100000D02*
X1080000D01*
X800000D02*
X940000D01*
X557500Y4100000D02*
X702000D01*
X702000Y4100000D01*
X4610000Y5195000D02*
X4755000D01*
X4610000Y5125000D02*
Y5195000D01*
X4610000Y5195000D02*
X4610000Y5195000D01*
X4590000Y5105000D02*
X4610000Y5125000D01*
X4532500Y5080000D02*
X4557500Y5105000D01*
X4590000D01*
X4532500Y4900000D02*
Y5080000D01*
Y4900000D02*
X4560000Y4872500D01*
Y4775000D02*
Y4872500D01*
X4610000Y4995000D02*
X4755000D01*
X4610000Y4995000D02*
X4610000Y4995000D01*
X4610000Y4775000D02*
Y4995000D01*
X5425000Y5262500D02*
X5462500Y5225000D01*
X5425000Y5262500D02*
Y5355000D01*
X5462500Y5225000D02*
X5615000D01*
X5633750Y5206250D01*
Y5146250D02*
Y5206250D01*
X5290000Y5355000D02*
X5425000D01*
X5422500Y4972500D02*
Y5030000D01*
X5420000Y4970000D02*
X5422500Y4972500D01*
Y5030000D02*
X5437500Y5045000D01*
X5607500D01*
X5305000D02*
X5355000Y5095000D01*
X5170000Y5045000D02*
X5305000D01*
X5355000Y5095000D02*
X5607500D01*
X5170000Y4910000D02*
Y5045000D01*
X7097500Y3212500D02*
X7287500D01*
X6947500Y2927500D02*
X7287500D01*
X6947500Y3661500D02*
X6948500Y3662500D01*
X6947500Y3082500D02*
Y3661500D01*
X7202500Y3662500D02*
X7437500D01*
X7805000Y3370000D02*
X7927500D01*
X7962500Y3335000D01*
Y2867500D02*
Y3335000D01*
Y2867500D02*
X8040000Y2790000D01*
X8235000D01*
X8390000Y2960000D02*
X8615000D01*
X8615000Y2960000D01*
X8390000Y2960000D02*
X8390000Y2960000D01*
X8390000Y2790000D02*
Y2960000D01*
X9427500Y2467500D02*
X9812500D01*
X9829529Y2484529D02*
Y2569530D01*
X9812500Y2467500D02*
X9829529Y2484529D01*
Y2569530D02*
X9830000Y2570000D01*
X9410000Y2485000D02*
X9427500Y2467500D01*
X9410000Y2485000D02*
Y2570000D01*
Y2780000D01*
X8943804Y2686197D02*
Y2688697D01*
Y2686197D02*
X8960000Y2670001D01*
X9050000D01*
X8910000Y2720000D02*
X8912500D01*
X8943804Y2688697D01*
X9050000Y2670001D02*
Y2740000D01*
X9090000Y2780000D01*
X9255000D01*
Y2960000D01*
X8990000Y3200000D02*
Y3310000D01*
X9017500Y3337500D02*
X9322500D01*
X8990000Y3310000D02*
X9017500Y3337500D01*
X9350000Y3200000D02*
Y3310000D01*
X9322500Y3337500D02*
X9350000Y3310000D01*
X8710000Y3200000D02*
X8710001Y3200000D01*
X8990000D01*
X8710000Y3200000D02*
Y3370000D01*
X7050000Y4742500D02*
X7115000D01*
X6990000Y4590000D02*
Y4682500D01*
X7140000Y4590000D02*
Y4637500D01*
X7154016Y4651516D01*
X7424016D01*
X7140000Y4590000D02*
X7143484Y4593484D01*
X7424016Y4651516D02*
X7520000Y4747500D01*
X7145000Y4712500D02*
X7350000D01*
X7400000Y4762500D01*
X7190000Y4590000D02*
X7510000D01*
X7577500Y4657500D01*
X7090000Y4590000D02*
Y4657500D01*
X7145000Y4712500D01*
X7115000Y4742500D02*
X7137500Y4765000D01*
Y4842500D01*
X6375000Y4322500D02*
X6407500Y4355000D01*
X6677500D01*
X6702500Y4380000D02*
X6780000D01*
X6677500Y4355000D02*
X6702500Y4380000D01*
X6627500Y4460000D02*
X6647500Y4480000D01*
X6245000Y4530000D02*
X6315000Y4460000D01*
X6627500D01*
X6252500Y4407500D02*
X6645000D01*
X6215000Y4445000D02*
X6252500Y4407500D01*
X6645000D02*
X6667500Y4430000D01*
X6780000D01*
X5587500Y4530000D02*
X6245000D01*
X5382500Y4465000D02*
Y4517500D01*
X5377500Y4460000D02*
X5382500Y4465000D01*
X5395000Y4530000D02*
X5587500D01*
X5382500Y4517500D02*
X5395000Y4530000D01*
X5377500Y4232500D02*
X5405000Y4205000D01*
X5377500Y4232500D02*
Y4310000D01*
X5405000Y4205000D02*
X5587499D01*
X5760000D01*
X5760471Y4360471D02*
X5765000Y4365000D01*
X5760471Y4360471D02*
Y4422971D01*
X5760000Y4360000D02*
X5760471Y4360471D01*
X5782500Y4445000D02*
X6215000D01*
X5760471Y4422971D02*
X5782500Y4445000D01*
X6647500Y4480000D02*
X6780000D01*
X6890000Y4890000D02*
X6895000Y4895000D01*
X6890000D02*
Y5045000D01*
Y4590000D02*
Y4890000D01*
X7067500Y4992500D02*
X7137500D01*
X7027500Y4952500D02*
X7067500Y4992500D01*
X7027500Y4840000D02*
Y4952500D01*
X6940000Y4752500D02*
X7027500Y4840000D01*
X6940000Y4590000D02*
Y4752500D01*
X7800000Y4662500D02*
Y4742500D01*
X7250000Y4530000D02*
X7667500D01*
X7800000Y4662500D01*
X7250000Y4480000D02*
X7812500D01*
X8000000Y4667500D01*
Y4742500D01*
Y5022500D02*
Y5295000D01*
Y4897500D02*
Y5022500D01*
X8000000Y5295000D02*
X8000000Y5295000D01*
X7800000Y4897500D02*
Y5295000D01*
Y4897500D02*
X7800000Y4897500D01*
D47*
X6540000Y3902500D02*
Y3957500D01*
X6200000Y3990000D02*
Y4179000D01*
X3217500Y3400378D02*
Y3460000D01*
X4196495Y2962500D02*
X4237500Y3003505D01*
Y3055000D01*
X4097500Y2962500D02*
X4196495D01*
X5587500Y4325000D02*
Y4365000D01*
X5587500Y4395400D02*
Y4407500D01*
Y4395400D02*
X5587500Y4395400D01*
Y4365000D02*
Y4395400D01*
X7120000Y3057500D02*
X7175000D01*
X8390000Y3137500D02*
Y3192500D01*
X8990000Y2967501D02*
Y3022501D01*
X6657500Y4895000D02*
X6712500D01*
X6920000Y5302500D02*
X6975000D01*
X8332500Y4670000D02*
X8387500D01*
X8340000Y4152500D02*
Y4207500D01*
X8470000Y4152500D02*
Y4207500D01*
X7300000Y3367500D02*
X7355000D01*
X7300000Y2767500D02*
X7355000D01*
X4432500Y3032500D02*
Y3087500D01*
X4827500Y3660000D02*
X4882501D01*
X5630000Y3082500D02*
Y3137500D01*
X5500000Y3082500D02*
Y3137500D01*
X6540000Y3612500D02*
Y3667500D01*
X6410000Y3612500D02*
Y3667500D01*
X5810000Y3612500D02*
Y3667500D01*
X5680000Y3612500D02*
Y3667500D01*
X5900000Y3802500D02*
Y3857500D01*
X6030000Y3802500D02*
Y3857500D01*
X6200000Y3802500D02*
Y3857500D01*
X6330000Y3802500D02*
Y3857500D01*
X6600000Y4077500D02*
Y4132500D01*
X5562500Y4815000D02*
X5617500D01*
X5960000Y4867500D02*
Y4922500D01*
X5602500Y5355000D02*
X5657500D01*
X5420000Y4737500D02*
Y4792500D01*
X5170000Y4677500D02*
Y4732501D01*
X4932500Y5195000D02*
X4987500D01*
X4932500Y4995000D02*
X4987500D01*
X4820000Y4727500D02*
Y4782500D01*
X4432500Y4335000D02*
X4487500D01*
X4432500Y4465000D02*
X4487500D01*
X3340000Y3570000D02*
X3395000D01*
X3340000Y3700000D02*
X3395000D01*
X557500Y3922500D02*
Y3977500D01*
X940000Y3922500D02*
Y3977500D01*
X1422500Y3597500D02*
X1477500D01*
X1422500Y4610000D02*
X1477500D01*
X1652500Y3857500D02*
Y3912500D01*
X3045000Y3712500D02*
Y3767500D01*
X2915000Y3712500D02*
Y3767500D01*
X2242500Y3857500D02*
Y3912500D01*
X2625000Y3857500D02*
Y3912500D01*
X2520000Y4442500D02*
Y4497500D01*
X3757500Y3957500D02*
Y4012500D01*
X3730000Y4292500D02*
Y4370000D01*
D48*
X8225000Y2565000D02*
X8342158D01*
X7975000D02*
X8225000D01*
X8342158D02*
X8495000D01*
X8225000Y2447842D02*
Y2475000D01*
D49*
X7800000Y2622500D02*
Y2767500D01*
X7857500Y2565000D02*
X7975000D01*
X7800000Y2622500D02*
X7857500Y2565000D01*
X8307158Y2600000D02*
X8342158Y2565000D01*
X7805000Y2772500D02*
Y3130000D01*
X9640000Y2735001D02*
X9640000D01*
Y2682500D02*
Y2735001D01*
X8570000Y4030000D02*
X8640000D01*
X8680000Y4070000D01*
X8810000D01*
X8810000Y4070000D01*
X9330000Y2330000D02*
X9717500D01*
X9432500Y4070000D02*
X9640000Y3862500D01*
X8810000Y4070000D02*
X9432500D01*
X9640000Y3050000D02*
Y3862500D01*
X8120000Y3130000D02*
Y3370000D01*
X8530000D01*
D50*
X8225000Y2100000D02*
Y2447842D01*
D51*
Y1262500D02*
X8240000Y1247500D01*
X8225000Y1262500D02*
Y2100000D01*
D52*
X4817639Y4607361D02*
X4820000Y4605000D01*
X4749861Y4607361D02*
X4817639D01*
X5737500Y4817500D02*
Y4895000D01*
Y4817500D02*
X5740000Y4815000D01*
X5905000Y5045000D02*
X5960000D01*
X5960000Y5045000D01*
X4237500Y3055000D02*
Y3172500D01*
X4275000Y3210000D01*
X4432500D01*
X4685000D01*
X4685000Y3210000D01*
X3217500Y3570000D02*
Y3700000D01*
X3220000Y3702500D02*
Y3777500D01*
X3217500Y3700000D02*
X3220000Y3702500D01*
Y3777500D02*
X3245000Y3802500D01*
Y3830000D01*
X3650000Y4185000D02*
X3665000D01*
D53*
X4660000Y4607361D02*
X4699861D01*
X4610000Y4567500D02*
Y4607361D01*
X6672500Y4255000D02*
X6687500D01*
X6707500Y4275000D01*
Y4312500D01*
X6725000Y4330000D02*
X6780000D01*
X6707500Y4312500D02*
X6725000Y4330000D01*
X6752500Y4640000D02*
X6780000Y4612500D01*
X6687500Y4640000D02*
X6752500D01*
X6780000Y4530000D02*
Y4612500D01*
X7250000Y4180000D02*
X7322500D01*
X3562500Y4085000D02*
X3650000D01*
X3667500Y4102500D01*
X3717500D01*
X3575000Y3900000D02*
Y3985000D01*
X3615000D01*
X3562500D02*
X3575000D01*
Y3900000D02*
X3590000Y3885000D01*
X3177500Y4185000D02*
X3295000D01*
X3315000Y4165000D01*
X3445000Y4035000D02*
X3445000Y4035000D01*
X3425000Y4055000D02*
X3445000Y4035000D01*
X3562500D01*
X3445000Y3917500D02*
Y4035000D01*
X3295000Y3917500D02*
Y4035000D01*
X3315000Y4055000D01*
X3245000Y3830000D02*
Y3917500D01*
X3562500Y4185000D02*
X3650000D01*
X3562500Y4135000D02*
Y4185000D01*
D54*
X4699861Y4607361D02*
X4749861D01*
X4610000Y4517500D02*
Y4567500D01*
X4610000Y4567500D02*
X4610000Y4567500D01*
X5733750Y4898750D02*
X5737500Y4895000D01*
X5733750Y4898750D02*
Y4947500D01*
X5885000Y5045000D02*
X5905000D01*
X6362500Y5302500D02*
X6742500D01*
X6652500Y4255000D02*
X6672500D01*
X6652500Y4640000D02*
X6687500D01*
X7322500Y4180000D02*
X7357500D01*
X3590000Y3885000D02*
X3617500Y3857500D01*
D55*
X6557500Y4657500D02*
Y5002500D01*
X6600000Y5045000D02*
X6735000D01*
X6557500Y5002500D02*
X6600000Y5045000D01*
X6772500Y5187500D02*
X7292500D01*
X6735000Y5150000D02*
X6772500Y5187500D01*
X6735000Y5045000D02*
Y5150000D01*
X7292500Y5187500D02*
X7400000Y5295000D01*
X7292500Y4992500D02*
Y5187500D01*
X7400000Y5175000D02*
Y5295000D01*
Y5175000D02*
X7447500Y5127500D01*
Y5030000D02*
Y5127500D01*
D56*
X7605000Y2767500D02*
X7800000D01*
X7805000Y2772500D01*
X8910000Y2565000D02*
X8910000Y2565000D01*
X8775000Y2565000D02*
X8910000D01*
X7802500Y3372500D02*
Y3480000D01*
Y3372500D02*
X7805000Y3370000D01*
D57*
X8495000Y2565000D02*
X8775000D01*
X6201000Y4180000D02*
X6201000Y4180000D01*
X6332500D01*
X7802500Y3480000D02*
X7805000Y3482500D01*
Y3520000D01*
X4685000Y3210000D02*
Y3755000D01*
Y3210000D02*
X5270000D01*
X3217500Y3067500D02*
X3322500Y2962500D01*
X3217500Y3067500D02*
Y3400378D01*
X3322500Y2962500D02*
X4097500D01*
X4255000Y4185000D02*
X4685000Y3755000D01*
X4111785Y4185000D02*
X4255000D01*
D58*
X7830405Y4425191D02*
X7830405Y4425191D01*
X7300142Y4384809D02*
X7847131D01*
X8011797Y4384810D02*
X8011797Y4384809D01*
X7999858Y4425191D02*
X8064858Y4490191D01*
X7300142Y4425191D02*
X7830405D01*
X8019858Y4384809D02*
X8064858Y4339809D01*
X7847131Y4384809D02*
X7847132Y4384810D01*
X8011797D01*
X8011797Y4384809D02*
X8019858D01*
X7830405Y4425191D02*
X7999858D01*
X8490572Y4328242D02*
X8562140Y4399810D01*
X8730191D01*
X8552140Y4440191D02*
X8730191D01*
X8490572Y4501759D02*
X8552140Y4440191D01*
X8730191Y4399810D02*
X8810000Y4320000D01*
X8408242Y4501759D02*
X8490572D01*
X8408242Y4328242D02*
X8490572D01*
X8400000Y4510000D02*
X8408242Y4501759D01*
X8730191Y4440191D02*
X8810000Y4520001D01*
X8400000Y4320000D02*
X8408242Y4328242D01*
X8110191Y4339809D02*
X8130000Y4320000D01*
X8064858Y4339809D02*
X8110191D01*
X7294742Y4379409D02*
X7300142Y4384809D01*
X8110191Y4490191D02*
X8130000Y4510000D01*
X8064858Y4490191D02*
X8110191D01*
X7295333Y4430000D02*
X7295333D01*
X7300142Y4425191D01*
X7250000Y4430000D02*
X7250591Y4430590D01*
X7294742D02*
X7295333Y4430000D01*
X7250000Y4380000D02*
X7250591Y4379409D01*
X7250591Y4430590D02*
X7294742D01*
X7250591Y4379409D02*
X7294742D01*
D59*
X6095000Y3265000D02*
Y3645000D01*
X6135000Y3685000D01*
X6250000D01*
X3695000Y3700000D02*
X3795000Y3600000D01*
X3395000Y3865171D02*
X3560171Y3700000D01*
X3695000D01*
X3795000Y3490000D02*
Y3600000D01*
X3345000Y3857500D02*
Y3917500D01*
X3395000Y3865171D02*
Y3917500D01*
X3345000Y3857500D02*
X3547500Y3655000D01*
X3810000Y3475000D02*
X3947500D01*
X3795000Y3490000D02*
X3810000Y3475000D01*
X3567500Y3245000D02*
X3568527Y3246027D01*
X3668527D01*
X3710000Y3287500D01*
X3667500Y3655000D02*
X3710000Y3612500D01*
Y3287500D02*
Y3612500D01*
X3547500Y3655000D02*
X3667500D01*
D60*
X7805000Y3520000D02*
Y3565000D01*
X7895000Y3655000D01*
X8580000D02*
X8810000Y3885000D01*
X7895000Y3655000D02*
X8580000D01*
X8810000Y3885000D02*
Y4070000D01*
D61*
X3995000Y4185000D02*
X4111785D01*
D62*
X6362500Y5302500D02*
D03*
Y5048500D02*
D03*
X7202500Y3662500D02*
D03*
X6948500D02*
D03*
D63*
X9081000Y5077000D02*
D03*
Y3763000D02*
D03*
D64*
X8810000Y4520001D02*
D03*
Y4320000D02*
D03*
Y4770000D02*
D03*
D65*
Y4070000D02*
D03*
D66*
X7800000Y5295000D02*
D03*
X7400000D02*
D03*
X7600000D02*
D03*
D67*
X8000000D02*
D03*
D68*
X242500Y3662000D02*
D03*
Y4538000D02*
D03*
D69*
X950000Y3700000D02*
D03*
Y3500000D02*
D03*
X2350000Y3050000D02*
D03*
X2150000D02*
D03*
X2550000D02*
D03*
X2850000D02*
D03*
X3050000D02*
D03*
X4250000Y3500000D02*
D03*
Y3650000D02*
D03*
Y4900000D02*
D03*
Y5100000D02*
D03*
X4050000D02*
D03*
X3850000D02*
D03*
X3700000D02*
D03*
X3400000D02*
D03*
X3200000D02*
D03*
X2950000D02*
D03*
X2750000D02*
D03*
X2450000D02*
D03*
X2300000D02*
D03*
X2000000D02*
D03*
X1800000D02*
D03*
X1500000D02*
D03*
X1350000D02*
D03*
X1150000D02*
D03*
X950000D02*
D03*
Y4900000D02*
D03*
Y4450000D02*
D03*
Y4650000D02*
D03*
X5630000Y2850000D02*
D03*
X5500000D02*
D03*
X5380000D02*
D03*
X5125000Y2845000D02*
D03*
X5000000Y2920000D02*
D03*
Y3050000D02*
D03*
X5495000Y2950000D02*
D03*
X5625000D02*
D03*
X4350000Y3450000D02*
D03*
Y3600000D02*
D03*
X4525000Y3450000D02*
D03*
Y3600000D02*
D03*
X3975000Y3675000D02*
D03*
X4150000Y3600000D02*
D03*
Y3450000D02*
D03*
Y3300000D02*
D03*
X3400000Y3250000D02*
D03*
Y3425000D02*
D03*
X2500000Y3700000D02*
D03*
X2600000D02*
D03*
X2150000Y3850000D02*
D03*
X1500000Y3775000D02*
D03*
Y3675000D02*
D03*
X2375000Y3750000D02*
D03*
Y3650000D02*
D03*
X2250000D02*
D03*
X2150000D02*
D03*
X2050000D02*
D03*
X1950000D02*
D03*
X1850000D02*
D03*
X1750000D02*
D03*
X1650000D02*
D03*
X3050000Y3625000D02*
D03*
X2950000D02*
D03*
X2850000D02*
D03*
X2750000D02*
D03*
X2650000D02*
D03*
X2550000D02*
D03*
X2450000D02*
D03*
X2250000Y3750000D02*
D03*
X2150000D02*
D03*
X2050000D02*
D03*
X1950000D02*
D03*
X1850000D02*
D03*
X1750000D02*
D03*
X1650000D02*
D03*
X2500000Y3775000D02*
D03*
X2600000D02*
D03*
X2700000Y3700000D02*
D03*
X2800000D02*
D03*
X2700000Y3775000D02*
D03*
X2800000D02*
D03*
X2375000Y3850000D02*
D03*
X2475000D02*
D03*
X1950000D02*
D03*
X2050000D02*
D03*
X1750000D02*
D03*
X1850000D02*
D03*
X2375000Y3925000D02*
D03*
X2475000D02*
D03*
X1400000Y3775000D02*
D03*
Y3675000D02*
D03*
X1150000Y3550000D02*
D03*
Y3450000D02*
D03*
Y3750000D02*
D03*
Y3650000D02*
D03*
Y4700000D02*
D03*
Y4600000D02*
D03*
Y4525000D02*
D03*
Y4425000D02*
D03*
X1400000Y4325000D02*
D03*
Y4225000D02*
D03*
X1500000Y3850000D02*
D03*
X1400000D02*
D03*
X1500000Y3925000D02*
D03*
X1400000D02*
D03*
X2700000Y4175000D02*
D03*
X2600000D02*
D03*
X2775000Y4425000D02*
D03*
Y4525000D02*
D03*
X2675000Y4425000D02*
D03*
Y4525000D02*
D03*
X2400000Y4400000D02*
D03*
Y4500000D02*
D03*
X2100000D02*
D03*
X2200000D02*
D03*
X2300000D02*
D03*
X2100000Y4400000D02*
D03*
X2200000D02*
D03*
X2300000D02*
D03*
X3275000Y4850000D02*
D03*
X3175000D02*
D03*
X3075000D02*
D03*
X2975000D02*
D03*
X2875000D02*
D03*
X2775000D02*
D03*
X2675000D02*
D03*
X2575000D02*
D03*
X2475000D02*
D03*
X2375000D02*
D03*
X2275000D02*
D03*
X2175000D02*
D03*
X2075000D02*
D03*
X1975000D02*
D03*
X1875000D02*
D03*
X1775000D02*
D03*
X1675000D02*
D03*
X1575000D02*
D03*
X1475000D02*
D03*
X1375000D02*
D03*
X1275000D02*
D03*
X2875000Y4600000D02*
D03*
X2775000D02*
D03*
X2675000D02*
D03*
X2575000D02*
D03*
X2475000D02*
D03*
X2375000D02*
D03*
X2275000D02*
D03*
X2000000Y4400000D02*
D03*
X1900000D02*
D03*
X1800000D02*
D03*
X1700000D02*
D03*
X1600000D02*
D03*
X1500000D02*
D03*
X1400000D02*
D03*
X2000000Y4500000D02*
D03*
X1900000D02*
D03*
X1800000D02*
D03*
X1700000D02*
D03*
X1600000D02*
D03*
X1500000D02*
D03*
X1400000D02*
D03*
X2175000Y4600000D02*
D03*
X2075000D02*
D03*
X1975000D02*
D03*
X1875000D02*
D03*
X1775000D02*
D03*
X1675000D02*
D03*
X1575000D02*
D03*
X1150000Y3900000D02*
D03*
X1050000D02*
D03*
X850000D02*
D03*
X750000D02*
D03*
X650000D02*
D03*
X550000Y3825000D02*
D03*
X650000D02*
D03*
X750000D02*
D03*
X850000D02*
D03*
X950000D02*
D03*
X1050000D02*
D03*
X1150000D02*
D03*
X550000Y4350000D02*
D03*
X650000D02*
D03*
X750000D02*
D03*
X850000D02*
D03*
X950000D02*
D03*
X1050000D02*
D03*
X1150000D02*
D03*
X550000Y4275000D02*
D03*
X650000D02*
D03*
X750000D02*
D03*
X850000D02*
D03*
X950000D02*
D03*
X1050000D02*
D03*
X1150000D02*
D03*
X657500Y3977500D02*
D03*
X757500D02*
D03*
X857500D02*
D03*
X1057500D02*
D03*
X1157500D02*
D03*
X1652500Y3935000D02*
D03*
X1752500D02*
D03*
X1852500D02*
D03*
X1952500D02*
D03*
X2052500D02*
D03*
X2152500D02*
D03*
X1650000Y4225000D02*
D03*
X1750000D02*
D03*
X1850000D02*
D03*
X1950000D02*
D03*
X2050000D02*
D03*
X2150000D02*
D03*
X2250000D02*
D03*
X1650000Y4150000D02*
D03*
X1750000D02*
D03*
X1850000D02*
D03*
X1950000D02*
D03*
X2050000D02*
D03*
X2150000D02*
D03*
X2250000D02*
D03*
X1150000Y4200000D02*
D03*
X1050000D02*
D03*
X950000D02*
D03*
X850000D02*
D03*
X750000D02*
D03*
X650000D02*
D03*
X550000D02*
D03*
X7000000Y2750000D02*
D03*
X6500000D02*
D03*
X6250000D02*
D03*
X6000000D02*
D03*
X5500000D02*
D03*
X5750000D02*
D03*
X5250000D02*
D03*
X5000000D02*
D03*
X4750000D02*
D03*
X4500000D02*
D03*
X4250000D02*
D03*
X4000000D02*
D03*
X3750000D02*
D03*
X3500000D02*
D03*
X3250000D02*
D03*
X3000000D02*
D03*
X2750000D02*
D03*
X2500000D02*
D03*
X7500000Y2500000D02*
D03*
X7250000D02*
D03*
X7000000D02*
D03*
X6500000Y2250000D02*
D03*
X6000000D02*
D03*
X6250000D02*
D03*
X5750000D02*
D03*
X5500000D02*
D03*
X5250000D02*
D03*
X5000000D02*
D03*
X4750000D02*
D03*
X4500000D02*
D03*
X4250000D02*
D03*
X4000000D02*
D03*
X3750000D02*
D03*
X3500000D02*
D03*
X3250000D02*
D03*
X2750000D02*
D03*
X3000000D02*
D03*
X2250000Y2500000D02*
D03*
X2500000Y2250000D02*
D03*
X2250000D02*
D03*
X2500000Y2000000D02*
D03*
X2250000D02*
D03*
X750000Y3250000D02*
D03*
X1000000D02*
D03*
X1250000D02*
D03*
X1500000D02*
D03*
X2000000D02*
D03*
X750000Y3000000D02*
D03*
X1000000D02*
D03*
X1250000D02*
D03*
X1500000D02*
D03*
X1750000D02*
D03*
X750000Y2750000D02*
D03*
X1000000D02*
D03*
X1250000D02*
D03*
X1500000D02*
D03*
X1750000D02*
D03*
X2000000D02*
D03*
X750000Y2500000D02*
D03*
X1000000D02*
D03*
X1250000D02*
D03*
X1500000D02*
D03*
X1750000D02*
D03*
X2000000D02*
D03*
X750000Y2250000D02*
D03*
X1000000D02*
D03*
X1250000D02*
D03*
X1500000D02*
D03*
X1750000D02*
D03*
X2000000D02*
D03*
Y2000000D02*
D03*
X1750000D02*
D03*
X1500000D02*
D03*
X1250000D02*
D03*
X1000000D02*
D03*
X750000D02*
D03*
X2750000Y1750000D02*
D03*
X3000000D02*
D03*
X3250000D02*
D03*
X3500000D02*
D03*
X3750000D02*
D03*
X4000000D02*
D03*
X4250000D02*
D03*
X4500000D02*
D03*
X4750000D02*
D03*
X5000000D02*
D03*
X5250000D02*
D03*
X5500000D02*
D03*
X5750000D02*
D03*
X6000000D02*
D03*
X6250000D02*
D03*
X6500000D02*
D03*
X6750000D02*
D03*
X7250000D02*
D03*
X7000000D02*
D03*
X2750000Y2000000D02*
D03*
X3000000D02*
D03*
X3250000D02*
D03*
X3500000D02*
D03*
X3750000D02*
D03*
X4000000D02*
D03*
X4250000D02*
D03*
X4500000D02*
D03*
X4750000D02*
D03*
X5000000D02*
D03*
X5250000D02*
D03*
X5750000D02*
D03*
X5500000D02*
D03*
X6000000D02*
D03*
X6250000D02*
D03*
X6500000D02*
D03*
X6750000D02*
D03*
X7000000D02*
D03*
X7250000D02*
D03*
X2750000Y1250000D02*
D03*
X3000000D02*
D03*
X3250000D02*
D03*
X3500000D02*
D03*
X3750000D02*
D03*
X4000000D02*
D03*
X4250000D02*
D03*
X4500000D02*
D03*
X4750000D02*
D03*
X5000000D02*
D03*
X5250000D02*
D03*
X5500000D02*
D03*
X5750000D02*
D03*
X6000000D02*
D03*
X6250000D02*
D03*
X6500000D02*
D03*
X6750000D02*
D03*
X7250000D02*
D03*
X7000000D02*
D03*
X2750000Y1500000D02*
D03*
X3000000D02*
D03*
X3250000D02*
D03*
X3500000D02*
D03*
X3750000D02*
D03*
X4000000D02*
D03*
X4250000D02*
D03*
X4500000D02*
D03*
X4750000D02*
D03*
X5000000D02*
D03*
X5250000D02*
D03*
X5750000D02*
D03*
X5500000D02*
D03*
X6000000D02*
D03*
X6250000D02*
D03*
X6500000D02*
D03*
X6750000D02*
D03*
X7000000D02*
D03*
X7250000D02*
D03*
X2750000Y750000D02*
D03*
X3000000D02*
D03*
X3250000D02*
D03*
X3500000D02*
D03*
X3750000D02*
D03*
X4000000D02*
D03*
X4250000D02*
D03*
X4500000D02*
D03*
X4750000D02*
D03*
X5000000D02*
D03*
X5250000D02*
D03*
X5500000D02*
D03*
X5750000D02*
D03*
X6000000D02*
D03*
X6250000D02*
D03*
X6500000D02*
D03*
X6750000D02*
D03*
X7250000D02*
D03*
X7000000D02*
D03*
X2750000Y1000000D02*
D03*
X3000000D02*
D03*
X3250000D02*
D03*
X3500000D02*
D03*
X3750000D02*
D03*
X4000000D02*
D03*
X4250000D02*
D03*
X4500000D02*
D03*
X4750000D02*
D03*
X5000000D02*
D03*
X5250000D02*
D03*
X5750000D02*
D03*
X5500000D02*
D03*
X6000000D02*
D03*
X6250000D02*
D03*
X6500000D02*
D03*
X6750000D02*
D03*
X7000000D02*
D03*
X7250000D02*
D03*
X8250000Y5000000D02*
D03*
X8500000D02*
D03*
X8750000D02*
D03*
X9500000D02*
D03*
Y4750000D02*
D03*
Y4500000D02*
D03*
Y4250000D02*
D03*
Y2000000D02*
D03*
Y1750000D02*
D03*
Y1500000D02*
D03*
Y1250000D02*
D03*
Y1000000D02*
D03*
Y750000D02*
D03*
Y500000D02*
D03*
X9250000D02*
D03*
X9000000D02*
D03*
X8750000D02*
D03*
X8500000D02*
D03*
X8250000D02*
D03*
X8000000D02*
D03*
X7500000D02*
D03*
X7750000D02*
D03*
X7250000D02*
D03*
X7000000D02*
D03*
X6750000D02*
D03*
X6500000D02*
D03*
X6250000D02*
D03*
X6000000D02*
D03*
X5500000D02*
D03*
X5750000D02*
D03*
X5250000D02*
D03*
X5000000D02*
D03*
X4750000D02*
D03*
X4500000D02*
D03*
X4250000D02*
D03*
X4000000D02*
D03*
X3750000D02*
D03*
X3500000D02*
D03*
X3250000D02*
D03*
X3000000D02*
D03*
X2750000D02*
D03*
X2500000D02*
D03*
X2250000D02*
D03*
X2000000D02*
D03*
X1750000D02*
D03*
X1500000D02*
D03*
X1250000D02*
D03*
X1000000D02*
D03*
X750000D02*
D03*
X500000D02*
D03*
Y750000D02*
D03*
Y1000000D02*
D03*
Y1250000D02*
D03*
Y1500000D02*
D03*
Y1750000D02*
D03*
Y2000000D02*
D03*
Y2250000D02*
D03*
Y2500000D02*
D03*
Y2750000D02*
D03*
Y3000000D02*
D03*
Y3250000D02*
D03*
X1000000Y4750000D02*
D03*
X4250000Y5000000D02*
D03*
X4000000D02*
D03*
X3750000D02*
D03*
X3500000D02*
D03*
X3250000D02*
D03*
X3000000D02*
D03*
X2750000D02*
D03*
X2500000D02*
D03*
X2250000D02*
D03*
X2000000D02*
D03*
X1750000D02*
D03*
X1500000D02*
D03*
X1250000D02*
D03*
X1000000D02*
D03*
X750000D02*
D03*
Y4750000D02*
D03*
X500000D02*
D03*
Y5000000D02*
D03*
X8250000Y5250000D02*
D03*
X8500000D02*
D03*
X8750000D02*
D03*
X9250000D02*
D03*
X9500000D02*
D03*
X9750000D02*
D03*
Y5000000D02*
D03*
Y4750000D02*
D03*
Y4500000D02*
D03*
Y4250000D02*
D03*
Y2000000D02*
D03*
Y1750000D02*
D03*
Y1500000D02*
D03*
Y1250000D02*
D03*
Y1000000D02*
D03*
Y750000D02*
D03*
Y500000D02*
D03*
Y250000D02*
D03*
X9500000D02*
D03*
X9250000D02*
D03*
X9000000D02*
D03*
X8750000D02*
D03*
X8500000D02*
D03*
X8250000D02*
D03*
X8000000D02*
D03*
X7750000D02*
D03*
X7500000D02*
D03*
X7000000D02*
D03*
X7250000D02*
D03*
X6750000D02*
D03*
X6500000D02*
D03*
X6250000D02*
D03*
X6000000D02*
D03*
X5750000D02*
D03*
X5500000D02*
D03*
X5250000D02*
D03*
X5000000D02*
D03*
X4750000D02*
D03*
X4500000D02*
D03*
X4250000D02*
D03*
X4000000D02*
D03*
X3750000D02*
D03*
X3500000D02*
D03*
X3250000D02*
D03*
X3000000D02*
D03*
X2750000D02*
D03*
X2500000D02*
D03*
X2250000D02*
D03*
X2000000D02*
D03*
X1750000D02*
D03*
X1500000D02*
D03*
X1250000D02*
D03*
X1000000D02*
D03*
X750000D02*
D03*
X500000D02*
D03*
X250000D02*
D03*
Y500000D02*
D03*
Y750000D02*
D03*
Y1000000D02*
D03*
Y1250000D02*
D03*
Y1500000D02*
D03*
Y1750000D02*
D03*
Y2000000D02*
D03*
Y2250000D02*
D03*
Y2500000D02*
D03*
Y2750000D02*
D03*
Y3000000D02*
D03*
Y3250000D02*
D03*
Y4750000D02*
D03*
X4250000Y5250000D02*
D03*
X4000000D02*
D03*
X3750000D02*
D03*
X3500000D02*
D03*
X3250000D02*
D03*
X3000000D02*
D03*
X2750000D02*
D03*
X2500000D02*
D03*
X2250000D02*
D03*
X2000000D02*
D03*
X1750000D02*
D03*
X1500000D02*
D03*
X1250000D02*
D03*
X1000000D02*
D03*
X750000D02*
D03*
X500000D02*
D03*
X250000Y5000000D02*
D03*
Y5250000D02*
D03*
X5090000Y5200000D02*
D03*
X5737357Y4649857D02*
D03*
X7590000Y4180000D02*
D03*
X3370000Y4110000D02*
D03*
X8805000Y3037500D02*
D03*
X9160000Y3122500D02*
D03*
X7382500Y3005000D02*
D03*
X6540000Y3957500D02*
D03*
X6172500Y3590000D02*
D03*
X6475000Y4540000D02*
D03*
X7392500Y4280000D02*
D03*
X4430000Y4865000D02*
D03*
X4755000Y4875000D02*
D03*
X5990000Y5315000D02*
D03*
Y5162500D02*
D03*
X3427500Y4657500D02*
D03*
X3030000Y4595000D02*
D03*
X6927500Y2587500D02*
D03*
X7377500Y3855000D02*
D03*
X6760000Y3702500D02*
D03*
X6815000Y2585000D02*
D03*
X6695000Y3972500D02*
D03*
X6812500Y4012500D02*
D03*
X6850000Y3837500D02*
D03*
X6965000D02*
D03*
X7082500D02*
D03*
X7202500D02*
D03*
X6661666Y3350000D02*
D03*
X6425000D02*
D03*
X6543333D02*
D03*
X9805000Y2986667D02*
D03*
Y3105000D02*
D03*
Y2868333D02*
D03*
Y2750000D02*
D03*
X8477500Y4415000D02*
D03*
X5587500Y4365000D02*
D03*
X7175000Y3057500D02*
D03*
X8390000Y3192500D02*
D03*
X8990000Y2967501D02*
D03*
X6657500Y4895000D02*
D03*
X6975000Y5302500D02*
D03*
X8387500Y4670000D02*
D03*
X8340000Y4207500D02*
D03*
X8470000D02*
D03*
X7300000Y3367500D02*
D03*
Y2767500D02*
D03*
X4432500Y3032500D02*
D03*
X4882501Y3660000D02*
D03*
X5630000Y3082500D02*
D03*
X5500000D02*
D03*
X6540000Y3667500D02*
D03*
X6410000D02*
D03*
X5810000D02*
D03*
X5680000D02*
D03*
X5900000Y3802500D02*
D03*
X6030000D02*
D03*
X6200000D02*
D03*
X6330000D02*
D03*
X6600000Y4077500D02*
D03*
X5562500Y4815000D02*
D03*
X5960000Y4867500D02*
D03*
X5657500Y5355000D02*
D03*
X5420000Y4737500D02*
D03*
X5170000Y4677500D02*
D03*
X4987500Y5195000D02*
D03*
X4987500Y4995000D02*
D03*
X4820000Y4782500D02*
D03*
X4432500Y4335000D02*
D03*
Y4465000D02*
D03*
X3395000Y3570000D02*
D03*
Y3700000D02*
D03*
X557500Y3922500D02*
D03*
X940000Y3922500D02*
D03*
X1477500Y3597500D02*
D03*
Y4610000D02*
D03*
X1652500Y3857500D02*
D03*
X3045000Y3712500D02*
D03*
X2915000D02*
D03*
X2242500Y3857500D02*
D03*
X2625000D02*
D03*
X2520000Y4497500D02*
D03*
X3060000Y4372500D02*
D03*
X3757500Y4012500D02*
D03*
X3730000Y4370000D02*
D03*
X3442500Y4470000D02*
D03*
X3530000Y4615000D02*
D03*
X3390000Y4550000D02*
D03*
X3135000Y4615000D02*
D03*
X3217500Y4537500D02*
D03*
X3295000Y4615000D02*
D03*
X7027500Y4840000D02*
D03*
X7020000Y4712500D02*
D03*
X7400000Y4762500D02*
D03*
X7520000Y4747500D02*
D03*
X7577500Y4657500D02*
D03*
X6375000Y4322500D02*
D03*
X7125000Y4245000D02*
D03*
X7015000D02*
D03*
X6905000D02*
D03*
X7125000Y4355000D02*
D03*
X7015000D02*
D03*
X6905000D02*
D03*
X7125000Y4465000D02*
D03*
X7015000D02*
D03*
X6905000D02*
D03*
X3425000Y4165000D02*
D03*
Y4055000D02*
D03*
X3315000Y4165000D02*
D03*
Y4055000D02*
D03*
%TF.MD5,01e838f61c30738b301b41691e78938a*%
M02*
