%TF.GenerationSoftware,Altium Limited,Altium Designer,23.11.1 (41)*%
G04 Layer_Color=255*
%FSLAX45Y45*%
%MOMM*%
%TF.SameCoordinates,5A3C93BB-BC46-40EA-83D2-B686983C8B64*%
%TF.FilePolarity,Positive*%
%TF.FileFunction,Pads,Top*%
%TF.Part,Single*%
G01*
G75*
%TA.AperFunction,SMDPad,CuDef*%
%ADD10R,0.70000X0.60000*%
%ADD11R,15.00000X10.00000*%
%ADD12R,3.45000X3.45000*%
%ADD13R,0.30000X0.60000*%
%ADD14R,0.60000X0.30000*%
%ADD15R,0.40000X0.30000*%
%ADD16R,0.85000X0.90000*%
%ADD17R,0.90000X0.85000*%
%ADD18R,0.60000X0.70000*%
%ADD19R,0.95000X1.00000*%
%ADD20R,0.27500X0.25000*%
%ADD21R,0.25000X0.27500*%
%ADD22R,1.20000X0.60000*%
%ADD23R,1.19000X1.47000*%
%ADD24R,1.05000X0.60000*%
%ADD25R,0.38100X0.35560*%
%ADD26R,0.35560X0.38100*%
%ADD27R,0.60000X1.00000*%
%ADD28R,0.95000X0.90000*%
%ADD29R,0.90000X0.95000*%
%ADD30R,0.60000X1.05000*%
%ADD31R,2.15000X1.00000*%
%ADD32R,2.15000X3.25000*%
%ADD33R,2.60000X2.60000*%
%ADD34O,0.85000X0.25000*%
%ADD35O,0.25000X0.85000*%
%TA.AperFunction,ConnectorPad*%
%ADD36R,4.20000X1.90500*%
%TA.AperFunction,SMDPad,CuDef*%
%ADD37R,1.50000X0.80000*%
%ADD38R,0.64000X0.58000*%
%ADD39R,0.58000X0.64000*%
%ADD40R,0.55000X0.65000*%
%ADD41R,0.90000X0.40000*%
%ADD42R,1.60000X1.40000*%
%ADD43R,1.47000X1.19000*%
%TA.AperFunction,ComponentPad*%
%ADD62C,1.77800*%
%ADD63C,2.80000*%
%ADD64C,1.45000*%
%ADD65R,1.45000X1.45000*%
%ADD66C,1.52400*%
%ADD67R,1.52400X1.52400*%
%ADD68R,4.20000X2.41300*%
D10*
X2242500Y3935000D02*
D03*
X5960000Y5045000D02*
D03*
Y4945000D02*
D03*
X6540000Y4540000D02*
D03*
Y4640000D02*
D03*
X6410000D02*
D03*
Y4540000D02*
D03*
X7470000Y4280000D02*
D03*
Y4180000D02*
D03*
X8470000Y4130000D02*
D03*
Y4030000D02*
D03*
X6600000Y4255000D02*
D03*
Y4155000D02*
D03*
X6330000Y3980000D02*
D03*
Y3880000D02*
D03*
X6200000Y3980000D02*
D03*
Y3880000D02*
D03*
X6030000Y3980000D02*
D03*
Y3880000D02*
D03*
X5680000Y3590000D02*
D03*
Y3490000D02*
D03*
X5810000Y3590000D02*
D03*
Y3490000D02*
D03*
X8340000Y4130000D02*
D03*
Y4030000D02*
D03*
X4432500Y3110000D02*
D03*
Y3210000D02*
D03*
X6540000Y3590000D02*
D03*
Y3490000D02*
D03*
X5630000Y3260000D02*
D03*
Y3160000D02*
D03*
X5500000Y3260000D02*
D03*
Y3160000D02*
D03*
X5900000Y3980000D02*
D03*
Y3880000D02*
D03*
X4820000Y4705000D02*
D03*
Y4605000D02*
D03*
X9050000Y2670001D02*
D03*
X9050000Y2570000D02*
D03*
X6410000Y3590000D02*
D03*
Y3490000D02*
D03*
X5587500Y4530000D02*
D03*
Y4430000D02*
D03*
X5587499Y4205000D02*
D03*
Y4305000D02*
D03*
X2915000Y3790000D02*
D03*
X2915000Y3890000D02*
D03*
X3045000Y3790000D02*
D03*
X3045000Y3890000D02*
D03*
X3730000Y4185000D02*
D03*
Y4285000D02*
D03*
X1652500Y4035000D02*
D03*
X2242500D02*
D03*
X2625000Y3935000D02*
D03*
Y4035000D02*
D03*
X557500Y4100000D02*
D03*
Y4000000D02*
D03*
X940000Y4100000D02*
D03*
Y4000000D02*
D03*
X3757500Y3935000D02*
D03*
Y3835000D02*
D03*
X2520000Y4320000D02*
D03*
Y4420000D02*
D03*
D11*
X8240000Y1247500D02*
D03*
X1740000D02*
D03*
D12*
X7015000Y4355000D02*
D03*
D13*
X6840000Y4590000D02*
D03*
X6890000D02*
D03*
X6940000D02*
D03*
X6990000D02*
D03*
X7040000D02*
D03*
X7090000D02*
D03*
X7140000D02*
D03*
X7190000D02*
D03*
Y4120000D02*
D03*
X7140000D02*
D03*
X7090000D02*
D03*
X7040000D02*
D03*
X6990000D02*
D03*
X6940000D02*
D03*
X6890000D02*
D03*
X6840000D02*
D03*
D14*
X7250000Y4530000D02*
D03*
Y4480000D02*
D03*
Y4430000D02*
D03*
Y4380000D02*
D03*
Y4330000D02*
D03*
Y4280000D02*
D03*
Y4230000D02*
D03*
Y4180000D02*
D03*
X6780000D02*
D03*
Y4230000D02*
D03*
Y4280000D02*
D03*
Y4330000D02*
D03*
Y4380000D02*
D03*
Y4430000D02*
D03*
Y4480000D02*
D03*
Y4530000D02*
D03*
D15*
X7800000Y5022500D02*
D03*
X7710000D02*
D03*
X8090000D02*
D03*
X8000000D02*
D03*
X7537500Y5022500D02*
D03*
X7447500D02*
D03*
D16*
X6890000Y5045000D02*
D03*
X6735000D02*
D03*
X6890000Y4895000D02*
D03*
X6735000D02*
D03*
X5290000Y5355000D02*
D03*
X5135000D02*
D03*
X5425000D02*
D03*
X5580000D02*
D03*
X6095000Y3265000D02*
D03*
X6250000D02*
D03*
X4455000Y5195000D02*
D03*
X4610000D02*
D03*
X4610000Y4995000D02*
D03*
X4455000D02*
D03*
X4755000D02*
D03*
X4910000D02*
D03*
X4755000Y5195000D02*
D03*
X4910000D02*
D03*
X9410000Y2780000D02*
D03*
X9255000D02*
D03*
X8710000Y3370000D02*
D03*
X8555000D02*
D03*
X8390000Y2790000D02*
D03*
X8235000D02*
D03*
X7292500Y4992500D02*
D03*
X7137500D02*
D03*
X7292500Y4842500D02*
D03*
X7137500D02*
D03*
X6897500Y5302500D02*
D03*
X6742500D02*
D03*
D17*
X8000000Y4897500D02*
D03*
Y4742500D02*
D03*
X7800000Y4897500D02*
D03*
Y4742500D02*
D03*
X5170000Y5200000D02*
D03*
Y5045000D02*
D03*
Y4910000D02*
D03*
Y4755000D02*
D03*
X5420000Y4970000D02*
D03*
Y4815000D02*
D03*
X8910000Y2720000D02*
D03*
Y2565000D02*
D03*
X8990000Y3200000D02*
D03*
Y3045001D02*
D03*
X8390000Y3115000D02*
D03*
Y2960000D02*
D03*
X6947500Y3082500D02*
D03*
Y2927500D02*
D03*
X7097500Y3212500D02*
D03*
Y3057500D02*
D03*
X5760000Y4360000D02*
D03*
Y4205000D02*
D03*
D18*
X8310000Y4670000D02*
D03*
X8210000D02*
D03*
X4805001Y3660000D02*
D03*
X4705000D02*
D03*
X5740000Y4815000D02*
D03*
X5640000D02*
D03*
X4610000Y4335000D02*
D03*
X4510000D02*
D03*
X4610000Y4465000D02*
D03*
X4510000D02*
D03*
X7477500Y3367500D02*
D03*
X7377500D02*
D03*
X7477500Y2767500D02*
D03*
X7377500Y2767500D02*
D03*
X3317500Y3570000D02*
D03*
X3217500D02*
D03*
X3317500Y3700000D02*
D03*
X3217500D02*
D03*
X1300000Y4610000D02*
D03*
X1400000D02*
D03*
X2383500Y4165000D02*
D03*
X2483500D02*
D03*
X2000000Y4035000D02*
D03*
X2100000D02*
D03*
X1080000Y4100000D02*
D03*
X1180000D02*
D03*
X2680000Y4320000D02*
D03*
X2780000D02*
D03*
X1300000Y3597500D02*
D03*
X1400000D02*
D03*
X3060000Y4450000D02*
D03*
X2960000D02*
D03*
D19*
X6540000Y3880000D02*
D03*
X6695000D02*
D03*
D20*
X5607500Y5095000D02*
D03*
Y5045000D02*
D03*
X5760000Y5095000D02*
D03*
Y5045000D02*
D03*
D21*
X5683750Y4993750D02*
D03*
X5733750D02*
D03*
X5633750D02*
D03*
X5683750Y5146250D02*
D03*
X5733750D02*
D03*
X5633750D02*
D03*
D22*
X8400000Y4415000D02*
D03*
Y4510000D02*
D03*
Y4320000D02*
D03*
X8130000Y4415000D02*
D03*
Y4510000D02*
D03*
Y4320000D02*
D03*
D23*
X6030000Y4180000D02*
D03*
X6201000D02*
D03*
D24*
X6250000Y3590000D02*
D03*
Y3685000D02*
D03*
Y3495000D02*
D03*
X5965000Y3685000D02*
D03*
Y3495000D02*
D03*
D25*
X4668820Y4716180D02*
D03*
X4668820Y4666180D02*
D03*
X4501180Y4716180D02*
D03*
Y4666180D02*
D03*
D26*
X4660000Y4775000D02*
D03*
X4610000Y4775000D02*
D03*
X4610000Y4607361D02*
D03*
X4560000D02*
D03*
X4660000D02*
D03*
X4560000Y4775000D02*
D03*
X4510000Y4775000D02*
D03*
Y4607361D02*
D03*
D27*
X9410000Y2570000D02*
D03*
X9220000D02*
D03*
X9315000Y2330000D02*
D03*
X8710000Y3200000D02*
D03*
X8615000Y2960000D02*
D03*
X8805000D02*
D03*
X9830000Y2570000D02*
D03*
X9640000D02*
D03*
X9735000Y2330000D02*
D03*
X9350000Y3200000D02*
D03*
X9160000D02*
D03*
X9255000Y2960000D02*
D03*
D28*
X9640000Y3050000D02*
D03*
Y2735001D02*
D03*
D29*
X8120000Y3370000D02*
D03*
X7805000D02*
D03*
X8120000Y3130000D02*
D03*
X7805000D02*
D03*
D30*
X7477500Y3212500D02*
D03*
X7287500D02*
D03*
X7477500Y2927500D02*
D03*
X7287500D02*
D03*
X7382500D02*
D03*
D31*
X5270000Y3440000D02*
D03*
Y3210000D02*
D03*
Y2980000D02*
D03*
D32*
X4685000Y3210000D02*
D03*
D33*
X3370000Y4110000D02*
D03*
D34*
X3177500Y3985000D02*
D03*
Y4035000D02*
D03*
Y4085000D02*
D03*
Y4135000D02*
D03*
Y4185000D02*
D03*
Y4235000D02*
D03*
X3562500D02*
D03*
Y4185000D02*
D03*
Y4135000D02*
D03*
Y4085000D02*
D03*
Y4035000D02*
D03*
Y3985000D02*
D03*
D35*
X3245000Y4302500D02*
D03*
X3295000D02*
D03*
X3345000D02*
D03*
X3395000D02*
D03*
X3445000D02*
D03*
X3495000D02*
D03*
Y3917500D02*
D03*
X3445000D02*
D03*
X3395000D02*
D03*
X3345000D02*
D03*
X3295000D02*
D03*
X3245000D02*
D03*
D36*
X242500Y4100000D02*
D03*
D37*
X5377500Y4310000D02*
D03*
Y4460000D02*
D03*
D38*
X2755000Y3937500D02*
D03*
Y4035500D02*
D03*
X2960000Y4300000D02*
D03*
Y4202000D02*
D03*
D39*
X3972500Y4185000D02*
D03*
X3874500D02*
D03*
X1895000Y4035000D02*
D03*
X1797000D02*
D03*
X2482500D02*
D03*
X2384500D02*
D03*
X800000Y4100000D02*
D03*
X702000D02*
D03*
D40*
X1395000Y4737500D02*
D03*
X1300000D02*
D03*
X2985000Y4035000D02*
D03*
X2890000D02*
D03*
X1395000Y3470000D02*
D03*
X1300000D02*
D03*
D41*
X1512500Y4035000D02*
D03*
Y4100000D02*
D03*
Y4165000D02*
D03*
X1302500D02*
D03*
Y4100000D02*
D03*
Y4035000D02*
D03*
D42*
X3947500Y3475000D02*
D03*
Y3245000D02*
D03*
X3567500Y3475000D02*
D03*
X3567500Y3245000D02*
D03*
D43*
X3962500Y3836500D02*
D03*
Y4007500D02*
D03*
D62*
X6362500Y5302500D02*
D03*
Y5048500D02*
D03*
X7202500Y3662500D02*
D03*
X6948500D02*
D03*
D63*
X9081000Y5077000D02*
D03*
Y3763000D02*
D03*
D64*
X8810000Y4520001D02*
D03*
Y4320000D02*
D03*
Y4770000D02*
D03*
D65*
Y4070000D02*
D03*
D66*
X7800000Y5295000D02*
D03*
X7400000D02*
D03*
X7600000D02*
D03*
D67*
X8000000D02*
D03*
D68*
X242500Y3662000D02*
D03*
Y4538000D02*
D03*
%TF.MD5,28e2c46f66bde58501a2eae2e29e9515*%
M02*
