%TF.GenerationSoftware,Altium Limited,Altium Designer,23.11.1 (41)*%
G04 Layer_Color=16711935*
%FSLAX45Y45*%
%MOMM*%
%TF.SameCoordinates,5A3C93BB-BC46-40EA-83D2-B686983C8B64*%
%TF.FilePolarity,Negative*%
%TF.FileFunction,Soldermask,Bot*%
%TF.Part,Single*%
G01*
G75*
%TA.AperFunction,ComponentPad*%
%ADD62C,1.77800*%
%ADD63C,2.80000*%
%ADD64C,1.45000*%
%ADD65R,1.45000X1.45000*%
%ADD66C,1.52400*%
%ADD67R,1.52400X1.52400*%
%TA.AperFunction,ViaPad*%
%ADD69C,0.70000*%
%TA.AperFunction,ComponentPad*%
%ADD84R,4.30000X2.51300*%
D62*
X6362500Y5302500D02*
D03*
Y5048500D02*
D03*
X7202500Y3662500D02*
D03*
X6948500D02*
D03*
D63*
X9081000Y5077000D02*
D03*
Y3763000D02*
D03*
D64*
X8810000Y4520001D02*
D03*
Y4320000D02*
D03*
Y4770000D02*
D03*
D65*
Y4070000D02*
D03*
D66*
X7800000Y5295000D02*
D03*
X7400000D02*
D03*
X7600000D02*
D03*
D67*
X8000000D02*
D03*
D69*
X7125000Y4245000D02*
D03*
X7015000D02*
D03*
X6905000D02*
D03*
X7125000Y4355000D02*
D03*
X7015000D02*
D03*
X6905000D02*
D03*
X7125000Y4465000D02*
D03*
X7015000D02*
D03*
X6905000D02*
D03*
X3425000Y4165000D02*
D03*
Y4055000D02*
D03*
X3315000Y4165000D02*
D03*
Y4055000D02*
D03*
D84*
X242500Y3662000D02*
D03*
Y4538000D02*
D03*
%TF.MD5,e6663ee225a56f9f7cf5abeaf71f8d51*%
M02*
