%TF.GenerationSoftware,Altium Limited,Altium Designer,23.11.1 (41)*%
G04 Layer_Color=2752767*
%FSLAX45Y45*%
%MOMM*%
%TF.SameCoordinates,5A3C93BB-BC46-40EA-83D2-B686983C8B64*%
%TF.FilePolarity,Positive*%
%TF.FileFunction,Drawing*%
%TF.Part,Single*%
G01*
G75*
%TA.AperFunction,NonConductor*%
%ADD94C,0.12700*%
%ADD95C,0.16933*%
D94*
X6311700Y5251700D02*
Y5353300D01*
X6413300D01*
Y5251700D01*
X6311700D01*
Y4997700D02*
Y5099300D01*
X6413300D01*
Y4997700D01*
X6311700D01*
X9081000Y5026200D02*
X9030200Y5127800D01*
X9131800D01*
X9081000Y5026200D01*
Y3712200D02*
X9030200Y3813800D01*
X9131800D01*
X9081000Y3712200D01*
X7800000Y5244200D02*
X7825400Y5269600D01*
X7850800D01*
X7825400Y5295000D01*
X7850800Y5320400D01*
X7825400D01*
X7800000Y5345800D01*
X7774600Y5320400D01*
X7749200D01*
X7774600Y5295000D01*
X7749200Y5269600D01*
X7774600D01*
X7800000Y5244200D01*
X7400000D02*
X7425400Y5269600D01*
X7450800D01*
X7425400Y5295000D01*
X7450800Y5320400D01*
X7425400D01*
X7400000Y5345800D01*
X7374600Y5320400D01*
X7349200D01*
X7374600Y5295000D01*
X7349200Y5269600D01*
X7374600D01*
X7400000Y5244200D01*
X7600000D02*
X7625400Y5269600D01*
X7650800D01*
X7625400Y5295000D01*
X7650800Y5320400D01*
X7625400D01*
X7600000Y5345800D01*
X7574600Y5320400D01*
X7549200D01*
X7574600Y5295000D01*
X7549200Y5269600D01*
X7574600D01*
X7600000Y5244200D01*
X8000000D02*
X8025400Y5269600D01*
X8050800D01*
X8025400Y5295000D01*
X8050800Y5320400D01*
X8025400D01*
X8000000Y5345800D01*
X7974600Y5320400D01*
X7949200D01*
X7974600Y5295000D01*
X7949200Y5269600D01*
X7974600D01*
X8000000Y5244200D01*
X191700Y3611200D02*
X217100Y3662000D01*
X191700Y3712800D01*
X242500Y3687400D01*
X293300Y3712800D01*
X267900Y3662000D01*
X293300Y3611200D01*
X242500Y3636600D01*
X191700Y3611200D01*
Y4487200D02*
X217100Y4538000D01*
X191700Y4588800D01*
X242500Y4563400D01*
X293300Y4588800D01*
X267900Y4538000D01*
X293300Y4487200D01*
X242500Y4512600D01*
X191700Y4487200D01*
X7151700Y3611700D02*
Y3713300D01*
X7253300D01*
Y3611700D01*
X7151700D01*
X6897700D02*
Y3713300D01*
X6999300D01*
Y3611700D01*
X6897700D01*
X899200Y3649200D02*
X924600Y3700000D01*
X899200Y3750800D01*
X950000Y3725400D01*
X1000800Y3750800D01*
X975400Y3700000D01*
X1000800Y3649200D01*
X950000Y3674600D01*
X899200Y3649200D01*
Y3449200D02*
X924600Y3500000D01*
X899200Y3550800D01*
X950000Y3525400D01*
X1000800Y3550800D01*
X975400Y3500000D01*
X1000800Y3449200D01*
X950000Y3474600D01*
X899200Y3449200D01*
X2299200Y2999200D02*
X2324600Y3050000D01*
X2299200Y3100800D01*
X2350000Y3075400D01*
X2400800Y3100800D01*
X2375400Y3050000D01*
X2400800Y2999200D01*
X2350000Y3024600D01*
X2299200Y2999200D01*
X2099200D02*
X2124600Y3050000D01*
X2099200Y3100800D01*
X2150000Y3075400D01*
X2200800Y3100800D01*
X2175400Y3050000D01*
X2200800Y2999200D01*
X2150000Y3024600D01*
X2099200Y2999200D01*
X2499200D02*
X2524600Y3050000D01*
X2499200Y3100800D01*
X2550000Y3075400D01*
X2600800Y3100800D01*
X2575400Y3050000D01*
X2600800Y2999200D01*
X2550000Y3024600D01*
X2499200Y2999200D01*
X2799200D02*
X2824600Y3050000D01*
X2799200Y3100800D01*
X2850000Y3075400D01*
X2900800Y3100800D01*
X2875400Y3050000D01*
X2900800Y2999200D01*
X2850000Y3024600D01*
X2799200Y2999200D01*
X2999200D02*
X3024600Y3050000D01*
X2999200Y3100800D01*
X3050000Y3075400D01*
X3100800Y3100800D01*
X3075400Y3050000D01*
X3100800Y2999200D01*
X3050000Y3024600D01*
X2999200Y2999200D01*
X4199200Y3449200D02*
X4224600Y3500000D01*
X4199200Y3550800D01*
X4250000Y3525400D01*
X4300800Y3550800D01*
X4275400Y3500000D01*
X4300800Y3449200D01*
X4250000Y3474600D01*
X4199200Y3449200D01*
Y3599200D02*
X4224600Y3650000D01*
X4199200Y3700800D01*
X4250000Y3675400D01*
X4300800Y3700800D01*
X4275400Y3650000D01*
X4300800Y3599200D01*
X4250000Y3624600D01*
X4199200Y3599200D01*
Y4849200D02*
X4224600Y4900000D01*
X4199200Y4950800D01*
X4250000Y4925400D01*
X4300800Y4950800D01*
X4275400Y4900000D01*
X4300800Y4849200D01*
X4250000Y4874600D01*
X4199200Y4849200D01*
Y5049200D02*
X4224600Y5100000D01*
X4199200Y5150800D01*
X4250000Y5125400D01*
X4300800Y5150800D01*
X4275400Y5100000D01*
X4300800Y5049200D01*
X4250000Y5074600D01*
X4199200Y5049200D01*
X3999200D02*
X4024600Y5100000D01*
X3999200Y5150800D01*
X4050000Y5125400D01*
X4100800Y5150800D01*
X4075400Y5100000D01*
X4100800Y5049200D01*
X4050000Y5074600D01*
X3999200Y5049200D01*
X3799200D02*
X3824600Y5100000D01*
X3799200Y5150800D01*
X3850000Y5125400D01*
X3900800Y5150800D01*
X3875400Y5100000D01*
X3900800Y5049200D01*
X3850000Y5074600D01*
X3799200Y5049200D01*
X3649200D02*
X3674600Y5100000D01*
X3649200Y5150800D01*
X3700000Y5125400D01*
X3750800Y5150800D01*
X3725400Y5100000D01*
X3750800Y5049200D01*
X3700000Y5074600D01*
X3649200Y5049200D01*
X3349200D02*
X3374600Y5100000D01*
X3349200Y5150800D01*
X3400000Y5125400D01*
X3450800Y5150800D01*
X3425400Y5100000D01*
X3450800Y5049200D01*
X3400000Y5074600D01*
X3349200Y5049200D01*
X3149200D02*
X3174600Y5100000D01*
X3149200Y5150800D01*
X3200000Y5125400D01*
X3250800Y5150800D01*
X3225400Y5100000D01*
X3250800Y5049200D01*
X3200000Y5074600D01*
X3149200Y5049200D01*
X2899200D02*
X2924600Y5100000D01*
X2899200Y5150800D01*
X2950000Y5125400D01*
X3000800Y5150800D01*
X2975400Y5100000D01*
X3000800Y5049200D01*
X2950000Y5074600D01*
X2899200Y5049200D01*
X2699200D02*
X2724600Y5100000D01*
X2699200Y5150800D01*
X2750000Y5125400D01*
X2800800Y5150800D01*
X2775400Y5100000D01*
X2800800Y5049200D01*
X2750000Y5074600D01*
X2699200Y5049200D01*
X2399200D02*
X2424600Y5100000D01*
X2399200Y5150800D01*
X2450000Y5125400D01*
X2500800Y5150800D01*
X2475400Y5100000D01*
X2500800Y5049200D01*
X2450000Y5074600D01*
X2399200Y5049200D01*
X2249200D02*
X2274600Y5100000D01*
X2249200Y5150800D01*
X2300000Y5125400D01*
X2350800Y5150800D01*
X2325400Y5100000D01*
X2350800Y5049200D01*
X2300000Y5074600D01*
X2249200Y5049200D01*
X1949200D02*
X1974600Y5100000D01*
X1949200Y5150800D01*
X2000000Y5125400D01*
X2050800Y5150800D01*
X2025400Y5100000D01*
X2050800Y5049200D01*
X2000000Y5074600D01*
X1949200Y5049200D01*
X1749200D02*
X1774600Y5100000D01*
X1749200Y5150800D01*
X1800000Y5125400D01*
X1850800Y5150800D01*
X1825400Y5100000D01*
X1850800Y5049200D01*
X1800000Y5074600D01*
X1749200Y5049200D01*
X1449200D02*
X1474600Y5100000D01*
X1449200Y5150800D01*
X1500000Y5125400D01*
X1550800Y5150800D01*
X1525400Y5100000D01*
X1550800Y5049200D01*
X1500000Y5074600D01*
X1449200Y5049200D01*
X1299200D02*
X1324600Y5100000D01*
X1299200Y5150800D01*
X1350000Y5125400D01*
X1400800Y5150800D01*
X1375400Y5100000D01*
X1400800Y5049200D01*
X1350000Y5074600D01*
X1299200Y5049200D01*
X1099200D02*
X1124600Y5100000D01*
X1099200Y5150800D01*
X1150000Y5125400D01*
X1200800Y5150800D01*
X1175400Y5100000D01*
X1200800Y5049200D01*
X1150000Y5074600D01*
X1099200Y5049200D01*
X899200D02*
X924600Y5100000D01*
X899200Y5150800D01*
X950000Y5125400D01*
X1000800Y5150800D01*
X975400Y5100000D01*
X1000800Y5049200D01*
X950000Y5074600D01*
X899200Y5049200D01*
Y4849200D02*
X924600Y4900000D01*
X899200Y4950800D01*
X950000Y4925400D01*
X1000800Y4950800D01*
X975400Y4900000D01*
X1000800Y4849200D01*
X950000Y4874600D01*
X899200Y4849200D01*
Y4399200D02*
X924600Y4450000D01*
X899200Y4500800D01*
X950000Y4475400D01*
X1000800Y4500800D01*
X975400Y4450000D01*
X1000800Y4399200D01*
X950000Y4424600D01*
X899200Y4399200D01*
Y4599200D02*
X924600Y4650000D01*
X899200Y4700800D01*
X950000Y4675400D01*
X1000800Y4700800D01*
X975400Y4650000D01*
X1000800Y4599200D01*
X950000Y4624600D01*
X899200Y4599200D01*
X5579200Y2799200D02*
X5604600Y2850000D01*
X5579200Y2900800D01*
X5630000Y2875400D01*
X5680800Y2900800D01*
X5655400Y2850000D01*
X5680800Y2799200D01*
X5630000Y2824600D01*
X5579200Y2799200D01*
X5449200D02*
X5474600Y2850000D01*
X5449200Y2900800D01*
X5500000Y2875400D01*
X5550800Y2900800D01*
X5525400Y2850000D01*
X5550800Y2799200D01*
X5500000Y2824600D01*
X5449200Y2799200D01*
X5329200D02*
X5354600Y2850000D01*
X5329200Y2900800D01*
X5380000Y2875400D01*
X5430800Y2900800D01*
X5405400Y2850000D01*
X5430800Y2799200D01*
X5380000Y2824600D01*
X5329200Y2799200D01*
X5074200Y2794200D02*
X5099600Y2845000D01*
X5074200Y2895800D01*
X5125000Y2870400D01*
X5175800Y2895800D01*
X5150400Y2845000D01*
X5175800Y2794200D01*
X5125000Y2819600D01*
X5074200Y2794200D01*
X4949200Y2869200D02*
X4974600Y2920000D01*
X4949200Y2970800D01*
X5000000Y2945400D01*
X5050800Y2970800D01*
X5025400Y2920000D01*
X5050800Y2869200D01*
X5000000Y2894600D01*
X4949200Y2869200D01*
Y2999200D02*
X4974600Y3050000D01*
X4949200Y3100800D01*
X5000000Y3075400D01*
X5050800Y3100800D01*
X5025400Y3050000D01*
X5050800Y2999200D01*
X5000000Y3024600D01*
X4949200Y2999200D01*
X5444200Y2899200D02*
X5469600Y2950000D01*
X5444200Y3000800D01*
X5495000Y2975400D01*
X5545800Y3000800D01*
X5520400Y2950000D01*
X5545800Y2899200D01*
X5495000Y2924600D01*
X5444200Y2899200D01*
X5574200D02*
X5599600Y2950000D01*
X5574200Y3000800D01*
X5625000Y2975400D01*
X5675800Y3000800D01*
X5650400Y2950000D01*
X5675800Y2899200D01*
X5625000Y2924600D01*
X5574200Y2899200D01*
X4299200Y3399200D02*
X4324600Y3450000D01*
X4299200Y3500800D01*
X4350000Y3475400D01*
X4400800Y3500800D01*
X4375400Y3450000D01*
X4400800Y3399200D01*
X4350000Y3424600D01*
X4299200Y3399200D01*
Y3549200D02*
X4324600Y3600000D01*
X4299200Y3650800D01*
X4350000Y3625400D01*
X4400800Y3650800D01*
X4375400Y3600000D01*
X4400800Y3549200D01*
X4350000Y3574600D01*
X4299200Y3549200D01*
X4474200Y3399200D02*
X4499600Y3450000D01*
X4474200Y3500800D01*
X4525000Y3475400D01*
X4575800Y3500800D01*
X4550400Y3450000D01*
X4575800Y3399200D01*
X4525000Y3424600D01*
X4474200Y3399200D01*
Y3549200D02*
X4499600Y3600000D01*
X4474200Y3650800D01*
X4525000Y3625400D01*
X4575800Y3650800D01*
X4550400Y3600000D01*
X4575800Y3549200D01*
X4525000Y3574600D01*
X4474200Y3549200D01*
X3924200Y3624200D02*
X3949600Y3675000D01*
X3924200Y3725800D01*
X3975000Y3700400D01*
X4025800Y3725800D01*
X4000400Y3675000D01*
X4025800Y3624200D01*
X3975000Y3649600D01*
X3924200Y3624200D01*
X4099200Y3549200D02*
X4124600Y3600000D01*
X4099200Y3650800D01*
X4150000Y3625400D01*
X4200800Y3650800D01*
X4175400Y3600000D01*
X4200800Y3549200D01*
X4150000Y3574600D01*
X4099200Y3549200D01*
Y3399200D02*
X4124600Y3450000D01*
X4099200Y3500800D01*
X4150000Y3475400D01*
X4200800Y3500800D01*
X4175400Y3450000D01*
X4200800Y3399200D01*
X4150000Y3424600D01*
X4099200Y3399200D01*
Y3249200D02*
X4124600Y3300000D01*
X4099200Y3350800D01*
X4150000Y3325400D01*
X4200800Y3350800D01*
X4175400Y3300000D01*
X4200800Y3249200D01*
X4150000Y3274600D01*
X4099200Y3249200D01*
X3349200Y3199200D02*
X3374600Y3250000D01*
X3349200Y3300800D01*
X3400000Y3275400D01*
X3450800Y3300800D01*
X3425400Y3250000D01*
X3450800Y3199200D01*
X3400000Y3224600D01*
X3349200Y3199200D01*
Y3374200D02*
X3374600Y3425000D01*
X3349200Y3475800D01*
X3400000Y3450400D01*
X3450800Y3475800D01*
X3425400Y3425000D01*
X3450800Y3374200D01*
X3400000Y3399600D01*
X3349200Y3374200D01*
X2449200Y3649200D02*
X2474600Y3700000D01*
X2449200Y3750800D01*
X2500000Y3725400D01*
X2550800Y3750800D01*
X2525400Y3700000D01*
X2550800Y3649200D01*
X2500000Y3674600D01*
X2449200Y3649200D01*
X2549200D02*
X2574600Y3700000D01*
X2549200Y3750800D01*
X2600000Y3725400D01*
X2650800Y3750800D01*
X2625400Y3700000D01*
X2650800Y3649200D01*
X2600000Y3674600D01*
X2549200Y3649200D01*
X2099200Y3799200D02*
X2124600Y3850000D01*
X2099200Y3900800D01*
X2150000Y3875400D01*
X2200800Y3900800D01*
X2175400Y3850000D01*
X2200800Y3799200D01*
X2150000Y3824600D01*
X2099200Y3799200D01*
X1449200Y3724200D02*
X1474600Y3775000D01*
X1449200Y3825800D01*
X1500000Y3800400D01*
X1550800Y3825800D01*
X1525400Y3775000D01*
X1550800Y3724200D01*
X1500000Y3749600D01*
X1449200Y3724200D01*
Y3624200D02*
X1474600Y3675000D01*
X1449200Y3725800D01*
X1500000Y3700400D01*
X1550800Y3725800D01*
X1525400Y3675000D01*
X1550800Y3624200D01*
X1500000Y3649600D01*
X1449200Y3624200D01*
X2324200Y3699200D02*
X2349600Y3750000D01*
X2324200Y3800800D01*
X2375000Y3775400D01*
X2425800Y3800800D01*
X2400400Y3750000D01*
X2425800Y3699200D01*
X2375000Y3724600D01*
X2324200Y3699200D01*
Y3599200D02*
X2349600Y3650000D01*
X2324200Y3700800D01*
X2375000Y3675400D01*
X2425800Y3700800D01*
X2400400Y3650000D01*
X2425800Y3599200D01*
X2375000Y3624600D01*
X2324200Y3599200D01*
X2199200D02*
X2224600Y3650000D01*
X2199200Y3700800D01*
X2250000Y3675400D01*
X2300800Y3700800D01*
X2275400Y3650000D01*
X2300800Y3599200D01*
X2250000Y3624600D01*
X2199200Y3599200D01*
X2099200D02*
X2124600Y3650000D01*
X2099200Y3700800D01*
X2150000Y3675400D01*
X2200800Y3700800D01*
X2175400Y3650000D01*
X2200800Y3599200D01*
X2150000Y3624600D01*
X2099200Y3599200D01*
X1999200D02*
X2024600Y3650000D01*
X1999200Y3700800D01*
X2050000Y3675400D01*
X2100800Y3700800D01*
X2075400Y3650000D01*
X2100800Y3599200D01*
X2050000Y3624600D01*
X1999200Y3599200D01*
X1899200D02*
X1924600Y3650000D01*
X1899200Y3700800D01*
X1950000Y3675400D01*
X2000800Y3700800D01*
X1975400Y3650000D01*
X2000800Y3599200D01*
X1950000Y3624600D01*
X1899200Y3599200D01*
X1799200D02*
X1824600Y3650000D01*
X1799200Y3700800D01*
X1850000Y3675400D01*
X1900800Y3700800D01*
X1875400Y3650000D01*
X1900800Y3599200D01*
X1850000Y3624600D01*
X1799200Y3599200D01*
X1699200D02*
X1724600Y3650000D01*
X1699200Y3700800D01*
X1750000Y3675400D01*
X1800800Y3700800D01*
X1775400Y3650000D01*
X1800800Y3599200D01*
X1750000Y3624600D01*
X1699200Y3599200D01*
X1599200D02*
X1624600Y3650000D01*
X1599200Y3700800D01*
X1650000Y3675400D01*
X1700800Y3700800D01*
X1675400Y3650000D01*
X1700800Y3599200D01*
X1650000Y3624600D01*
X1599200Y3599200D01*
X2999200Y3574200D02*
X3024600Y3625000D01*
X2999200Y3675800D01*
X3050000Y3650400D01*
X3100800Y3675800D01*
X3075400Y3625000D01*
X3100800Y3574200D01*
X3050000Y3599600D01*
X2999200Y3574200D01*
X2899200D02*
X2924600Y3625000D01*
X2899200Y3675800D01*
X2950000Y3650400D01*
X3000800Y3675800D01*
X2975400Y3625000D01*
X3000800Y3574200D01*
X2950000Y3599600D01*
X2899200Y3574200D01*
X2799200D02*
X2824600Y3625000D01*
X2799200Y3675800D01*
X2850000Y3650400D01*
X2900800Y3675800D01*
X2875400Y3625000D01*
X2900800Y3574200D01*
X2850000Y3599600D01*
X2799200Y3574200D01*
X2699200D02*
X2724600Y3625000D01*
X2699200Y3675800D01*
X2750000Y3650400D01*
X2800800Y3675800D01*
X2775400Y3625000D01*
X2800800Y3574200D01*
X2750000Y3599600D01*
X2699200Y3574200D01*
X2599200D02*
X2624600Y3625000D01*
X2599200Y3675800D01*
X2650000Y3650400D01*
X2700800Y3675800D01*
X2675400Y3625000D01*
X2700800Y3574200D01*
X2650000Y3599600D01*
X2599200Y3574200D01*
X2499200D02*
X2524600Y3625000D01*
X2499200Y3675800D01*
X2550000Y3650400D01*
X2600800Y3675800D01*
X2575400Y3625000D01*
X2600800Y3574200D01*
X2550000Y3599600D01*
X2499200Y3574200D01*
X2399200D02*
X2424600Y3625000D01*
X2399200Y3675800D01*
X2450000Y3650400D01*
X2500800Y3675800D01*
X2475400Y3625000D01*
X2500800Y3574200D01*
X2450000Y3599600D01*
X2399200Y3574200D01*
X2199200Y3699200D02*
X2224600Y3750000D01*
X2199200Y3800800D01*
X2250000Y3775400D01*
X2300800Y3800800D01*
X2275400Y3750000D01*
X2300800Y3699200D01*
X2250000Y3724600D01*
X2199200Y3699200D01*
X2099200D02*
X2124600Y3750000D01*
X2099200Y3800800D01*
X2150000Y3775400D01*
X2200800Y3800800D01*
X2175400Y3750000D01*
X2200800Y3699200D01*
X2150000Y3724600D01*
X2099200Y3699200D01*
X1999200D02*
X2024600Y3750000D01*
X1999200Y3800800D01*
X2050000Y3775400D01*
X2100800Y3800800D01*
X2075400Y3750000D01*
X2100800Y3699200D01*
X2050000Y3724600D01*
X1999200Y3699200D01*
X1899200D02*
X1924600Y3750000D01*
X1899200Y3800800D01*
X1950000Y3775400D01*
X2000800Y3800800D01*
X1975400Y3750000D01*
X2000800Y3699200D01*
X1950000Y3724600D01*
X1899200Y3699200D01*
X1799200D02*
X1824600Y3750000D01*
X1799200Y3800800D01*
X1850000Y3775400D01*
X1900800Y3800800D01*
X1875400Y3750000D01*
X1900800Y3699200D01*
X1850000Y3724600D01*
X1799200Y3699200D01*
X1699200D02*
X1724600Y3750000D01*
X1699200Y3800800D01*
X1750000Y3775400D01*
X1800800Y3800800D01*
X1775400Y3750000D01*
X1800800Y3699200D01*
X1750000Y3724600D01*
X1699200Y3699200D01*
X1599200D02*
X1624600Y3750000D01*
X1599200Y3800800D01*
X1650000Y3775400D01*
X1700800Y3800800D01*
X1675400Y3750000D01*
X1700800Y3699200D01*
X1650000Y3724600D01*
X1599200Y3699200D01*
X2449200Y3724200D02*
X2474600Y3775000D01*
X2449200Y3825800D01*
X2500000Y3800400D01*
X2550800Y3825800D01*
X2525400Y3775000D01*
X2550800Y3724200D01*
X2500000Y3749600D01*
X2449200Y3724200D01*
X2549200D02*
X2574600Y3775000D01*
X2549200Y3825800D01*
X2600000Y3800400D01*
X2650800Y3825800D01*
X2625400Y3775000D01*
X2650800Y3724200D01*
X2600000Y3749600D01*
X2549200Y3724200D01*
X2649200Y3649200D02*
X2674600Y3700000D01*
X2649200Y3750800D01*
X2700000Y3725400D01*
X2750800Y3750800D01*
X2725400Y3700000D01*
X2750800Y3649200D01*
X2700000Y3674600D01*
X2649200Y3649200D01*
X2749200D02*
X2774600Y3700000D01*
X2749200Y3750800D01*
X2800000Y3725400D01*
X2850800Y3750800D01*
X2825400Y3700000D01*
X2850800Y3649200D01*
X2800000Y3674600D01*
X2749200Y3649200D01*
X2649200Y3724200D02*
X2674600Y3775000D01*
X2649200Y3825800D01*
X2700000Y3800400D01*
X2750800Y3825800D01*
X2725400Y3775000D01*
X2750800Y3724200D01*
X2700000Y3749600D01*
X2649200Y3724200D01*
X2749200D02*
X2774600Y3775000D01*
X2749200Y3825800D01*
X2800000Y3800400D01*
X2850800Y3825800D01*
X2825400Y3775000D01*
X2850800Y3724200D01*
X2800000Y3749600D01*
X2749200Y3724200D01*
X2324200Y3799200D02*
X2349600Y3850000D01*
X2324200Y3900800D01*
X2375000Y3875400D01*
X2425800Y3900800D01*
X2400400Y3850000D01*
X2425800Y3799200D01*
X2375000Y3824600D01*
X2324200Y3799200D01*
X2424200D02*
X2449600Y3850000D01*
X2424200Y3900800D01*
X2475000Y3875400D01*
X2525800Y3900800D01*
X2500400Y3850000D01*
X2525800Y3799200D01*
X2475000Y3824600D01*
X2424200Y3799200D01*
X1899200D02*
X1924600Y3850000D01*
X1899200Y3900800D01*
X1950000Y3875400D01*
X2000800Y3900800D01*
X1975400Y3850000D01*
X2000800Y3799200D01*
X1950000Y3824600D01*
X1899200Y3799200D01*
X1999200D02*
X2024600Y3850000D01*
X1999200Y3900800D01*
X2050000Y3875400D01*
X2100800Y3900800D01*
X2075400Y3850000D01*
X2100800Y3799200D01*
X2050000Y3824600D01*
X1999200Y3799200D01*
X1699200D02*
X1724600Y3850000D01*
X1699200Y3900800D01*
X1750000Y3875400D01*
X1800800Y3900800D01*
X1775400Y3850000D01*
X1800800Y3799200D01*
X1750000Y3824600D01*
X1699200Y3799200D01*
X1799200D02*
X1824600Y3850000D01*
X1799200Y3900800D01*
X1850000Y3875400D01*
X1900800Y3900800D01*
X1875400Y3850000D01*
X1900800Y3799200D01*
X1850000Y3824600D01*
X1799200Y3799200D01*
X2324200Y3874200D02*
X2349600Y3925000D01*
X2324200Y3975800D01*
X2375000Y3950400D01*
X2425800Y3975800D01*
X2400400Y3925000D01*
X2425800Y3874200D01*
X2375000Y3899600D01*
X2324200Y3874200D01*
X2424200D02*
X2449600Y3925000D01*
X2424200Y3975800D01*
X2475000Y3950400D01*
X2525800Y3975800D01*
X2500400Y3925000D01*
X2525800Y3874200D01*
X2475000Y3899600D01*
X2424200Y3874200D01*
X1349200Y3724200D02*
X1374600Y3775000D01*
X1349200Y3825800D01*
X1400000Y3800400D01*
X1450800Y3825800D01*
X1425400Y3775000D01*
X1450800Y3724200D01*
X1400000Y3749600D01*
X1349200Y3724200D01*
Y3624200D02*
X1374600Y3675000D01*
X1349200Y3725800D01*
X1400000Y3700400D01*
X1450800Y3725800D01*
X1425400Y3675000D01*
X1450800Y3624200D01*
X1400000Y3649600D01*
X1349200Y3624200D01*
X1099200Y3499200D02*
X1124600Y3550000D01*
X1099200Y3600800D01*
X1150000Y3575400D01*
X1200800Y3600800D01*
X1175400Y3550000D01*
X1200800Y3499200D01*
X1150000Y3524600D01*
X1099200Y3499200D01*
Y3399200D02*
X1124600Y3450000D01*
X1099200Y3500800D01*
X1150000Y3475400D01*
X1200800Y3500800D01*
X1175400Y3450000D01*
X1200800Y3399200D01*
X1150000Y3424600D01*
X1099200Y3399200D01*
Y3699200D02*
X1124600Y3750000D01*
X1099200Y3800800D01*
X1150000Y3775400D01*
X1200800Y3800800D01*
X1175400Y3750000D01*
X1200800Y3699200D01*
X1150000Y3724600D01*
X1099200Y3699200D01*
Y3599200D02*
X1124600Y3650000D01*
X1099200Y3700800D01*
X1150000Y3675400D01*
X1200800Y3700800D01*
X1175400Y3650000D01*
X1200800Y3599200D01*
X1150000Y3624600D01*
X1099200Y3599200D01*
Y4649200D02*
X1124600Y4700000D01*
X1099200Y4750800D01*
X1150000Y4725400D01*
X1200800Y4750800D01*
X1175400Y4700000D01*
X1200800Y4649200D01*
X1150000Y4674600D01*
X1099200Y4649200D01*
Y4549200D02*
X1124600Y4600000D01*
X1099200Y4650800D01*
X1150000Y4625400D01*
X1200800Y4650800D01*
X1175400Y4600000D01*
X1200800Y4549200D01*
X1150000Y4574600D01*
X1099200Y4549200D01*
Y4474200D02*
X1124600Y4525000D01*
X1099200Y4575800D01*
X1150000Y4550400D01*
X1200800Y4575800D01*
X1175400Y4525000D01*
X1200800Y4474200D01*
X1150000Y4499600D01*
X1099200Y4474200D01*
Y4374200D02*
X1124600Y4425000D01*
X1099200Y4475800D01*
X1150000Y4450400D01*
X1200800Y4475800D01*
X1175400Y4425000D01*
X1200800Y4374200D01*
X1150000Y4399600D01*
X1099200Y4374200D01*
X1349200Y4274200D02*
X1374600Y4325000D01*
X1349200Y4375800D01*
X1400000Y4350400D01*
X1450800Y4375800D01*
X1425400Y4325000D01*
X1450800Y4274200D01*
X1400000Y4299600D01*
X1349200Y4274200D01*
Y4174200D02*
X1374600Y4225000D01*
X1349200Y4275800D01*
X1400000Y4250400D01*
X1450800Y4275800D01*
X1425400Y4225000D01*
X1450800Y4174200D01*
X1400000Y4199600D01*
X1349200Y4174200D01*
X1449200Y3799200D02*
X1474600Y3850000D01*
X1449200Y3900800D01*
X1500000Y3875400D01*
X1550800Y3900800D01*
X1525400Y3850000D01*
X1550800Y3799200D01*
X1500000Y3824600D01*
X1449200Y3799200D01*
X1349200D02*
X1374600Y3850000D01*
X1349200Y3900800D01*
X1400000Y3875400D01*
X1450800Y3900800D01*
X1425400Y3850000D01*
X1450800Y3799200D01*
X1400000Y3824600D01*
X1349200Y3799200D01*
X1449200Y3874200D02*
X1474600Y3925000D01*
X1449200Y3975800D01*
X1500000Y3950400D01*
X1550800Y3975800D01*
X1525400Y3925000D01*
X1550800Y3874200D01*
X1500000Y3899600D01*
X1449200Y3874200D01*
X1349200D02*
X1374600Y3925000D01*
X1349200Y3975800D01*
X1400000Y3950400D01*
X1450800Y3975800D01*
X1425400Y3925000D01*
X1450800Y3874200D01*
X1400000Y3899600D01*
X1349200Y3874200D01*
X2649200Y4124200D02*
X2674600Y4175000D01*
X2649200Y4225800D01*
X2700000Y4200400D01*
X2750800Y4225800D01*
X2725400Y4175000D01*
X2750800Y4124200D01*
X2700000Y4149600D01*
X2649200Y4124200D01*
X2549200D02*
X2574600Y4175000D01*
X2549200Y4225800D01*
X2600000Y4200400D01*
X2650800Y4225800D01*
X2625400Y4175000D01*
X2650800Y4124200D01*
X2600000Y4149600D01*
X2549200Y4124200D01*
X2724200Y4374200D02*
X2749600Y4425000D01*
X2724200Y4475800D01*
X2775000Y4450400D01*
X2825800Y4475800D01*
X2800400Y4425000D01*
X2825800Y4374200D01*
X2775000Y4399600D01*
X2724200Y4374200D01*
Y4474200D02*
X2749600Y4525000D01*
X2724200Y4575800D01*
X2775000Y4550400D01*
X2825800Y4575800D01*
X2800400Y4525000D01*
X2825800Y4474200D01*
X2775000Y4499600D01*
X2724200Y4474200D01*
X2624200Y4374200D02*
X2649600Y4425000D01*
X2624200Y4475800D01*
X2675000Y4450400D01*
X2725800Y4475800D01*
X2700400Y4425000D01*
X2725800Y4374200D01*
X2675000Y4399600D01*
X2624200Y4374200D01*
Y4474200D02*
X2649600Y4525000D01*
X2624200Y4575800D01*
X2675000Y4550400D01*
X2725800Y4575800D01*
X2700400Y4525000D01*
X2725800Y4474200D01*
X2675000Y4499600D01*
X2624200Y4474200D01*
X2349200Y4349200D02*
X2374600Y4400000D01*
X2349200Y4450800D01*
X2400000Y4425400D01*
X2450800Y4450800D01*
X2425400Y4400000D01*
X2450800Y4349200D01*
X2400000Y4374600D01*
X2349200Y4349200D01*
Y4449200D02*
X2374600Y4500000D01*
X2349200Y4550800D01*
X2400000Y4525400D01*
X2450800Y4550800D01*
X2425400Y4500000D01*
X2450800Y4449200D01*
X2400000Y4474600D01*
X2349200Y4449200D01*
X2049200D02*
X2074600Y4500000D01*
X2049200Y4550800D01*
X2100000Y4525400D01*
X2150800Y4550800D01*
X2125400Y4500000D01*
X2150800Y4449200D01*
X2100000Y4474600D01*
X2049200Y4449200D01*
X2149200D02*
X2174600Y4500000D01*
X2149200Y4550800D01*
X2200000Y4525400D01*
X2250800Y4550800D01*
X2225400Y4500000D01*
X2250800Y4449200D01*
X2200000Y4474600D01*
X2149200Y4449200D01*
X2249200D02*
X2274600Y4500000D01*
X2249200Y4550800D01*
X2300000Y4525400D01*
X2350800Y4550800D01*
X2325400Y4500000D01*
X2350800Y4449200D01*
X2300000Y4474600D01*
X2249200Y4449200D01*
X2049200Y4349200D02*
X2074600Y4400000D01*
X2049200Y4450800D01*
X2100000Y4425400D01*
X2150800Y4450800D01*
X2125400Y4400000D01*
X2150800Y4349200D01*
X2100000Y4374600D01*
X2049200Y4349200D01*
X2149200D02*
X2174600Y4400000D01*
X2149200Y4450800D01*
X2200000Y4425400D01*
X2250800Y4450800D01*
X2225400Y4400000D01*
X2250800Y4349200D01*
X2200000Y4374600D01*
X2149200Y4349200D01*
X2249200D02*
X2274600Y4400000D01*
X2249200Y4450800D01*
X2300000Y4425400D01*
X2350800Y4450800D01*
X2325400Y4400000D01*
X2350800Y4349200D01*
X2300000Y4374600D01*
X2249200Y4349200D01*
X3224200Y4799200D02*
X3249600Y4850000D01*
X3224200Y4900800D01*
X3275000Y4875400D01*
X3325800Y4900800D01*
X3300400Y4850000D01*
X3325800Y4799200D01*
X3275000Y4824600D01*
X3224200Y4799200D01*
X3124200D02*
X3149600Y4850000D01*
X3124200Y4900800D01*
X3175000Y4875400D01*
X3225800Y4900800D01*
X3200400Y4850000D01*
X3225800Y4799200D01*
X3175000Y4824600D01*
X3124200Y4799200D01*
X3024200D02*
X3049600Y4850000D01*
X3024200Y4900800D01*
X3075000Y4875400D01*
X3125800Y4900800D01*
X3100400Y4850000D01*
X3125800Y4799200D01*
X3075000Y4824600D01*
X3024200Y4799200D01*
X2924200D02*
X2949600Y4850000D01*
X2924200Y4900800D01*
X2975000Y4875400D01*
X3025800Y4900800D01*
X3000400Y4850000D01*
X3025800Y4799200D01*
X2975000Y4824600D01*
X2924200Y4799200D01*
X2824200D02*
X2849600Y4850000D01*
X2824200Y4900800D01*
X2875000Y4875400D01*
X2925800Y4900800D01*
X2900400Y4850000D01*
X2925800Y4799200D01*
X2875000Y4824600D01*
X2824200Y4799200D01*
X2724200D02*
X2749600Y4850000D01*
X2724200Y4900800D01*
X2775000Y4875400D01*
X2825800Y4900800D01*
X2800400Y4850000D01*
X2825800Y4799200D01*
X2775000Y4824600D01*
X2724200Y4799200D01*
X2624200D02*
X2649600Y4850000D01*
X2624200Y4900800D01*
X2675000Y4875400D01*
X2725800Y4900800D01*
X2700400Y4850000D01*
X2725800Y4799200D01*
X2675000Y4824600D01*
X2624200Y4799200D01*
X2524200D02*
X2549600Y4850000D01*
X2524200Y4900800D01*
X2575000Y4875400D01*
X2625800Y4900800D01*
X2600400Y4850000D01*
X2625800Y4799200D01*
X2575000Y4824600D01*
X2524200Y4799200D01*
X2424200D02*
X2449600Y4850000D01*
X2424200Y4900800D01*
X2475000Y4875400D01*
X2525800Y4900800D01*
X2500400Y4850000D01*
X2525800Y4799200D01*
X2475000Y4824600D01*
X2424200Y4799200D01*
X2324200D02*
X2349600Y4850000D01*
X2324200Y4900800D01*
X2375000Y4875400D01*
X2425800Y4900800D01*
X2400400Y4850000D01*
X2425800Y4799200D01*
X2375000Y4824600D01*
X2324200Y4799200D01*
X2224200D02*
X2249600Y4850000D01*
X2224200Y4900800D01*
X2275000Y4875400D01*
X2325800Y4900800D01*
X2300400Y4850000D01*
X2325800Y4799200D01*
X2275000Y4824600D01*
X2224200Y4799200D01*
X2124200D02*
X2149600Y4850000D01*
X2124200Y4900800D01*
X2175000Y4875400D01*
X2225800Y4900800D01*
X2200400Y4850000D01*
X2225800Y4799200D01*
X2175000Y4824600D01*
X2124200Y4799200D01*
X2024200D02*
X2049600Y4850000D01*
X2024200Y4900800D01*
X2075000Y4875400D01*
X2125800Y4900800D01*
X2100400Y4850000D01*
X2125800Y4799200D01*
X2075000Y4824600D01*
X2024200Y4799200D01*
X1924200D02*
X1949600Y4850000D01*
X1924200Y4900800D01*
X1975000Y4875400D01*
X2025800Y4900800D01*
X2000400Y4850000D01*
X2025800Y4799200D01*
X1975000Y4824600D01*
X1924200Y4799200D01*
X1824200D02*
X1849600Y4850000D01*
X1824200Y4900800D01*
X1875000Y4875400D01*
X1925800Y4900800D01*
X1900400Y4850000D01*
X1925800Y4799200D01*
X1875000Y4824600D01*
X1824200Y4799200D01*
X1724200D02*
X1749600Y4850000D01*
X1724200Y4900800D01*
X1775000Y4875400D01*
X1825800Y4900800D01*
X1800400Y4850000D01*
X1825800Y4799200D01*
X1775000Y4824600D01*
X1724200Y4799200D01*
X1624200D02*
X1649600Y4850000D01*
X1624200Y4900800D01*
X1675000Y4875400D01*
X1725800Y4900800D01*
X1700400Y4850000D01*
X1725800Y4799200D01*
X1675000Y4824600D01*
X1624200Y4799200D01*
X1524200D02*
X1549600Y4850000D01*
X1524200Y4900800D01*
X1575000Y4875400D01*
X1625800Y4900800D01*
X1600400Y4850000D01*
X1625800Y4799200D01*
X1575000Y4824600D01*
X1524200Y4799200D01*
X1424200D02*
X1449600Y4850000D01*
X1424200Y4900800D01*
X1475000Y4875400D01*
X1525800Y4900800D01*
X1500400Y4850000D01*
X1525800Y4799200D01*
X1475000Y4824600D01*
X1424200Y4799200D01*
X1324200D02*
X1349600Y4850000D01*
X1324200Y4900800D01*
X1375000Y4875400D01*
X1425800Y4900800D01*
X1400400Y4850000D01*
X1425800Y4799200D01*
X1375000Y4824600D01*
X1324200Y4799200D01*
X1224200D02*
X1249600Y4850000D01*
X1224200Y4900800D01*
X1275000Y4875400D01*
X1325800Y4900800D01*
X1300400Y4850000D01*
X1325800Y4799200D01*
X1275000Y4824600D01*
X1224200Y4799200D01*
X2824200Y4549200D02*
X2849600Y4600000D01*
X2824200Y4650800D01*
X2875000Y4625400D01*
X2925800Y4650800D01*
X2900400Y4600000D01*
X2925800Y4549200D01*
X2875000Y4574600D01*
X2824200Y4549200D01*
X2724200D02*
X2749600Y4600000D01*
X2724200Y4650800D01*
X2775000Y4625400D01*
X2825800Y4650800D01*
X2800400Y4600000D01*
X2825800Y4549200D01*
X2775000Y4574600D01*
X2724200Y4549200D01*
X2624200D02*
X2649600Y4600000D01*
X2624200Y4650800D01*
X2675000Y4625400D01*
X2725800Y4650800D01*
X2700400Y4600000D01*
X2725800Y4549200D01*
X2675000Y4574600D01*
X2624200Y4549200D01*
X2524200D02*
X2549600Y4600000D01*
X2524200Y4650800D01*
X2575000Y4625400D01*
X2625800Y4650800D01*
X2600400Y4600000D01*
X2625800Y4549200D01*
X2575000Y4574600D01*
X2524200Y4549200D01*
X2424200D02*
X2449600Y4600000D01*
X2424200Y4650800D01*
X2475000Y4625400D01*
X2525800Y4650800D01*
X2500400Y4600000D01*
X2525800Y4549200D01*
X2475000Y4574600D01*
X2424200Y4549200D01*
X2324200D02*
X2349600Y4600000D01*
X2324200Y4650800D01*
X2375000Y4625400D01*
X2425800Y4650800D01*
X2400400Y4600000D01*
X2425800Y4549200D01*
X2375000Y4574600D01*
X2324200Y4549200D01*
X2224200D02*
X2249600Y4600000D01*
X2224200Y4650800D01*
X2275000Y4625400D01*
X2325800Y4650800D01*
X2300400Y4600000D01*
X2325800Y4549200D01*
X2275000Y4574600D01*
X2224200Y4549200D01*
X1949200Y4349200D02*
X1974600Y4400000D01*
X1949200Y4450800D01*
X2000000Y4425400D01*
X2050800Y4450800D01*
X2025400Y4400000D01*
X2050800Y4349200D01*
X2000000Y4374600D01*
X1949200Y4349200D01*
X1849200D02*
X1874600Y4400000D01*
X1849200Y4450800D01*
X1900000Y4425400D01*
X1950800Y4450800D01*
X1925400Y4400000D01*
X1950800Y4349200D01*
X1900000Y4374600D01*
X1849200Y4349200D01*
X1749200D02*
X1774600Y4400000D01*
X1749200Y4450800D01*
X1800000Y4425400D01*
X1850800Y4450800D01*
X1825400Y4400000D01*
X1850800Y4349200D01*
X1800000Y4374600D01*
X1749200Y4349200D01*
X1649200D02*
X1674600Y4400000D01*
X1649200Y4450800D01*
X1700000Y4425400D01*
X1750800Y4450800D01*
X1725400Y4400000D01*
X1750800Y4349200D01*
X1700000Y4374600D01*
X1649200Y4349200D01*
X1549200D02*
X1574600Y4400000D01*
X1549200Y4450800D01*
X1600000Y4425400D01*
X1650800Y4450800D01*
X1625400Y4400000D01*
X1650800Y4349200D01*
X1600000Y4374600D01*
X1549200Y4349200D01*
X1449200D02*
X1474600Y4400000D01*
X1449200Y4450800D01*
X1500000Y4425400D01*
X1550800Y4450800D01*
X1525400Y4400000D01*
X1550800Y4349200D01*
X1500000Y4374600D01*
X1449200Y4349200D01*
X1349200D02*
X1374600Y4400000D01*
X1349200Y4450800D01*
X1400000Y4425400D01*
X1450800Y4450800D01*
X1425400Y4400000D01*
X1450800Y4349200D01*
X1400000Y4374600D01*
X1349200Y4349200D01*
X1949200Y4449200D02*
X1974600Y4500000D01*
X1949200Y4550800D01*
X2000000Y4525400D01*
X2050800Y4550800D01*
X2025400Y4500000D01*
X2050800Y4449200D01*
X2000000Y4474600D01*
X1949200Y4449200D01*
X1849200D02*
X1874600Y4500000D01*
X1849200Y4550800D01*
X1900000Y4525400D01*
X1950800Y4550800D01*
X1925400Y4500000D01*
X1950800Y4449200D01*
X1900000Y4474600D01*
X1849200Y4449200D01*
X1749200D02*
X1774600Y4500000D01*
X1749200Y4550800D01*
X1800000Y4525400D01*
X1850800Y4550800D01*
X1825400Y4500000D01*
X1850800Y4449200D01*
X1800000Y4474600D01*
X1749200Y4449200D01*
X1649200D02*
X1674600Y4500000D01*
X1649200Y4550800D01*
X1700000Y4525400D01*
X1750800Y4550800D01*
X1725400Y4500000D01*
X1750800Y4449200D01*
X1700000Y4474600D01*
X1649200Y4449200D01*
X1549200D02*
X1574600Y4500000D01*
X1549200Y4550800D01*
X1600000Y4525400D01*
X1650800Y4550800D01*
X1625400Y4500000D01*
X1650800Y4449200D01*
X1600000Y4474600D01*
X1549200Y4449200D01*
X1449200D02*
X1474600Y4500000D01*
X1449200Y4550800D01*
X1500000Y4525400D01*
X1550800Y4550800D01*
X1525400Y4500000D01*
X1550800Y4449200D01*
X1500000Y4474600D01*
X1449200Y4449200D01*
X1349200D02*
X1374600Y4500000D01*
X1349200Y4550800D01*
X1400000Y4525400D01*
X1450800Y4550800D01*
X1425400Y4500000D01*
X1450800Y4449200D01*
X1400000Y4474600D01*
X1349200Y4449200D01*
X2124200Y4549200D02*
X2149600Y4600000D01*
X2124200Y4650800D01*
X2175000Y4625400D01*
X2225800Y4650800D01*
X2200400Y4600000D01*
X2225800Y4549200D01*
X2175000Y4574600D01*
X2124200Y4549200D01*
X2024200D02*
X2049600Y4600000D01*
X2024200Y4650800D01*
X2075000Y4625400D01*
X2125800Y4650800D01*
X2100400Y4600000D01*
X2125800Y4549200D01*
X2075000Y4574600D01*
X2024200Y4549200D01*
X1924200D02*
X1949600Y4600000D01*
X1924200Y4650800D01*
X1975000Y4625400D01*
X2025800Y4650800D01*
X2000400Y4600000D01*
X2025800Y4549200D01*
X1975000Y4574600D01*
X1924200Y4549200D01*
X1824200D02*
X1849600Y4600000D01*
X1824200Y4650800D01*
X1875000Y4625400D01*
X1925800Y4650800D01*
X1900400Y4600000D01*
X1925800Y4549200D01*
X1875000Y4574600D01*
X1824200Y4549200D01*
X1724200D02*
X1749600Y4600000D01*
X1724200Y4650800D01*
X1775000Y4625400D01*
X1825800Y4650800D01*
X1800400Y4600000D01*
X1825800Y4549200D01*
X1775000Y4574600D01*
X1724200Y4549200D01*
X1624200D02*
X1649600Y4600000D01*
X1624200Y4650800D01*
X1675000Y4625400D01*
X1725800Y4650800D01*
X1700400Y4600000D01*
X1725800Y4549200D01*
X1675000Y4574600D01*
X1624200Y4549200D01*
X1524200D02*
X1549600Y4600000D01*
X1524200Y4650800D01*
X1575000Y4625400D01*
X1625800Y4650800D01*
X1600400Y4600000D01*
X1625800Y4549200D01*
X1575000Y4574600D01*
X1524200Y4549200D01*
X1099200Y3849200D02*
X1124600Y3900000D01*
X1099200Y3950800D01*
X1150000Y3925400D01*
X1200800Y3950800D01*
X1175400Y3900000D01*
X1200800Y3849200D01*
X1150000Y3874600D01*
X1099200Y3849200D01*
X999200D02*
X1024600Y3900000D01*
X999200Y3950800D01*
X1050000Y3925400D01*
X1100800Y3950800D01*
X1075400Y3900000D01*
X1100800Y3849200D01*
X1050000Y3874600D01*
X999200Y3849200D01*
X799200D02*
X824600Y3900000D01*
X799200Y3950800D01*
X850000Y3925400D01*
X900800Y3950800D01*
X875400Y3900000D01*
X900800Y3849200D01*
X850000Y3874600D01*
X799200Y3849200D01*
X699200D02*
X724600Y3900000D01*
X699200Y3950800D01*
X750000Y3925400D01*
X800800Y3950800D01*
X775400Y3900000D01*
X800800Y3849200D01*
X750000Y3874600D01*
X699200Y3849200D01*
X599200D02*
X624600Y3900000D01*
X599200Y3950800D01*
X650000Y3925400D01*
X700800Y3950800D01*
X675400Y3900000D01*
X700800Y3849200D01*
X650000Y3874600D01*
X599200Y3849200D01*
X499200Y3774200D02*
X524600Y3825000D01*
X499200Y3875800D01*
X550000Y3850400D01*
X600800Y3875800D01*
X575400Y3825000D01*
X600800Y3774200D01*
X550000Y3799600D01*
X499200Y3774200D01*
X599200D02*
X624600Y3825000D01*
X599200Y3875800D01*
X650000Y3850400D01*
X700800Y3875800D01*
X675400Y3825000D01*
X700800Y3774200D01*
X650000Y3799600D01*
X599200Y3774200D01*
X699200D02*
X724600Y3825000D01*
X699200Y3875800D01*
X750000Y3850400D01*
X800800Y3875800D01*
X775400Y3825000D01*
X800800Y3774200D01*
X750000Y3799600D01*
X699200Y3774200D01*
X799200D02*
X824600Y3825000D01*
X799200Y3875800D01*
X850000Y3850400D01*
X900800Y3875800D01*
X875400Y3825000D01*
X900800Y3774200D01*
X850000Y3799600D01*
X799200Y3774200D01*
X899200D02*
X924600Y3825000D01*
X899200Y3875800D01*
X950000Y3850400D01*
X1000800Y3875800D01*
X975400Y3825000D01*
X1000800Y3774200D01*
X950000Y3799600D01*
X899200Y3774200D01*
X999200D02*
X1024600Y3825000D01*
X999200Y3875800D01*
X1050000Y3850400D01*
X1100800Y3875800D01*
X1075400Y3825000D01*
X1100800Y3774200D01*
X1050000Y3799600D01*
X999200Y3774200D01*
X1099200D02*
X1124600Y3825000D01*
X1099200Y3875800D01*
X1150000Y3850400D01*
X1200800Y3875800D01*
X1175400Y3825000D01*
X1200800Y3774200D01*
X1150000Y3799600D01*
X1099200Y3774200D01*
X499200Y4299200D02*
X524600Y4350000D01*
X499200Y4400800D01*
X550000Y4375400D01*
X600800Y4400800D01*
X575400Y4350000D01*
X600800Y4299200D01*
X550000Y4324600D01*
X499200Y4299200D01*
X599200D02*
X624600Y4350000D01*
X599200Y4400800D01*
X650000Y4375400D01*
X700800Y4400800D01*
X675400Y4350000D01*
X700800Y4299200D01*
X650000Y4324600D01*
X599200Y4299200D01*
X699200D02*
X724600Y4350000D01*
X699200Y4400800D01*
X750000Y4375400D01*
X800800Y4400800D01*
X775400Y4350000D01*
X800800Y4299200D01*
X750000Y4324600D01*
X699200Y4299200D01*
X799200D02*
X824600Y4350000D01*
X799200Y4400800D01*
X850000Y4375400D01*
X900800Y4400800D01*
X875400Y4350000D01*
X900800Y4299200D01*
X850000Y4324600D01*
X799200Y4299200D01*
X899200D02*
X924600Y4350000D01*
X899200Y4400800D01*
X950000Y4375400D01*
X1000800Y4400800D01*
X975400Y4350000D01*
X1000800Y4299200D01*
X950000Y4324600D01*
X899200Y4299200D01*
X999200D02*
X1024600Y4350000D01*
X999200Y4400800D01*
X1050000Y4375400D01*
X1100800Y4400800D01*
X1075400Y4350000D01*
X1100800Y4299200D01*
X1050000Y4324600D01*
X999200Y4299200D01*
X1099200D02*
X1124600Y4350000D01*
X1099200Y4400800D01*
X1150000Y4375400D01*
X1200800Y4400800D01*
X1175400Y4350000D01*
X1200800Y4299200D01*
X1150000Y4324600D01*
X1099200Y4299200D01*
X499200Y4224200D02*
X524600Y4275000D01*
X499200Y4325800D01*
X550000Y4300400D01*
X600800Y4325800D01*
X575400Y4275000D01*
X600800Y4224200D01*
X550000Y4249600D01*
X499200Y4224200D01*
X599200D02*
X624600Y4275000D01*
X599200Y4325800D01*
X650000Y4300400D01*
X700800Y4325800D01*
X675400Y4275000D01*
X700800Y4224200D01*
X650000Y4249600D01*
X599200Y4224200D01*
X699200D02*
X724600Y4275000D01*
X699200Y4325800D01*
X750000Y4300400D01*
X800800Y4325800D01*
X775400Y4275000D01*
X800800Y4224200D01*
X750000Y4249600D01*
X699200Y4224200D01*
X799200D02*
X824600Y4275000D01*
X799200Y4325800D01*
X850000Y4300400D01*
X900800Y4325800D01*
X875400Y4275000D01*
X900800Y4224200D01*
X850000Y4249600D01*
X799200Y4224200D01*
X899200D02*
X924600Y4275000D01*
X899200Y4325800D01*
X950000Y4300400D01*
X1000800Y4325800D01*
X975400Y4275000D01*
X1000800Y4224200D01*
X950000Y4249600D01*
X899200Y4224200D01*
X999200D02*
X1024600Y4275000D01*
X999200Y4325800D01*
X1050000Y4300400D01*
X1100800Y4325800D01*
X1075400Y4275000D01*
X1100800Y4224200D01*
X1050000Y4249600D01*
X999200Y4224200D01*
X1099200D02*
X1124600Y4275000D01*
X1099200Y4325800D01*
X1150000Y4300400D01*
X1200800Y4325800D01*
X1175400Y4275000D01*
X1200800Y4224200D01*
X1150000Y4249600D01*
X1099200Y4224200D01*
X606700Y3926700D02*
X632100Y3977500D01*
X606700Y4028300D01*
X657500Y4002900D01*
X708300Y4028300D01*
X682900Y3977500D01*
X708300Y3926700D01*
X657500Y3952100D01*
X606700Y3926700D01*
X706700D02*
X732100Y3977500D01*
X706700Y4028300D01*
X757500Y4002900D01*
X808300Y4028300D01*
X782900Y3977500D01*
X808300Y3926700D01*
X757500Y3952100D01*
X706700Y3926700D01*
X806700D02*
X832100Y3977500D01*
X806700Y4028300D01*
X857500Y4002900D01*
X908300Y4028300D01*
X882900Y3977500D01*
X908300Y3926700D01*
X857500Y3952100D01*
X806700Y3926700D01*
X1006700D02*
X1032100Y3977500D01*
X1006700Y4028300D01*
X1057500Y4002900D01*
X1108300Y4028300D01*
X1082900Y3977500D01*
X1108300Y3926700D01*
X1057500Y3952100D01*
X1006700Y3926700D01*
X1106700D02*
X1132100Y3977500D01*
X1106700Y4028300D01*
X1157500Y4002900D01*
X1208300Y4028300D01*
X1182900Y3977500D01*
X1208300Y3926700D01*
X1157500Y3952100D01*
X1106700Y3926700D01*
X1601700Y3884200D02*
X1627100Y3935000D01*
X1601700Y3985800D01*
X1652500Y3960400D01*
X1703300Y3985800D01*
X1677900Y3935000D01*
X1703300Y3884200D01*
X1652500Y3909600D01*
X1601700Y3884200D01*
X1701700D02*
X1727100Y3935000D01*
X1701700Y3985800D01*
X1752500Y3960400D01*
X1803300Y3985800D01*
X1777900Y3935000D01*
X1803300Y3884200D01*
X1752500Y3909600D01*
X1701700Y3884200D01*
X1801700D02*
X1827100Y3935000D01*
X1801700Y3985800D01*
X1852500Y3960400D01*
X1903300Y3985800D01*
X1877900Y3935000D01*
X1903300Y3884200D01*
X1852500Y3909600D01*
X1801700Y3884200D01*
X1901700D02*
X1927100Y3935000D01*
X1901700Y3985800D01*
X1952500Y3960400D01*
X2003300Y3985800D01*
X1977900Y3935000D01*
X2003300Y3884200D01*
X1952500Y3909600D01*
X1901700Y3884200D01*
X2001700D02*
X2027100Y3935000D01*
X2001700Y3985800D01*
X2052500Y3960400D01*
X2103300Y3985800D01*
X2077900Y3935000D01*
X2103300Y3884200D01*
X2052500Y3909600D01*
X2001700Y3884200D01*
X2101700D02*
X2127100Y3935000D01*
X2101700Y3985800D01*
X2152500Y3960400D01*
X2203300Y3985800D01*
X2177900Y3935000D01*
X2203300Y3884200D01*
X2152500Y3909600D01*
X2101700Y3884200D01*
X1599200Y4174200D02*
X1624600Y4225000D01*
X1599200Y4275800D01*
X1650000Y4250400D01*
X1700800Y4275800D01*
X1675400Y4225000D01*
X1700800Y4174200D01*
X1650000Y4199600D01*
X1599200Y4174200D01*
X1699200D02*
X1724600Y4225000D01*
X1699200Y4275800D01*
X1750000Y4250400D01*
X1800800Y4275800D01*
X1775400Y4225000D01*
X1800800Y4174200D01*
X1750000Y4199600D01*
X1699200Y4174200D01*
X1799200D02*
X1824600Y4225000D01*
X1799200Y4275800D01*
X1850000Y4250400D01*
X1900800Y4275800D01*
X1875400Y4225000D01*
X1900800Y4174200D01*
X1850000Y4199600D01*
X1799200Y4174200D01*
X1899200D02*
X1924600Y4225000D01*
X1899200Y4275800D01*
X1950000Y4250400D01*
X2000800Y4275800D01*
X1975400Y4225000D01*
X2000800Y4174200D01*
X1950000Y4199600D01*
X1899200Y4174200D01*
X1999200D02*
X2024600Y4225000D01*
X1999200Y4275800D01*
X2050000Y4250400D01*
X2100800Y4275800D01*
X2075400Y4225000D01*
X2100800Y4174200D01*
X2050000Y4199600D01*
X1999200Y4174200D01*
X2099200D02*
X2124600Y4225000D01*
X2099200Y4275800D01*
X2150000Y4250400D01*
X2200800Y4275800D01*
X2175400Y4225000D01*
X2200800Y4174200D01*
X2150000Y4199600D01*
X2099200Y4174200D01*
X2199200D02*
X2224600Y4225000D01*
X2199200Y4275800D01*
X2250000Y4250400D01*
X2300800Y4275800D01*
X2275400Y4225000D01*
X2300800Y4174200D01*
X2250000Y4199600D01*
X2199200Y4174200D01*
X1599200Y4099200D02*
X1624600Y4150000D01*
X1599200Y4200800D01*
X1650000Y4175400D01*
X1700800Y4200800D01*
X1675400Y4150000D01*
X1700800Y4099200D01*
X1650000Y4124600D01*
X1599200Y4099200D01*
X1699200D02*
X1724600Y4150000D01*
X1699200Y4200800D01*
X1750000Y4175400D01*
X1800800Y4200800D01*
X1775400Y4150000D01*
X1800800Y4099200D01*
X1750000Y4124600D01*
X1699200Y4099200D01*
X1799200D02*
X1824600Y4150000D01*
X1799200Y4200800D01*
X1850000Y4175400D01*
X1900800Y4200800D01*
X1875400Y4150000D01*
X1900800Y4099200D01*
X1850000Y4124600D01*
X1799200Y4099200D01*
X1899200D02*
X1924600Y4150000D01*
X1899200Y4200800D01*
X1950000Y4175400D01*
X2000800Y4200800D01*
X1975400Y4150000D01*
X2000800Y4099200D01*
X1950000Y4124600D01*
X1899200Y4099200D01*
X1999200D02*
X2024600Y4150000D01*
X1999200Y4200800D01*
X2050000Y4175400D01*
X2100800Y4200800D01*
X2075400Y4150000D01*
X2100800Y4099200D01*
X2050000Y4124600D01*
X1999200Y4099200D01*
X2099200D02*
X2124600Y4150000D01*
X2099200Y4200800D01*
X2150000Y4175400D01*
X2200800Y4200800D01*
X2175400Y4150000D01*
X2200800Y4099200D01*
X2150000Y4124600D01*
X2099200Y4099200D01*
X2199200D02*
X2224600Y4150000D01*
X2199200Y4200800D01*
X2250000Y4175400D01*
X2300800Y4200800D01*
X2275400Y4150000D01*
X2300800Y4099200D01*
X2250000Y4124600D01*
X2199200Y4099200D01*
X1099200Y4149200D02*
X1124600Y4200000D01*
X1099200Y4250800D01*
X1150000Y4225400D01*
X1200800Y4250800D01*
X1175400Y4200000D01*
X1200800Y4149200D01*
X1150000Y4174600D01*
X1099200Y4149200D01*
X999200D02*
X1024600Y4200000D01*
X999200Y4250800D01*
X1050000Y4225400D01*
X1100800Y4250800D01*
X1075400Y4200000D01*
X1100800Y4149200D01*
X1050000Y4174600D01*
X999200Y4149200D01*
X899200D02*
X924600Y4200000D01*
X899200Y4250800D01*
X950000Y4225400D01*
X1000800Y4250800D01*
X975400Y4200000D01*
X1000800Y4149200D01*
X950000Y4174600D01*
X899200Y4149200D01*
X799200D02*
X824600Y4200000D01*
X799200Y4250800D01*
X850000Y4225400D01*
X900800Y4250800D01*
X875400Y4200000D01*
X900800Y4149200D01*
X850000Y4174600D01*
X799200Y4149200D01*
X699200D02*
X724600Y4200000D01*
X699200Y4250800D01*
X750000Y4225400D01*
X800800Y4250800D01*
X775400Y4200000D01*
X800800Y4149200D01*
X750000Y4174600D01*
X699200Y4149200D01*
X599200D02*
X624600Y4200000D01*
X599200Y4250800D01*
X650000Y4225400D01*
X700800Y4250800D01*
X675400Y4200000D01*
X700800Y4149200D01*
X650000Y4174600D01*
X599200Y4149200D01*
X499200D02*
X524600Y4200000D01*
X499200Y4250800D01*
X550000Y4225400D01*
X600800Y4250800D01*
X575400Y4200000D01*
X600800Y4149200D01*
X550000Y4174600D01*
X499200Y4149200D01*
X6949200Y2699200D02*
X6974600Y2750000D01*
X6949200Y2800800D01*
X7000000Y2775400D01*
X7050800Y2800800D01*
X7025400Y2750000D01*
X7050800Y2699200D01*
X7000000Y2724600D01*
X6949200Y2699200D01*
X6449200D02*
X6474600Y2750000D01*
X6449200Y2800800D01*
X6500000Y2775400D01*
X6550800Y2800800D01*
X6525400Y2750000D01*
X6550800Y2699200D01*
X6500000Y2724600D01*
X6449200Y2699200D01*
X6199200D02*
X6224600Y2750000D01*
X6199200Y2800800D01*
X6250000Y2775400D01*
X6300800Y2800800D01*
X6275400Y2750000D01*
X6300800Y2699200D01*
X6250000Y2724600D01*
X6199200Y2699200D01*
X5949200D02*
X5974600Y2750000D01*
X5949200Y2800800D01*
X6000000Y2775400D01*
X6050800Y2800800D01*
X6025400Y2750000D01*
X6050800Y2699200D01*
X6000000Y2724600D01*
X5949200Y2699200D01*
X5449200D02*
X5474600Y2750000D01*
X5449200Y2800800D01*
X5500000Y2775400D01*
X5550800Y2800800D01*
X5525400Y2750000D01*
X5550800Y2699200D01*
X5500000Y2724600D01*
X5449200Y2699200D01*
X5699200D02*
X5724600Y2750000D01*
X5699200Y2800800D01*
X5750000Y2775400D01*
X5800800Y2800800D01*
X5775400Y2750000D01*
X5800800Y2699200D01*
X5750000Y2724600D01*
X5699200Y2699200D01*
X5199200D02*
X5224600Y2750000D01*
X5199200Y2800800D01*
X5250000Y2775400D01*
X5300800Y2800800D01*
X5275400Y2750000D01*
X5300800Y2699200D01*
X5250000Y2724600D01*
X5199200Y2699200D01*
X4949200D02*
X4974600Y2750000D01*
X4949200Y2800800D01*
X5000000Y2775400D01*
X5050800Y2800800D01*
X5025400Y2750000D01*
X5050800Y2699200D01*
X5000000Y2724600D01*
X4949200Y2699200D01*
X4699200D02*
X4724600Y2750000D01*
X4699200Y2800800D01*
X4750000Y2775400D01*
X4800800Y2800800D01*
X4775400Y2750000D01*
X4800800Y2699200D01*
X4750000Y2724600D01*
X4699200Y2699200D01*
X4449200D02*
X4474600Y2750000D01*
X4449200Y2800800D01*
X4500000Y2775400D01*
X4550800Y2800800D01*
X4525400Y2750000D01*
X4550800Y2699200D01*
X4500000Y2724600D01*
X4449200Y2699200D01*
X4199200D02*
X4224600Y2750000D01*
X4199200Y2800800D01*
X4250000Y2775400D01*
X4300800Y2800800D01*
X4275400Y2750000D01*
X4300800Y2699200D01*
X4250000Y2724600D01*
X4199200Y2699200D01*
X3949200D02*
X3974600Y2750000D01*
X3949200Y2800800D01*
X4000000Y2775400D01*
X4050800Y2800800D01*
X4025400Y2750000D01*
X4050800Y2699200D01*
X4000000Y2724600D01*
X3949200Y2699200D01*
X3699200D02*
X3724600Y2750000D01*
X3699200Y2800800D01*
X3750000Y2775400D01*
X3800800Y2800800D01*
X3775400Y2750000D01*
X3800800Y2699200D01*
X3750000Y2724600D01*
X3699200Y2699200D01*
X3449200D02*
X3474600Y2750000D01*
X3449200Y2800800D01*
X3500000Y2775400D01*
X3550800Y2800800D01*
X3525400Y2750000D01*
X3550800Y2699200D01*
X3500000Y2724600D01*
X3449200Y2699200D01*
X3199200D02*
X3224600Y2750000D01*
X3199200Y2800800D01*
X3250000Y2775400D01*
X3300800Y2800800D01*
X3275400Y2750000D01*
X3300800Y2699200D01*
X3250000Y2724600D01*
X3199200Y2699200D01*
X2949200D02*
X2974600Y2750000D01*
X2949200Y2800800D01*
X3000000Y2775400D01*
X3050800Y2800800D01*
X3025400Y2750000D01*
X3050800Y2699200D01*
X3000000Y2724600D01*
X2949200Y2699200D01*
X2699200D02*
X2724600Y2750000D01*
X2699200Y2800800D01*
X2750000Y2775400D01*
X2800800Y2800800D01*
X2775400Y2750000D01*
X2800800Y2699200D01*
X2750000Y2724600D01*
X2699200Y2699200D01*
X2449200D02*
X2474600Y2750000D01*
X2449200Y2800800D01*
X2500000Y2775400D01*
X2550800Y2800800D01*
X2525400Y2750000D01*
X2550800Y2699200D01*
X2500000Y2724600D01*
X2449200Y2699200D01*
X7449200Y2449200D02*
X7474600Y2500000D01*
X7449200Y2550800D01*
X7500000Y2525400D01*
X7550800Y2550800D01*
X7525400Y2500000D01*
X7550800Y2449200D01*
X7500000Y2474600D01*
X7449200Y2449200D01*
X7199200D02*
X7224600Y2500000D01*
X7199200Y2550800D01*
X7250000Y2525400D01*
X7300800Y2550800D01*
X7275400Y2500000D01*
X7300800Y2449200D01*
X7250000Y2474600D01*
X7199200Y2449200D01*
X6949200D02*
X6974600Y2500000D01*
X6949200Y2550800D01*
X7000000Y2525400D01*
X7050800Y2550800D01*
X7025400Y2500000D01*
X7050800Y2449200D01*
X7000000Y2474600D01*
X6949200Y2449200D01*
X6449200Y2199200D02*
X6474600Y2250000D01*
X6449200Y2300800D01*
X6500000Y2275400D01*
X6550800Y2300800D01*
X6525400Y2250000D01*
X6550800Y2199200D01*
X6500000Y2224600D01*
X6449200Y2199200D01*
X5949200D02*
X5974600Y2250000D01*
X5949200Y2300800D01*
X6000000Y2275400D01*
X6050800Y2300800D01*
X6025400Y2250000D01*
X6050800Y2199200D01*
X6000000Y2224600D01*
X5949200Y2199200D01*
X6199200D02*
X6224600Y2250000D01*
X6199200Y2300800D01*
X6250000Y2275400D01*
X6300800Y2300800D01*
X6275400Y2250000D01*
X6300800Y2199200D01*
X6250000Y2224600D01*
X6199200Y2199200D01*
X5699200D02*
X5724600Y2250000D01*
X5699200Y2300800D01*
X5750000Y2275400D01*
X5800800Y2300800D01*
X5775400Y2250000D01*
X5800800Y2199200D01*
X5750000Y2224600D01*
X5699200Y2199200D01*
X5449200D02*
X5474600Y2250000D01*
X5449200Y2300800D01*
X5500000Y2275400D01*
X5550800Y2300800D01*
X5525400Y2250000D01*
X5550800Y2199200D01*
X5500000Y2224600D01*
X5449200Y2199200D01*
X5199200D02*
X5224600Y2250000D01*
X5199200Y2300800D01*
X5250000Y2275400D01*
X5300800Y2300800D01*
X5275400Y2250000D01*
X5300800Y2199200D01*
X5250000Y2224600D01*
X5199200Y2199200D01*
X4949200D02*
X4974600Y2250000D01*
X4949200Y2300800D01*
X5000000Y2275400D01*
X5050800Y2300800D01*
X5025400Y2250000D01*
X5050800Y2199200D01*
X5000000Y2224600D01*
X4949200Y2199200D01*
X4699200D02*
X4724600Y2250000D01*
X4699200Y2300800D01*
X4750000Y2275400D01*
X4800800Y2300800D01*
X4775400Y2250000D01*
X4800800Y2199200D01*
X4750000Y2224600D01*
X4699200Y2199200D01*
X4449200D02*
X4474600Y2250000D01*
X4449200Y2300800D01*
X4500000Y2275400D01*
X4550800Y2300800D01*
X4525400Y2250000D01*
X4550800Y2199200D01*
X4500000Y2224600D01*
X4449200Y2199200D01*
X4199200D02*
X4224600Y2250000D01*
X4199200Y2300800D01*
X4250000Y2275400D01*
X4300800Y2300800D01*
X4275400Y2250000D01*
X4300800Y2199200D01*
X4250000Y2224600D01*
X4199200Y2199200D01*
X3949200D02*
X3974600Y2250000D01*
X3949200Y2300800D01*
X4000000Y2275400D01*
X4050800Y2300800D01*
X4025400Y2250000D01*
X4050800Y2199200D01*
X4000000Y2224600D01*
X3949200Y2199200D01*
X3699200D02*
X3724600Y2250000D01*
X3699200Y2300800D01*
X3750000Y2275400D01*
X3800800Y2300800D01*
X3775400Y2250000D01*
X3800800Y2199200D01*
X3750000Y2224600D01*
X3699200Y2199200D01*
X3449200D02*
X3474600Y2250000D01*
X3449200Y2300800D01*
X3500000Y2275400D01*
X3550800Y2300800D01*
X3525400Y2250000D01*
X3550800Y2199200D01*
X3500000Y2224600D01*
X3449200Y2199200D01*
X3199200D02*
X3224600Y2250000D01*
X3199200Y2300800D01*
X3250000Y2275400D01*
X3300800Y2300800D01*
X3275400Y2250000D01*
X3300800Y2199200D01*
X3250000Y2224600D01*
X3199200Y2199200D01*
X2699200D02*
X2724600Y2250000D01*
X2699200Y2300800D01*
X2750000Y2275400D01*
X2800800Y2300800D01*
X2775400Y2250000D01*
X2800800Y2199200D01*
X2750000Y2224600D01*
X2699200Y2199200D01*
X2949200D02*
X2974600Y2250000D01*
X2949200Y2300800D01*
X3000000Y2275400D01*
X3050800Y2300800D01*
X3025400Y2250000D01*
X3050800Y2199200D01*
X3000000Y2224600D01*
X2949200Y2199200D01*
X2199200Y2449200D02*
X2224600Y2500000D01*
X2199200Y2550800D01*
X2250000Y2525400D01*
X2300800Y2550800D01*
X2275400Y2500000D01*
X2300800Y2449200D01*
X2250000Y2474600D01*
X2199200Y2449200D01*
X2449200Y2199200D02*
X2474600Y2250000D01*
X2449200Y2300800D01*
X2500000Y2275400D01*
X2550800Y2300800D01*
X2525400Y2250000D01*
X2550800Y2199200D01*
X2500000Y2224600D01*
X2449200Y2199200D01*
X2199200D02*
X2224600Y2250000D01*
X2199200Y2300800D01*
X2250000Y2275400D01*
X2300800Y2300800D01*
X2275400Y2250000D01*
X2300800Y2199200D01*
X2250000Y2224600D01*
X2199200Y2199200D01*
X2449200Y1949200D02*
X2474600Y2000000D01*
X2449200Y2050800D01*
X2500000Y2025400D01*
X2550800Y2050800D01*
X2525400Y2000000D01*
X2550800Y1949200D01*
X2500000Y1974600D01*
X2449200Y1949200D01*
X2199200D02*
X2224600Y2000000D01*
X2199200Y2050800D01*
X2250000Y2025400D01*
X2300800Y2050800D01*
X2275400Y2000000D01*
X2300800Y1949200D01*
X2250000Y1974600D01*
X2199200Y1949200D01*
X699200Y3199200D02*
X724600Y3250000D01*
X699200Y3300800D01*
X750000Y3275400D01*
X800800Y3300800D01*
X775400Y3250000D01*
X800800Y3199200D01*
X750000Y3224600D01*
X699200Y3199200D01*
X949200D02*
X974600Y3250000D01*
X949200Y3300800D01*
X1000000Y3275400D01*
X1050800Y3300800D01*
X1025400Y3250000D01*
X1050800Y3199200D01*
X1000000Y3224600D01*
X949200Y3199200D01*
X1199200D02*
X1224600Y3250000D01*
X1199200Y3300800D01*
X1250000Y3275400D01*
X1300800Y3300800D01*
X1275400Y3250000D01*
X1300800Y3199200D01*
X1250000Y3224600D01*
X1199200Y3199200D01*
X1449200D02*
X1474600Y3250000D01*
X1449200Y3300800D01*
X1500000Y3275400D01*
X1550800Y3300800D01*
X1525400Y3250000D01*
X1550800Y3199200D01*
X1500000Y3224600D01*
X1449200Y3199200D01*
X1949200D02*
X1974600Y3250000D01*
X1949200Y3300800D01*
X2000000Y3275400D01*
X2050800Y3300800D01*
X2025400Y3250000D01*
X2050800Y3199200D01*
X2000000Y3224600D01*
X1949200Y3199200D01*
X699200Y2949200D02*
X724600Y3000000D01*
X699200Y3050800D01*
X750000Y3025400D01*
X800800Y3050800D01*
X775400Y3000000D01*
X800800Y2949200D01*
X750000Y2974600D01*
X699200Y2949200D01*
X949200D02*
X974600Y3000000D01*
X949200Y3050800D01*
X1000000Y3025400D01*
X1050800Y3050800D01*
X1025400Y3000000D01*
X1050800Y2949200D01*
X1000000Y2974600D01*
X949200Y2949200D01*
X1199200D02*
X1224600Y3000000D01*
X1199200Y3050800D01*
X1250000Y3025400D01*
X1300800Y3050800D01*
X1275400Y3000000D01*
X1300800Y2949200D01*
X1250000Y2974600D01*
X1199200Y2949200D01*
X1449200D02*
X1474600Y3000000D01*
X1449200Y3050800D01*
X1500000Y3025400D01*
X1550800Y3050800D01*
X1525400Y3000000D01*
X1550800Y2949200D01*
X1500000Y2974600D01*
X1449200Y2949200D01*
X1699200D02*
X1724600Y3000000D01*
X1699200Y3050800D01*
X1750000Y3025400D01*
X1800800Y3050800D01*
X1775400Y3000000D01*
X1800800Y2949200D01*
X1750000Y2974600D01*
X1699200Y2949200D01*
X699200Y2699200D02*
X724600Y2750000D01*
X699200Y2800800D01*
X750000Y2775400D01*
X800800Y2800800D01*
X775400Y2750000D01*
X800800Y2699200D01*
X750000Y2724600D01*
X699200Y2699200D01*
X949200D02*
X974600Y2750000D01*
X949200Y2800800D01*
X1000000Y2775400D01*
X1050800Y2800800D01*
X1025400Y2750000D01*
X1050800Y2699200D01*
X1000000Y2724600D01*
X949200Y2699200D01*
X1199200D02*
X1224600Y2750000D01*
X1199200Y2800800D01*
X1250000Y2775400D01*
X1300800Y2800800D01*
X1275400Y2750000D01*
X1300800Y2699200D01*
X1250000Y2724600D01*
X1199200Y2699200D01*
X1449200D02*
X1474600Y2750000D01*
X1449200Y2800800D01*
X1500000Y2775400D01*
X1550800Y2800800D01*
X1525400Y2750000D01*
X1550800Y2699200D01*
X1500000Y2724600D01*
X1449200Y2699200D01*
X1699200D02*
X1724600Y2750000D01*
X1699200Y2800800D01*
X1750000Y2775400D01*
X1800800Y2800800D01*
X1775400Y2750000D01*
X1800800Y2699200D01*
X1750000Y2724600D01*
X1699200Y2699200D01*
X1949200D02*
X1974600Y2750000D01*
X1949200Y2800800D01*
X2000000Y2775400D01*
X2050800Y2800800D01*
X2025400Y2750000D01*
X2050800Y2699200D01*
X2000000Y2724600D01*
X1949200Y2699200D01*
X699200Y2449200D02*
X724600Y2500000D01*
X699200Y2550800D01*
X750000Y2525400D01*
X800800Y2550800D01*
X775400Y2500000D01*
X800800Y2449200D01*
X750000Y2474600D01*
X699200Y2449200D01*
X949200D02*
X974600Y2500000D01*
X949200Y2550800D01*
X1000000Y2525400D01*
X1050800Y2550800D01*
X1025400Y2500000D01*
X1050800Y2449200D01*
X1000000Y2474600D01*
X949200Y2449200D01*
X1199200D02*
X1224600Y2500000D01*
X1199200Y2550800D01*
X1250000Y2525400D01*
X1300800Y2550800D01*
X1275400Y2500000D01*
X1300800Y2449200D01*
X1250000Y2474600D01*
X1199200Y2449200D01*
X1449200D02*
X1474600Y2500000D01*
X1449200Y2550800D01*
X1500000Y2525400D01*
X1550800Y2550800D01*
X1525400Y2500000D01*
X1550800Y2449200D01*
X1500000Y2474600D01*
X1449200Y2449200D01*
X1699200D02*
X1724600Y2500000D01*
X1699200Y2550800D01*
X1750000Y2525400D01*
X1800800Y2550800D01*
X1775400Y2500000D01*
X1800800Y2449200D01*
X1750000Y2474600D01*
X1699200Y2449200D01*
X1949200D02*
X1974600Y2500000D01*
X1949200Y2550800D01*
X2000000Y2525400D01*
X2050800Y2550800D01*
X2025400Y2500000D01*
X2050800Y2449200D01*
X2000000Y2474600D01*
X1949200Y2449200D01*
X699200Y2199200D02*
X724600Y2250000D01*
X699200Y2300800D01*
X750000Y2275400D01*
X800800Y2300800D01*
X775400Y2250000D01*
X800800Y2199200D01*
X750000Y2224600D01*
X699200Y2199200D01*
X949200D02*
X974600Y2250000D01*
X949200Y2300800D01*
X1000000Y2275400D01*
X1050800Y2300800D01*
X1025400Y2250000D01*
X1050800Y2199200D01*
X1000000Y2224600D01*
X949200Y2199200D01*
X1199200D02*
X1224600Y2250000D01*
X1199200Y2300800D01*
X1250000Y2275400D01*
X1300800Y2300800D01*
X1275400Y2250000D01*
X1300800Y2199200D01*
X1250000Y2224600D01*
X1199200Y2199200D01*
X1449200D02*
X1474600Y2250000D01*
X1449200Y2300800D01*
X1500000Y2275400D01*
X1550800Y2300800D01*
X1525400Y2250000D01*
X1550800Y2199200D01*
X1500000Y2224600D01*
X1449200Y2199200D01*
X1699200D02*
X1724600Y2250000D01*
X1699200Y2300800D01*
X1750000Y2275400D01*
X1800800Y2300800D01*
X1775400Y2250000D01*
X1800800Y2199200D01*
X1750000Y2224600D01*
X1699200Y2199200D01*
X1949200D02*
X1974600Y2250000D01*
X1949200Y2300800D01*
X2000000Y2275400D01*
X2050800Y2300800D01*
X2025400Y2250000D01*
X2050800Y2199200D01*
X2000000Y2224600D01*
X1949200Y2199200D01*
Y1949200D02*
X1974600Y2000000D01*
X1949200Y2050800D01*
X2000000Y2025400D01*
X2050800Y2050800D01*
X2025400Y2000000D01*
X2050800Y1949200D01*
X2000000Y1974600D01*
X1949200Y1949200D01*
X1699200D02*
X1724600Y2000000D01*
X1699200Y2050800D01*
X1750000Y2025400D01*
X1800800Y2050800D01*
X1775400Y2000000D01*
X1800800Y1949200D01*
X1750000Y1974600D01*
X1699200Y1949200D01*
X1449200D02*
X1474600Y2000000D01*
X1449200Y2050800D01*
X1500000Y2025400D01*
X1550800Y2050800D01*
X1525400Y2000000D01*
X1550800Y1949200D01*
X1500000Y1974600D01*
X1449200Y1949200D01*
X1199200D02*
X1224600Y2000000D01*
X1199200Y2050800D01*
X1250000Y2025400D01*
X1300800Y2050800D01*
X1275400Y2000000D01*
X1300800Y1949200D01*
X1250000Y1974600D01*
X1199200Y1949200D01*
X949200D02*
X974600Y2000000D01*
X949200Y2050800D01*
X1000000Y2025400D01*
X1050800Y2050800D01*
X1025400Y2000000D01*
X1050800Y1949200D01*
X1000000Y1974600D01*
X949200Y1949200D01*
X699200D02*
X724600Y2000000D01*
X699200Y2050800D01*
X750000Y2025400D01*
X800800Y2050800D01*
X775400Y2000000D01*
X800800Y1949200D01*
X750000Y1974600D01*
X699200Y1949200D01*
X2699200Y1699200D02*
X2724600Y1750000D01*
X2699200Y1800800D01*
X2750000Y1775400D01*
X2800800Y1800800D01*
X2775400Y1750000D01*
X2800800Y1699200D01*
X2750000Y1724600D01*
X2699200Y1699200D01*
X2949200D02*
X2974600Y1750000D01*
X2949200Y1800800D01*
X3000000Y1775400D01*
X3050800Y1800800D01*
X3025400Y1750000D01*
X3050800Y1699200D01*
X3000000Y1724600D01*
X2949200Y1699200D01*
X3199200D02*
X3224600Y1750000D01*
X3199200Y1800800D01*
X3250000Y1775400D01*
X3300800Y1800800D01*
X3275400Y1750000D01*
X3300800Y1699200D01*
X3250000Y1724600D01*
X3199200Y1699200D01*
X3449200D02*
X3474600Y1750000D01*
X3449200Y1800800D01*
X3500000Y1775400D01*
X3550800Y1800800D01*
X3525400Y1750000D01*
X3550800Y1699200D01*
X3500000Y1724600D01*
X3449200Y1699200D01*
X3699200D02*
X3724600Y1750000D01*
X3699200Y1800800D01*
X3750000Y1775400D01*
X3800800Y1800800D01*
X3775400Y1750000D01*
X3800800Y1699200D01*
X3750000Y1724600D01*
X3699200Y1699200D01*
X3949200D02*
X3974600Y1750000D01*
X3949200Y1800800D01*
X4000000Y1775400D01*
X4050800Y1800800D01*
X4025400Y1750000D01*
X4050800Y1699200D01*
X4000000Y1724600D01*
X3949200Y1699200D01*
X4199200D02*
X4224600Y1750000D01*
X4199200Y1800800D01*
X4250000Y1775400D01*
X4300800Y1800800D01*
X4275400Y1750000D01*
X4300800Y1699200D01*
X4250000Y1724600D01*
X4199200Y1699200D01*
X4449200D02*
X4474600Y1750000D01*
X4449200Y1800800D01*
X4500000Y1775400D01*
X4550800Y1800800D01*
X4525400Y1750000D01*
X4550800Y1699200D01*
X4500000Y1724600D01*
X4449200Y1699200D01*
X4699200D02*
X4724600Y1750000D01*
X4699200Y1800800D01*
X4750000Y1775400D01*
X4800800Y1800800D01*
X4775400Y1750000D01*
X4800800Y1699200D01*
X4750000Y1724600D01*
X4699200Y1699200D01*
X4949200D02*
X4974600Y1750000D01*
X4949200Y1800800D01*
X5000000Y1775400D01*
X5050800Y1800800D01*
X5025400Y1750000D01*
X5050800Y1699200D01*
X5000000Y1724600D01*
X4949200Y1699200D01*
X5199200D02*
X5224600Y1750000D01*
X5199200Y1800800D01*
X5250000Y1775400D01*
X5300800Y1800800D01*
X5275400Y1750000D01*
X5300800Y1699200D01*
X5250000Y1724600D01*
X5199200Y1699200D01*
X5449200D02*
X5474600Y1750000D01*
X5449200Y1800800D01*
X5500000Y1775400D01*
X5550800Y1800800D01*
X5525400Y1750000D01*
X5550800Y1699200D01*
X5500000Y1724600D01*
X5449200Y1699200D01*
X5699200D02*
X5724600Y1750000D01*
X5699200Y1800800D01*
X5750000Y1775400D01*
X5800800Y1800800D01*
X5775400Y1750000D01*
X5800800Y1699200D01*
X5750000Y1724600D01*
X5699200Y1699200D01*
X5949200D02*
X5974600Y1750000D01*
X5949200Y1800800D01*
X6000000Y1775400D01*
X6050800Y1800800D01*
X6025400Y1750000D01*
X6050800Y1699200D01*
X6000000Y1724600D01*
X5949200Y1699200D01*
X6199200D02*
X6224600Y1750000D01*
X6199200Y1800800D01*
X6250000Y1775400D01*
X6300800Y1800800D01*
X6275400Y1750000D01*
X6300800Y1699200D01*
X6250000Y1724600D01*
X6199200Y1699200D01*
X6449200D02*
X6474600Y1750000D01*
X6449200Y1800800D01*
X6500000Y1775400D01*
X6550800Y1800800D01*
X6525400Y1750000D01*
X6550800Y1699200D01*
X6500000Y1724600D01*
X6449200Y1699200D01*
X6699200D02*
X6724600Y1750000D01*
X6699200Y1800800D01*
X6750000Y1775400D01*
X6800800Y1800800D01*
X6775400Y1750000D01*
X6800800Y1699200D01*
X6750000Y1724600D01*
X6699200Y1699200D01*
X7199200D02*
X7224600Y1750000D01*
X7199200Y1800800D01*
X7250000Y1775400D01*
X7300800Y1800800D01*
X7275400Y1750000D01*
X7300800Y1699200D01*
X7250000Y1724600D01*
X7199200Y1699200D01*
X6949200D02*
X6974600Y1750000D01*
X6949200Y1800800D01*
X7000000Y1775400D01*
X7050800Y1800800D01*
X7025400Y1750000D01*
X7050800Y1699200D01*
X7000000Y1724600D01*
X6949200Y1699200D01*
X2699200Y1949200D02*
X2724600Y2000000D01*
X2699200Y2050800D01*
X2750000Y2025400D01*
X2800800Y2050800D01*
X2775400Y2000000D01*
X2800800Y1949200D01*
X2750000Y1974600D01*
X2699200Y1949200D01*
X2949200D02*
X2974600Y2000000D01*
X2949200Y2050800D01*
X3000000Y2025400D01*
X3050800Y2050800D01*
X3025400Y2000000D01*
X3050800Y1949200D01*
X3000000Y1974600D01*
X2949200Y1949200D01*
X3199200D02*
X3224600Y2000000D01*
X3199200Y2050800D01*
X3250000Y2025400D01*
X3300800Y2050800D01*
X3275400Y2000000D01*
X3300800Y1949200D01*
X3250000Y1974600D01*
X3199200Y1949200D01*
X3449200D02*
X3474600Y2000000D01*
X3449200Y2050800D01*
X3500000Y2025400D01*
X3550800Y2050800D01*
X3525400Y2000000D01*
X3550800Y1949200D01*
X3500000Y1974600D01*
X3449200Y1949200D01*
X3699200D02*
X3724600Y2000000D01*
X3699200Y2050800D01*
X3750000Y2025400D01*
X3800800Y2050800D01*
X3775400Y2000000D01*
X3800800Y1949200D01*
X3750000Y1974600D01*
X3699200Y1949200D01*
X3949200D02*
X3974600Y2000000D01*
X3949200Y2050800D01*
X4000000Y2025400D01*
X4050800Y2050800D01*
X4025400Y2000000D01*
X4050800Y1949200D01*
X4000000Y1974600D01*
X3949200Y1949200D01*
X4199200D02*
X4224600Y2000000D01*
X4199200Y2050800D01*
X4250000Y2025400D01*
X4300800Y2050800D01*
X4275400Y2000000D01*
X4300800Y1949200D01*
X4250000Y1974600D01*
X4199200Y1949200D01*
X4449200D02*
X4474600Y2000000D01*
X4449200Y2050800D01*
X4500000Y2025400D01*
X4550800Y2050800D01*
X4525400Y2000000D01*
X4550800Y1949200D01*
X4500000Y1974600D01*
X4449200Y1949200D01*
X4699200D02*
X4724600Y2000000D01*
X4699200Y2050800D01*
X4750000Y2025400D01*
X4800800Y2050800D01*
X4775400Y2000000D01*
X4800800Y1949200D01*
X4750000Y1974600D01*
X4699200Y1949200D01*
X4949200D02*
X4974600Y2000000D01*
X4949200Y2050800D01*
X5000000Y2025400D01*
X5050800Y2050800D01*
X5025400Y2000000D01*
X5050800Y1949200D01*
X5000000Y1974600D01*
X4949200Y1949200D01*
X5199200D02*
X5224600Y2000000D01*
X5199200Y2050800D01*
X5250000Y2025400D01*
X5300800Y2050800D01*
X5275400Y2000000D01*
X5300800Y1949200D01*
X5250000Y1974600D01*
X5199200Y1949200D01*
X5699200D02*
X5724600Y2000000D01*
X5699200Y2050800D01*
X5750000Y2025400D01*
X5800800Y2050800D01*
X5775400Y2000000D01*
X5800800Y1949200D01*
X5750000Y1974600D01*
X5699200Y1949200D01*
X5449200D02*
X5474600Y2000000D01*
X5449200Y2050800D01*
X5500000Y2025400D01*
X5550800Y2050800D01*
X5525400Y2000000D01*
X5550800Y1949200D01*
X5500000Y1974600D01*
X5449200Y1949200D01*
X5949200D02*
X5974600Y2000000D01*
X5949200Y2050800D01*
X6000000Y2025400D01*
X6050800Y2050800D01*
X6025400Y2000000D01*
X6050800Y1949200D01*
X6000000Y1974600D01*
X5949200Y1949200D01*
X6199200D02*
X6224600Y2000000D01*
X6199200Y2050800D01*
X6250000Y2025400D01*
X6300800Y2050800D01*
X6275400Y2000000D01*
X6300800Y1949200D01*
X6250000Y1974600D01*
X6199200Y1949200D01*
X6449200D02*
X6474600Y2000000D01*
X6449200Y2050800D01*
X6500000Y2025400D01*
X6550800Y2050800D01*
X6525400Y2000000D01*
X6550800Y1949200D01*
X6500000Y1974600D01*
X6449200Y1949200D01*
X6699200D02*
X6724600Y2000000D01*
X6699200Y2050800D01*
X6750000Y2025400D01*
X6800800Y2050800D01*
X6775400Y2000000D01*
X6800800Y1949200D01*
X6750000Y1974600D01*
X6699200Y1949200D01*
X6949200D02*
X6974600Y2000000D01*
X6949200Y2050800D01*
X7000000Y2025400D01*
X7050800Y2050800D01*
X7025400Y2000000D01*
X7050800Y1949200D01*
X7000000Y1974600D01*
X6949200Y1949200D01*
X7199200D02*
X7224600Y2000000D01*
X7199200Y2050800D01*
X7250000Y2025400D01*
X7300800Y2050800D01*
X7275400Y2000000D01*
X7300800Y1949200D01*
X7250000Y1974600D01*
X7199200Y1949200D01*
X2699200Y1199200D02*
X2724600Y1250000D01*
X2699200Y1300800D01*
X2750000Y1275400D01*
X2800800Y1300800D01*
X2775400Y1250000D01*
X2800800Y1199200D01*
X2750000Y1224600D01*
X2699200Y1199200D01*
X2949200D02*
X2974600Y1250000D01*
X2949200Y1300800D01*
X3000000Y1275400D01*
X3050800Y1300800D01*
X3025400Y1250000D01*
X3050800Y1199200D01*
X3000000Y1224600D01*
X2949200Y1199200D01*
X3199200D02*
X3224600Y1250000D01*
X3199200Y1300800D01*
X3250000Y1275400D01*
X3300800Y1300800D01*
X3275400Y1250000D01*
X3300800Y1199200D01*
X3250000Y1224600D01*
X3199200Y1199200D01*
X3449200D02*
X3474600Y1250000D01*
X3449200Y1300800D01*
X3500000Y1275400D01*
X3550800Y1300800D01*
X3525400Y1250000D01*
X3550800Y1199200D01*
X3500000Y1224600D01*
X3449200Y1199200D01*
X3699200D02*
X3724600Y1250000D01*
X3699200Y1300800D01*
X3750000Y1275400D01*
X3800800Y1300800D01*
X3775400Y1250000D01*
X3800800Y1199200D01*
X3750000Y1224600D01*
X3699200Y1199200D01*
X3949200D02*
X3974600Y1250000D01*
X3949200Y1300800D01*
X4000000Y1275400D01*
X4050800Y1300800D01*
X4025400Y1250000D01*
X4050800Y1199200D01*
X4000000Y1224600D01*
X3949200Y1199200D01*
X4199200D02*
X4224600Y1250000D01*
X4199200Y1300800D01*
X4250000Y1275400D01*
X4300800Y1300800D01*
X4275400Y1250000D01*
X4300800Y1199200D01*
X4250000Y1224600D01*
X4199200Y1199200D01*
X4449200D02*
X4474600Y1250000D01*
X4449200Y1300800D01*
X4500000Y1275400D01*
X4550800Y1300800D01*
X4525400Y1250000D01*
X4550800Y1199200D01*
X4500000Y1224600D01*
X4449200Y1199200D01*
X4699200D02*
X4724600Y1250000D01*
X4699200Y1300800D01*
X4750000Y1275400D01*
X4800800Y1300800D01*
X4775400Y1250000D01*
X4800800Y1199200D01*
X4750000Y1224600D01*
X4699200Y1199200D01*
X4949200D02*
X4974600Y1250000D01*
X4949200Y1300800D01*
X5000000Y1275400D01*
X5050800Y1300800D01*
X5025400Y1250000D01*
X5050800Y1199200D01*
X5000000Y1224600D01*
X4949200Y1199200D01*
X5199200D02*
X5224600Y1250000D01*
X5199200Y1300800D01*
X5250000Y1275400D01*
X5300800Y1300800D01*
X5275400Y1250000D01*
X5300800Y1199200D01*
X5250000Y1224600D01*
X5199200Y1199200D01*
X5449200D02*
X5474600Y1250000D01*
X5449200Y1300800D01*
X5500000Y1275400D01*
X5550800Y1300800D01*
X5525400Y1250000D01*
X5550800Y1199200D01*
X5500000Y1224600D01*
X5449200Y1199200D01*
X5699200D02*
X5724600Y1250000D01*
X5699200Y1300800D01*
X5750000Y1275400D01*
X5800800Y1300800D01*
X5775400Y1250000D01*
X5800800Y1199200D01*
X5750000Y1224600D01*
X5699200Y1199200D01*
X5949200D02*
X5974600Y1250000D01*
X5949200Y1300800D01*
X6000000Y1275400D01*
X6050800Y1300800D01*
X6025400Y1250000D01*
X6050800Y1199200D01*
X6000000Y1224600D01*
X5949200Y1199200D01*
X6199200D02*
X6224600Y1250000D01*
X6199200Y1300800D01*
X6250000Y1275400D01*
X6300800Y1300800D01*
X6275400Y1250000D01*
X6300800Y1199200D01*
X6250000Y1224600D01*
X6199200Y1199200D01*
X6449200D02*
X6474600Y1250000D01*
X6449200Y1300800D01*
X6500000Y1275400D01*
X6550800Y1300800D01*
X6525400Y1250000D01*
X6550800Y1199200D01*
X6500000Y1224600D01*
X6449200Y1199200D01*
X6699200D02*
X6724600Y1250000D01*
X6699200Y1300800D01*
X6750000Y1275400D01*
X6800800Y1300800D01*
X6775400Y1250000D01*
X6800800Y1199200D01*
X6750000Y1224600D01*
X6699200Y1199200D01*
X7199200D02*
X7224600Y1250000D01*
X7199200Y1300800D01*
X7250000Y1275400D01*
X7300800Y1300800D01*
X7275400Y1250000D01*
X7300800Y1199200D01*
X7250000Y1224600D01*
X7199200Y1199200D01*
X6949200D02*
X6974600Y1250000D01*
X6949200Y1300800D01*
X7000000Y1275400D01*
X7050800Y1300800D01*
X7025400Y1250000D01*
X7050800Y1199200D01*
X7000000Y1224600D01*
X6949200Y1199200D01*
X2699200Y1449200D02*
X2724600Y1500000D01*
X2699200Y1550800D01*
X2750000Y1525400D01*
X2800800Y1550800D01*
X2775400Y1500000D01*
X2800800Y1449200D01*
X2750000Y1474600D01*
X2699200Y1449200D01*
X2949200D02*
X2974600Y1500000D01*
X2949200Y1550800D01*
X3000000Y1525400D01*
X3050800Y1550800D01*
X3025400Y1500000D01*
X3050800Y1449200D01*
X3000000Y1474600D01*
X2949200Y1449200D01*
X3199200D02*
X3224600Y1500000D01*
X3199200Y1550800D01*
X3250000Y1525400D01*
X3300800Y1550800D01*
X3275400Y1500000D01*
X3300800Y1449200D01*
X3250000Y1474600D01*
X3199200Y1449200D01*
X3449200D02*
X3474600Y1500000D01*
X3449200Y1550800D01*
X3500000Y1525400D01*
X3550800Y1550800D01*
X3525400Y1500000D01*
X3550800Y1449200D01*
X3500000Y1474600D01*
X3449200Y1449200D01*
X3699200D02*
X3724600Y1500000D01*
X3699200Y1550800D01*
X3750000Y1525400D01*
X3800800Y1550800D01*
X3775400Y1500000D01*
X3800800Y1449200D01*
X3750000Y1474600D01*
X3699200Y1449200D01*
X3949200D02*
X3974600Y1500000D01*
X3949200Y1550800D01*
X4000000Y1525400D01*
X4050800Y1550800D01*
X4025400Y1500000D01*
X4050800Y1449200D01*
X4000000Y1474600D01*
X3949200Y1449200D01*
X4199200D02*
X4224600Y1500000D01*
X4199200Y1550800D01*
X4250000Y1525400D01*
X4300800Y1550800D01*
X4275400Y1500000D01*
X4300800Y1449200D01*
X4250000Y1474600D01*
X4199200Y1449200D01*
X4449200D02*
X4474600Y1500000D01*
X4449200Y1550800D01*
X4500000Y1525400D01*
X4550800Y1550800D01*
X4525400Y1500000D01*
X4550800Y1449200D01*
X4500000Y1474600D01*
X4449200Y1449200D01*
X4699200D02*
X4724600Y1500000D01*
X4699200Y1550800D01*
X4750000Y1525400D01*
X4800800Y1550800D01*
X4775400Y1500000D01*
X4800800Y1449200D01*
X4750000Y1474600D01*
X4699200Y1449200D01*
X4949200D02*
X4974600Y1500000D01*
X4949200Y1550800D01*
X5000000Y1525400D01*
X5050800Y1550800D01*
X5025400Y1500000D01*
X5050800Y1449200D01*
X5000000Y1474600D01*
X4949200Y1449200D01*
X5199200D02*
X5224600Y1500000D01*
X5199200Y1550800D01*
X5250000Y1525400D01*
X5300800Y1550800D01*
X5275400Y1500000D01*
X5300800Y1449200D01*
X5250000Y1474600D01*
X5199200Y1449200D01*
X5699200D02*
X5724600Y1500000D01*
X5699200Y1550800D01*
X5750000Y1525400D01*
X5800800Y1550800D01*
X5775400Y1500000D01*
X5800800Y1449200D01*
X5750000Y1474600D01*
X5699200Y1449200D01*
X5449200D02*
X5474600Y1500000D01*
X5449200Y1550800D01*
X5500000Y1525400D01*
X5550800Y1550800D01*
X5525400Y1500000D01*
X5550800Y1449200D01*
X5500000Y1474600D01*
X5449200Y1449200D01*
X5949200D02*
X5974600Y1500000D01*
X5949200Y1550800D01*
X6000000Y1525400D01*
X6050800Y1550800D01*
X6025400Y1500000D01*
X6050800Y1449200D01*
X6000000Y1474600D01*
X5949200Y1449200D01*
X6199200D02*
X6224600Y1500000D01*
X6199200Y1550800D01*
X6250000Y1525400D01*
X6300800Y1550800D01*
X6275400Y1500000D01*
X6300800Y1449200D01*
X6250000Y1474600D01*
X6199200Y1449200D01*
X6449200D02*
X6474600Y1500000D01*
X6449200Y1550800D01*
X6500000Y1525400D01*
X6550800Y1550800D01*
X6525400Y1500000D01*
X6550800Y1449200D01*
X6500000Y1474600D01*
X6449200Y1449200D01*
X6699200D02*
X6724600Y1500000D01*
X6699200Y1550800D01*
X6750000Y1525400D01*
X6800800Y1550800D01*
X6775400Y1500000D01*
X6800800Y1449200D01*
X6750000Y1474600D01*
X6699200Y1449200D01*
X6949200D02*
X6974600Y1500000D01*
X6949200Y1550800D01*
X7000000Y1525400D01*
X7050800Y1550800D01*
X7025400Y1500000D01*
X7050800Y1449200D01*
X7000000Y1474600D01*
X6949200Y1449200D01*
X7199200D02*
X7224600Y1500000D01*
X7199200Y1550800D01*
X7250000Y1525400D01*
X7300800Y1550800D01*
X7275400Y1500000D01*
X7300800Y1449200D01*
X7250000Y1474600D01*
X7199200Y1449200D01*
X2699200Y699200D02*
X2724600Y750000D01*
X2699200Y800800D01*
X2750000Y775400D01*
X2800800Y800800D01*
X2775400Y750000D01*
X2800800Y699200D01*
X2750000Y724600D01*
X2699200Y699200D01*
X2949200D02*
X2974600Y750000D01*
X2949200Y800800D01*
X3000000Y775400D01*
X3050800Y800800D01*
X3025400Y750000D01*
X3050800Y699200D01*
X3000000Y724600D01*
X2949200Y699200D01*
X3199200D02*
X3224600Y750000D01*
X3199200Y800800D01*
X3250000Y775400D01*
X3300800Y800800D01*
X3275400Y750000D01*
X3300800Y699200D01*
X3250000Y724600D01*
X3199200Y699200D01*
X3449200D02*
X3474600Y750000D01*
X3449200Y800800D01*
X3500000Y775400D01*
X3550800Y800800D01*
X3525400Y750000D01*
X3550800Y699200D01*
X3500000Y724600D01*
X3449200Y699200D01*
X3699200D02*
X3724600Y750000D01*
X3699200Y800800D01*
X3750000Y775400D01*
X3800800Y800800D01*
X3775400Y750000D01*
X3800800Y699200D01*
X3750000Y724600D01*
X3699200Y699200D01*
X3949200D02*
X3974600Y750000D01*
X3949200Y800800D01*
X4000000Y775400D01*
X4050800Y800800D01*
X4025400Y750000D01*
X4050800Y699200D01*
X4000000Y724600D01*
X3949200Y699200D01*
X4199200D02*
X4224600Y750000D01*
X4199200Y800800D01*
X4250000Y775400D01*
X4300800Y800800D01*
X4275400Y750000D01*
X4300800Y699200D01*
X4250000Y724600D01*
X4199200Y699200D01*
X4449200D02*
X4474600Y750000D01*
X4449200Y800800D01*
X4500000Y775400D01*
X4550800Y800800D01*
X4525400Y750000D01*
X4550800Y699200D01*
X4500000Y724600D01*
X4449200Y699200D01*
X4699200D02*
X4724600Y750000D01*
X4699200Y800800D01*
X4750000Y775400D01*
X4800800Y800800D01*
X4775400Y750000D01*
X4800800Y699200D01*
X4750000Y724600D01*
X4699200Y699200D01*
X4949200D02*
X4974600Y750000D01*
X4949200Y800800D01*
X5000000Y775400D01*
X5050800Y800800D01*
X5025400Y750000D01*
X5050800Y699200D01*
X5000000Y724600D01*
X4949200Y699200D01*
X5199200D02*
X5224600Y750000D01*
X5199200Y800800D01*
X5250000Y775400D01*
X5300800Y800800D01*
X5275400Y750000D01*
X5300800Y699200D01*
X5250000Y724600D01*
X5199200Y699200D01*
X5449200D02*
X5474600Y750000D01*
X5449200Y800800D01*
X5500000Y775400D01*
X5550800Y800800D01*
X5525400Y750000D01*
X5550800Y699200D01*
X5500000Y724600D01*
X5449200Y699200D01*
X5699200D02*
X5724600Y750000D01*
X5699200Y800800D01*
X5750000Y775400D01*
X5800800Y800800D01*
X5775400Y750000D01*
X5800800Y699200D01*
X5750000Y724600D01*
X5699200Y699200D01*
X5949200D02*
X5974600Y750000D01*
X5949200Y800800D01*
X6000000Y775400D01*
X6050800Y800800D01*
X6025400Y750000D01*
X6050800Y699200D01*
X6000000Y724600D01*
X5949200Y699200D01*
X6199200D02*
X6224600Y750000D01*
X6199200Y800800D01*
X6250000Y775400D01*
X6300800Y800800D01*
X6275400Y750000D01*
X6300800Y699200D01*
X6250000Y724600D01*
X6199200Y699200D01*
X6449200D02*
X6474600Y750000D01*
X6449200Y800800D01*
X6500000Y775400D01*
X6550800Y800800D01*
X6525400Y750000D01*
X6550800Y699200D01*
X6500000Y724600D01*
X6449200Y699200D01*
X6699200D02*
X6724600Y750000D01*
X6699200Y800800D01*
X6750000Y775400D01*
X6800800Y800800D01*
X6775400Y750000D01*
X6800800Y699200D01*
X6750000Y724600D01*
X6699200Y699200D01*
X7199200D02*
X7224600Y750000D01*
X7199200Y800800D01*
X7250000Y775400D01*
X7300800Y800800D01*
X7275400Y750000D01*
X7300800Y699200D01*
X7250000Y724600D01*
X7199200Y699200D01*
X6949200D02*
X6974600Y750000D01*
X6949200Y800800D01*
X7000000Y775400D01*
X7050800Y800800D01*
X7025400Y750000D01*
X7050800Y699200D01*
X7000000Y724600D01*
X6949200Y699200D01*
X2699200Y949200D02*
X2724600Y1000000D01*
X2699200Y1050800D01*
X2750000Y1025400D01*
X2800800Y1050800D01*
X2775400Y1000000D01*
X2800800Y949200D01*
X2750000Y974600D01*
X2699200Y949200D01*
X2949200D02*
X2974600Y1000000D01*
X2949200Y1050800D01*
X3000000Y1025400D01*
X3050800Y1050800D01*
X3025400Y1000000D01*
X3050800Y949200D01*
X3000000Y974600D01*
X2949200Y949200D01*
X3199200D02*
X3224600Y1000000D01*
X3199200Y1050800D01*
X3250000Y1025400D01*
X3300800Y1050800D01*
X3275400Y1000000D01*
X3300800Y949200D01*
X3250000Y974600D01*
X3199200Y949200D01*
X3449200D02*
X3474600Y1000000D01*
X3449200Y1050800D01*
X3500000Y1025400D01*
X3550800Y1050800D01*
X3525400Y1000000D01*
X3550800Y949200D01*
X3500000Y974600D01*
X3449200Y949200D01*
X3699200D02*
X3724600Y1000000D01*
X3699200Y1050800D01*
X3750000Y1025400D01*
X3800800Y1050800D01*
X3775400Y1000000D01*
X3800800Y949200D01*
X3750000Y974600D01*
X3699200Y949200D01*
X3949200D02*
X3974600Y1000000D01*
X3949200Y1050800D01*
X4000000Y1025400D01*
X4050800Y1050800D01*
X4025400Y1000000D01*
X4050800Y949200D01*
X4000000Y974600D01*
X3949200Y949200D01*
X4199200D02*
X4224600Y1000000D01*
X4199200Y1050800D01*
X4250000Y1025400D01*
X4300800Y1050800D01*
X4275400Y1000000D01*
X4300800Y949200D01*
X4250000Y974600D01*
X4199200Y949200D01*
X4449200D02*
X4474600Y1000000D01*
X4449200Y1050800D01*
X4500000Y1025400D01*
X4550800Y1050800D01*
X4525400Y1000000D01*
X4550800Y949200D01*
X4500000Y974600D01*
X4449200Y949200D01*
X4699200D02*
X4724600Y1000000D01*
X4699200Y1050800D01*
X4750000Y1025400D01*
X4800800Y1050800D01*
X4775400Y1000000D01*
X4800800Y949200D01*
X4750000Y974600D01*
X4699200Y949200D01*
X4949200D02*
X4974600Y1000000D01*
X4949200Y1050800D01*
X5000000Y1025400D01*
X5050800Y1050800D01*
X5025400Y1000000D01*
X5050800Y949200D01*
X5000000Y974600D01*
X4949200Y949200D01*
X5199200D02*
X5224600Y1000000D01*
X5199200Y1050800D01*
X5250000Y1025400D01*
X5300800Y1050800D01*
X5275400Y1000000D01*
X5300800Y949200D01*
X5250000Y974600D01*
X5199200Y949200D01*
X5699200D02*
X5724600Y1000000D01*
X5699200Y1050800D01*
X5750000Y1025400D01*
X5800800Y1050800D01*
X5775400Y1000000D01*
X5800800Y949200D01*
X5750000Y974600D01*
X5699200Y949200D01*
X5449200D02*
X5474600Y1000000D01*
X5449200Y1050800D01*
X5500000Y1025400D01*
X5550800Y1050800D01*
X5525400Y1000000D01*
X5550800Y949200D01*
X5500000Y974600D01*
X5449200Y949200D01*
X5949200D02*
X5974600Y1000000D01*
X5949200Y1050800D01*
X6000000Y1025400D01*
X6050800Y1050800D01*
X6025400Y1000000D01*
X6050800Y949200D01*
X6000000Y974600D01*
X5949200Y949200D01*
X6199200D02*
X6224600Y1000000D01*
X6199200Y1050800D01*
X6250000Y1025400D01*
X6300800Y1050800D01*
X6275400Y1000000D01*
X6300800Y949200D01*
X6250000Y974600D01*
X6199200Y949200D01*
X6449200D02*
X6474600Y1000000D01*
X6449200Y1050800D01*
X6500000Y1025400D01*
X6550800Y1050800D01*
X6525400Y1000000D01*
X6550800Y949200D01*
X6500000Y974600D01*
X6449200Y949200D01*
X6699200D02*
X6724600Y1000000D01*
X6699200Y1050800D01*
X6750000Y1025400D01*
X6800800Y1050800D01*
X6775400Y1000000D01*
X6800800Y949200D01*
X6750000Y974600D01*
X6699200Y949200D01*
X6949200D02*
X6974600Y1000000D01*
X6949200Y1050800D01*
X7000000Y1025400D01*
X7050800Y1050800D01*
X7025400Y1000000D01*
X7050800Y949200D01*
X7000000Y974600D01*
X6949200Y949200D01*
X7199200D02*
X7224600Y1000000D01*
X7199200Y1050800D01*
X7250000Y1025400D01*
X7300800Y1050800D01*
X7275400Y1000000D01*
X7300800Y949200D01*
X7250000Y974600D01*
X7199200Y949200D01*
X8199200Y4949200D02*
X8224600Y5000000D01*
X8199200Y5050800D01*
X8250000Y5025400D01*
X8300800Y5050800D01*
X8275400Y5000000D01*
X8300800Y4949200D01*
X8250000Y4974600D01*
X8199200Y4949200D01*
X8449200D02*
X8474600Y5000000D01*
X8449200Y5050800D01*
X8500000Y5025400D01*
X8550800Y5050800D01*
X8525400Y5000000D01*
X8550800Y4949200D01*
X8500000Y4974600D01*
X8449200Y4949200D01*
X8699200D02*
X8724600Y5000000D01*
X8699200Y5050800D01*
X8750000Y5025400D01*
X8800800Y5050800D01*
X8775400Y5000000D01*
X8800800Y4949200D01*
X8750000Y4974600D01*
X8699200Y4949200D01*
X9449200D02*
X9474600Y5000000D01*
X9449200Y5050800D01*
X9500000Y5025400D01*
X9550800Y5050800D01*
X9525400Y5000000D01*
X9550800Y4949200D01*
X9500000Y4974600D01*
X9449200Y4949200D01*
Y4699200D02*
X9474600Y4750000D01*
X9449200Y4800800D01*
X9500000Y4775400D01*
X9550800Y4800800D01*
X9525400Y4750000D01*
X9550800Y4699200D01*
X9500000Y4724600D01*
X9449200Y4699200D01*
Y4449200D02*
X9474600Y4500000D01*
X9449200Y4550800D01*
X9500000Y4525400D01*
X9550800Y4550800D01*
X9525400Y4500000D01*
X9550800Y4449200D01*
X9500000Y4474600D01*
X9449200Y4449200D01*
Y4199200D02*
X9474600Y4250000D01*
X9449200Y4300800D01*
X9500000Y4275400D01*
X9550800Y4300800D01*
X9525400Y4250000D01*
X9550800Y4199200D01*
X9500000Y4224600D01*
X9449200Y4199200D01*
Y1949200D02*
X9474600Y2000000D01*
X9449200Y2050800D01*
X9500000Y2025400D01*
X9550800Y2050800D01*
X9525400Y2000000D01*
X9550800Y1949200D01*
X9500000Y1974600D01*
X9449200Y1949200D01*
Y1699200D02*
X9474600Y1750000D01*
X9449200Y1800800D01*
X9500000Y1775400D01*
X9550800Y1800800D01*
X9525400Y1750000D01*
X9550800Y1699200D01*
X9500000Y1724600D01*
X9449200Y1699200D01*
Y1449200D02*
X9474600Y1500000D01*
X9449200Y1550800D01*
X9500000Y1525400D01*
X9550800Y1550800D01*
X9525400Y1500000D01*
X9550800Y1449200D01*
X9500000Y1474600D01*
X9449200Y1449200D01*
Y1199200D02*
X9474600Y1250000D01*
X9449200Y1300800D01*
X9500000Y1275400D01*
X9550800Y1300800D01*
X9525400Y1250000D01*
X9550800Y1199200D01*
X9500000Y1224600D01*
X9449200Y1199200D01*
Y949200D02*
X9474600Y1000000D01*
X9449200Y1050800D01*
X9500000Y1025400D01*
X9550800Y1050800D01*
X9525400Y1000000D01*
X9550800Y949200D01*
X9500000Y974600D01*
X9449200Y949200D01*
Y699200D02*
X9474600Y750000D01*
X9449200Y800800D01*
X9500000Y775400D01*
X9550800Y800800D01*
X9525400Y750000D01*
X9550800Y699200D01*
X9500000Y724600D01*
X9449200Y699200D01*
Y449200D02*
X9474600Y500000D01*
X9449200Y550800D01*
X9500000Y525400D01*
X9550800Y550800D01*
X9525400Y500000D01*
X9550800Y449200D01*
X9500000Y474600D01*
X9449200Y449200D01*
X9199200D02*
X9224600Y500000D01*
X9199200Y550800D01*
X9250000Y525400D01*
X9300800Y550800D01*
X9275400Y500000D01*
X9300800Y449200D01*
X9250000Y474600D01*
X9199200Y449200D01*
X8949200D02*
X8974600Y500000D01*
X8949200Y550800D01*
X9000000Y525400D01*
X9050800Y550800D01*
X9025400Y500000D01*
X9050800Y449200D01*
X9000000Y474600D01*
X8949200Y449200D01*
X8699200D02*
X8724600Y500000D01*
X8699200Y550800D01*
X8750000Y525400D01*
X8800800Y550800D01*
X8775400Y500000D01*
X8800800Y449200D01*
X8750000Y474600D01*
X8699200Y449200D01*
X8449200D02*
X8474600Y500000D01*
X8449200Y550800D01*
X8500000Y525400D01*
X8550800Y550800D01*
X8525400Y500000D01*
X8550800Y449200D01*
X8500000Y474600D01*
X8449200Y449200D01*
X8199200D02*
X8224600Y500000D01*
X8199200Y550800D01*
X8250000Y525400D01*
X8300800Y550800D01*
X8275400Y500000D01*
X8300800Y449200D01*
X8250000Y474600D01*
X8199200Y449200D01*
X7949200D02*
X7974600Y500000D01*
X7949200Y550800D01*
X8000000Y525400D01*
X8050800Y550800D01*
X8025400Y500000D01*
X8050800Y449200D01*
X8000000Y474600D01*
X7949200Y449200D01*
X7449200D02*
X7474600Y500000D01*
X7449200Y550800D01*
X7500000Y525400D01*
X7550800Y550800D01*
X7525400Y500000D01*
X7550800Y449200D01*
X7500000Y474600D01*
X7449200Y449200D01*
X7699200D02*
X7724600Y500000D01*
X7699200Y550800D01*
X7750000Y525400D01*
X7800800Y550800D01*
X7775400Y500000D01*
X7800800Y449200D01*
X7750000Y474600D01*
X7699200Y449200D01*
X7199200D02*
X7224600Y500000D01*
X7199200Y550800D01*
X7250000Y525400D01*
X7300800Y550800D01*
X7275400Y500000D01*
X7300800Y449200D01*
X7250000Y474600D01*
X7199200Y449200D01*
X6949200D02*
X6974600Y500000D01*
X6949200Y550800D01*
X7000000Y525400D01*
X7050800Y550800D01*
X7025400Y500000D01*
X7050800Y449200D01*
X7000000Y474600D01*
X6949200Y449200D01*
X6699200D02*
X6724600Y500000D01*
X6699200Y550800D01*
X6750000Y525400D01*
X6800800Y550800D01*
X6775400Y500000D01*
X6800800Y449200D01*
X6750000Y474600D01*
X6699200Y449200D01*
X6449200D02*
X6474600Y500000D01*
X6449200Y550800D01*
X6500000Y525400D01*
X6550800Y550800D01*
X6525400Y500000D01*
X6550800Y449200D01*
X6500000Y474600D01*
X6449200Y449200D01*
X6199200D02*
X6224600Y500000D01*
X6199200Y550800D01*
X6250000Y525400D01*
X6300800Y550800D01*
X6275400Y500000D01*
X6300800Y449200D01*
X6250000Y474600D01*
X6199200Y449200D01*
X5949200D02*
X5974600Y500000D01*
X5949200Y550800D01*
X6000000Y525400D01*
X6050800Y550800D01*
X6025400Y500000D01*
X6050800Y449200D01*
X6000000Y474600D01*
X5949200Y449200D01*
X5449200D02*
X5474600Y500000D01*
X5449200Y550800D01*
X5500000Y525400D01*
X5550800Y550800D01*
X5525400Y500000D01*
X5550800Y449200D01*
X5500000Y474600D01*
X5449200Y449200D01*
X5699200D02*
X5724600Y500000D01*
X5699200Y550800D01*
X5750000Y525400D01*
X5800800Y550800D01*
X5775400Y500000D01*
X5800800Y449200D01*
X5750000Y474600D01*
X5699200Y449200D01*
X5199200D02*
X5224600Y500000D01*
X5199200Y550800D01*
X5250000Y525400D01*
X5300800Y550800D01*
X5275400Y500000D01*
X5300800Y449200D01*
X5250000Y474600D01*
X5199200Y449200D01*
X4949200D02*
X4974600Y500000D01*
X4949200Y550800D01*
X5000000Y525400D01*
X5050800Y550800D01*
X5025400Y500000D01*
X5050800Y449200D01*
X5000000Y474600D01*
X4949200Y449200D01*
X4699200D02*
X4724600Y500000D01*
X4699200Y550800D01*
X4750000Y525400D01*
X4800800Y550800D01*
X4775400Y500000D01*
X4800800Y449200D01*
X4750000Y474600D01*
X4699200Y449200D01*
X4449200D02*
X4474600Y500000D01*
X4449200Y550800D01*
X4500000Y525400D01*
X4550800Y550800D01*
X4525400Y500000D01*
X4550800Y449200D01*
X4500000Y474600D01*
X4449200Y449200D01*
X4199200D02*
X4224600Y500000D01*
X4199200Y550800D01*
X4250000Y525400D01*
X4300800Y550800D01*
X4275400Y500000D01*
X4300800Y449200D01*
X4250000Y474600D01*
X4199200Y449200D01*
X3949200D02*
X3974600Y500000D01*
X3949200Y550800D01*
X4000000Y525400D01*
X4050800Y550800D01*
X4025400Y500000D01*
X4050800Y449200D01*
X4000000Y474600D01*
X3949200Y449200D01*
X3699200D02*
X3724600Y500000D01*
X3699200Y550800D01*
X3750000Y525400D01*
X3800800Y550800D01*
X3775400Y500000D01*
X3800800Y449200D01*
X3750000Y474600D01*
X3699200Y449200D01*
X3449200D02*
X3474600Y500000D01*
X3449200Y550800D01*
X3500000Y525400D01*
X3550800Y550800D01*
X3525400Y500000D01*
X3550800Y449200D01*
X3500000Y474600D01*
X3449200Y449200D01*
X3199200D02*
X3224600Y500000D01*
X3199200Y550800D01*
X3250000Y525400D01*
X3300800Y550800D01*
X3275400Y500000D01*
X3300800Y449200D01*
X3250000Y474600D01*
X3199200Y449200D01*
X2949200D02*
X2974600Y500000D01*
X2949200Y550800D01*
X3000000Y525400D01*
X3050800Y550800D01*
X3025400Y500000D01*
X3050800Y449200D01*
X3000000Y474600D01*
X2949200Y449200D01*
X2699200D02*
X2724600Y500000D01*
X2699200Y550800D01*
X2750000Y525400D01*
X2800800Y550800D01*
X2775400Y500000D01*
X2800800Y449200D01*
X2750000Y474600D01*
X2699200Y449200D01*
X2449200D02*
X2474600Y500000D01*
X2449200Y550800D01*
X2500000Y525400D01*
X2550800Y550800D01*
X2525400Y500000D01*
X2550800Y449200D01*
X2500000Y474600D01*
X2449200Y449200D01*
X2199200D02*
X2224600Y500000D01*
X2199200Y550800D01*
X2250000Y525400D01*
X2300800Y550800D01*
X2275400Y500000D01*
X2300800Y449200D01*
X2250000Y474600D01*
X2199200Y449200D01*
X1949200D02*
X1974600Y500000D01*
X1949200Y550800D01*
X2000000Y525400D01*
X2050800Y550800D01*
X2025400Y500000D01*
X2050800Y449200D01*
X2000000Y474600D01*
X1949200Y449200D01*
X1699200D02*
X1724600Y500000D01*
X1699200Y550800D01*
X1750000Y525400D01*
X1800800Y550800D01*
X1775400Y500000D01*
X1800800Y449200D01*
X1750000Y474600D01*
X1699200Y449200D01*
X1449200D02*
X1474600Y500000D01*
X1449200Y550800D01*
X1500000Y525400D01*
X1550800Y550800D01*
X1525400Y500000D01*
X1550800Y449200D01*
X1500000Y474600D01*
X1449200Y449200D01*
X1199200D02*
X1224600Y500000D01*
X1199200Y550800D01*
X1250000Y525400D01*
X1300800Y550800D01*
X1275400Y500000D01*
X1300800Y449200D01*
X1250000Y474600D01*
X1199200Y449200D01*
X949200D02*
X974600Y500000D01*
X949200Y550800D01*
X1000000Y525400D01*
X1050800Y550800D01*
X1025400Y500000D01*
X1050800Y449200D01*
X1000000Y474600D01*
X949200Y449200D01*
X699200D02*
X724600Y500000D01*
X699200Y550800D01*
X750000Y525400D01*
X800800Y550800D01*
X775400Y500000D01*
X800800Y449200D01*
X750000Y474600D01*
X699200Y449200D01*
X449200D02*
X474600Y500000D01*
X449200Y550800D01*
X500000Y525400D01*
X550800Y550800D01*
X525400Y500000D01*
X550800Y449200D01*
X500000Y474600D01*
X449200Y449200D01*
Y699200D02*
X474600Y750000D01*
X449200Y800800D01*
X500000Y775400D01*
X550800Y800800D01*
X525400Y750000D01*
X550800Y699200D01*
X500000Y724600D01*
X449200Y699200D01*
Y949200D02*
X474600Y1000000D01*
X449200Y1050800D01*
X500000Y1025400D01*
X550800Y1050800D01*
X525400Y1000000D01*
X550800Y949200D01*
X500000Y974600D01*
X449200Y949200D01*
Y1199200D02*
X474600Y1250000D01*
X449200Y1300800D01*
X500000Y1275400D01*
X550800Y1300800D01*
X525400Y1250000D01*
X550800Y1199200D01*
X500000Y1224600D01*
X449200Y1199200D01*
Y1449200D02*
X474600Y1500000D01*
X449200Y1550800D01*
X500000Y1525400D01*
X550800Y1550800D01*
X525400Y1500000D01*
X550800Y1449200D01*
X500000Y1474600D01*
X449200Y1449200D01*
Y1699200D02*
X474600Y1750000D01*
X449200Y1800800D01*
X500000Y1775400D01*
X550800Y1800800D01*
X525400Y1750000D01*
X550800Y1699200D01*
X500000Y1724600D01*
X449200Y1699200D01*
Y1949200D02*
X474600Y2000000D01*
X449200Y2050800D01*
X500000Y2025400D01*
X550800Y2050800D01*
X525400Y2000000D01*
X550800Y1949200D01*
X500000Y1974600D01*
X449200Y1949200D01*
Y2199200D02*
X474600Y2250000D01*
X449200Y2300800D01*
X500000Y2275400D01*
X550800Y2300800D01*
X525400Y2250000D01*
X550800Y2199200D01*
X500000Y2224600D01*
X449200Y2199200D01*
Y2449200D02*
X474600Y2500000D01*
X449200Y2550800D01*
X500000Y2525400D01*
X550800Y2550800D01*
X525400Y2500000D01*
X550800Y2449200D01*
X500000Y2474600D01*
X449200Y2449200D01*
Y2699200D02*
X474600Y2750000D01*
X449200Y2800800D01*
X500000Y2775400D01*
X550800Y2800800D01*
X525400Y2750000D01*
X550800Y2699200D01*
X500000Y2724600D01*
X449200Y2699200D01*
Y2949200D02*
X474600Y3000000D01*
X449200Y3050800D01*
X500000Y3025400D01*
X550800Y3050800D01*
X525400Y3000000D01*
X550800Y2949200D01*
X500000Y2974600D01*
X449200Y2949200D01*
Y3199200D02*
X474600Y3250000D01*
X449200Y3300800D01*
X500000Y3275400D01*
X550800Y3300800D01*
X525400Y3250000D01*
X550800Y3199200D01*
X500000Y3224600D01*
X449200Y3199200D01*
X949200Y4699200D02*
X974600Y4750000D01*
X949200Y4800800D01*
X1000000Y4775400D01*
X1050800Y4800800D01*
X1025400Y4750000D01*
X1050800Y4699200D01*
X1000000Y4724600D01*
X949200Y4699200D01*
X4199200Y4949200D02*
X4224600Y5000000D01*
X4199200Y5050800D01*
X4250000Y5025400D01*
X4300800Y5050800D01*
X4275400Y5000000D01*
X4300800Y4949200D01*
X4250000Y4974600D01*
X4199200Y4949200D01*
X3949200D02*
X3974600Y5000000D01*
X3949200Y5050800D01*
X4000000Y5025400D01*
X4050800Y5050800D01*
X4025400Y5000000D01*
X4050800Y4949200D01*
X4000000Y4974600D01*
X3949200Y4949200D01*
X3699200D02*
X3724600Y5000000D01*
X3699200Y5050800D01*
X3750000Y5025400D01*
X3800800Y5050800D01*
X3775400Y5000000D01*
X3800800Y4949200D01*
X3750000Y4974600D01*
X3699200Y4949200D01*
X3449200D02*
X3474600Y5000000D01*
X3449200Y5050800D01*
X3500000Y5025400D01*
X3550800Y5050800D01*
X3525400Y5000000D01*
X3550800Y4949200D01*
X3500000Y4974600D01*
X3449200Y4949200D01*
X3199200D02*
X3224600Y5000000D01*
X3199200Y5050800D01*
X3250000Y5025400D01*
X3300800Y5050800D01*
X3275400Y5000000D01*
X3300800Y4949200D01*
X3250000Y4974600D01*
X3199200Y4949200D01*
X2949200D02*
X2974600Y5000000D01*
X2949200Y5050800D01*
X3000000Y5025400D01*
X3050800Y5050800D01*
X3025400Y5000000D01*
X3050800Y4949200D01*
X3000000Y4974600D01*
X2949200Y4949200D01*
X2699200D02*
X2724600Y5000000D01*
X2699200Y5050800D01*
X2750000Y5025400D01*
X2800800Y5050800D01*
X2775400Y5000000D01*
X2800800Y4949200D01*
X2750000Y4974600D01*
X2699200Y4949200D01*
X2449200D02*
X2474600Y5000000D01*
X2449200Y5050800D01*
X2500000Y5025400D01*
X2550800Y5050800D01*
X2525400Y5000000D01*
X2550800Y4949200D01*
X2500000Y4974600D01*
X2449200Y4949200D01*
X2199200D02*
X2224600Y5000000D01*
X2199200Y5050800D01*
X2250000Y5025400D01*
X2300800Y5050800D01*
X2275400Y5000000D01*
X2300800Y4949200D01*
X2250000Y4974600D01*
X2199200Y4949200D01*
X1949200D02*
X1974600Y5000000D01*
X1949200Y5050800D01*
X2000000Y5025400D01*
X2050800Y5050800D01*
X2025400Y5000000D01*
X2050800Y4949200D01*
X2000000Y4974600D01*
X1949200Y4949200D01*
X1699200D02*
X1724600Y5000000D01*
X1699200Y5050800D01*
X1750000Y5025400D01*
X1800800Y5050800D01*
X1775400Y5000000D01*
X1800800Y4949200D01*
X1750000Y4974600D01*
X1699200Y4949200D01*
X1449200D02*
X1474600Y5000000D01*
X1449200Y5050800D01*
X1500000Y5025400D01*
X1550800Y5050800D01*
X1525400Y5000000D01*
X1550800Y4949200D01*
X1500000Y4974600D01*
X1449200Y4949200D01*
X1199200D02*
X1224600Y5000000D01*
X1199200Y5050800D01*
X1250000Y5025400D01*
X1300800Y5050800D01*
X1275400Y5000000D01*
X1300800Y4949200D01*
X1250000Y4974600D01*
X1199200Y4949200D01*
X949200D02*
X974600Y5000000D01*
X949200Y5050800D01*
X1000000Y5025400D01*
X1050800Y5050800D01*
X1025400Y5000000D01*
X1050800Y4949200D01*
X1000000Y4974600D01*
X949200Y4949200D01*
X699200D02*
X724600Y5000000D01*
X699200Y5050800D01*
X750000Y5025400D01*
X800800Y5050800D01*
X775400Y5000000D01*
X800800Y4949200D01*
X750000Y4974600D01*
X699200Y4949200D01*
Y4699200D02*
X724600Y4750000D01*
X699200Y4800800D01*
X750000Y4775400D01*
X800800Y4800800D01*
X775400Y4750000D01*
X800800Y4699200D01*
X750000Y4724600D01*
X699200Y4699200D01*
X449200D02*
X474600Y4750000D01*
X449200Y4800800D01*
X500000Y4775400D01*
X550800Y4800800D01*
X525400Y4750000D01*
X550800Y4699200D01*
X500000Y4724600D01*
X449200Y4699200D01*
Y4949200D02*
X474600Y5000000D01*
X449200Y5050800D01*
X500000Y5025400D01*
X550800Y5050800D01*
X525400Y5000000D01*
X550800Y4949200D01*
X500000Y4974600D01*
X449200Y4949200D01*
X8199200Y5199200D02*
X8224600Y5250000D01*
X8199200Y5300800D01*
X8250000Y5275400D01*
X8300800Y5300800D01*
X8275400Y5250000D01*
X8300800Y5199200D01*
X8250000Y5224600D01*
X8199200Y5199200D01*
X8449200D02*
X8474600Y5250000D01*
X8449200Y5300800D01*
X8500000Y5275400D01*
X8550800Y5300800D01*
X8525400Y5250000D01*
X8550800Y5199200D01*
X8500000Y5224600D01*
X8449200Y5199200D01*
X8699200D02*
X8724600Y5250000D01*
X8699200Y5300800D01*
X8750000Y5275400D01*
X8800800Y5300800D01*
X8775400Y5250000D01*
X8800800Y5199200D01*
X8750000Y5224600D01*
X8699200Y5199200D01*
X9199200D02*
X9224600Y5250000D01*
X9199200Y5300800D01*
X9250000Y5275400D01*
X9300800Y5300800D01*
X9275400Y5250000D01*
X9300800Y5199200D01*
X9250000Y5224600D01*
X9199200Y5199200D01*
X9449200D02*
X9474600Y5250000D01*
X9449200Y5300800D01*
X9500000Y5275400D01*
X9550800Y5300800D01*
X9525400Y5250000D01*
X9550800Y5199200D01*
X9500000Y5224600D01*
X9449200Y5199200D01*
X9699200D02*
X9724600Y5250000D01*
X9699200Y5300800D01*
X9750000Y5275400D01*
X9800800Y5300800D01*
X9775400Y5250000D01*
X9800800Y5199200D01*
X9750000Y5224600D01*
X9699200Y5199200D01*
Y4949200D02*
X9724600Y5000000D01*
X9699200Y5050800D01*
X9750000Y5025400D01*
X9800800Y5050800D01*
X9775400Y5000000D01*
X9800800Y4949200D01*
X9750000Y4974600D01*
X9699200Y4949200D01*
Y4699200D02*
X9724600Y4750000D01*
X9699200Y4800800D01*
X9750000Y4775400D01*
X9800800Y4800800D01*
X9775400Y4750000D01*
X9800800Y4699200D01*
X9750000Y4724600D01*
X9699200Y4699200D01*
Y4449200D02*
X9724600Y4500000D01*
X9699200Y4550800D01*
X9750000Y4525400D01*
X9800800Y4550800D01*
X9775400Y4500000D01*
X9800800Y4449200D01*
X9750000Y4474600D01*
X9699200Y4449200D01*
Y4199200D02*
X9724600Y4250000D01*
X9699200Y4300800D01*
X9750000Y4275400D01*
X9800800Y4300800D01*
X9775400Y4250000D01*
X9800800Y4199200D01*
X9750000Y4224600D01*
X9699200Y4199200D01*
Y1949200D02*
X9724600Y2000000D01*
X9699200Y2050800D01*
X9750000Y2025400D01*
X9800800Y2050800D01*
X9775400Y2000000D01*
X9800800Y1949200D01*
X9750000Y1974600D01*
X9699200Y1949200D01*
Y1699200D02*
X9724600Y1750000D01*
X9699200Y1800800D01*
X9750000Y1775400D01*
X9800800Y1800800D01*
X9775400Y1750000D01*
X9800800Y1699200D01*
X9750000Y1724600D01*
X9699200Y1699200D01*
Y1449200D02*
X9724600Y1500000D01*
X9699200Y1550800D01*
X9750000Y1525400D01*
X9800800Y1550800D01*
X9775400Y1500000D01*
X9800800Y1449200D01*
X9750000Y1474600D01*
X9699200Y1449200D01*
Y1199200D02*
X9724600Y1250000D01*
X9699200Y1300800D01*
X9750000Y1275400D01*
X9800800Y1300800D01*
X9775400Y1250000D01*
X9800800Y1199200D01*
X9750000Y1224600D01*
X9699200Y1199200D01*
Y949200D02*
X9724600Y1000000D01*
X9699200Y1050800D01*
X9750000Y1025400D01*
X9800800Y1050800D01*
X9775400Y1000000D01*
X9800800Y949200D01*
X9750000Y974600D01*
X9699200Y949200D01*
Y699200D02*
X9724600Y750000D01*
X9699200Y800800D01*
X9750000Y775400D01*
X9800800Y800800D01*
X9775400Y750000D01*
X9800800Y699200D01*
X9750000Y724600D01*
X9699200Y699200D01*
Y449200D02*
X9724600Y500000D01*
X9699200Y550800D01*
X9750000Y525400D01*
X9800800Y550800D01*
X9775400Y500000D01*
X9800800Y449200D01*
X9750000Y474600D01*
X9699200Y449200D01*
Y199200D02*
X9724600Y250000D01*
X9699200Y300800D01*
X9750000Y275400D01*
X9800800Y300800D01*
X9775400Y250000D01*
X9800800Y199200D01*
X9750000Y224600D01*
X9699200Y199200D01*
X9449200D02*
X9474600Y250000D01*
X9449200Y300800D01*
X9500000Y275400D01*
X9550800Y300800D01*
X9525400Y250000D01*
X9550800Y199200D01*
X9500000Y224600D01*
X9449200Y199200D01*
X9199200D02*
X9224600Y250000D01*
X9199200Y300800D01*
X9250000Y275400D01*
X9300800Y300800D01*
X9275400Y250000D01*
X9300800Y199200D01*
X9250000Y224600D01*
X9199200Y199200D01*
X8949200D02*
X8974600Y250000D01*
X8949200Y300800D01*
X9000000Y275400D01*
X9050800Y300800D01*
X9025400Y250000D01*
X9050800Y199200D01*
X9000000Y224600D01*
X8949200Y199200D01*
X8699200D02*
X8724600Y250000D01*
X8699200Y300800D01*
X8750000Y275400D01*
X8800800Y300800D01*
X8775400Y250000D01*
X8800800Y199200D01*
X8750000Y224600D01*
X8699200Y199200D01*
X8449200D02*
X8474600Y250000D01*
X8449200Y300800D01*
X8500000Y275400D01*
X8550800Y300800D01*
X8525400Y250000D01*
X8550800Y199200D01*
X8500000Y224600D01*
X8449200Y199200D01*
X8199200D02*
X8224600Y250000D01*
X8199200Y300800D01*
X8250000Y275400D01*
X8300800Y300800D01*
X8275400Y250000D01*
X8300800Y199200D01*
X8250000Y224600D01*
X8199200Y199200D01*
X7949200D02*
X7974600Y250000D01*
X7949200Y300800D01*
X8000000Y275400D01*
X8050800Y300800D01*
X8025400Y250000D01*
X8050800Y199200D01*
X8000000Y224600D01*
X7949200Y199200D01*
X7699200D02*
X7724600Y250000D01*
X7699200Y300800D01*
X7750000Y275400D01*
X7800800Y300800D01*
X7775400Y250000D01*
X7800800Y199200D01*
X7750000Y224600D01*
X7699200Y199200D01*
X7449200D02*
X7474600Y250000D01*
X7449200Y300800D01*
X7500000Y275400D01*
X7550800Y300800D01*
X7525400Y250000D01*
X7550800Y199200D01*
X7500000Y224600D01*
X7449200Y199200D01*
X6949200D02*
X6974600Y250000D01*
X6949200Y300800D01*
X7000000Y275400D01*
X7050800Y300800D01*
X7025400Y250000D01*
X7050800Y199200D01*
X7000000Y224600D01*
X6949200Y199200D01*
X7199200D02*
X7224600Y250000D01*
X7199200Y300800D01*
X7250000Y275400D01*
X7300800Y300800D01*
X7275400Y250000D01*
X7300800Y199200D01*
X7250000Y224600D01*
X7199200Y199200D01*
X6699200D02*
X6724600Y250000D01*
X6699200Y300800D01*
X6750000Y275400D01*
X6800800Y300800D01*
X6775400Y250000D01*
X6800800Y199200D01*
X6750000Y224600D01*
X6699200Y199200D01*
X6449200D02*
X6474600Y250000D01*
X6449200Y300800D01*
X6500000Y275400D01*
X6550800Y300800D01*
X6525400Y250000D01*
X6550800Y199200D01*
X6500000Y224600D01*
X6449200Y199200D01*
X6199200D02*
X6224600Y250000D01*
X6199200Y300800D01*
X6250000Y275400D01*
X6300800Y300800D01*
X6275400Y250000D01*
X6300800Y199200D01*
X6250000Y224600D01*
X6199200Y199200D01*
X5949200D02*
X5974600Y250000D01*
X5949200Y300800D01*
X6000000Y275400D01*
X6050800Y300800D01*
X6025400Y250000D01*
X6050800Y199200D01*
X6000000Y224600D01*
X5949200Y199200D01*
X5699200D02*
X5724600Y250000D01*
X5699200Y300800D01*
X5750000Y275400D01*
X5800800Y300800D01*
X5775400Y250000D01*
X5800800Y199200D01*
X5750000Y224600D01*
X5699200Y199200D01*
X5449200D02*
X5474600Y250000D01*
X5449200Y300800D01*
X5500000Y275400D01*
X5550800Y300800D01*
X5525400Y250000D01*
X5550800Y199200D01*
X5500000Y224600D01*
X5449200Y199200D01*
X5199200D02*
X5224600Y250000D01*
X5199200Y300800D01*
X5250000Y275400D01*
X5300800Y300800D01*
X5275400Y250000D01*
X5300800Y199200D01*
X5250000Y224600D01*
X5199200Y199200D01*
X4949200D02*
X4974600Y250000D01*
X4949200Y300800D01*
X5000000Y275400D01*
X5050800Y300800D01*
X5025400Y250000D01*
X5050800Y199200D01*
X5000000Y224600D01*
X4949200Y199200D01*
X4699200D02*
X4724600Y250000D01*
X4699200Y300800D01*
X4750000Y275400D01*
X4800800Y300800D01*
X4775400Y250000D01*
X4800800Y199200D01*
X4750000Y224600D01*
X4699200Y199200D01*
X4449200D02*
X4474600Y250000D01*
X4449200Y300800D01*
X4500000Y275400D01*
X4550800Y300800D01*
X4525400Y250000D01*
X4550800Y199200D01*
X4500000Y224600D01*
X4449200Y199200D01*
X4199200D02*
X4224600Y250000D01*
X4199200Y300800D01*
X4250000Y275400D01*
X4300800Y300800D01*
X4275400Y250000D01*
X4300800Y199200D01*
X4250000Y224600D01*
X4199200Y199200D01*
X3949200D02*
X3974600Y250000D01*
X3949200Y300800D01*
X4000000Y275400D01*
X4050800Y300800D01*
X4025400Y250000D01*
X4050800Y199200D01*
X4000000Y224600D01*
X3949200Y199200D01*
X3699200D02*
X3724600Y250000D01*
X3699200Y300800D01*
X3750000Y275400D01*
X3800800Y300800D01*
X3775400Y250000D01*
X3800800Y199200D01*
X3750000Y224600D01*
X3699200Y199200D01*
X3449200D02*
X3474600Y250000D01*
X3449200Y300800D01*
X3500000Y275400D01*
X3550800Y300800D01*
X3525400Y250000D01*
X3550800Y199200D01*
X3500000Y224600D01*
X3449200Y199200D01*
X3199200D02*
X3224600Y250000D01*
X3199200Y300800D01*
X3250000Y275400D01*
X3300800Y300800D01*
X3275400Y250000D01*
X3300800Y199200D01*
X3250000Y224600D01*
X3199200Y199200D01*
X2949200D02*
X2974600Y250000D01*
X2949200Y300800D01*
X3000000Y275400D01*
X3050800Y300800D01*
X3025400Y250000D01*
X3050800Y199200D01*
X3000000Y224600D01*
X2949200Y199200D01*
X2699200D02*
X2724600Y250000D01*
X2699200Y300800D01*
X2750000Y275400D01*
X2800800Y300800D01*
X2775400Y250000D01*
X2800800Y199200D01*
X2750000Y224600D01*
X2699200Y199200D01*
X2449200D02*
X2474600Y250000D01*
X2449200Y300800D01*
X2500000Y275400D01*
X2550800Y300800D01*
X2525400Y250000D01*
X2550800Y199200D01*
X2500000Y224600D01*
X2449200Y199200D01*
X2199200D02*
X2224600Y250000D01*
X2199200Y300800D01*
X2250000Y275400D01*
X2300800Y300800D01*
X2275400Y250000D01*
X2300800Y199200D01*
X2250000Y224600D01*
X2199200Y199200D01*
X1949200D02*
X1974600Y250000D01*
X1949200Y300800D01*
X2000000Y275400D01*
X2050800Y300800D01*
X2025400Y250000D01*
X2050800Y199200D01*
X2000000Y224600D01*
X1949200Y199200D01*
X1699200D02*
X1724600Y250000D01*
X1699200Y300800D01*
X1750000Y275400D01*
X1800800Y300800D01*
X1775400Y250000D01*
X1800800Y199200D01*
X1750000Y224600D01*
X1699200Y199200D01*
X1449200D02*
X1474600Y250000D01*
X1449200Y300800D01*
X1500000Y275400D01*
X1550800Y300800D01*
X1525400Y250000D01*
X1550800Y199200D01*
X1500000Y224600D01*
X1449200Y199200D01*
X1199200D02*
X1224600Y250000D01*
X1199200Y300800D01*
X1250000Y275400D01*
X1300800Y300800D01*
X1275400Y250000D01*
X1300800Y199200D01*
X1250000Y224600D01*
X1199200Y199200D01*
X949200D02*
X974600Y250000D01*
X949200Y300800D01*
X1000000Y275400D01*
X1050800Y300800D01*
X1025400Y250000D01*
X1050800Y199200D01*
X1000000Y224600D01*
X949200Y199200D01*
X699200D02*
X724600Y250000D01*
X699200Y300800D01*
X750000Y275400D01*
X800800Y300800D01*
X775400Y250000D01*
X800800Y199200D01*
X750000Y224600D01*
X699200Y199200D01*
X449200D02*
X474600Y250000D01*
X449200Y300800D01*
X500000Y275400D01*
X550800Y300800D01*
X525400Y250000D01*
X550800Y199200D01*
X500000Y224600D01*
X449200Y199200D01*
X199200D02*
X224600Y250000D01*
X199200Y300800D01*
X250000Y275400D01*
X300800Y300800D01*
X275400Y250000D01*
X300800Y199200D01*
X250000Y224600D01*
X199200Y199200D01*
Y449200D02*
X224600Y500000D01*
X199200Y550800D01*
X250000Y525400D01*
X300800Y550800D01*
X275400Y500000D01*
X300800Y449200D01*
X250000Y474600D01*
X199200Y449200D01*
Y699200D02*
X224600Y750000D01*
X199200Y800800D01*
X250000Y775400D01*
X300800Y800800D01*
X275400Y750000D01*
X300800Y699200D01*
X250000Y724600D01*
X199200Y699200D01*
Y949200D02*
X224600Y1000000D01*
X199200Y1050800D01*
X250000Y1025400D01*
X300800Y1050800D01*
X275400Y1000000D01*
X300800Y949200D01*
X250000Y974600D01*
X199200Y949200D01*
Y1199200D02*
X224600Y1250000D01*
X199200Y1300800D01*
X250000Y1275400D01*
X300800Y1300800D01*
X275400Y1250000D01*
X300800Y1199200D01*
X250000Y1224600D01*
X199200Y1199200D01*
Y1449200D02*
X224600Y1500000D01*
X199200Y1550800D01*
X250000Y1525400D01*
X300800Y1550800D01*
X275400Y1500000D01*
X300800Y1449200D01*
X250000Y1474600D01*
X199200Y1449200D01*
Y1699200D02*
X224600Y1750000D01*
X199200Y1800800D01*
X250000Y1775400D01*
X300800Y1800800D01*
X275400Y1750000D01*
X300800Y1699200D01*
X250000Y1724600D01*
X199200Y1699200D01*
Y1949200D02*
X224600Y2000000D01*
X199200Y2050800D01*
X250000Y2025400D01*
X300800Y2050800D01*
X275400Y2000000D01*
X300800Y1949200D01*
X250000Y1974600D01*
X199200Y1949200D01*
Y2199200D02*
X224600Y2250000D01*
X199200Y2300800D01*
X250000Y2275400D01*
X300800Y2300800D01*
X275400Y2250000D01*
X300800Y2199200D01*
X250000Y2224600D01*
X199200Y2199200D01*
Y2449200D02*
X224600Y2500000D01*
X199200Y2550800D01*
X250000Y2525400D01*
X300800Y2550800D01*
X275400Y2500000D01*
X300800Y2449200D01*
X250000Y2474600D01*
X199200Y2449200D01*
Y2699200D02*
X224600Y2750000D01*
X199200Y2800800D01*
X250000Y2775400D01*
X300800Y2800800D01*
X275400Y2750000D01*
X300800Y2699200D01*
X250000Y2724600D01*
X199200Y2699200D01*
Y2949200D02*
X224600Y3000000D01*
X199200Y3050800D01*
X250000Y3025400D01*
X300800Y3050800D01*
X275400Y3000000D01*
X300800Y2949200D01*
X250000Y2974600D01*
X199200Y2949200D01*
Y3199200D02*
X224600Y3250000D01*
X199200Y3300800D01*
X250000Y3275400D01*
X300800Y3300800D01*
X275400Y3250000D01*
X300800Y3199200D01*
X250000Y3224600D01*
X199200Y3199200D01*
Y4699200D02*
X224600Y4750000D01*
X199200Y4800800D01*
X250000Y4775400D01*
X300800Y4800800D01*
X275400Y4750000D01*
X300800Y4699200D01*
X250000Y4724600D01*
X199200Y4699200D01*
X4199200Y5199200D02*
X4224600Y5250000D01*
X4199200Y5300800D01*
X4250000Y5275400D01*
X4300800Y5300800D01*
X4275400Y5250000D01*
X4300800Y5199200D01*
X4250000Y5224600D01*
X4199200Y5199200D01*
X3949200D02*
X3974600Y5250000D01*
X3949200Y5300800D01*
X4000000Y5275400D01*
X4050800Y5300800D01*
X4025400Y5250000D01*
X4050800Y5199200D01*
X4000000Y5224600D01*
X3949200Y5199200D01*
X3699200D02*
X3724600Y5250000D01*
X3699200Y5300800D01*
X3750000Y5275400D01*
X3800800Y5300800D01*
X3775400Y5250000D01*
X3800800Y5199200D01*
X3750000Y5224600D01*
X3699200Y5199200D01*
X3449200D02*
X3474600Y5250000D01*
X3449200Y5300800D01*
X3500000Y5275400D01*
X3550800Y5300800D01*
X3525400Y5250000D01*
X3550800Y5199200D01*
X3500000Y5224600D01*
X3449200Y5199200D01*
X3199200D02*
X3224600Y5250000D01*
X3199200Y5300800D01*
X3250000Y5275400D01*
X3300800Y5300800D01*
X3275400Y5250000D01*
X3300800Y5199200D01*
X3250000Y5224600D01*
X3199200Y5199200D01*
X2949200D02*
X2974600Y5250000D01*
X2949200Y5300800D01*
X3000000Y5275400D01*
X3050800Y5300800D01*
X3025400Y5250000D01*
X3050800Y5199200D01*
X3000000Y5224600D01*
X2949200Y5199200D01*
X2699200D02*
X2724600Y5250000D01*
X2699200Y5300800D01*
X2750000Y5275400D01*
X2800800Y5300800D01*
X2775400Y5250000D01*
X2800800Y5199200D01*
X2750000Y5224600D01*
X2699200Y5199200D01*
X2449200D02*
X2474600Y5250000D01*
X2449200Y5300800D01*
X2500000Y5275400D01*
X2550800Y5300800D01*
X2525400Y5250000D01*
X2550800Y5199200D01*
X2500000Y5224600D01*
X2449200Y5199200D01*
X2199200D02*
X2224600Y5250000D01*
X2199200Y5300800D01*
X2250000Y5275400D01*
X2300800Y5300800D01*
X2275400Y5250000D01*
X2300800Y5199200D01*
X2250000Y5224600D01*
X2199200Y5199200D01*
X1949200D02*
X1974600Y5250000D01*
X1949200Y5300800D01*
X2000000Y5275400D01*
X2050800Y5300800D01*
X2025400Y5250000D01*
X2050800Y5199200D01*
X2000000Y5224600D01*
X1949200Y5199200D01*
X1699200D02*
X1724600Y5250000D01*
X1699200Y5300800D01*
X1750000Y5275400D01*
X1800800Y5300800D01*
X1775400Y5250000D01*
X1800800Y5199200D01*
X1750000Y5224600D01*
X1699200Y5199200D01*
X1449200D02*
X1474600Y5250000D01*
X1449200Y5300800D01*
X1500000Y5275400D01*
X1550800Y5300800D01*
X1525400Y5250000D01*
X1550800Y5199200D01*
X1500000Y5224600D01*
X1449200Y5199200D01*
X1199200D02*
X1224600Y5250000D01*
X1199200Y5300800D01*
X1250000Y5275400D01*
X1300800Y5300800D01*
X1275400Y5250000D01*
X1300800Y5199200D01*
X1250000Y5224600D01*
X1199200Y5199200D01*
X949200D02*
X974600Y5250000D01*
X949200Y5300800D01*
X1000000Y5275400D01*
X1050800Y5300800D01*
X1025400Y5250000D01*
X1050800Y5199200D01*
X1000000Y5224600D01*
X949200Y5199200D01*
X699200D02*
X724600Y5250000D01*
X699200Y5300800D01*
X750000Y5275400D01*
X800800Y5300800D01*
X775400Y5250000D01*
X800800Y5199200D01*
X750000Y5224600D01*
X699200Y5199200D01*
X449200D02*
X474600Y5250000D01*
X449200Y5300800D01*
X500000Y5275400D01*
X550800Y5300800D01*
X525400Y5250000D01*
X550800Y5199200D01*
X500000Y5224600D01*
X449200Y5199200D01*
X199200Y4949200D02*
X224600Y5000000D01*
X199200Y5050800D01*
X250000Y5025400D01*
X300800Y5050800D01*
X275400Y5000000D01*
X300800Y4949200D01*
X250000Y4974600D01*
X199200Y4949200D01*
Y5199200D02*
X224600Y5250000D01*
X199200Y5300800D01*
X250000Y5275400D01*
X300800Y5300800D01*
X275400Y5250000D01*
X300800Y5199200D01*
X250000Y5224600D01*
X199200Y5199200D01*
X5039200Y5149200D02*
X5064600Y5200000D01*
X5039200Y5250800D01*
X5090000Y5225400D01*
X5140800Y5250800D01*
X5115400Y5200000D01*
X5140800Y5149200D01*
X5090000Y5174600D01*
X5039200Y5149200D01*
X5686557Y4599057D02*
X5711957Y4649857D01*
X5686557Y4700657D01*
X5737357Y4675257D01*
X5788157Y4700657D01*
X5762757Y4649857D01*
X5788157Y4599057D01*
X5737357Y4624457D01*
X5686557Y4599057D01*
X7539200Y4129200D02*
X7564600Y4180000D01*
X7539200Y4230800D01*
X7590000Y4205400D01*
X7640800Y4230800D01*
X7615400Y4180000D01*
X7640800Y4129200D01*
X7590000Y4154600D01*
X7539200Y4129200D01*
X3319200Y4059200D02*
X3344600Y4110000D01*
X3319200Y4160800D01*
X3370000Y4135400D01*
X3420800Y4160800D01*
X3395400Y4110000D01*
X3420800Y4059200D01*
X3370000Y4084600D01*
X3319200Y4059200D01*
X8754200Y2986700D02*
X8779600Y3037500D01*
X8754200Y3088300D01*
X8805000Y3062900D01*
X8855800Y3088300D01*
X8830400Y3037500D01*
X8855800Y2986700D01*
X8805000Y3012100D01*
X8754200Y2986700D01*
X9109200Y3071700D02*
X9134600Y3122500D01*
X9109200Y3173300D01*
X9160000Y3147900D01*
X9210800Y3173300D01*
X9185400Y3122500D01*
X9210800Y3071700D01*
X9160000Y3097100D01*
X9109200Y3071700D01*
X7331700Y2954200D02*
X7357100Y3005000D01*
X7331700Y3055800D01*
X7382500Y3030400D01*
X7433300Y3055800D01*
X7407900Y3005000D01*
X7433300Y2954200D01*
X7382500Y2979600D01*
X7331700Y2954200D01*
X6489200Y3906700D02*
X6514600Y3957500D01*
X6489200Y4008300D01*
X6540000Y3982900D01*
X6590800Y4008300D01*
X6565400Y3957500D01*
X6590800Y3906700D01*
X6540000Y3932100D01*
X6489200Y3906700D01*
X6121700Y3539200D02*
X6147100Y3590000D01*
X6121700Y3640800D01*
X6172500Y3615400D01*
X6223300Y3640800D01*
X6197900Y3590000D01*
X6223300Y3539200D01*
X6172500Y3564600D01*
X6121700Y3539200D01*
X6424200Y4489200D02*
X6449600Y4540000D01*
X6424200Y4590800D01*
X6475000Y4565400D01*
X6525800Y4590800D01*
X6500400Y4540000D01*
X6525800Y4489200D01*
X6475000Y4514600D01*
X6424200Y4489200D01*
X7341700Y4229200D02*
X7367100Y4280000D01*
X7341700Y4330800D01*
X7392500Y4305400D01*
X7443300Y4330800D01*
X7417900Y4280000D01*
X7443300Y4229200D01*
X7392500Y4254600D01*
X7341700Y4229200D01*
X4379200Y4814200D02*
X4404600Y4865000D01*
X4379200Y4915800D01*
X4430000Y4890400D01*
X4480800Y4915800D01*
X4455400Y4865000D01*
X4480800Y4814200D01*
X4430000Y4839600D01*
X4379200Y4814200D01*
X4704200Y4824200D02*
X4729600Y4875000D01*
X4704200Y4925800D01*
X4755000Y4900400D01*
X4805800Y4925800D01*
X4780400Y4875000D01*
X4805800Y4824200D01*
X4755000Y4849600D01*
X4704200Y4824200D01*
X5939200Y5264200D02*
X5964600Y5315000D01*
X5939200Y5365800D01*
X5990000Y5340400D01*
X6040800Y5365800D01*
X6015400Y5315000D01*
X6040800Y5264200D01*
X5990000Y5289600D01*
X5939200Y5264200D01*
Y5111700D02*
X5964600Y5162500D01*
X5939200Y5213300D01*
X5990000Y5187900D01*
X6040800Y5213300D01*
X6015400Y5162500D01*
X6040800Y5111700D01*
X5990000Y5137100D01*
X5939200Y5111700D01*
X3376700Y4606700D02*
X3402100Y4657500D01*
X3376700Y4708300D01*
X3427500Y4682900D01*
X3478300Y4708300D01*
X3452900Y4657500D01*
X3478300Y4606700D01*
X3427500Y4632100D01*
X3376700Y4606700D01*
X2979200Y4544200D02*
X3004600Y4595000D01*
X2979200Y4645800D01*
X3030000Y4620400D01*
X3080800Y4645800D01*
X3055400Y4595000D01*
X3080800Y4544200D01*
X3030000Y4569600D01*
X2979200Y4544200D01*
X6876700Y2536700D02*
X6902100Y2587500D01*
X6876700Y2638300D01*
X6927500Y2612900D01*
X6978300Y2638300D01*
X6952900Y2587500D01*
X6978300Y2536700D01*
X6927500Y2562100D01*
X6876700Y2536700D01*
X7326700Y3804200D02*
X7352100Y3855000D01*
X7326700Y3905800D01*
X7377500Y3880400D01*
X7428300Y3905800D01*
X7402900Y3855000D01*
X7428300Y3804200D01*
X7377500Y3829600D01*
X7326700Y3804200D01*
X6709200Y3651700D02*
X6734600Y3702500D01*
X6709200Y3753300D01*
X6760000Y3727900D01*
X6810800Y3753300D01*
X6785400Y3702500D01*
X6810800Y3651700D01*
X6760000Y3677100D01*
X6709200Y3651700D01*
X6764200Y2534200D02*
X6789600Y2585000D01*
X6764200Y2635800D01*
X6815000Y2610400D01*
X6865800Y2635800D01*
X6840400Y2585000D01*
X6865800Y2534200D01*
X6815000Y2559600D01*
X6764200Y2534200D01*
X6644200Y3921700D02*
X6669600Y3972500D01*
X6644200Y4023300D01*
X6695000Y3997900D01*
X6745800Y4023300D01*
X6720400Y3972500D01*
X6745800Y3921700D01*
X6695000Y3947100D01*
X6644200Y3921700D01*
X6761700Y3961700D02*
X6787100Y4012500D01*
X6761700Y4063300D01*
X6812500Y4037900D01*
X6863300Y4063300D01*
X6837900Y4012500D01*
X6863300Y3961700D01*
X6812500Y3987100D01*
X6761700Y3961700D01*
X6799200Y3786700D02*
X6824600Y3837500D01*
X6799200Y3888300D01*
X6850000Y3862900D01*
X6900800Y3888300D01*
X6875400Y3837500D01*
X6900800Y3786700D01*
X6850000Y3812100D01*
X6799200Y3786700D01*
X6914200D02*
X6939600Y3837500D01*
X6914200Y3888300D01*
X6965000Y3862900D01*
X7015800Y3888300D01*
X6990400Y3837500D01*
X7015800Y3786700D01*
X6965000Y3812100D01*
X6914200Y3786700D01*
X7031700D02*
X7057100Y3837500D01*
X7031700Y3888300D01*
X7082500Y3862900D01*
X7133300Y3888300D01*
X7107900Y3837500D01*
X7133300Y3786700D01*
X7082500Y3812100D01*
X7031700Y3786700D01*
X7151700D02*
X7177100Y3837500D01*
X7151700Y3888300D01*
X7202500Y3862900D01*
X7253300Y3888300D01*
X7227900Y3837500D01*
X7253300Y3786700D01*
X7202500Y3812100D01*
X7151700Y3786700D01*
X6610866Y3299200D02*
X6636266Y3350000D01*
X6610866Y3400800D01*
X6661666Y3375400D01*
X6712466Y3400800D01*
X6687066Y3350000D01*
X6712466Y3299200D01*
X6661666Y3324600D01*
X6610866Y3299200D01*
X6374200D02*
X6399600Y3350000D01*
X6374200Y3400800D01*
X6425000Y3375400D01*
X6475800Y3400800D01*
X6450400Y3350000D01*
X6475800Y3299200D01*
X6425000Y3324600D01*
X6374200Y3299200D01*
X6492533D02*
X6517933Y3350000D01*
X6492533Y3400800D01*
X6543333Y3375400D01*
X6594133Y3400800D01*
X6568733Y3350000D01*
X6594133Y3299200D01*
X6543333Y3324600D01*
X6492533Y3299200D01*
X9754200Y2935867D02*
X9779600Y2986667D01*
X9754200Y3037467D01*
X9805000Y3012067D01*
X9855800Y3037467D01*
X9830400Y2986667D01*
X9855800Y2935867D01*
X9805000Y2961267D01*
X9754200Y2935867D01*
Y3054200D02*
X9779600Y3105000D01*
X9754200Y3155800D01*
X9805000Y3130400D01*
X9855800Y3155800D01*
X9830400Y3105000D01*
X9855800Y3054200D01*
X9805000Y3079600D01*
X9754200Y3054200D01*
Y2817533D02*
X9779600Y2868333D01*
X9754200Y2919133D01*
X9805000Y2893733D01*
X9855800Y2919133D01*
X9830400Y2868333D01*
X9855800Y2817533D01*
X9805000Y2842933D01*
X9754200Y2817533D01*
Y2699200D02*
X9779600Y2750000D01*
X9754200Y2800800D01*
X9805000Y2775400D01*
X9855800Y2800800D01*
X9830400Y2750000D01*
X9855800Y2699200D01*
X9805000Y2724600D01*
X9754200Y2699200D01*
X8426700Y4364200D02*
X8452100Y4415000D01*
X8426700Y4465800D01*
X8477500Y4440400D01*
X8528300Y4465800D01*
X8502900Y4415000D01*
X8528300Y4364200D01*
X8477500Y4389600D01*
X8426700Y4364200D01*
X5536700Y4314200D02*
X5562100Y4365000D01*
X5536700Y4415800D01*
X5587500Y4390400D01*
X5638300Y4415800D01*
X5612900Y4365000D01*
X5638300Y4314200D01*
X5587500Y4339600D01*
X5536700Y4314200D01*
X7124200Y3006700D02*
X7149600Y3057500D01*
X7124200Y3108300D01*
X7175000Y3082900D01*
X7225800Y3108300D01*
X7200400Y3057500D01*
X7225800Y3006700D01*
X7175000Y3032100D01*
X7124200Y3006700D01*
X8339200Y3141700D02*
X8364600Y3192500D01*
X8339200Y3243300D01*
X8390000Y3217900D01*
X8440800Y3243300D01*
X8415400Y3192500D01*
X8440800Y3141700D01*
X8390000Y3167100D01*
X8339200Y3141700D01*
X8939200Y2916701D02*
X8964600Y2967501D01*
X8939200Y3018301D01*
X8990000Y2992901D01*
X9040800Y3018301D01*
X9015400Y2967501D01*
X9040800Y2916701D01*
X8990000Y2942101D01*
X8939200Y2916701D01*
X6606700Y4844200D02*
X6632100Y4895000D01*
X6606700Y4945800D01*
X6657500Y4920400D01*
X6708300Y4945800D01*
X6682900Y4895000D01*
X6708300Y4844200D01*
X6657500Y4869600D01*
X6606700Y4844200D01*
X6924200Y5251700D02*
X6949600Y5302500D01*
X6924200Y5353300D01*
X6975000Y5327900D01*
X7025800Y5353300D01*
X7000400Y5302500D01*
X7025800Y5251700D01*
X6975000Y5277100D01*
X6924200Y5251700D01*
X8336700Y4619200D02*
X8362100Y4670000D01*
X8336700Y4720800D01*
X8387500Y4695400D01*
X8438300Y4720800D01*
X8412900Y4670000D01*
X8438300Y4619200D01*
X8387500Y4644600D01*
X8336700Y4619200D01*
X8289200Y4156700D02*
X8314600Y4207500D01*
X8289200Y4258300D01*
X8340000Y4232900D01*
X8390800Y4258300D01*
X8365400Y4207500D01*
X8390800Y4156700D01*
X8340000Y4182100D01*
X8289200Y4156700D01*
X8419200D02*
X8444600Y4207500D01*
X8419200Y4258300D01*
X8470000Y4232900D01*
X8520800Y4258300D01*
X8495400Y4207500D01*
X8520800Y4156700D01*
X8470000Y4182100D01*
X8419200Y4156700D01*
X7249200Y3316700D02*
X7274600Y3367500D01*
X7249200Y3418300D01*
X7300000Y3392900D01*
X7350800Y3418300D01*
X7325400Y3367500D01*
X7350800Y3316700D01*
X7300000Y3342100D01*
X7249200Y3316700D01*
Y2716700D02*
X7274600Y2767500D01*
X7249200Y2818300D01*
X7300000Y2792900D01*
X7350800Y2818300D01*
X7325400Y2767500D01*
X7350800Y2716700D01*
X7300000Y2742100D01*
X7249200Y2716700D01*
X4381700Y2981700D02*
X4407100Y3032500D01*
X4381700Y3083300D01*
X4432500Y3057900D01*
X4483300Y3083300D01*
X4457900Y3032500D01*
X4483300Y2981700D01*
X4432500Y3007100D01*
X4381700Y2981700D01*
X4831701Y3609200D02*
X4857101Y3660000D01*
X4831701Y3710800D01*
X4882501Y3685400D01*
X4933301Y3710800D01*
X4907901Y3660000D01*
X4933301Y3609200D01*
X4882501Y3634600D01*
X4831701Y3609200D01*
X5579200Y3031700D02*
X5604600Y3082500D01*
X5579200Y3133300D01*
X5630000Y3107900D01*
X5680800Y3133300D01*
X5655400Y3082500D01*
X5680800Y3031700D01*
X5630000Y3057100D01*
X5579200Y3031700D01*
X5449200D02*
X5474600Y3082500D01*
X5449200Y3133300D01*
X5500000Y3107900D01*
X5550800Y3133300D01*
X5525400Y3082500D01*
X5550800Y3031700D01*
X5500000Y3057100D01*
X5449200Y3031700D01*
X6489200Y3616700D02*
X6514600Y3667500D01*
X6489200Y3718300D01*
X6540000Y3692900D01*
X6590800Y3718300D01*
X6565400Y3667500D01*
X6590800Y3616700D01*
X6540000Y3642100D01*
X6489200Y3616700D01*
X6359200D02*
X6384600Y3667500D01*
X6359200Y3718300D01*
X6410000Y3692900D01*
X6460800Y3718300D01*
X6435400Y3667500D01*
X6460800Y3616700D01*
X6410000Y3642100D01*
X6359200Y3616700D01*
X5759200D02*
X5784600Y3667500D01*
X5759200Y3718300D01*
X5810000Y3692900D01*
X5860800Y3718300D01*
X5835400Y3667500D01*
X5860800Y3616700D01*
X5810000Y3642100D01*
X5759200Y3616700D01*
X5629200D02*
X5654600Y3667500D01*
X5629200Y3718300D01*
X5680000Y3692900D01*
X5730800Y3718300D01*
X5705400Y3667500D01*
X5730800Y3616700D01*
X5680000Y3642100D01*
X5629200Y3616700D01*
X5849200Y3751700D02*
X5874600Y3802500D01*
X5849200Y3853300D01*
X5900000Y3827900D01*
X5950800Y3853300D01*
X5925400Y3802500D01*
X5950800Y3751700D01*
X5900000Y3777100D01*
X5849200Y3751700D01*
X5979200D02*
X6004600Y3802500D01*
X5979200Y3853300D01*
X6030000Y3827900D01*
X6080800Y3853300D01*
X6055400Y3802500D01*
X6080800Y3751700D01*
X6030000Y3777100D01*
X5979200Y3751700D01*
X6149200D02*
X6174600Y3802500D01*
X6149200Y3853300D01*
X6200000Y3827900D01*
X6250800Y3853300D01*
X6225400Y3802500D01*
X6250800Y3751700D01*
X6200000Y3777100D01*
X6149200Y3751700D01*
X6279200D02*
X6304600Y3802500D01*
X6279200Y3853300D01*
X6330000Y3827900D01*
X6380800Y3853300D01*
X6355400Y3802500D01*
X6380800Y3751700D01*
X6330000Y3777100D01*
X6279200Y3751700D01*
X6549200Y4026700D02*
X6574600Y4077500D01*
X6549200Y4128300D01*
X6600000Y4102900D01*
X6650800Y4128300D01*
X6625400Y4077500D01*
X6650800Y4026700D01*
X6600000Y4052100D01*
X6549200Y4026700D01*
X5511700Y4764200D02*
X5537100Y4815000D01*
X5511700Y4865800D01*
X5562500Y4840400D01*
X5613300Y4865800D01*
X5587900Y4815000D01*
X5613300Y4764200D01*
X5562500Y4789600D01*
X5511700Y4764200D01*
X5909200Y4816700D02*
X5934600Y4867500D01*
X5909200Y4918300D01*
X5960000Y4892900D01*
X6010800Y4918300D01*
X5985400Y4867500D01*
X6010800Y4816700D01*
X5960000Y4842100D01*
X5909200Y4816700D01*
X5606700Y5304200D02*
X5632100Y5355000D01*
X5606700Y5405800D01*
X5657500Y5380400D01*
X5708300Y5405800D01*
X5682900Y5355000D01*
X5708300Y5304200D01*
X5657500Y5329600D01*
X5606700Y5304200D01*
X5369200Y4686700D02*
X5394600Y4737500D01*
X5369200Y4788300D01*
X5420000Y4762900D01*
X5470800Y4788300D01*
X5445400Y4737500D01*
X5470800Y4686700D01*
X5420000Y4712100D01*
X5369200Y4686700D01*
X5119200Y4626700D02*
X5144600Y4677500D01*
X5119200Y4728300D01*
X5170000Y4702900D01*
X5220800Y4728300D01*
X5195400Y4677500D01*
X5220800Y4626700D01*
X5170000Y4652100D01*
X5119200Y4626700D01*
X4936700Y5144200D02*
X4962100Y5195000D01*
X4936700Y5245800D01*
X4987500Y5220400D01*
X5038300Y5245800D01*
X5012900Y5195000D01*
X5038300Y5144200D01*
X4987500Y5169600D01*
X4936700Y5144200D01*
X4936700Y4944200D02*
X4962100Y4995000D01*
X4936700Y5045800D01*
X4987500Y5020400D01*
X5038300Y5045800D01*
X5012900Y4995000D01*
X5038300Y4944200D01*
X4987500Y4969600D01*
X4936700Y4944200D01*
X4769200Y4731700D02*
X4794600Y4782500D01*
X4769200Y4833300D01*
X4820000Y4807900D01*
X4870800Y4833300D01*
X4845400Y4782500D01*
X4870800Y4731700D01*
X4820000Y4757100D01*
X4769200Y4731700D01*
X4381700Y4284200D02*
X4407100Y4335000D01*
X4381700Y4385800D01*
X4432500Y4360400D01*
X4483300Y4385800D01*
X4457900Y4335000D01*
X4483300Y4284200D01*
X4432500Y4309600D01*
X4381700Y4284200D01*
Y4414200D02*
X4407100Y4465000D01*
X4381700Y4515800D01*
X4432500Y4490400D01*
X4483300Y4515800D01*
X4457900Y4465000D01*
X4483300Y4414200D01*
X4432500Y4439600D01*
X4381700Y4414200D01*
X3344200Y3519200D02*
X3369600Y3570000D01*
X3344200Y3620800D01*
X3395000Y3595400D01*
X3445800Y3620800D01*
X3420400Y3570000D01*
X3445800Y3519200D01*
X3395000Y3544600D01*
X3344200Y3519200D01*
Y3649200D02*
X3369600Y3700000D01*
X3344200Y3750800D01*
X3395000Y3725400D01*
X3445800Y3750800D01*
X3420400Y3700000D01*
X3445800Y3649200D01*
X3395000Y3674600D01*
X3344200Y3649200D01*
X506700Y3871700D02*
X532100Y3922500D01*
X506700Y3973300D01*
X557500Y3947900D01*
X608300Y3973300D01*
X582900Y3922500D01*
X608300Y3871700D01*
X557500Y3897100D01*
X506700Y3871700D01*
X889200Y3871700D02*
X914600Y3922500D01*
X889200Y3973300D01*
X940000Y3947900D01*
X990800Y3973300D01*
X965400Y3922500D01*
X990800Y3871700D01*
X940000Y3897100D01*
X889200Y3871700D01*
X1426700Y3546700D02*
X1452100Y3597500D01*
X1426700Y3648300D01*
X1477500Y3622900D01*
X1528300Y3648300D01*
X1502900Y3597500D01*
X1528300Y3546700D01*
X1477500Y3572100D01*
X1426700Y3546700D01*
Y4559200D02*
X1452100Y4610000D01*
X1426700Y4660800D01*
X1477500Y4635400D01*
X1528300Y4660800D01*
X1502900Y4610000D01*
X1528300Y4559200D01*
X1477500Y4584600D01*
X1426700Y4559200D01*
X1601700Y3806700D02*
X1627100Y3857500D01*
X1601700Y3908300D01*
X1652500Y3882900D01*
X1703300Y3908300D01*
X1677900Y3857500D01*
X1703300Y3806700D01*
X1652500Y3832100D01*
X1601700Y3806700D01*
X2994200Y3661700D02*
X3019600Y3712500D01*
X2994200Y3763300D01*
X3045000Y3737900D01*
X3095800Y3763300D01*
X3070400Y3712500D01*
X3095800Y3661700D01*
X3045000Y3687100D01*
X2994200Y3661700D01*
X2864200D02*
X2889600Y3712500D01*
X2864200Y3763300D01*
X2915000Y3737900D01*
X2965800Y3763300D01*
X2940400Y3712500D01*
X2965800Y3661700D01*
X2915000Y3687100D01*
X2864200Y3661700D01*
X2191700Y3806700D02*
X2217100Y3857500D01*
X2191700Y3908300D01*
X2242500Y3882900D01*
X2293300Y3908300D01*
X2267900Y3857500D01*
X2293300Y3806700D01*
X2242500Y3832100D01*
X2191700Y3806700D01*
X2574200D02*
X2599600Y3857500D01*
X2574200Y3908300D01*
X2625000Y3882900D01*
X2675800Y3908300D01*
X2650400Y3857500D01*
X2675800Y3806700D01*
X2625000Y3832100D01*
X2574200Y3806700D01*
X2469200Y4446700D02*
X2494600Y4497500D01*
X2469200Y4548300D01*
X2520000Y4522900D01*
X2570800Y4548300D01*
X2545400Y4497500D01*
X2570800Y4446700D01*
X2520000Y4472100D01*
X2469200Y4446700D01*
X3009200Y4321700D02*
X3034600Y4372500D01*
X3009200Y4423300D01*
X3060000Y4397900D01*
X3110800Y4423300D01*
X3085400Y4372500D01*
X3110800Y4321700D01*
X3060000Y4347100D01*
X3009200Y4321700D01*
X3706700Y3961700D02*
X3732100Y4012500D01*
X3706700Y4063300D01*
X3757500Y4037900D01*
X3808300Y4063300D01*
X3782900Y4012500D01*
X3808300Y3961700D01*
X3757500Y3987100D01*
X3706700Y3961700D01*
X3679200Y4319200D02*
X3704600Y4370000D01*
X3679200Y4420800D01*
X3730000Y4395400D01*
X3780800Y4420800D01*
X3755400Y4370000D01*
X3780800Y4319200D01*
X3730000Y4344600D01*
X3679200Y4319200D01*
X3391700Y4419200D02*
X3417100Y4470000D01*
X3391700Y4520800D01*
X3442500Y4495400D01*
X3493300Y4520800D01*
X3467900Y4470000D01*
X3493300Y4419200D01*
X3442500Y4444600D01*
X3391700Y4419200D01*
X3479200Y4564200D02*
X3504600Y4615000D01*
X3479200Y4665800D01*
X3530000Y4640400D01*
X3580800Y4665800D01*
X3555400Y4615000D01*
X3580800Y4564200D01*
X3530000Y4589600D01*
X3479200Y4564200D01*
X3339200Y4499200D02*
X3364600Y4550000D01*
X3339200Y4600800D01*
X3390000Y4575400D01*
X3440800Y4600800D01*
X3415400Y4550000D01*
X3440800Y4499200D01*
X3390000Y4524600D01*
X3339200Y4499200D01*
X3084200Y4564200D02*
X3109600Y4615000D01*
X3084200Y4665800D01*
X3135000Y4640400D01*
X3185800Y4665800D01*
X3160400Y4615000D01*
X3185800Y4564200D01*
X3135000Y4589600D01*
X3084200Y4564200D01*
X3166700Y4486700D02*
X3192100Y4537500D01*
X3166700Y4588300D01*
X3217500Y4562900D01*
X3268300Y4588300D01*
X3242900Y4537500D01*
X3268300Y4486700D01*
X3217500Y4512100D01*
X3166700Y4486700D01*
X3244200Y4564200D02*
X3269600Y4615000D01*
X3244200Y4665800D01*
X3295000Y4640400D01*
X3345800Y4665800D01*
X3320400Y4615000D01*
X3345800Y4564200D01*
X3295000Y4589600D01*
X3244200Y4564200D01*
X6976700Y4789200D02*
X7002100Y4840000D01*
X6976700Y4890800D01*
X7027500Y4865400D01*
X7078300Y4890800D01*
X7052900Y4840000D01*
X7078300Y4789200D01*
X7027500Y4814600D01*
X6976700Y4789200D01*
X6969200Y4661700D02*
X6994600Y4712500D01*
X6969200Y4763300D01*
X7020000Y4737900D01*
X7070800Y4763300D01*
X7045400Y4712500D01*
X7070800Y4661700D01*
X7020000Y4687100D01*
X6969200Y4661700D01*
X7349200Y4711700D02*
X7374600Y4762500D01*
X7349200Y4813300D01*
X7400000Y4787900D01*
X7450800Y4813300D01*
X7425400Y4762500D01*
X7450800Y4711700D01*
X7400000Y4737100D01*
X7349200Y4711700D01*
X7469200Y4696700D02*
X7494600Y4747500D01*
X7469200Y4798300D01*
X7520000Y4772900D01*
X7570800Y4798300D01*
X7545400Y4747500D01*
X7570800Y4696700D01*
X7520000Y4722100D01*
X7469200Y4696700D01*
X7526700Y4606700D02*
X7552100Y4657500D01*
X7526700Y4708300D01*
X7577500Y4682900D01*
X7628300Y4708300D01*
X7602900Y4657500D01*
X7628300Y4606700D01*
X7577500Y4632100D01*
X7526700Y4606700D01*
X6324200Y4271700D02*
X6349600Y4322500D01*
X6324200Y4373300D01*
X6375000Y4347900D01*
X6425800Y4373300D01*
X6400400Y4322500D01*
X6425800Y4271700D01*
X6375000Y4297100D01*
X6324200Y4271700D01*
X7074200Y4194200D02*
X7099600Y4245000D01*
X7074200Y4295800D01*
X7125000Y4270400D01*
X7175800Y4295800D01*
X7150400Y4245000D01*
X7175800Y4194200D01*
X7125000Y4219600D01*
X7074200Y4194200D01*
X6964200D02*
X6989600Y4245000D01*
X6964200Y4295800D01*
X7015000Y4270400D01*
X7065800Y4295800D01*
X7040400Y4245000D01*
X7065800Y4194200D01*
X7015000Y4219600D01*
X6964200Y4194200D01*
X6854200D02*
X6879600Y4245000D01*
X6854200Y4295800D01*
X6905000Y4270400D01*
X6955800Y4295800D01*
X6930400Y4245000D01*
X6955800Y4194200D01*
X6905000Y4219600D01*
X6854200Y4194200D01*
X7074200Y4304200D02*
X7099600Y4355000D01*
X7074200Y4405800D01*
X7125000Y4380400D01*
X7175800Y4405800D01*
X7150400Y4355000D01*
X7175800Y4304200D01*
X7125000Y4329600D01*
X7074200Y4304200D01*
X6964200D02*
X6989600Y4355000D01*
X6964200Y4405800D01*
X7015000Y4380400D01*
X7065800Y4405800D01*
X7040400Y4355000D01*
X7065800Y4304200D01*
X7015000Y4329600D01*
X6964200Y4304200D01*
X6854200D02*
X6879600Y4355000D01*
X6854200Y4405800D01*
X6905000Y4380400D01*
X6955800Y4405800D01*
X6930400Y4355000D01*
X6955800Y4304200D01*
X6905000Y4329600D01*
X6854200Y4304200D01*
X7074200Y4414200D02*
X7099600Y4465000D01*
X7074200Y4515800D01*
X7125000Y4490400D01*
X7175800Y4515800D01*
X7150400Y4465000D01*
X7175800Y4414200D01*
X7125000Y4439600D01*
X7074200Y4414200D01*
X6964200D02*
X6989600Y4465000D01*
X6964200Y4515800D01*
X7015000Y4490400D01*
X7065800Y4515800D01*
X7040400Y4465000D01*
X7065800Y4414200D01*
X7015000Y4439600D01*
X6964200Y4414200D01*
X6854200D02*
X6879600Y4465000D01*
X6854200Y4515800D01*
X6905000Y4490400D01*
X6955800Y4515800D01*
X6930400Y4465000D01*
X6955800Y4414200D01*
X6905000Y4439600D01*
X6854200Y4414200D01*
X3374200Y4114200D02*
X3399600Y4165000D01*
X3374200Y4215800D01*
X3425000Y4190400D01*
X3475800Y4215800D01*
X3450400Y4165000D01*
X3475800Y4114200D01*
X3425000Y4139600D01*
X3374200Y4114200D01*
Y4004200D02*
X3399600Y4055000D01*
X3374200Y4105800D01*
X3425000Y4080400D01*
X3475800Y4105800D01*
X3450400Y4055000D01*
X3475800Y4004200D01*
X3425000Y4029600D01*
X3374200Y4004200D01*
X3264200Y4114200D02*
X3289600Y4165000D01*
X3264200Y4215800D01*
X3315000Y4190400D01*
X3365800Y4215800D01*
X3340400Y4165000D01*
X3365800Y4114200D01*
X3315000Y4139600D01*
X3264200Y4114200D01*
Y4004200D02*
X3289600Y4055000D01*
X3264200Y4105800D01*
X3315000Y4080400D01*
X3365800Y4105800D01*
X3340400Y4055000D01*
X3365800Y4004200D01*
X3315000Y4029600D01*
X3264200Y4004200D01*
D95*
X8860800Y4520001D02*
G03*
X8860800Y4520001I-50800J0D01*
G01*
Y4070000D02*
G03*
X8860800Y4070000I-50800J0D01*
G01*
Y4320000D02*
G03*
X8860800Y4320000I-50800J0D01*
G01*
Y4770000D02*
G03*
X8860800Y4770000I-50800J0D01*
G01*
%TF.MD5,fa13a5a0a6f2856c924454a3659a4e2a*%
M02*
