%TF.GenerationSoftware,Altium Limited,Altium Designer,23.11.1 (41)*%
G04 Layer_Physical_Order=3*
G04 Layer_Color=16440176*
%FSLAX45Y45*%
%MOMM*%
%TF.SameCoordinates,5A3C93BB-BC46-40EA-83D2-B686983C8B64*%
%TF.FilePolarity,Positive*%
%TF.FileFunction,Copper,L3,Inr,Signal*%
%TF.Part,Single*%
G01*
G75*
%TA.AperFunction,ComponentPad*%
%ADD62C,1.77800*%
%ADD63C,2.80000*%
%ADD64C,1.45000*%
%ADD65R,1.45000X1.45000*%
%ADD66C,1.52400*%
%ADD67R,1.52400X1.52400*%
%ADD68R,4.20000X2.41300*%
%TA.AperFunction,ViaPad*%
%ADD69C,0.70000*%
G36*
X9950000Y50000D02*
X50000D01*
Y3770000D01*
X50000Y3785000D01*
X65000Y3785000D01*
X480000D01*
Y4420000D01*
X65000D01*
X50000Y4420000D01*
X50000Y4435000D01*
Y5450000D01*
X9950000D01*
Y50000D01*
D02*
G37*
%LPC*%
G36*
X8101200Y5396200D02*
X7898800D01*
Y5356273D01*
X7883800Y5352254D01*
X7880980Y5357138D01*
X7862138Y5375980D01*
X7839061Y5389303D01*
X7813323Y5396200D01*
X7786676D01*
X7760938Y5389303D01*
X7737861Y5375980D01*
X7719020Y5357138D01*
X7708305Y5338579D01*
X7705601Y5337707D01*
X7694398D01*
X7691695Y5338579D01*
X7684436Y5351152D01*
X7663971Y5330687D01*
X7635687Y5358971D01*
X7656152Y5379436D01*
X7639061Y5389303D01*
X7613323Y5396200D01*
X7586676D01*
X7560938Y5389303D01*
X7543848Y5379436D01*
X7564313Y5358971D01*
X7536029Y5330687D01*
X7515564Y5351152D01*
X7508305Y5338579D01*
X7505601Y5337707D01*
X7494399D01*
X7491695Y5338579D01*
X7480980Y5357138D01*
X7462138Y5375980D01*
X7439061Y5389303D01*
X7413323Y5396200D01*
X7386676D01*
X7360938Y5389303D01*
X7337861Y5375980D01*
X7319020Y5357138D01*
X7305696Y5334062D01*
X7298800Y5308323D01*
Y5281677D01*
X7305696Y5255938D01*
X7319020Y5232862D01*
X7337861Y5214020D01*
X7360938Y5200697D01*
X7386676Y5193800D01*
X7413323D01*
X7439061Y5200697D01*
X7462138Y5214020D01*
X7480980Y5232862D01*
X7491695Y5251421D01*
X7494399Y5252293D01*
X7505601D01*
X7508305Y5251421D01*
X7515564Y5238848D01*
X7536029Y5259313D01*
X7564313Y5231029D01*
X7543848Y5210564D01*
X7560938Y5200697D01*
X7586676Y5193800D01*
X7613323D01*
X7639061Y5200697D01*
X7656152Y5210564D01*
X7635687Y5231029D01*
X7663971Y5259313D01*
X7684436Y5238848D01*
X7691695Y5251421D01*
X7694398Y5252293D01*
X7705601D01*
X7708305Y5251421D01*
X7719020Y5232862D01*
X7737861Y5214020D01*
X7760938Y5200697D01*
X7786676Y5193800D01*
X7813323D01*
X7839061Y5200697D01*
X7862138Y5214020D01*
X7880980Y5232862D01*
X7883800Y5237746D01*
X7898800Y5233727D01*
Y5193800D01*
X8101200D01*
Y5396200D01*
D02*
G37*
G36*
X6001935Y5375000D02*
X5978065D01*
X5956013Y5365866D01*
X5939134Y5348987D01*
X5930000Y5326935D01*
Y5303065D01*
X5939134Y5281013D01*
X5956013Y5264135D01*
X5978065Y5255000D01*
X6001935D01*
X6023987Y5264135D01*
X6040865Y5281013D01*
X6050000Y5303065D01*
Y5326935D01*
X6040865Y5348987D01*
X6023987Y5365866D01*
X6001935Y5375000D01*
D02*
G37*
G36*
X6377495Y5416400D02*
X6347505D01*
X6318537Y5408638D01*
X6292564Y5393643D01*
X6271358Y5372436D01*
X6256362Y5346464D01*
X6248600Y5317495D01*
Y5287505D01*
X6256362Y5258536D01*
X6271358Y5232564D01*
X6292564Y5211357D01*
X6318537Y5196362D01*
X6347505Y5188600D01*
X6377495D01*
X6406464Y5196362D01*
X6432436Y5211357D01*
X6453643Y5232564D01*
X6468638Y5258536D01*
X6476400Y5287505D01*
Y5317495D01*
X6468638Y5346464D01*
X6453643Y5372436D01*
X6432436Y5393643D01*
X6406464Y5408638D01*
X6377495Y5416400D01*
D02*
G37*
G36*
X5101935Y5260000D02*
X5078065D01*
X5056013Y5250866D01*
X5039134Y5233987D01*
X5030000Y5211935D01*
Y5188065D01*
X5039134Y5166013D01*
X5056013Y5149134D01*
X5078065Y5140000D01*
X5101935D01*
X5123987Y5149134D01*
X5140866Y5166013D01*
X5150000Y5188065D01*
Y5211935D01*
X5140866Y5233987D01*
X5123987Y5250866D01*
X5101935Y5260000D01*
D02*
G37*
G36*
X6001935Y5222500D02*
X5978065D01*
X5956013Y5213365D01*
X5939134Y5196487D01*
X5930000Y5174435D01*
Y5150565D01*
X5939134Y5128513D01*
X5956013Y5111634D01*
X5978065Y5102500D01*
X6001935D01*
X6023987Y5111634D01*
X6040865Y5128513D01*
X6050000Y5150565D01*
Y5174435D01*
X6040865Y5196487D01*
X6023987Y5213365D01*
X6001935Y5222500D01*
D02*
G37*
G36*
X6377495Y5162400D02*
X6347505D01*
X6318537Y5154638D01*
X6292564Y5139643D01*
X6271358Y5118436D01*
X6256362Y5092464D01*
X6248600Y5063495D01*
Y5033505D01*
X6256362Y5004536D01*
X6271358Y4978564D01*
X6292564Y4957357D01*
X6318537Y4942362D01*
X6347505Y4934600D01*
X6377495D01*
X6406464Y4942362D01*
X6432436Y4957357D01*
X6453643Y4978564D01*
X6468638Y5004536D01*
X6476400Y5033505D01*
Y5063495D01*
X6468638Y5092464D01*
X6453643Y5118436D01*
X6432436Y5139643D01*
X6406464Y5154638D01*
X6377495Y5162400D01*
D02*
G37*
G36*
X9097251Y5242000D02*
X9064749D01*
X9032871Y5235659D01*
X9002843Y5223221D01*
X8975819Y5205164D01*
X8952836Y5182182D01*
X8934779Y5155157D01*
X8922341Y5125129D01*
X8916000Y5093251D01*
Y5060749D01*
X8922341Y5028872D01*
X8934779Y4998843D01*
X8952836Y4971819D01*
X8975819Y4948836D01*
X9002843Y4930779D01*
X9032871Y4918341D01*
X9064749Y4912000D01*
X9097251D01*
X9129129Y4918341D01*
X9159157Y4930779D01*
X9186182Y4948836D01*
X9209164Y4971819D01*
X9227221Y4998843D01*
X9239659Y5028872D01*
X9246000Y5060749D01*
Y5093251D01*
X9239659Y5125129D01*
X9227221Y5155157D01*
X9209164Y5182182D01*
X9186182Y5205164D01*
X9159157Y5223221D01*
X9129129Y5235659D01*
X9097251Y5242000D01*
D02*
G37*
G36*
X4766935Y4935000D02*
X4743065D01*
X4721013Y4925865D01*
X4704134Y4908987D01*
X4695000Y4886935D01*
Y4863065D01*
X4704134Y4841013D01*
X4721013Y4824134D01*
X4743065Y4815000D01*
X4766935D01*
X4788987Y4824134D01*
X4805865Y4841013D01*
X4815000Y4863065D01*
Y4886935D01*
X4805865Y4908987D01*
X4788987Y4925865D01*
X4766935Y4935000D01*
D02*
G37*
G36*
X4441935Y4925000D02*
X4418065D01*
X4396013Y4915865D01*
X4379134Y4898987D01*
X4370000Y4876935D01*
Y4853065D01*
X4379134Y4831013D01*
X4396013Y4814134D01*
X4418065Y4805000D01*
X4441935D01*
X4463987Y4814134D01*
X4480866Y4831013D01*
X4490000Y4853065D01*
Y4876935D01*
X4480866Y4898987D01*
X4463987Y4915865D01*
X4441935Y4925000D01*
D02*
G37*
G36*
X8822836Y4867500D02*
X8797164D01*
X8772367Y4860856D01*
X8756557Y4851728D01*
X8777030Y4831255D01*
X8748746Y4802971D01*
X8728273Y4823444D01*
X8719145Y4807634D01*
X8712500Y4782837D01*
Y4757164D01*
X8719145Y4732367D01*
X8728273Y4716557D01*
X8748746Y4737030D01*
X8777030Y4708746D01*
X8756557Y4688273D01*
X8772367Y4679145D01*
X8797164Y4672500D01*
X8822836D01*
X8847634Y4679145D01*
X8863444Y4688273D01*
X8842971Y4708746D01*
X8871255Y4737030D01*
X8891728Y4716557D01*
X8900855Y4732367D01*
X8907500Y4757164D01*
Y4782837D01*
X8900855Y4807634D01*
X8891728Y4823444D01*
X8871255Y4802971D01*
X8842971Y4831255D01*
X8863444Y4851728D01*
X8847634Y4860856D01*
X8822836Y4867500D01*
D02*
G37*
G36*
X7039435Y4900000D02*
X7015565D01*
X6993513Y4890866D01*
X6976635Y4873987D01*
X6967500Y4851935D01*
Y4828065D01*
X6976635Y4806013D01*
X6993513Y4789134D01*
X7001270Y4785921D01*
Y4769685D01*
X6986013Y4763366D01*
X6969135Y4746487D01*
X6960000Y4724435D01*
Y4700565D01*
X6969135Y4678513D01*
X6986013Y4661635D01*
X7008065Y4652500D01*
X7031935D01*
X7053987Y4661635D01*
X7070866Y4678513D01*
X7080000Y4700565D01*
Y4724435D01*
X7070866Y4746487D01*
X7053987Y4763366D01*
X7046230Y4766579D01*
Y4782815D01*
X7061487Y4789134D01*
X7078366Y4806013D01*
X7087500Y4828065D01*
Y4851935D01*
X7078366Y4873987D01*
X7061487Y4890866D01*
X7039435Y4900000D01*
D02*
G37*
G36*
X7411935Y4822500D02*
X7388065D01*
X7366013Y4813366D01*
X7349134Y4796487D01*
X7340000Y4774435D01*
Y4750565D01*
X7349134Y4728513D01*
X7366013Y4711634D01*
X7388065Y4702500D01*
X7411935D01*
X7433987Y4711634D01*
X7447910Y4725557D01*
X7460425Y4725103D01*
X7465011Y4723467D01*
X7469134Y4713513D01*
X7486013Y4696634D01*
X7508065Y4687500D01*
X7511484D01*
X7519817Y4675028D01*
X7517500Y4669435D01*
Y4645565D01*
X7526634Y4623513D01*
X7543513Y4606634D01*
X7565565Y4597500D01*
X7589435D01*
X7611487Y4606634D01*
X7628365Y4623513D01*
X7637500Y4645565D01*
Y4669435D01*
X7628365Y4691487D01*
X7611487Y4708365D01*
X7589435Y4717500D01*
X7586016D01*
X7577683Y4729972D01*
X7580000Y4735565D01*
Y4759435D01*
X7570865Y4781487D01*
X7553987Y4798366D01*
X7531935Y4807500D01*
X7508065D01*
X7486013Y4798366D01*
X7472090Y4784443D01*
X7459575Y4784897D01*
X7454989Y4786533D01*
X7450865Y4796487D01*
X7433987Y4813366D01*
X7411935Y4822500D01*
D02*
G37*
G36*
X3306935Y4675000D02*
X3283065D01*
X3261013Y4665865D01*
X3244134Y4648987D01*
X3235000Y4626935D01*
Y4611358D01*
X3231029Y4601471D01*
X3221142Y4597500D01*
X3208858D01*
X3203731Y4599559D01*
X3195000Y4609360D01*
Y4626935D01*
X3185866Y4648987D01*
X3168987Y4665865D01*
X3146935Y4675000D01*
X3123065D01*
X3101013Y4665865D01*
X3084135Y4648987D01*
X3075000Y4626935D01*
Y4603065D01*
X3084135Y4581013D01*
X3101013Y4564134D01*
X3123065Y4555000D01*
X3143642D01*
X3148769Y4552941D01*
X3157500Y4543140D01*
Y4525565D01*
X3166635Y4503513D01*
X3183513Y4486634D01*
X3205565Y4477500D01*
X3229435D01*
X3251487Y4486634D01*
X3268366Y4503513D01*
X3277500Y4525565D01*
Y4541142D01*
X3281471Y4551029D01*
X3291358Y4555000D01*
X3306935D01*
X3315000Y4558341D01*
X3330000Y4548318D01*
Y4538065D01*
X3339135Y4516013D01*
X3356013Y4499135D01*
X3378065Y4490000D01*
X3382865Y4482816D01*
X3382500Y4481935D01*
Y4458065D01*
X3391635Y4436013D01*
X3408513Y4419134D01*
X3430565Y4410000D01*
X3454435D01*
X3476487Y4419134D01*
X3493366Y4436013D01*
X3502500Y4458065D01*
Y4481935D01*
X3493366Y4503987D01*
X3476487Y4520865D01*
X3454435Y4530000D01*
X3449635Y4537184D01*
X3450000Y4538065D01*
Y4561935D01*
X3440866Y4583987D01*
X3423987Y4600866D01*
X3401935Y4610000D01*
X3378065D01*
X3370000Y4606659D01*
X3355000Y4616682D01*
Y4626935D01*
X3345866Y4648987D01*
X3328987Y4665865D01*
X3306935Y4675000D01*
D02*
G37*
G36*
X5749292Y4709857D02*
X5725422D01*
X5703370Y4700722D01*
X5686491Y4683844D01*
X5677357Y4661792D01*
Y4637922D01*
X5686491Y4615870D01*
X5703370Y4598991D01*
X5725422Y4589857D01*
X5749292D01*
X5771344Y4598991D01*
X5788222Y4615870D01*
X5797357Y4637922D01*
Y4661792D01*
X5788222Y4683844D01*
X5771344Y4700722D01*
X5749292Y4709857D01*
D02*
G37*
G36*
X3541935Y4675000D02*
X3518065D01*
X3496013Y4665865D01*
X3479135Y4648987D01*
X3470000Y4626935D01*
Y4603065D01*
X3479135Y4581013D01*
X3496013Y4564134D01*
X3518065Y4555000D01*
X3541935D01*
X3563987Y4564134D01*
X3580866Y4581013D01*
X3590000Y4603065D01*
Y4626935D01*
X3580866Y4648987D01*
X3563987Y4665865D01*
X3541935Y4675000D01*
D02*
G37*
G36*
X6386935Y4382500D02*
X6363065D01*
X6341013Y4373366D01*
X6324134Y4356487D01*
X6315000Y4334435D01*
Y4310565D01*
X6324134Y4288513D01*
X6341013Y4271635D01*
X6363065Y4262500D01*
X6386935D01*
X6408987Y4271635D01*
X6425865Y4288513D01*
X6435000Y4310565D01*
Y4334435D01*
X6425865Y4356487D01*
X6408987Y4373366D01*
X6386935Y4382500D01*
D02*
G37*
G36*
X8822836Y4617501D02*
X8797164D01*
X8772367Y4610856D01*
X8750134Y4598020D01*
X8731981Y4579867D01*
X8719145Y4557634D01*
X8712500Y4532837D01*
Y4507164D01*
X8719145Y4482367D01*
X8731981Y4460134D01*
X8750134Y4441981D01*
X8772367Y4429145D01*
X8777518Y4427765D01*
Y4412236D01*
X8772367Y4410856D01*
X8750134Y4398020D01*
X8731981Y4379867D01*
X8719145Y4357634D01*
X8712500Y4332836D01*
Y4307164D01*
X8719145Y4282367D01*
X8731981Y4260134D01*
X8750134Y4241981D01*
X8772367Y4229145D01*
X8797164Y4222500D01*
X8822836D01*
X8847634Y4229145D01*
X8869866Y4241981D01*
X8888020Y4260134D01*
X8900855Y4282367D01*
X8907500Y4307164D01*
Y4332836D01*
X8900855Y4357634D01*
X8888020Y4379867D01*
X8869866Y4398020D01*
X8847634Y4410856D01*
X8842483Y4412236D01*
Y4427765D01*
X8847634Y4429145D01*
X8869866Y4441981D01*
X8888020Y4460134D01*
X8900855Y4482367D01*
X8907500Y4507164D01*
Y4532837D01*
X8900855Y4557634D01*
X8888020Y4579867D01*
X8869866Y4598020D01*
X8847634Y4610856D01*
X8822836Y4617501D01*
D02*
G37*
G36*
X7601935Y4240000D02*
X7578065D01*
X7556013Y4230866D01*
X7539135Y4213987D01*
X7530000Y4191935D01*
Y4168065D01*
X7539135Y4146013D01*
X7556013Y4129134D01*
X7578065Y4120000D01*
X7601935D01*
X7623987Y4129134D01*
X7640866Y4146013D01*
X7650000Y4168065D01*
Y4191935D01*
X7640866Y4213987D01*
X7623987Y4230866D01*
X7601935Y4240000D01*
D02*
G37*
G36*
X6824435Y4072500D02*
X6800565D01*
X6778513Y4063366D01*
X6761634Y4046487D01*
X6752500Y4024435D01*
Y4021066D01*
X6737500Y4014853D01*
X6728987Y4023366D01*
X6706935Y4032500D01*
X6683065D01*
X6661013Y4023366D01*
X6644135Y4006487D01*
X6635000Y3984435D01*
Y3960565D01*
X6644135Y3938513D01*
X6661013Y3921635D01*
X6683065Y3912500D01*
X6706935D01*
X6728987Y3921635D01*
X6745866Y3938513D01*
X6755000Y3960565D01*
Y3963934D01*
X6770000Y3970147D01*
X6778513Y3961634D01*
X6800565Y3952500D01*
X6824435D01*
X6846487Y3961634D01*
X6863365Y3978513D01*
X6872500Y4000565D01*
Y4024435D01*
X6863365Y4046487D01*
X6846487Y4063366D01*
X6824435Y4072500D01*
D02*
G37*
G36*
X8907500Y4167500D02*
X8712500D01*
Y3972500D01*
X8907500D01*
Y4167500D01*
D02*
G37*
G36*
X7214435Y3897500D02*
X7190565D01*
X7168513Y3888366D01*
X7151634Y3871487D01*
X7150618Y3869033D01*
X7134382D01*
X7133365Y3871487D01*
X7116487Y3888366D01*
X7094435Y3897500D01*
X7070565D01*
X7048513Y3888366D01*
X7031634Y3871487D01*
X7031250Y3870559D01*
X7016250D01*
X7015866Y3871487D01*
X6998987Y3888366D01*
X6976935Y3897500D01*
X6953065D01*
X6931013Y3888366D01*
X6916233Y3873585D01*
X6907500Y3872393D01*
X6898768Y3873585D01*
X6883987Y3888366D01*
X6861935Y3897500D01*
X6838065D01*
X6816013Y3888366D01*
X6799134Y3871487D01*
X6790000Y3849435D01*
Y3825565D01*
X6799134Y3803513D01*
X6816013Y3786635D01*
X6838065Y3777500D01*
X6861935D01*
X6883987Y3786635D01*
X6898768Y3801415D01*
X6907500Y3802607D01*
X6916233Y3801415D01*
X6927364Y3790284D01*
X6925277Y3775980D01*
X6924154Y3773894D01*
X6904536Y3768638D01*
X6878564Y3753642D01*
X6857357Y3732436D01*
X6842362Y3706464D01*
X6834600Y3677495D01*
Y3647505D01*
X6842362Y3618536D01*
X6857357Y3592564D01*
X6878564Y3571357D01*
X6904536Y3556362D01*
X6933505Y3548600D01*
X6963495D01*
X6992464Y3556362D01*
X7018436Y3571357D01*
X7039643Y3592564D01*
X7054638Y3618536D01*
X7062400Y3647505D01*
Y3677495D01*
X7054638Y3706464D01*
X7039643Y3732436D01*
X7018436Y3753642D01*
X6993413Y3768089D01*
X6992537Y3771954D01*
X6992807Y3784075D01*
X6998987Y3786635D01*
X7015866Y3803513D01*
X7016250Y3804441D01*
X7031250D01*
X7031634Y3803513D01*
X7048513Y3786635D01*
X7070565Y3777500D01*
X7094435D01*
X7116487Y3786635D01*
X7133365Y3803513D01*
X7134382Y3805967D01*
X7150618D01*
X7151634Y3803513D01*
X7168512Y3786635D01*
X7167175Y3770953D01*
X7158536Y3768638D01*
X7132564Y3753642D01*
X7111357Y3732436D01*
X7096362Y3706464D01*
X7088600Y3677495D01*
Y3647505D01*
X7096362Y3618536D01*
X7111357Y3592564D01*
X7132564Y3571357D01*
X7158536Y3556362D01*
X7187505Y3548600D01*
X7217495D01*
X7246464Y3556362D01*
X7272436Y3571357D01*
X7293643Y3592564D01*
X7308638Y3618536D01*
X7316400Y3647505D01*
Y3677495D01*
X7308638Y3706464D01*
X7293643Y3732436D01*
X7272436Y3753642D01*
X7246464Y3768638D01*
X7237824Y3770953D01*
X7236487Y3786635D01*
X7253365Y3803513D01*
X7262500Y3825565D01*
Y3849435D01*
X7253365Y3871487D01*
X7236487Y3888366D01*
X7214435Y3897500D01*
D02*
G37*
G36*
X9097251Y3928000D02*
X9064749D01*
X9032871Y3921659D01*
X9002843Y3909221D01*
X8975819Y3891164D01*
X8952836Y3868182D01*
X8934779Y3841157D01*
X8922341Y3811129D01*
X8916000Y3779252D01*
Y3746749D01*
X8922341Y3714872D01*
X8934779Y3684844D01*
X8952836Y3657819D01*
X8975819Y3634837D01*
X9002843Y3616779D01*
X9032871Y3604341D01*
X9064749Y3598000D01*
X9097251D01*
X9129129Y3604341D01*
X9159157Y3616779D01*
X9186182Y3634837D01*
X9209164Y3657819D01*
X9227221Y3684844D01*
X9239659Y3714872D01*
X9246000Y3746749D01*
Y3779252D01*
X9239659Y3811129D01*
X9227221Y3841157D01*
X9209164Y3868182D01*
X9186182Y3891164D01*
X9159157Y3909221D01*
X9129129Y3921659D01*
X9097251Y3928000D01*
D02*
G37*
G36*
X6673601Y3410000D02*
X6649732D01*
X6627679Y3400865D01*
X6610801Y3383987D01*
X6610000Y3382053D01*
X6595000D01*
X6594199Y3383987D01*
X6577321Y3400865D01*
X6555268Y3410000D01*
X6531399D01*
X6509346Y3400865D01*
X6492468Y3383987D01*
X6491667Y3382053D01*
X6476667D01*
X6475866Y3383987D01*
X6458987Y3400865D01*
X6436935Y3410000D01*
X6413065D01*
X6391013Y3400865D01*
X6374135Y3383987D01*
X6365000Y3361935D01*
Y3338065D01*
X6374135Y3316013D01*
X6391013Y3299134D01*
X6413065Y3290000D01*
X6436935D01*
X6458987Y3299134D01*
X6475866Y3316013D01*
X6476667Y3317947D01*
X6491667D01*
X6492468Y3316013D01*
X6509346Y3299134D01*
X6531399Y3290000D01*
X6555268D01*
X6577321Y3299134D01*
X6594199Y3316013D01*
X6595000Y3317947D01*
X6610000D01*
X6610801Y3316013D01*
X6627679Y3299134D01*
X6649732Y3290000D01*
X6673601D01*
X6695654Y3299134D01*
X6712532Y3316013D01*
X6721666Y3338065D01*
Y3361935D01*
X6712532Y3383987D01*
X6695654Y3400865D01*
X6673601Y3410000D01*
D02*
G37*
G36*
X9816935Y3165000D02*
X9793065D01*
X9771013Y3155865D01*
X9754134Y3138987D01*
X9745000Y3116935D01*
Y3093065D01*
X9754134Y3071013D01*
X9771013Y3054134D01*
X9772947Y3053333D01*
Y3038333D01*
X9771013Y3037532D01*
X9754134Y3020654D01*
X9745000Y2998601D01*
Y2974732D01*
X9754134Y2952679D01*
X9771013Y2935801D01*
X9772947Y2935000D01*
Y2920000D01*
X9771013Y2919199D01*
X9754134Y2902321D01*
X9745000Y2880268D01*
Y2856399D01*
X9754134Y2834346D01*
X9771013Y2817468D01*
X9772947Y2816667D01*
Y2801667D01*
X9771013Y2800866D01*
X9754134Y2783987D01*
X9745000Y2761935D01*
Y2738065D01*
X9754134Y2716013D01*
X9771013Y2699135D01*
X9793065Y2690000D01*
X9816935D01*
X9838987Y2699135D01*
X9855865Y2716013D01*
X9865000Y2738065D01*
Y2761935D01*
X9855865Y2783987D01*
X9838987Y2800866D01*
X9837053Y2801667D01*
Y2816667D01*
X9838987Y2817468D01*
X9855865Y2834346D01*
X9865000Y2856399D01*
Y2880268D01*
X9855865Y2902321D01*
X9838987Y2919199D01*
X9837053Y2920000D01*
Y2935000D01*
X9838987Y2935801D01*
X9855865Y2952679D01*
X9865000Y2974732D01*
Y2998601D01*
X9855865Y3020654D01*
X9838987Y3037532D01*
X9837053Y3038333D01*
Y3053333D01*
X9838987Y3054134D01*
X9855865Y3071013D01*
X9865000Y3093065D01*
Y3116935D01*
X9855865Y3138987D01*
X9838987Y3155865D01*
X9816935Y3165000D01*
D02*
G37*
G36*
X6826935Y2645000D02*
X6803065D01*
X6781013Y2635865D01*
X6764135Y2618987D01*
X6755000Y2596935D01*
Y2573065D01*
X6764135Y2551013D01*
X6781013Y2534134D01*
X6803065Y2525000D01*
X6826935D01*
X6848987Y2534134D01*
X6865866Y2551013D01*
X6875000Y2573065D01*
Y2596935D01*
X6865866Y2618987D01*
X6848987Y2635865D01*
X6826935Y2645000D01*
D02*
G37*
%LPD*%
D62*
X6362500Y5302500D02*
D03*
Y5048500D02*
D03*
X7202500Y3662500D02*
D03*
X6948500D02*
D03*
D63*
X9081000Y5077000D02*
D03*
Y3763000D02*
D03*
D64*
X8810000Y4520001D02*
D03*
Y4320000D02*
D03*
Y4770000D02*
D03*
D65*
Y4070000D02*
D03*
D66*
X7800000Y5295000D02*
D03*
X7400000D02*
D03*
X7600000D02*
D03*
D67*
X8000000D02*
D03*
D68*
X242500Y3662000D02*
D03*
Y4538000D02*
D03*
D69*
X950000Y3700000D02*
D03*
Y3500000D02*
D03*
X2350000Y3050000D02*
D03*
X2150000D02*
D03*
X2550000D02*
D03*
X2850000D02*
D03*
X3050000D02*
D03*
X4250000Y3500000D02*
D03*
Y3650000D02*
D03*
Y4900000D02*
D03*
Y5100000D02*
D03*
X4050000D02*
D03*
X3850000D02*
D03*
X3700000D02*
D03*
X3400000D02*
D03*
X3200000D02*
D03*
X2950000D02*
D03*
X2750000D02*
D03*
X2450000D02*
D03*
X2300000D02*
D03*
X2000000D02*
D03*
X1800000D02*
D03*
X1500000D02*
D03*
X1350000D02*
D03*
X1150000D02*
D03*
X950000D02*
D03*
Y4900000D02*
D03*
Y4450000D02*
D03*
Y4650000D02*
D03*
X5630000Y2850000D02*
D03*
X5500000D02*
D03*
X5380000D02*
D03*
X5125000Y2845000D02*
D03*
X5000000Y2920000D02*
D03*
Y3050000D02*
D03*
X5495000Y2950000D02*
D03*
X5625000D02*
D03*
X4350000Y3450000D02*
D03*
Y3600000D02*
D03*
X4525000Y3450000D02*
D03*
Y3600000D02*
D03*
X3975000Y3675000D02*
D03*
X4150000Y3600000D02*
D03*
Y3450000D02*
D03*
Y3300000D02*
D03*
X3400000Y3250000D02*
D03*
Y3425000D02*
D03*
X2500000Y3700000D02*
D03*
X2600000D02*
D03*
X2150000Y3850000D02*
D03*
X1500000Y3775000D02*
D03*
Y3675000D02*
D03*
X2375000Y3750000D02*
D03*
Y3650000D02*
D03*
X2250000D02*
D03*
X2150000D02*
D03*
X2050000D02*
D03*
X1950000D02*
D03*
X1850000D02*
D03*
X1750000D02*
D03*
X1650000D02*
D03*
X3050000Y3625000D02*
D03*
X2950000D02*
D03*
X2850000D02*
D03*
X2750000D02*
D03*
X2650000D02*
D03*
X2550000D02*
D03*
X2450000D02*
D03*
X2250000Y3750000D02*
D03*
X2150000D02*
D03*
X2050000D02*
D03*
X1950000D02*
D03*
X1850000D02*
D03*
X1750000D02*
D03*
X1650000D02*
D03*
X2500000Y3775000D02*
D03*
X2600000D02*
D03*
X2700000Y3700000D02*
D03*
X2800000D02*
D03*
X2700000Y3775000D02*
D03*
X2800000D02*
D03*
X2375000Y3850000D02*
D03*
X2475000D02*
D03*
X1950000D02*
D03*
X2050000D02*
D03*
X1750000D02*
D03*
X1850000D02*
D03*
X2375000Y3925000D02*
D03*
X2475000D02*
D03*
X1400000Y3775000D02*
D03*
Y3675000D02*
D03*
X1150000Y3550000D02*
D03*
Y3450000D02*
D03*
Y3750000D02*
D03*
Y3650000D02*
D03*
Y4700000D02*
D03*
Y4600000D02*
D03*
Y4525000D02*
D03*
Y4425000D02*
D03*
X1400000Y4325000D02*
D03*
Y4225000D02*
D03*
X1500000Y3850000D02*
D03*
X1400000D02*
D03*
X1500000Y3925000D02*
D03*
X1400000D02*
D03*
X2700000Y4175000D02*
D03*
X2600000D02*
D03*
X2775000Y4425000D02*
D03*
Y4525000D02*
D03*
X2675000Y4425000D02*
D03*
Y4525000D02*
D03*
X2400000Y4400000D02*
D03*
Y4500000D02*
D03*
X2100000D02*
D03*
X2200000D02*
D03*
X2300000D02*
D03*
X2100000Y4400000D02*
D03*
X2200000D02*
D03*
X2300000D02*
D03*
X3275000Y4850000D02*
D03*
X3175000D02*
D03*
X3075000D02*
D03*
X2975000D02*
D03*
X2875000D02*
D03*
X2775000D02*
D03*
X2675000D02*
D03*
X2575000D02*
D03*
X2475000D02*
D03*
X2375000D02*
D03*
X2275000D02*
D03*
X2175000D02*
D03*
X2075000D02*
D03*
X1975000D02*
D03*
X1875000D02*
D03*
X1775000D02*
D03*
X1675000D02*
D03*
X1575000D02*
D03*
X1475000D02*
D03*
X1375000D02*
D03*
X1275000D02*
D03*
X2875000Y4600000D02*
D03*
X2775000D02*
D03*
X2675000D02*
D03*
X2575000D02*
D03*
X2475000D02*
D03*
X2375000D02*
D03*
X2275000D02*
D03*
X2000000Y4400000D02*
D03*
X1900000D02*
D03*
X1800000D02*
D03*
X1700000D02*
D03*
X1600000D02*
D03*
X1500000D02*
D03*
X1400000D02*
D03*
X2000000Y4500000D02*
D03*
X1900000D02*
D03*
X1800000D02*
D03*
X1700000D02*
D03*
X1600000D02*
D03*
X1500000D02*
D03*
X1400000D02*
D03*
X2175000Y4600000D02*
D03*
X2075000D02*
D03*
X1975000D02*
D03*
X1875000D02*
D03*
X1775000D02*
D03*
X1675000D02*
D03*
X1575000D02*
D03*
X1150000Y3900000D02*
D03*
X1050000D02*
D03*
X850000D02*
D03*
X750000D02*
D03*
X650000D02*
D03*
X550000Y3825000D02*
D03*
X650000D02*
D03*
X750000D02*
D03*
X850000D02*
D03*
X950000D02*
D03*
X1050000D02*
D03*
X1150000D02*
D03*
X550000Y4350000D02*
D03*
X650000D02*
D03*
X750000D02*
D03*
X850000D02*
D03*
X950000D02*
D03*
X1050000D02*
D03*
X1150000D02*
D03*
X550000Y4275000D02*
D03*
X650000D02*
D03*
X750000D02*
D03*
X850000D02*
D03*
X950000D02*
D03*
X1050000D02*
D03*
X1150000D02*
D03*
X657500Y3977500D02*
D03*
X757500D02*
D03*
X857500D02*
D03*
X1057500D02*
D03*
X1157500D02*
D03*
X1652500Y3935000D02*
D03*
X1752500D02*
D03*
X1852500D02*
D03*
X1952500D02*
D03*
X2052500D02*
D03*
X2152500D02*
D03*
X1650000Y4225000D02*
D03*
X1750000D02*
D03*
X1850000D02*
D03*
X1950000D02*
D03*
X2050000D02*
D03*
X2150000D02*
D03*
X2250000D02*
D03*
X1650000Y4150000D02*
D03*
X1750000D02*
D03*
X1850000D02*
D03*
X1950000D02*
D03*
X2050000D02*
D03*
X2150000D02*
D03*
X2250000D02*
D03*
X1150000Y4200000D02*
D03*
X1050000D02*
D03*
X950000D02*
D03*
X850000D02*
D03*
X750000D02*
D03*
X650000D02*
D03*
X550000D02*
D03*
X7000000Y2750000D02*
D03*
X6500000D02*
D03*
X6250000D02*
D03*
X6000000D02*
D03*
X5500000D02*
D03*
X5750000D02*
D03*
X5250000D02*
D03*
X5000000D02*
D03*
X4750000D02*
D03*
X4500000D02*
D03*
X4250000D02*
D03*
X4000000D02*
D03*
X3750000D02*
D03*
X3500000D02*
D03*
X3250000D02*
D03*
X3000000D02*
D03*
X2750000D02*
D03*
X2500000D02*
D03*
X7500000Y2500000D02*
D03*
X7250000D02*
D03*
X7000000D02*
D03*
X6500000Y2250000D02*
D03*
X6000000D02*
D03*
X6250000D02*
D03*
X5750000D02*
D03*
X5500000D02*
D03*
X5250000D02*
D03*
X5000000D02*
D03*
X4750000D02*
D03*
X4500000D02*
D03*
X4250000D02*
D03*
X4000000D02*
D03*
X3750000D02*
D03*
X3500000D02*
D03*
X3250000D02*
D03*
X2750000D02*
D03*
X3000000D02*
D03*
X2250000Y2500000D02*
D03*
X2500000Y2250000D02*
D03*
X2250000D02*
D03*
X2500000Y2000000D02*
D03*
X2250000D02*
D03*
X750000Y3250000D02*
D03*
X1000000D02*
D03*
X1250000D02*
D03*
X1500000D02*
D03*
X2000000D02*
D03*
X750000Y3000000D02*
D03*
X1000000D02*
D03*
X1250000D02*
D03*
X1500000D02*
D03*
X1750000D02*
D03*
X750000Y2750000D02*
D03*
X1000000D02*
D03*
X1250000D02*
D03*
X1500000D02*
D03*
X1750000D02*
D03*
X2000000D02*
D03*
X750000Y2500000D02*
D03*
X1000000D02*
D03*
X1250000D02*
D03*
X1500000D02*
D03*
X1750000D02*
D03*
X2000000D02*
D03*
X750000Y2250000D02*
D03*
X1000000D02*
D03*
X1250000D02*
D03*
X1500000D02*
D03*
X1750000D02*
D03*
X2000000D02*
D03*
Y2000000D02*
D03*
X1750000D02*
D03*
X1500000D02*
D03*
X1250000D02*
D03*
X1000000D02*
D03*
X750000D02*
D03*
X2750000Y1750000D02*
D03*
X3000000D02*
D03*
X3250000D02*
D03*
X3500000D02*
D03*
X3750000D02*
D03*
X4000000D02*
D03*
X4250000D02*
D03*
X4500000D02*
D03*
X4750000D02*
D03*
X5000000D02*
D03*
X5250000D02*
D03*
X5500000D02*
D03*
X5750000D02*
D03*
X6000000D02*
D03*
X6250000D02*
D03*
X6500000D02*
D03*
X6750000D02*
D03*
X7250000D02*
D03*
X7000000D02*
D03*
X2750000Y2000000D02*
D03*
X3000000D02*
D03*
X3250000D02*
D03*
X3500000D02*
D03*
X3750000D02*
D03*
X4000000D02*
D03*
X4250000D02*
D03*
X4500000D02*
D03*
X4750000D02*
D03*
X5000000D02*
D03*
X5250000D02*
D03*
X5750000D02*
D03*
X5500000D02*
D03*
X6000000D02*
D03*
X6250000D02*
D03*
X6500000D02*
D03*
X6750000D02*
D03*
X7000000D02*
D03*
X7250000D02*
D03*
X2750000Y1250000D02*
D03*
X3000000D02*
D03*
X3250000D02*
D03*
X3500000D02*
D03*
X3750000D02*
D03*
X4000000D02*
D03*
X4250000D02*
D03*
X4500000D02*
D03*
X4750000D02*
D03*
X5000000D02*
D03*
X5250000D02*
D03*
X5500000D02*
D03*
X5750000D02*
D03*
X6000000D02*
D03*
X6250000D02*
D03*
X6500000D02*
D03*
X6750000D02*
D03*
X7250000D02*
D03*
X7000000D02*
D03*
X2750000Y1500000D02*
D03*
X3000000D02*
D03*
X3250000D02*
D03*
X3500000D02*
D03*
X3750000D02*
D03*
X4000000D02*
D03*
X4250000D02*
D03*
X4500000D02*
D03*
X4750000D02*
D03*
X5000000D02*
D03*
X5250000D02*
D03*
X5750000D02*
D03*
X5500000D02*
D03*
X6000000D02*
D03*
X6250000D02*
D03*
X6500000D02*
D03*
X6750000D02*
D03*
X7000000D02*
D03*
X7250000D02*
D03*
X2750000Y750000D02*
D03*
X3000000D02*
D03*
X3250000D02*
D03*
X3500000D02*
D03*
X3750000D02*
D03*
X4000000D02*
D03*
X4250000D02*
D03*
X4500000D02*
D03*
X4750000D02*
D03*
X5000000D02*
D03*
X5250000D02*
D03*
X5500000D02*
D03*
X5750000D02*
D03*
X6000000D02*
D03*
X6250000D02*
D03*
X6500000D02*
D03*
X6750000D02*
D03*
X7250000D02*
D03*
X7000000D02*
D03*
X2750000Y1000000D02*
D03*
X3000000D02*
D03*
X3250000D02*
D03*
X3500000D02*
D03*
X3750000D02*
D03*
X4000000D02*
D03*
X4250000D02*
D03*
X4500000D02*
D03*
X4750000D02*
D03*
X5000000D02*
D03*
X5250000D02*
D03*
X5750000D02*
D03*
X5500000D02*
D03*
X6000000D02*
D03*
X6250000D02*
D03*
X6500000D02*
D03*
X6750000D02*
D03*
X7000000D02*
D03*
X7250000D02*
D03*
X8250000Y5000000D02*
D03*
X8500000D02*
D03*
X8750000D02*
D03*
X9500000D02*
D03*
Y4750000D02*
D03*
Y4500000D02*
D03*
Y4250000D02*
D03*
Y2000000D02*
D03*
Y1750000D02*
D03*
Y1500000D02*
D03*
Y1250000D02*
D03*
Y1000000D02*
D03*
Y750000D02*
D03*
Y500000D02*
D03*
X9250000D02*
D03*
X9000000D02*
D03*
X8750000D02*
D03*
X8500000D02*
D03*
X8250000D02*
D03*
X8000000D02*
D03*
X7500000D02*
D03*
X7750000D02*
D03*
X7250000D02*
D03*
X7000000D02*
D03*
X6750000D02*
D03*
X6500000D02*
D03*
X6250000D02*
D03*
X6000000D02*
D03*
X5500000D02*
D03*
X5750000D02*
D03*
X5250000D02*
D03*
X5000000D02*
D03*
X4750000D02*
D03*
X4500000D02*
D03*
X4250000D02*
D03*
X4000000D02*
D03*
X3750000D02*
D03*
X3500000D02*
D03*
X3250000D02*
D03*
X3000000D02*
D03*
X2750000D02*
D03*
X2500000D02*
D03*
X2250000D02*
D03*
X2000000D02*
D03*
X1750000D02*
D03*
X1500000D02*
D03*
X1250000D02*
D03*
X1000000D02*
D03*
X750000D02*
D03*
X500000D02*
D03*
Y750000D02*
D03*
Y1000000D02*
D03*
Y1250000D02*
D03*
Y1500000D02*
D03*
Y1750000D02*
D03*
Y2000000D02*
D03*
Y2250000D02*
D03*
Y2500000D02*
D03*
Y2750000D02*
D03*
Y3000000D02*
D03*
Y3250000D02*
D03*
X1000000Y4750000D02*
D03*
X4250000Y5000000D02*
D03*
X4000000D02*
D03*
X3750000D02*
D03*
X3500000D02*
D03*
X3250000D02*
D03*
X3000000D02*
D03*
X2750000D02*
D03*
X2500000D02*
D03*
X2250000D02*
D03*
X2000000D02*
D03*
X1750000D02*
D03*
X1500000D02*
D03*
X1250000D02*
D03*
X1000000D02*
D03*
X750000D02*
D03*
Y4750000D02*
D03*
X500000D02*
D03*
Y5000000D02*
D03*
X8250000Y5250000D02*
D03*
X8500000D02*
D03*
X8750000D02*
D03*
X9250000D02*
D03*
X9500000D02*
D03*
X9750000D02*
D03*
Y5000000D02*
D03*
Y4750000D02*
D03*
Y4500000D02*
D03*
Y4250000D02*
D03*
Y2000000D02*
D03*
Y1750000D02*
D03*
Y1500000D02*
D03*
Y1250000D02*
D03*
Y1000000D02*
D03*
Y750000D02*
D03*
Y500000D02*
D03*
Y250000D02*
D03*
X9500000D02*
D03*
X9250000D02*
D03*
X9000000D02*
D03*
X8750000D02*
D03*
X8500000D02*
D03*
X8250000D02*
D03*
X8000000D02*
D03*
X7750000D02*
D03*
X7500000D02*
D03*
X7000000D02*
D03*
X7250000D02*
D03*
X6750000D02*
D03*
X6500000D02*
D03*
X6250000D02*
D03*
X6000000D02*
D03*
X5750000D02*
D03*
X5500000D02*
D03*
X5250000D02*
D03*
X5000000D02*
D03*
X4750000D02*
D03*
X4500000D02*
D03*
X4250000D02*
D03*
X4000000D02*
D03*
X3750000D02*
D03*
X3500000D02*
D03*
X3250000D02*
D03*
X3000000D02*
D03*
X2750000D02*
D03*
X2500000D02*
D03*
X2250000D02*
D03*
X2000000D02*
D03*
X1750000D02*
D03*
X1500000D02*
D03*
X1250000D02*
D03*
X1000000D02*
D03*
X750000D02*
D03*
X500000D02*
D03*
X250000D02*
D03*
Y500000D02*
D03*
Y750000D02*
D03*
Y1000000D02*
D03*
Y1250000D02*
D03*
Y1500000D02*
D03*
Y1750000D02*
D03*
Y2000000D02*
D03*
Y2250000D02*
D03*
Y2500000D02*
D03*
Y2750000D02*
D03*
Y3000000D02*
D03*
Y3250000D02*
D03*
Y4750000D02*
D03*
X4250000Y5250000D02*
D03*
X4000000D02*
D03*
X3750000D02*
D03*
X3500000D02*
D03*
X3250000D02*
D03*
X3000000D02*
D03*
X2750000D02*
D03*
X2500000D02*
D03*
X2250000D02*
D03*
X2000000D02*
D03*
X1750000D02*
D03*
X1500000D02*
D03*
X1250000D02*
D03*
X1000000D02*
D03*
X750000D02*
D03*
X500000D02*
D03*
X250000Y5000000D02*
D03*
Y5250000D02*
D03*
X5090000Y5200000D02*
D03*
X5737357Y4649857D02*
D03*
X7590000Y4180000D02*
D03*
X3370000Y4110000D02*
D03*
X8805000Y3037500D02*
D03*
X9160000Y3122500D02*
D03*
X7382500Y3005000D02*
D03*
X6540000Y3957500D02*
D03*
X6172500Y3590000D02*
D03*
X6475000Y4540000D02*
D03*
X7392500Y4280000D02*
D03*
X4430000Y4865000D02*
D03*
X4755000Y4875000D02*
D03*
X5990000Y5315000D02*
D03*
Y5162500D02*
D03*
X3427500Y4657500D02*
D03*
X3030000Y4595000D02*
D03*
X6927500Y2587500D02*
D03*
X7377500Y3855000D02*
D03*
X6760000Y3702500D02*
D03*
X6815000Y2585000D02*
D03*
X6695000Y3972500D02*
D03*
X6812500Y4012500D02*
D03*
X6850000Y3837500D02*
D03*
X6965000D02*
D03*
X7082500D02*
D03*
X7202500D02*
D03*
X6661666Y3350000D02*
D03*
X6425000D02*
D03*
X6543333D02*
D03*
X9805000Y2986667D02*
D03*
Y3105000D02*
D03*
Y2868333D02*
D03*
Y2750000D02*
D03*
X8477500Y4415000D02*
D03*
X5587500Y4365000D02*
D03*
X7175000Y3057500D02*
D03*
X8390000Y3192500D02*
D03*
X8990000Y2967501D02*
D03*
X6657500Y4895000D02*
D03*
X6975000Y5302500D02*
D03*
X8387500Y4670000D02*
D03*
X8340000Y4207500D02*
D03*
X8470000D02*
D03*
X7300000Y3367500D02*
D03*
Y2767500D02*
D03*
X4432500Y3032500D02*
D03*
X4882501Y3660000D02*
D03*
X5630000Y3082500D02*
D03*
X5500000D02*
D03*
X6540000Y3667500D02*
D03*
X6410000D02*
D03*
X5810000D02*
D03*
X5680000D02*
D03*
X5900000Y3802500D02*
D03*
X6030000D02*
D03*
X6200000D02*
D03*
X6330000D02*
D03*
X6600000Y4077500D02*
D03*
X5562500Y4815000D02*
D03*
X5960000Y4867500D02*
D03*
X5657500Y5355000D02*
D03*
X5420000Y4737500D02*
D03*
X5170000Y4677500D02*
D03*
X4987500Y5195000D02*
D03*
X4987500Y4995000D02*
D03*
X4820000Y4782500D02*
D03*
X4432500Y4335000D02*
D03*
Y4465000D02*
D03*
X3395000Y3570000D02*
D03*
Y3700000D02*
D03*
X557500Y3922500D02*
D03*
X940000Y3922500D02*
D03*
X1477500Y3597500D02*
D03*
Y4610000D02*
D03*
X1652500Y3857500D02*
D03*
X3045000Y3712500D02*
D03*
X2915000D02*
D03*
X2242500Y3857500D02*
D03*
X2625000D02*
D03*
X2520000Y4497500D02*
D03*
X3060000Y4372500D02*
D03*
X3757500Y4012500D02*
D03*
X3730000Y4370000D02*
D03*
X3442500Y4470000D02*
D03*
X3530000Y4615000D02*
D03*
X3390000Y4550000D02*
D03*
X3135000Y4615000D02*
D03*
X3217500Y4537500D02*
D03*
X3295000Y4615000D02*
D03*
X7027500Y4840000D02*
D03*
X7020000Y4712500D02*
D03*
X7400000Y4762500D02*
D03*
X7520000Y4747500D02*
D03*
X7577500Y4657500D02*
D03*
X6375000Y4322500D02*
D03*
X7125000Y4245000D02*
D03*
X7015000D02*
D03*
X6905000D02*
D03*
X7125000Y4355000D02*
D03*
X7015000D02*
D03*
X6905000D02*
D03*
X7125000Y4465000D02*
D03*
X7015000D02*
D03*
X6905000D02*
D03*
X3425000Y4165000D02*
D03*
Y4055000D02*
D03*
X3315000Y4165000D02*
D03*
Y4055000D02*
D03*
%TF.MD5,1b00c23b542c5bd596061e6497f4b64e*%
M02*
