M48
;Layer_Color=9474304
;FILE_FORMAT=4:4
METRIC,LZ
;TYPE=PLATED
T01F00S00C0.3000
T02F00S00C0.7620
T03F00S00C0.8000
T04F00S00C0.9200
T05F00S00C2.3000
%
T01
X0095Y00025
Y0005
Y00075
Y001
Y00125
X00975
Y001
Y00075
Y0005
Y00025
X00925
Y0005
X009
X00875
X0085
X00825
X008
X00775
X0075
X00725
Y00075
X007
X00675
X0065
X00625
X006
X00575
X0055
Y001
Y00125
X00575
X006
X00625
X0065
X00675
X007
X00725
Y001
X007
X00675
X0065
X00625
X006
X00575
Y0005
X006
X00625
X0065
X00675
X007
Y00025
X00725
X0075
X00775
X008
X00825
X0085
X00875
X009
X00675
X0065
X00625
X006
X00575
X0055
Y0005
X00525
Y00075
X005
X00475
X0045
X00425
X004
X00375
X0035
X00325
X003
X00275
Y001
Y00125
X003
X00325
X0035
X00375
X004
X00425
X0045
X00475
X005
X00525
Y001
X005
X00475
X0045
X00425
X004
X00375
X0035
X00325
X003
Y0005
X00325
X0035
X00375
X004
X00425
X0045
X00475
X005
Y00025
X00525
X00475
X0045
X00425
X004
X00375
X0035
X00325
X003
X00275
Y0005
X0025
X00225
X002
X00175
X0015
Y00025
X00175
X002
X00225
X0025
X00125
Y0005
X001
X00075
X0005
Y00075
Y001
Y00125
X00025
Y001
Y00075
Y0005
Y00025
X0005
X00075
X001
Y002
Y00225
Y0025
Y00275
Y003
Y00325
X00075
Y003
Y00275
Y0025
Y00225
Y002
X0005
Y00175
Y0015
X00025
Y00175
Y002
Y00225
X0005
Y0025
Y00275
Y003
Y00325
X00025
Y003
Y00275
Y0025
X00125
Y00275
Y003
Y00325
X00115Y00345
Y00355
Y00365
Y00375
Y003825
Y0039
X0011575Y0039775
X0010575
X00105Y0039
Y003825
X00095
X00085
Y0039
X0008575Y0039775
X0007575
X00075Y0039
Y003825
X00065
Y0039
X0006575Y0039775
X0005575Y0039225
X00055Y003825
Y0042
Y004275
Y00435
X00065
Y004275
Y0042
X00075
Y004275
Y00435
X00085
Y004275
Y0042
X00095
Y004275
Y00435
Y00445
Y00465
X001Y00475
X00115Y0047
Y0046
Y004525
Y004425
Y00435
Y004275
Y0042
X00105
Y004275
Y00435
X0014Y004325
Y0044
Y0045
Y004225
Y003925
Y00385
Y003775
Y003675
X00095Y0037
Y0035
X00094Y0039225
X0002425Y003662
Y004538
X00025Y00475
X0005
X00075
Y005
X001
X00095Y0049
Y0051
X00115
X00135
X00125Y005
X001275Y00485
X001375
X00125Y00525
X001
X00075
X0005
Y005
X00025
Y00525
X00125Y00225
Y002
X0015
Y00225
Y0025
Y00275
Y003
Y00325
X0014775Y0035975
X0015Y003675
Y003775
Y00385
Y003925
X0016525Y003935
Y0038575
X00175Y00385
X0017525Y003935
X0018525
X00185Y00385
Y00375
Y00365
X00195
X00205
X00215
X00225
Y00375
X00215
Y00385
X0021525Y003935
X0020525
X00205Y00385
Y00375
X00195
X00195Y00385
X0019525Y003935
X00195Y00415
Y004225
X00205
Y00415
X00215
Y004225
X00225
Y00415
X0022Y0044
Y0045
X0021
Y0044
X002
Y0045
X0019
Y0044
X0018
X0017
Y0045
X0018
X001775Y0046
X001875
X001975
X002075
X002175
X002275
X002375
X002475
X002575
X002675
Y004525
Y004425
X002775
Y004525
Y0046
X002875
X00303Y004595
X003135Y004615
X0032175Y0045375
X003295Y004615
X00339Y00455
X0034425Y00447
X0034275Y0046575
X00353Y004615
X0035Y005
X0034Y0051
X0032
X00325Y005
X003275Y00485
X003175
X003075
X002975
X002875
X002775
X002675
X002575
X002475
X002375
X002275
X002175
X002075
X001975
X001875
X001775
X001675
X001575
X001475
X0015Y005
Y0051
Y00525
X00175
X0018Y0051
X00175Y005
X002
Y0051
Y00525
X00225
X0023Y0051
X00245
X0025Y005
X00275
Y0051
Y00525
X003
X00295Y0051
X003Y005
X00325Y00525
X0035
X00375
X0037Y0051
X00385
X00375Y005
X004
X00405Y0051
X00425
Y005
Y0049
X00443Y004865
X004755Y004875
X00482Y0047825
X0049875Y004995
X0049875Y005195
X00509Y0052
X00517Y0046775
X0044325Y004465
Y004335
X00373Y00437
X0037575Y0040125
X003425Y004055
X00337Y00411
X003425Y004165
X003315
Y004055
X003395Y0037
Y00357
X0034Y003425
Y00325
X00305Y00305
X00285
X00255
X00235
X00215
X002Y00325
X00175Y003
Y00275
X002
Y0025
X00175
Y00225
X002
Y002
X00175
X00225
Y00225
Y0025
X0025Y00275
X00275
X003
X00325
X0035
X00375
X004
X00425
X0045
X00475
X005
Y00292
Y00305
X005125Y002845
X00525Y00275
X00538Y00285
X00525Y00225
X005
X00475
X0045
X00425
X004
X00375
X0035
X00325
X003
X00275
X0025
Y002
X00275
Y00175
X003
X00325
X0035
X00375
X004
X00425
X0045
X00475
X005
X00525
Y002
X005
X00475
X0045
X00425
X004
X00375
X0035
X00325
X003
Y0015
X00275
X00325
X0035
X00375
X004
X00425
X0045
X00475
X005
X00525
X0044325Y0030325
X00435Y00345
Y0036
X00425Y00365
Y0035
X00415Y00345
Y0036
X003975Y003675
X00415Y0033
X004525Y00345
Y0036
X0048825Y00366
X00305Y003625
X003045Y0037125
X002915
X00295Y003625
X00285
X00275
X00265
X00255
X00245
X002375Y00365
Y00375
Y00385
Y003925
X002475
Y00385
X0025Y003775
Y0037
X0026
X0026Y003775
X0027
Y0037
X0028
Y003775
X002625Y0038575
X0026Y004175
X0027
X00252Y0044975
X0024Y0045
Y0044
X0023
Y0045
X00225Y005
X0025Y00525
X00306Y0043725
X0022425Y0038575
X00175Y00375
Y00365
X00165
Y00375
Y00415
Y004225
X00175
Y00415
X00185
Y004225
X0016Y0044
Y0045
X0015
Y0044
X0014775Y00461
X001575Y0046
X001675
X004Y00525
X00425
X0056575Y005355
X00599Y005315
Y0051625
X00596Y0048675
X00573736Y00464986
X0055625Y004815
X00542Y0047375
X0055875Y004365
X00568Y0036675
X00581
X0059Y0038025
X00603
X0062
X00633
X00641Y0036675
X00654
X00676Y0037025
X00685Y0038375
X006965
X0070825
X0072025
X0073775Y003855
X0073925Y00428
X00759Y00418
X0075775Y0046575
X00752Y0047475
X0074Y0047625
X00702Y0047125
X0070275Y00484
X007015Y004465
Y004355
Y004245
X007125
Y004355
Y004465
X006905
Y004355
Y004245
X0068125Y0040125
X006695Y0039725
X00654Y0039575
X0066Y0040775
X006375Y0043225
X006475Y00454
X0066575Y004895
X006975Y0053025
X00825Y00525
Y005
X0085
X00875
Y00525
X0085
X0083875Y00467
X0084775Y004415
X00847Y0042075
X00834
X00839Y0031925
X008805Y0030375
X00899Y0029675
X00916Y0031225
X0073825Y003005
X007175Y0030575
X0073Y0027675
X007Y00275
X0069275Y0025875
X006815Y002585
X007Y0025
X00725
X0075
X00725Y002
Y00175
X007
X00675
X0065
X00625
X006
X00575
X0055
Y002
Y00225
X00575
X006
X00625
X0065
Y002
X00625
X006
X00575
Y0015
X0055
X006
X00625
X0065
X00675
X007
X00725
X007Y002
X00675
X0065Y00275
X00625
X006
X00575
X00563Y00285
X005625Y00295
X005495
X0055Y00285
Y00275
X0055Y0030825
X00563
X0061725Y00359
X006425Y00335
X00654333
X00666167
X0073Y0033675
X00925Y00525
X0095
Y005
Y00475
Y0045
Y00425
X00975
Y0045
Y00475
Y005
Y00525
X009805Y003105
Y00298667
Y00286833
Y00275
X00975Y002
X0095
Y00175
Y0015
X00975
Y00175
T02
X0069485Y0036625
X0072025
X0063625Y0050485
Y0053025
T03
X0074Y005295
X0076
X0078
X008
T04
X00881Y00407
Y00432
Y00452
Y00477
T05
X009081Y003763
Y005077
M30
